<svg width="340" height="304" viewBox="0 0 340 304" fill="none" xmlns="http://www.w3.org/2000/svg">
<mask id="path-1-inside-1_10939_76903" fill="white">
<path d="M16 29.6606C23.46 29.6606 29.6606 23.4732 29.6606 16C29.6606 8.54005 23.4463 2.33948 15.9863 2.33948C8.51374 2.33948 2.34003 8.54005 2.34003 16C2.34003 23.4732 8.52688 29.6606 16 29.6606ZM16.0006 27.384C9.67831 27.384 4.6286 22.3212 4.6286 16C4.6286 9.69148 9.6646 4.61605 15.9863 4.61605C22.2943 4.61605 27.3697 9.69205 27.3835 16C27.3966 22.3218 22.3075 27.384 15.9995 27.384M15.9863 9.57148C16.696 9.57148 17.2983 8.96862 17.2983 8.25891C17.2983 7.52233 16.696 6.93319 15.9863 6.93319C15.2492 6.93319 14.6737 7.52233 14.6737 8.25891C14.6742 8.60688 14.8126 8.94048 15.0587 9.18653C15.3047 9.43259 15.6383 9.57102 15.9863 9.57148ZM10.5349 11.9286C11.272 11.9286 11.8606 11.3258 11.8606 10.616C11.8606 9.87948 11.272 9.30348 10.5349 9.30348C10.1869 9.30393 9.85331 9.44237 9.60726 9.68842C9.3612 9.93448 9.22277 10.2681 9.22231 10.616C9.22231 11.3258 9.82517 11.9286 10.5349 11.9286ZM21.4235 11.9286C22.1332 11.9286 22.736 11.3258 22.736 10.616C22.7356 10.2681 22.5971 9.93448 22.3511 9.68842C22.105 9.44237 21.7714 9.30393 21.4235 9.30348C21.2509 9.30264 21.0798 9.33603 20.9202 9.40169C20.7605 9.46736 20.6155 9.56401 20.4935 9.68606C20.3714 9.80811 20.2748 9.95314 20.2091 10.1128C20.1434 10.2724 20.1101 10.4434 20.1109 10.616C20.1109 11.3258 20.7006 11.9286 21.4235 11.9286ZM15.9863 17.3932C16.736 17.3932 17.3789 16.7635 17.3789 16C17.3789 15.92 17.3652 15.8526 17.352 15.7726L19.4286 13.1743C19.616 12.9195 19.656 12.6115 19.4286 12.424C19.2543 12.2498 18.9332 12.2235 18.7052 12.424L16.2006 14.6338C16.1304 14.6181 16.0588 14.6091 15.9869 14.6069C15.8039 14.6068 15.6227 14.6427 15.4536 14.7126C15.2845 14.7826 15.1308 14.8852 15.0014 15.0146C14.8721 15.144 14.7694 15.2976 14.6995 15.4667C14.6295 15.6358 14.5936 15.8171 14.5937 16C14.5936 16.183 14.6295 16.3643 14.6995 16.5334C14.7694 16.7024 14.8721 16.8561 15.0014 16.9855C15.1308 17.1149 15.2845 17.2175 15.4536 17.2875C15.6227 17.3574 15.8033 17.3933 15.9863 17.3932ZM8.2726 17.3126C8.44515 17.3134 8.61615 17.2799 8.77571 17.2142C8.93526 17.1485 9.08022 17.0519 9.20221 16.9298C9.3242 16.8078 9.4208 16.6628 9.48644 16.5032C9.55207 16.3436 9.58543 16.1726 9.5846 16C9.58543 15.8275 9.55207 15.6565 9.48644 15.4969C9.4208 15.3373 9.3242 15.1923 9.20221 15.0703C9.08022 14.9482 8.93526 14.8516 8.77571 14.7859C8.61615 14.7202 8.44515 14.6867 8.2726 14.6875C7.56231 14.6875 6.96003 15.2766 6.96003 16C6.96003 16.7235 7.56231 17.3126 8.2726 17.3126ZM23.6875 17.3126C24.0354 17.3122 24.369 17.1737 24.6151 16.9277C24.8611 16.6816 24.9996 16.348 25 16C24.9996 15.6521 24.8611 15.3185 24.6151 15.0724C24.369 14.8264 24.0354 14.6879 23.6875 14.6875C23.3395 14.6879 23.0059 14.8264 22.7598 15.0724C22.5138 15.3185 22.3753 15.6521 22.3749 16C22.3753 16.348 22.5138 16.6816 22.7598 16.9277C23.0059 17.1737 23.3395 17.3122 23.6875 17.3126ZM10.5623 22.7098C10.9136 22.7089 11.2503 22.5689 11.4987 22.3205C11.7472 22.072 11.8871 21.7354 11.888 21.3841C11.8874 21.2108 11.8525 21.0393 11.7855 20.8795C11.7185 20.7197 11.6206 20.5747 11.4974 20.4528C11.3743 20.3309 11.2283 20.2344 11.0679 20.169C10.9074 20.1036 10.7356 20.0704 10.5623 20.0715C9.8526 20.0715 9.24974 20.6606 9.24974 21.3841C9.24974 22.1075 9.8526 22.7098 10.5623 22.7098ZM21.3972 22.7098C22.1069 22.7098 22.7097 22.1075 22.7097 21.3841C22.7097 20.6606 22.1069 20.0715 21.3972 20.0715C21.0492 20.0719 20.7156 20.2104 20.4695 20.4564C20.2235 20.7025 20.0851 21.0361 20.0846 21.3841C20.0846 22.1075 20.6743 22.7098 21.3972 22.7098Z"/>
</mask>
<path d="M16 29.6606C23.46 29.6606 29.6606 23.4732 29.6606 16C29.6606 8.54005 23.4463 2.33948 15.9863 2.33948C8.51374 2.33948 2.34003 8.54005 2.34003 16C2.34003 23.4732 8.52688 29.6606 16 29.6606ZM16.0006 27.384C9.67831 27.384 4.6286 22.3212 4.6286 16C4.6286 9.69148 9.6646 4.61605 15.9863 4.61605C22.2943 4.61605 27.3697 9.69205 27.3835 16C27.3966 22.3218 22.3075 27.384 15.9995 27.384M15.9863 9.57148C16.696 9.57148 17.2983 8.96862 17.2983 8.25891C17.2983 7.52233 16.696 6.93319 15.9863 6.93319C15.2492 6.93319 14.6737 7.52233 14.6737 8.25891C14.6742 8.60688 14.8126 8.94048 15.0587 9.18653C15.3047 9.43259 15.6383 9.57102 15.9863 9.57148ZM10.5349 11.9286C11.272 11.9286 11.8606 11.3258 11.8606 10.616C11.8606 9.87948 11.272 9.30348 10.5349 9.30348C10.1869 9.30393 9.85331 9.44237 9.60726 9.68842C9.3612 9.93448 9.22277 10.2681 9.22231 10.616C9.22231 11.3258 9.82517 11.9286 10.5349 11.9286ZM21.4235 11.9286C22.1332 11.9286 22.736 11.3258 22.736 10.616C22.7356 10.2681 22.5971 9.93448 22.3511 9.68842C22.105 9.44237 21.7714 9.30393 21.4235 9.30348C21.2509 9.30264 21.0798 9.33603 20.9202 9.40169C20.7605 9.46736 20.6155 9.56401 20.4935 9.68606C20.3714 9.80811 20.2748 9.95314 20.2091 10.1128C20.1434 10.2724 20.1101 10.4434 20.1109 10.616C20.1109 11.3258 20.7006 11.9286 21.4235 11.9286ZM15.9863 17.3932C16.736 17.3932 17.3789 16.7635 17.3789 16C17.3789 15.92 17.3652 15.8526 17.352 15.7726L19.4286 13.1743C19.616 12.9195 19.656 12.6115 19.4286 12.424C19.2543 12.2498 18.9332 12.2235 18.7052 12.424L16.2006 14.6338C16.1304 14.6181 16.0588 14.6091 15.9869 14.6069C15.8039 14.6068 15.6227 14.6427 15.4536 14.7126C15.2845 14.7826 15.1308 14.8852 15.0014 15.0146C14.8721 15.144 14.7694 15.2976 14.6995 15.4667C14.6295 15.6358 14.5936 15.8171 14.5937 16C14.5936 16.183 14.6295 16.3643 14.6995 16.5334C14.7694 16.7024 14.8721 16.8561 15.0014 16.9855C15.1308 17.1149 15.2845 17.2175 15.4536 17.2875C15.6227 17.3574 15.8033 17.3933 15.9863 17.3932ZM8.2726 17.3126C8.44515 17.3134 8.61615 17.2799 8.77571 17.2142C8.93526 17.1485 9.08022 17.0519 9.20221 16.9298C9.3242 16.8078 9.4208 16.6628 9.48644 16.5032C9.55207 16.3436 9.58543 16.1726 9.5846 16C9.58543 15.8275 9.55207 15.6565 9.48644 15.4969C9.4208 15.3373 9.3242 15.1923 9.20221 15.0703C9.08022 14.9482 8.93526 14.8516 8.77571 14.7859C8.61615 14.7202 8.44515 14.6867 8.2726 14.6875C7.56231 14.6875 6.96003 15.2766 6.96003 16C6.96003 16.7235 7.56231 17.3126 8.2726 17.3126ZM23.6875 17.3126C24.0354 17.3122 24.369 17.1737 24.6151 16.9277C24.8611 16.6816 24.9996 16.348 25 16C24.9996 15.6521 24.8611 15.3185 24.6151 15.0724C24.369 14.8264 24.0354 14.6879 23.6875 14.6875C23.3395 14.6879 23.0059 14.8264 22.7598 15.0724C22.5138 15.3185 22.3753 15.6521 22.3749 16C22.3753 16.348 22.5138 16.6816 22.7598 16.9277C23.0059 17.1737 23.3395 17.3122 23.6875 17.3126ZM10.5623 22.7098C10.9136 22.7089 11.2503 22.5689 11.4987 22.3205C11.7472 22.072 11.8871 21.7354 11.888 21.3841C11.8874 21.2108 11.8525 21.0393 11.7855 20.8795C11.7185 20.7197 11.6206 20.5747 11.4974 20.4528C11.3743 20.3309 11.2283 20.2344 11.0679 20.169C10.9074 20.1036 10.7356 20.0704 10.5623 20.0715C9.8526 20.0715 9.24974 20.6606 9.24974 21.3841C9.24974 22.1075 9.8526 22.7098 10.5623 22.7098ZM21.3972 22.7098C22.1069 22.7098 22.7097 22.1075 22.7097 21.3841C22.7097 20.6606 22.1069 20.0715 21.3972 20.0715C21.0492 20.0719 20.7156 20.2104 20.4695 20.4564C20.2235 20.7025 20.0851 21.0361 20.0846 21.3841C20.0846 22.1075 20.6743 22.7098 21.3972 22.7098Z" fill="#CAAEFF"/>
<path d="M27.3835 16L27.6835 15.9994V15.9994L27.3835 16ZM15.9863 9.57148L15.9859 9.87148H15.9863V9.57148ZM14.6737 8.25891H14.3737L14.3737 8.2593L14.6737 8.25891ZM10.5349 9.30348V9.00348L10.5345 9.00348L10.5349 9.30348ZM9.22231 10.616L8.92231 10.6157V10.616H9.22231ZM22.736 10.616H23.036V10.6157L22.736 10.616ZM21.4235 9.30348L21.422 9.60348L21.4231 9.60348L21.4235 9.30348ZM20.1109 10.616H20.4109L20.4109 10.6146L20.1109 10.616ZM15.9863 17.3932V17.0932H15.9861L15.9863 17.3932ZM17.352 15.7726L17.1177 15.5853L17.0344 15.6896L17.056 15.8213L17.352 15.7726ZM19.4286 13.1743L19.6631 13.3618L19.6703 13.3521L19.4286 13.1743ZM19.4286 12.424L19.2165 12.6362L19.2267 12.6464L19.2378 12.6556L19.4286 12.424ZM18.7052 12.424L18.507 12.1988L18.5067 12.1991L18.7052 12.424ZM16.2006 14.6338L16.1353 14.9266L16.2845 14.9598L16.3991 14.8587L16.2006 14.6338ZM15.9869 14.6069L15.9961 14.3069L15.9871 14.3069L15.9869 14.6069ZM14.5937 16L14.8937 16.0003L14.8937 15.9998L14.5937 16ZM8.2726 17.3126L8.27391 17.0126H8.2726V17.3126ZM9.5846 16L9.28459 15.9986L9.2846 16.0015L9.5846 16ZM8.2726 14.6875V14.9875L8.27391 14.9875L8.2726 14.6875ZM23.6875 17.3126L23.6871 17.6126L23.6878 17.6126L23.6875 17.3126ZM25 16L25.3 16.0004V15.9997L25 16ZM23.6875 14.6875L23.6878 14.3875L23.6871 14.3875L23.6875 14.6875ZM22.3749 16L22.0749 15.9997V16.0004L22.3749 16ZM10.5623 22.7098V23.0098L10.5631 23.0098L10.5623 22.7098ZM11.888 21.3841L12.188 21.3848L12.188 21.3829L11.888 21.3841ZM10.5623 20.0715V20.3715L10.5641 20.3715L10.5623 20.0715ZM21.3972 20.0715V19.7715H21.3968L21.3972 20.0715ZM20.0846 21.3841L19.7846 21.3837V21.3841H20.0846ZM16 29.9606C23.6255 29.9606 29.9606 23.6391 29.9606 16H29.3606C29.3606 23.3073 23.2945 29.3606 16 29.3606V29.9606ZM29.9606 16C29.9606 8.37397 23.6116 2.03948 15.9863 2.03948V2.63948C23.281 2.63948 29.3606 8.70612 29.3606 16H29.9606ZM15.9863 2.03948C8.34747 2.03948 2.04003 8.37495 2.04003 16H2.64003C2.64003 8.70515 8.68001 2.63948 15.9863 2.63948V2.03948ZM2.04003 16C2.04003 23.6389 8.36118 29.9606 16 29.9606V29.3606C8.69259 29.3606 2.64003 23.3075 2.64003 16H2.04003ZM16.0006 27.084C9.84443 27.084 4.9286 22.1559 4.9286 16H4.3286C4.3286 22.4864 9.5122 27.684 16.0006 27.684V27.084ZM4.9286 16C4.9286 9.85603 9.83141 4.91605 15.9863 4.91605V4.31605C9.49778 4.31605 4.3286 9.52692 4.3286 16H4.9286ZM15.9863 4.91605C22.1285 4.91605 27.0701 9.85773 27.0835 16.0007L27.6835 15.9994C27.6694 9.52636 22.4601 4.31605 15.9863 4.31605V4.91605ZM27.0835 16.0007C27.0963 22.1554 22.1426 27.084 15.9995 27.084V27.684C22.4723 27.684 27.6969 22.4881 27.6835 15.9994L27.0835 16.0007ZM15.9863 9.87148C16.8619 9.87148 17.5983 9.13414 17.5983 8.25891H16.9983C16.9983 8.8031 16.5302 9.27148 15.9863 9.27148V9.87148ZM17.5983 8.25891C17.5983 7.35673 16.8618 6.63319 15.9863 6.63319V7.23319C16.5303 7.23319 16.9983 7.68794 16.9983 8.25891H17.5983ZM15.9863 6.63319C15.0795 6.63319 14.3737 7.36066 14.3737 8.25891H14.9737C14.9737 7.68401 15.4188 7.23319 15.9863 7.23319V6.63319ZM14.3737 8.2593C14.3743 8.6867 14.5443 9.09644 14.8466 9.39866L15.2708 8.9744C15.0809 8.78451 14.9741 8.52706 14.9737 8.25851L14.3737 8.2593ZM14.8466 9.39866C15.1488 9.70089 15.5585 9.87092 15.9859 9.87148L15.9867 9.27148C15.7182 9.27113 15.4607 9.16429 15.2708 8.9744L14.8466 9.39866ZM10.5349 12.2286C11.4379 12.2286 12.1606 11.4913 12.1606 10.616H11.5606C11.5606 11.1602 11.1062 11.6286 10.5349 11.6286V12.2286ZM12.1606 10.616C12.1606 9.70998 11.4339 9.00348 10.5349 9.00348V9.60348C11.1102 9.60348 11.5606 10.049 11.5606 10.616H12.1606ZM10.5345 9.00348C10.1071 9.00403 9.69735 9.17407 9.39513 9.47629L9.81939 9.90055C10.0093 9.71066 10.2667 9.60383 10.5353 9.60348L10.5345 9.00348ZM9.39513 9.47629C9.0929 9.77851 8.92287 10.1883 8.92231 10.6157L9.52231 10.6164C9.52266 10.3479 9.6295 10.0904 9.81939 9.90055L9.39513 9.47629ZM8.92231 10.616C8.92231 11.4914 9.65949 12.2286 10.5349 12.2286V11.6286C9.99086 11.6286 9.52231 11.1601 9.52231 10.616H8.92231ZM21.4235 12.2286C22.2989 12.2286 23.036 11.4914 23.036 10.616H22.436C22.436 11.1601 21.9675 11.6286 21.4235 11.6286V12.2286ZM23.036 10.6157C23.0355 10.1883 22.8654 9.77851 22.5632 9.47629L22.139 9.90055C22.3288 10.0904 22.4357 10.3479 22.436 10.6164L23.036 10.6157ZM22.5632 9.47629C22.261 9.17407 21.8513 9.00403 21.4238 9.00348L21.4231 9.60348C21.6916 9.60383 21.9491 9.71066 22.139 9.90055L22.5632 9.47629ZM21.4249 9.00348C21.2127 9.00246 21.0023 9.04351 20.806 9.12425L21.0343 9.67913C21.1573 9.62855 21.289 9.60283 21.422 9.60347L21.4249 9.00348ZM20.806 9.12425C20.6098 9.205 20.4314 9.32385 20.2813 9.47393L20.7056 9.8982C20.7996 9.80418 20.9113 9.72972 21.0343 9.67913L20.806 9.12425ZM20.2813 9.47393C20.1313 9.62401 20.0124 9.80235 19.9317 9.99863L20.4865 10.2269C20.5371 10.1039 20.6116 9.99222 20.7056 9.8982L20.2813 9.47393ZM19.9317 9.99863C19.8509 10.1949 19.8099 10.4053 19.8109 10.6175L20.4109 10.6146C20.4102 10.4816 20.436 10.3499 20.4865 10.2269L19.9317 9.99863ZM19.8109 10.616C19.8109 11.4895 20.533 12.2286 21.4235 12.2286V11.6286C20.8682 11.6286 20.4109 11.162 20.4109 10.616H19.8109ZM15.9863 17.6932C16.9 17.6932 17.6789 16.9309 17.6789 16H17.0789C17.0789 16.596 16.5721 17.0932 15.9863 17.0932V17.6932ZM17.6789 16C17.6789 15.8891 17.659 15.7907 17.6481 15.724L17.056 15.8213C17.0713 15.9145 17.0789 15.951 17.0789 16H17.6789ZM17.5864 15.9599L19.663 13.3616L19.1942 12.987L17.1177 15.5853L17.5864 15.9599ZM19.6703 13.3521C19.7896 13.1899 19.8761 12.9925 19.884 12.7852C19.8922 12.5676 19.8114 12.3508 19.6194 12.1925L19.2378 12.6556C19.2732 12.6847 19.2862 12.7156 19.2844 12.7626C19.2822 12.8199 19.2551 12.9039 19.1869 12.9966L19.6703 13.3521ZM19.6407 12.2119C19.3519 11.9231 18.851 11.8962 18.507 12.1988L18.9033 12.6493C19.0153 12.5508 19.1567 12.5764 19.2165 12.6362L19.6407 12.2119ZM18.5067 12.1991L16.0021 14.4088L16.3991 14.8587L18.9036 12.649L18.5067 12.1991ZM16.2659 14.341C16.1772 14.3212 16.0869 14.3098 15.9961 14.307L15.9777 14.9068C16.0307 14.9084 16.0835 14.915 16.1353 14.9266L16.2659 14.341ZM15.9871 14.3069C15.7647 14.3067 15.5444 14.3504 15.3389 14.4354L15.5683 14.9899C15.7009 14.935 15.8431 14.9068 15.9866 14.9069L15.9871 14.3069ZM15.3389 14.4354C15.1333 14.5205 14.9466 14.6452 14.7893 14.8025L15.2136 15.2267C15.3151 15.1252 15.4356 15.0447 15.5683 14.9899L15.3389 14.4354ZM14.7893 14.8025C14.632 14.9598 14.5073 15.1465 14.4223 15.352L14.9767 15.5814C15.0316 15.4488 15.1121 15.3283 15.2136 15.2267L14.7893 14.8025ZM14.4223 15.352C14.3372 15.5576 14.2936 15.7779 14.2937 16.0003L14.8937 15.9998C14.8936 15.8562 14.9218 15.7141 14.9767 15.5814L14.4223 15.352ZM14.2937 15.9998C14.2936 16.2222 14.3372 16.4425 14.4223 16.648L14.9767 16.4187C14.9218 16.286 14.8936 16.1438 14.8937 16.0003L14.2937 15.9998ZM14.4223 16.648C14.5073 16.8536 14.632 17.0403 14.7893 17.1976L15.2136 16.7734C15.1121 16.6718 15.0316 16.5513 14.9767 16.4187L14.4223 16.648ZM14.7893 17.1976C14.9466 17.3549 15.1333 17.4796 15.3389 17.5647L15.5683 17.0102C15.4356 16.9554 15.3151 16.8749 15.2136 16.7734L14.7893 17.1976ZM15.3389 17.5647C15.5443 17.6497 15.764 17.6934 15.9866 17.6932L15.9861 17.0932C15.8426 17.0933 15.701 17.0652 15.5683 17.0102L15.3389 17.5647ZM8.27128 17.6126C8.48347 17.6135 8.69373 17.5724 8.88993 17.4916L8.66148 16.9368C8.53856 16.9874 8.40684 17.0132 8.27391 17.0126L8.27128 17.6126ZM8.88993 17.4916C9.08613 17.4108 9.26439 17.292 9.41439 17.1419L8.99004 16.7177C8.89606 16.8118 8.78439 16.8862 8.66148 16.9368L8.88993 17.4916ZM9.41439 17.1419C9.5644 16.9918 9.68318 16.8135 9.76389 16.6173L9.20898 16.3891C9.15842 16.512 9.08401 16.6237 8.99004 16.7177L9.41439 17.1419ZM9.76389 16.6173C9.84459 16.4211 9.88562 16.2108 9.8846 15.9986L9.2846 16.0015C9.28524 16.1344 9.25954 16.2662 9.20898 16.3891L9.76389 16.6173ZM9.8846 16.0015C9.88562 15.7893 9.84459 15.579 9.76389 15.3828L9.20898 15.611C9.25954 15.7339 9.28524 15.8657 9.2846 15.9986L9.8846 16.0015ZM9.76389 15.3828C9.68318 15.1866 9.5644 15.0083 9.41439 14.8582L8.99004 15.2824C9.08401 15.3764 9.15842 15.4881 9.20898 15.611L9.76389 15.3828ZM9.41439 14.8582C9.26439 14.7081 9.08613 14.5892 8.88993 14.5085L8.66148 15.0633C8.78439 15.1139 8.89606 15.1883 8.99004 15.2824L9.41439 14.8582ZM8.88993 14.5085C8.69373 14.4277 8.48347 14.3865 8.27128 14.3875L8.27391 14.9875C8.40684 14.9869 8.53856 15.0126 8.66148 15.0633L8.88993 14.5085ZM8.2726 14.3875C7.39858 14.3875 6.66003 15.109 6.66003 16H7.26003C7.26003 15.4442 7.72605 14.9875 8.2726 14.9875V14.3875ZM6.66003 16C6.66003 16.8911 7.39858 17.6126 8.2726 17.6126V17.0126C7.72605 17.0126 7.26003 16.5558 7.26003 16H6.66003ZM23.6878 17.6126C24.1153 17.6121 24.525 17.442 24.8272 17.1398L24.403 16.7155C24.2131 16.9054 23.9556 17.0123 23.6871 17.0126L23.6878 17.6126ZM24.8272 17.1398C25.1294 16.8376 25.2995 16.4278 25.3 16.0004L24.7 15.9997C24.6997 16.2682 24.5928 16.5257 24.403 16.7155L24.8272 17.1398ZM25.3 15.9997C25.2995 15.5723 25.1294 15.1625 24.8272 14.8603L24.403 15.2846C24.5928 15.4744 24.6997 15.7319 24.7 16.0004L25.3 15.9997ZM24.8272 14.8603C24.525 14.5581 24.1153 14.388 23.6878 14.3875L23.6871 14.9875C23.9556 14.9878 24.2131 15.0947 24.403 15.2846L24.8272 14.8603ZM23.6871 14.3875C23.2597 14.388 22.8499 14.5581 22.5477 14.8603L22.972 15.2846C23.1619 15.0947 23.4193 14.9878 23.6878 14.9875L23.6871 14.3875ZM22.5477 14.8603C22.2455 15.1625 22.0754 15.5723 22.0749 15.9997L22.6749 16.0004C22.6752 15.7319 22.7821 15.4744 22.972 15.2846L22.5477 14.8603ZM22.0749 16.0004C22.0754 16.4278 22.2455 16.8376 22.5477 17.1398L22.972 16.7155C22.7821 16.5257 22.6752 16.2682 22.6749 15.9997L22.0749 16.0004ZM22.5477 17.1398C22.8499 17.442 23.2597 17.6121 23.6871 17.6126L23.6878 17.0126C23.4193 17.0123 23.1619 16.9054 22.972 16.7155L22.5477 17.1398ZM10.5631 23.0098C10.9937 23.0087 11.4064 22.8371 11.7109 22.5326L11.2866 22.1083C11.0942 22.3007 10.8336 22.4091 10.5615 22.4098L10.5631 23.0098ZM11.7109 22.5326C12.0154 22.2281 12.1869 21.8154 12.188 21.3848L11.588 21.3833C11.5873 21.6553 11.479 21.916 11.2866 22.1083L11.7109 22.5326ZM12.188 21.3829C12.1872 21.1701 12.1444 20.9597 12.0621 20.7635L11.5088 20.9955C11.5606 21.119 11.5875 21.2514 11.588 21.3852L12.188 21.3829ZM12.0621 20.7635C11.9799 20.5673 11.8597 20.3893 11.7085 20.2396L11.2864 20.666C11.3815 20.7601 11.4571 20.8721 11.5088 20.9955L12.0621 20.7635ZM11.7085 20.2396C11.5573 20.0899 11.3781 19.9715 11.1811 19.8912L10.9546 20.4468C11.0785 20.4973 11.1913 20.5718 11.2864 20.666L11.7085 20.2396ZM11.1811 19.8912C10.9841 19.8109 10.7732 19.7702 10.5605 19.7715L10.5641 20.3715C10.698 20.3707 10.8307 20.3962 10.9546 20.4468L11.1811 19.8912ZM10.5623 19.7715C9.68895 19.7715 8.94974 20.4929 8.94974 21.3841H9.54974C9.54974 20.8283 10.0162 20.3715 10.5623 20.3715V19.7715ZM8.94974 21.3841C8.94974 22.2713 9.68507 23.0098 10.5623 23.0098V22.4098C10.0201 22.4098 9.54974 21.9436 9.54974 21.3841H8.94974ZM21.3972 23.0098C22.2744 23.0098 23.0097 22.2713 23.0097 21.3841H22.4097C22.4097 21.9436 21.9394 22.4098 21.3972 22.4098V23.0098ZM23.0097 21.3841C23.0097 20.4929 22.2705 19.7715 21.3972 19.7715V20.3715C21.9432 20.3715 22.4097 20.8283 22.4097 21.3841H23.0097ZM21.3968 19.7715C20.9694 19.772 20.5596 19.9421 20.2574 20.2443L20.6817 20.6686C20.8716 20.4787 21.129 20.3718 21.3976 20.3715L21.3968 19.7715ZM20.2574 20.2443C19.9552 20.5465 19.7852 20.9563 19.7846 21.3837L20.3846 21.3844C20.3849 21.1159 20.4918 20.8584 20.6817 20.6686L20.2574 20.2443ZM19.7846 21.3841C19.7846 22.2694 20.5048 23.0098 21.3972 23.0098V22.4098C20.8438 22.4098 20.3846 21.9456 20.3846 21.3841H19.7846Z" fill="white" mask="url(#path-1-inside-1_10939_76903)"/>
<path d="M2.928 86H0.216L6.48 69.92H10.2L16.464 86H13.656L12.024 81.824H4.56L2.928 86ZM7.152 75.248L5.472 79.496H11.112L9.432 75.248L8.4 72.272H8.208L7.152 75.248ZM22.6262 86.264C18.9062 86.264 16.7942 83.744 16.7942 80.048C16.7942 76.328 18.9782 73.832 22.7222 73.832C25.8662 73.832 28.0262 75.776 28.0262 78.632V78.848H25.4582V78.704C25.4582 76.952 24.5462 76.16 22.5542 76.16C20.2502 76.16 19.3622 77.456 19.3622 80.048C19.3622 82.64 20.2502 83.912 22.5542 83.912C24.5462 83.912 25.4582 83.144 25.4582 81.392V81.248H28.0262V81.464C28.0262 84.296 25.8422 86.264 22.6262 86.264ZM35.2065 86.264C31.4865 86.264 29.3745 83.744 29.3745 80.048C29.3745 76.328 31.5585 73.832 35.3025 73.832C38.4465 73.832 40.6065 75.776 40.6065 78.632V78.848H38.0385V78.704C38.0385 76.952 37.1265 76.16 35.1345 76.16C32.8305 76.16 31.9425 77.456 31.9425 80.048C31.9425 82.64 32.8305 83.912 35.1345 83.912C37.1265 83.912 38.0385 83.144 38.0385 81.392V81.248H40.6065V81.464C40.6065 84.296 38.4225 86.264 35.2065 86.264ZM47.7388 86.24C43.8028 86.24 41.9548 83.744 41.9548 80.024C41.9548 76.328 44.1628 73.832 47.7148 73.832C50.9308 73.832 53.1868 75.752 53.1868 79.016C53.1868 79.64 53.1148 80.288 53.0428 80.648H44.3788C44.4748 82.832 45.2668 83.936 47.7628 83.936C49.7548 83.936 50.5228 83.264 50.5228 82.184V81.992H53.0908V82.208C53.0908 84.656 50.9548 86.24 47.7388 86.24ZM47.6668 76.016C45.4108 76.016 44.5468 77.072 44.4028 78.92H50.7148C50.8108 76.88 49.7068 76.016 47.6668 76.016ZM57.6306 86H55.0386V69.92H57.6306V86ZM65.1416 86.24C61.2056 86.24 59.3576 83.744 59.3576 80.024C59.3576 76.328 61.5656 73.832 65.1176 73.832C68.3336 73.832 70.5896 75.752 70.5896 79.016C70.5896 79.64 70.5176 80.288 70.4456 80.648H61.7816C61.8776 82.832 62.6696 83.936 65.1656 83.936C67.1576 83.936 67.9256 83.264 67.9256 82.184V81.992H70.4936V82.208C70.4936 84.656 68.3576 86.24 65.1416 86.24ZM65.0696 76.016C62.8136 76.016 61.9496 77.072 61.8056 78.92H68.1176C68.2136 76.88 67.1096 76.016 65.0696 76.016ZM75.0099 86H72.4179V74H74.7939V75.896H74.9139C75.3939 74.792 76.4979 73.832 78.2499 73.832C80.7459 73.832 81.7059 75.656 81.7059 77.888V78.68H79.1139V78.2C79.1139 76.616 78.6579 76.04 77.1459 76.04C75.5859 76.04 75.0099 76.64 75.0099 78.224V86ZM86.106 86.24C83.97 86.24 82.314 85.136 82.314 83.048C82.314 81.08 83.754 80.048 86.298 79.688L90.474 79.064V78.416C90.474 76.64 89.658 76.112 87.786 76.112C85.89 76.112 85.146 76.712 85.146 78.296V78.656H82.65V78.416C82.65 75.752 84.738 73.832 87.93 73.832C91.266 73.832 92.946 75.848 92.946 78.752V86H90.546V84.128H90.426C89.73 85.256 88.362 86.24 86.106 86.24ZM84.834 82.856C84.834 83.792 85.434 84.176 86.946 84.176C88.626 84.176 90.474 83.504 90.474 81.104V80.888L86.682 81.464C85.314 81.656 84.834 81.968 84.834 82.856ZM100.039 86C97.3753 86 95.9833 85.016 95.9833 82.328V76.232H93.9913V74.072H96.0313L96.5833 71.12H98.5753V74.072H102.175V76.232H98.5753V82.208C98.5753 83.456 99.1033 83.672 100.711 83.672H102.175V85.784C101.671 85.904 100.855 86 100.039 86ZM108.572 86.24C104.636 86.24 102.788 83.744 102.788 80.024C102.788 76.328 104.996 73.832 108.548 73.832C111.764 73.832 114.02 75.752 114.02 79.016C114.02 79.64 113.948 80.288 113.876 80.648H105.212C105.308 82.832 106.1 83.936 108.596 83.936C110.588 83.936 111.356 83.264 111.356 82.184V81.992H113.924V82.208C113.924 84.656 111.788 86.24 108.572 86.24ZM108.5 76.016C106.244 76.016 105.38 77.072 105.236 78.92H111.548C111.644 76.88 110.54 76.016 108.5 76.016ZM126.921 86.24C122.361 86.24 119.769 83.072 119.769 77.96C119.769 72.944 122.649 69.68 127.425 69.68C131.721 69.68 134.337 71.984 134.337 75.68V75.848H131.601V75.68C131.601 73.256 130.377 72.176 127.305 72.176C123.921 72.176 122.529 73.784 122.529 77.96C122.529 82.136 123.969 83.744 127.521 83.744C130.473 83.744 131.865 82.88 131.865 80.36V79.976H126.849V77.744H134.361V86H131.985V83.48H131.889C131.289 84.944 129.609 86.24 126.921 86.24ZM139.312 86H136.72V74H139.096V75.896H139.216C139.696 74.792 140.8 73.832 142.552 73.832C145.048 73.832 146.008 75.656 146.008 77.888V78.68H143.416V78.2C143.416 76.616 142.96 76.04 141.448 76.04C139.888 76.04 139.312 76.64 139.312 78.224V86ZM152.897 86.24C149.225 86.24 146.945 83.744 146.945 80.024C146.945 76.328 149.225 73.832 152.897 73.832C156.545 73.832 158.753 76.328 158.753 80.024C158.753 83.744 156.545 86.24 152.897 86.24ZM152.897 83.936C155.393 83.936 156.257 82.712 156.257 80.024C156.257 77.36 155.393 76.136 152.897 76.136C150.377 76.136 149.489 77.36 149.489 80.024C149.489 82.712 150.377 83.936 152.897 83.936ZM165.287 86H161.903L158.951 74.072H161.759L163.127 80.696L163.607 83.84H163.799L164.591 80.696L166.679 74.072H170.039L172.151 80.72L172.895 83.84H173.087L173.567 80.72L174.959 74.072H177.647L174.695 86H171.335L169.199 79.352L168.407 76.352H168.215L167.447 79.352L165.287 86ZM183.93 86C181.266 86 179.874 85.016 179.874 82.328V76.232H177.882V74.072H179.922L180.474 71.12H182.466V74.072H186.066V76.232H182.466V82.208C182.466 83.456 182.994 83.672 184.602 83.672H186.066V85.784C185.562 85.904 184.746 86 183.93 86ZM190.266 86H187.674V69.92H190.266V76.064H190.362C190.914 74.984 192.186 73.832 194.346 73.832C197.466 73.832 198.786 75.872 198.786 78.488V86H196.194V79.088C196.194 76.952 195.522 76.064 193.338 76.064C191.226 76.064 190.266 76.88 190.266 79.136V86ZM210.71 86H207.326L204.374 74.072H207.182L208.55 80.696L209.03 83.84H209.222L210.014 80.696L212.102 74.072H215.462L217.574 80.72L218.318 83.84H218.51L218.99 80.72L220.382 74.072H223.07L220.118 86H216.758L214.622 79.352L213.83 76.352H213.638L212.87 79.352L210.71 86ZM226.503 72.56H223.935L223.911 69.92H226.503V72.56ZM226.527 86H223.935V74H226.527V86ZM233.566 86C230.902 86 229.51 85.016 229.51 82.328V76.232H227.518V74.072H229.558L230.11 71.12H232.102V74.072H235.702V76.232H232.102V82.208C232.102 83.456 232.63 83.672 234.238 83.672H235.702V85.784C235.198 85.904 234.382 86 233.566 86ZM239.902 86H237.31V69.92H239.902V76.064H239.998C240.55 74.984 241.822 73.832 243.982 73.832C247.102 73.832 248.422 75.872 248.422 78.488V86H245.83V79.088C245.83 76.952 245.158 76.064 242.974 76.064C240.862 76.064 239.902 76.88 239.902 79.136V86ZM3.936 114H1.344V97.92H3.936V114ZM8.96775 114H6.37575V102.072H8.75175V104.304H8.84775C9.39975 103.032 10.6718 101.832 12.9998 101.832C16.0958 101.832 17.4878 103.8 17.4878 106.512V114H14.8958V107.088C14.8958 104.952 14.2238 104.064 12.0398 104.064C9.92775 104.064 8.96775 104.88 8.96775 107.112V114ZM24.6752 114.24C21.1952 114.24 19.3712 112.872 19.3712 109.968V109.92H21.8672V110.352C21.8672 111.648 22.4432 112.128 24.7232 112.128C26.6432 112.128 27.0032 111.696 27.0032 110.808C27.0032 109.848 26.4272 109.56 24.6752 109.248L22.8272 108.936C20.6912 108.552 19.3472 107.592 19.3472 105.432C19.3472 103.272 21.1232 101.832 24.2432 101.832C27.0512 101.832 29.1632 103.224 29.1632 105.936V106.152H26.6912V105.864C26.6912 104.76 26.3072 103.968 24.1712 103.968C22.2752 103.968 21.8192 104.472 21.8192 105.384C21.8192 106.296 22.2512 106.56 23.9312 106.896L25.9472 107.28C28.2512 107.736 29.4512 108.768 29.4512 110.736C29.4512 112.944 27.6992 114.24 24.6752 114.24ZM36.1534 114C33.4894 114 32.0974 113.016 32.0974 110.328V104.232H30.1054V102.072H32.1454L32.6974 99.12H34.6894V102.072H38.2894V104.232H34.6894V110.208C34.6894 111.456 35.2174 111.672 36.8254 111.672H38.2894V113.784C37.7854 113.904 36.9694 114 36.1534 114ZM43.0213 114.24C40.8853 114.24 39.2293 113.136 39.2293 111.048C39.2293 109.08 40.6693 108.048 43.2133 107.688L47.3893 107.064V106.416C47.3893 104.64 46.5733 104.112 44.7013 104.112C42.8053 104.112 42.0613 104.712 42.0613 106.296V106.656H39.5653V106.416C39.5653 103.752 41.6533 101.832 44.8453 101.832C48.1813 101.832 49.8613 103.848 49.8613 106.752V114H47.4613V112.128H47.3413C46.6453 113.256 45.2773 114.24 43.0213 114.24ZM41.7493 110.856C41.7493 111.792 42.3493 112.176 43.8613 112.176C45.5413 112.176 47.3893 111.504 47.3893 109.104V108.888L43.5973 109.464C42.2293 109.656 41.7493 109.968 41.7493 110.856ZM54.6952 114H52.1032V102.072H54.4792V104.304H54.5752C55.1272 103.032 56.3992 101.832 58.7272 101.832C61.8233 101.832 63.2153 103.8 63.2153 106.512V114H60.6232V107.088C60.6232 104.952 59.9512 104.064 57.7672 104.064C55.6552 104.064 54.6952 104.88 54.6952 107.112V114ZM70.3084 114C67.6444 114 66.2524 113.016 66.2524 110.328V104.232H64.2604V102.072H66.3004L66.8524 99.12H68.8444V102.072H72.4444V104.232H68.8444V110.208C68.8444 111.456 69.3724 111.672 70.9804 111.672H72.4444V113.784C71.9404 113.904 71.1244 114 70.3084 114ZM85.3701 114.24C80.6901 114.24 77.8581 110.976 77.8581 105.96C77.8581 100.944 80.6901 97.68 85.3701 97.68C89.6901 97.68 92.3061 100.08 92.3061 103.944V104.088H89.5461V103.944C89.5461 101.304 88.3221 100.176 85.2981 100.176C81.9621 100.176 80.6181 101.784 80.6181 105.96C80.6181 110.136 81.9621 111.744 85.2981 111.744C88.3221 111.744 89.5461 110.616 89.5461 107.976V107.832H92.3061V107.976C92.3061 111.84 89.6901 114.24 85.3701 114.24ZM96.7899 114H94.1979V102H96.5739V103.896H96.6939C97.1739 102.792 98.2779 101.832 100.03 101.832C102.526 101.832 103.486 103.656 103.486 105.888V106.68H100.894V106.2C100.894 104.616 100.438 104.04 98.9259 104.04C97.3659 104.04 96.7899 104.64 96.7899 106.224V114ZM110.207 114.24C106.271 114.24 104.423 111.744 104.423 108.024C104.423 104.328 106.631 101.832 110.183 101.832C113.399 101.832 115.655 103.752 115.655 107.016C115.655 107.64 115.583 108.288 115.511 108.648H106.847C106.943 110.832 107.735 111.936 110.231 111.936C112.223 111.936 112.991 111.264 112.991 110.184V109.992H115.559V110.208C115.559 112.656 113.423 114.24 110.207 114.24ZM110.135 104.016C107.879 104.016 107.015 105.072 106.871 106.92H113.183C113.279 104.88 112.175 104.016 110.135 104.016ZM122.377 114.24C118.969 114.24 117.121 111.816 117.121 108.024C117.121 104.256 118.945 101.832 122.233 101.832C124.345 101.832 125.617 102.84 126.145 103.92H126.217V97.92H128.785V114H126.409V112.032H126.313C125.737 113.4 124.417 114.24 122.377 114.24ZM119.713 108.024C119.713 110.976 120.649 112.032 122.953 112.032C125.065 112.032 126.217 111.096 126.217 109.104V106.968C126.217 104.976 125.065 104.04 122.953 104.04C120.673 104.04 119.713 105.096 119.713 108.024ZM133.519 100.56H130.951L130.927 97.92H133.519V100.56ZM133.543 114H130.951V102H133.543V114ZM140.582 114C137.918 114 136.526 113.016 136.526 110.328V104.232H134.534V102.072H136.574L137.126 99.12H139.118V102.072H142.718V104.232H139.118V110.208C139.118 111.456 139.646 111.672 141.254 111.672H142.718V113.784C142.214 113.904 141.398 114 140.582 114ZM150.195 114H147.483L153.747 97.92H157.467L163.731 114H160.923L159.291 109.824H151.827L150.195 114ZM154.419 103.248L152.739 107.496H158.379L156.699 103.248L155.667 100.272H155.475L154.419 103.248ZM167.271 118.152H164.703V102.072H167.055V104.04H167.175C167.727 102.648 169.095 101.832 171.159 101.832C174.519 101.832 176.367 104.256 176.367 108.048C176.367 111.816 174.567 114.24 171.327 114.24C169.191 114.24 167.871 113.256 167.343 112.152H167.271V118.152ZM167.271 109.104C167.271 111.096 168.423 112.032 170.535 112.032C172.815 112.032 173.775 110.976 173.775 108.048C173.775 105.096 172.839 104.04 170.535 104.04C168.423 104.04 167.271 104.976 167.271 106.968V109.104ZM180.648 118.152H178.08V102.072H180.432V104.04H180.552C181.104 102.648 182.472 101.832 184.536 101.832C187.896 101.832 189.744 104.256 189.744 108.048C189.744 111.816 187.944 114.24 184.704 114.24C182.568 114.24 181.248 113.256 180.72 112.152H180.648V118.152ZM180.648 109.104C180.648 111.096 181.8 112.032 183.912 112.032C186.192 112.032 187.152 110.976 187.152 108.048C187.152 105.096 186.216 104.04 183.912 104.04C181.8 104.04 180.648 104.976 180.648 106.968V109.104ZM194.146 114H191.554V102H193.93V103.896H194.05C194.53 102.792 195.634 101.832 197.386 101.832C199.882 101.832 200.842 103.656 200.842 105.888V106.68H198.25V106.2C198.25 104.616 197.794 104.04 196.282 104.04C194.722 104.04 194.146 104.64 194.146 106.224V114ZM207.731 114.24C204.059 114.24 201.779 111.744 201.779 108.024C201.779 104.328 204.059 101.832 207.731 101.832C211.379 101.832 213.587 104.328 213.587 108.024C213.587 111.744 211.379 114.24 207.731 114.24ZM207.731 111.936C210.227 111.936 211.091 110.712 211.091 108.024C211.091 105.36 210.227 104.136 207.731 104.136C205.211 104.136 204.323 105.36 204.323 108.024C204.323 110.712 205.211 111.936 207.731 111.936ZM221.704 114H218.44L213.664 102.072H216.544L220.024 111.528H220.192L223.696 102.072H226.504L221.704 114ZM230.355 114.24C228.219 114.24 226.563 113.136 226.563 111.048C226.563 109.08 228.003 108.048 230.547 107.688L234.723 107.064V106.416C234.723 104.64 233.907 104.112 232.035 104.112C230.139 104.112 229.395 104.712 229.395 106.296V106.656H226.899V106.416C226.899 103.752 228.987 101.832 232.179 101.832C235.515 101.832 237.195 103.848 237.195 106.752V114H234.795V112.128H234.675C233.979 113.256 232.611 114.24 230.355 114.24ZM229.083 110.856C229.083 111.792 229.683 112.176 231.195 112.176C232.875 112.176 234.723 111.504 234.723 109.104V108.888L230.931 109.464C229.563 109.656 229.083 109.968 229.083 110.856ZM242.029 114H239.437V97.92H242.029V114ZM249.276 114.24C245.796 114.24 243.972 112.872 243.972 109.968V109.92H246.468V110.352C246.468 111.648 247.044 112.128 249.324 112.128C251.244 112.128 251.604 111.696 251.604 110.808C251.604 109.848 251.028 109.56 249.276 109.248L247.428 108.936C245.292 108.552 243.948 107.592 243.948 105.432C243.948 103.272 245.724 101.832 248.844 101.832C251.652 101.832 253.764 103.224 253.764 105.936V106.152H251.292V105.864C251.292 104.76 250.908 103.968 248.772 103.968C246.876 103.968 246.42 104.472 246.42 105.384C246.42 106.296 246.852 106.56 248.532 106.896L250.548 107.28C252.852 107.736 254.052 108.768 254.052 110.736C254.052 112.944 252.3 114.24 249.276 114.24Z" fill="#CAAEFF"/>
<path d="M7.48 156H5.58L0.32 142.6H1.92L6.52 154.4H6.62L11.18 142.6H12.74L7.48 156ZM15.0144 144.8H13.5944V142.6H15.0144V144.8ZM15.0144 156H13.5944V146H15.0144V156ZM20.8319 156.2C18.0519 156.2 16.4919 154.18 16.4919 151.06C16.4919 147.94 17.9719 145.92 20.6719 145.92C22.5719 145.92 23.7919 146.92 24.2119 148V142.6H25.6519V156H24.3719V154.1H24.2919C23.8519 155.34 22.6919 156.2 20.8319 156.2ZM17.9319 151.06C17.9319 154.08 19.1119 154.96 21.0719 154.96C23.0319 154.96 24.2119 153.94 24.2119 151.92V150.22C24.2119 148.18 23.0319 147.16 21.0719 147.16C19.1319 147.16 17.9319 148.04 17.9319 151.06ZM30.3294 156.2C28.5294 156.2 27.1694 155.28 27.1694 153.62C27.1694 151.9 28.4494 151.14 30.6094 150.84L34.0894 150.36V149.64C34.0894 147.9 33.3494 147.2 31.4894 147.2C29.6894 147.2 28.8494 147.9 28.8494 149.48V149.78H27.4694V149.62C27.4694 147.56 29.0494 145.92 31.6094 145.92C34.2494 145.92 35.4494 147.62 35.4494 149.82V156H34.1494V154.18L34.0494 154.16C33.4694 155.3 32.2094 156.2 30.3294 156.2ZM28.5694 153.52C28.5694 154.54 29.2094 155 30.7294 155C32.4294 155 34.0894 154.12 34.0894 151.78V151.44L30.7294 151.92C29.1494 152.14 28.5694 152.46 28.5694 153.52ZM37.3289 147.22H36.8889V146.28H37.2889C37.5689 146.28 37.7089 146.22 37.7089 145.88V145.38H36.9289V142.6H38.6889V145.86C38.6889 146.8 38.1689 147.22 37.3289 147.22ZM44.2567 156.2C41.5567 156.2 40.0767 155.06 40.0767 152.76V152.72H41.4767V152.96C41.4767 154.32 42.0367 154.98 44.2767 154.98C46.1167 154.98 46.5967 154.46 46.5967 153.46C46.5967 152.46 45.9767 152.1 44.4767 151.82L42.8367 151.54C41.2367 151.24 40.0767 150.5 40.0767 148.76C40.0767 147.06 41.5167 145.92 43.8567 145.92C46.1167 145.92 47.7767 147.08 47.7767 149.3V149.4H46.3967V149.24C46.3967 148.06 45.9367 147.16 43.8167 147.16C42.0167 147.16 41.4567 147.74 41.4567 148.74C41.4567 149.74 41.9567 150.08 43.4367 150.36L45.1167 150.68C46.8367 151 47.9767 151.76 47.9767 153.4C47.9767 155.16 46.5367 156.2 44.2567 156.2ZM53.8956 156H52.3956L57.8156 142.6H59.8556L65.2756 156H63.7356L62.1156 152.08H55.4956L53.8956 156ZM57.9756 146L56.0156 150.78H61.5756L59.6156 146L58.8556 143.96H58.7556L57.9756 146ZM67.5839 156H66.1639V142.6H67.5839V156ZM74.6292 150.78H69.1692V149.52H74.6292V150.78ZM77.5131 159.48H76.0731V146.12H77.3731V148.04H77.4331C77.8731 146.78 79.0531 145.92 80.9131 145.92C83.6931 145.92 85.2331 147.94 85.2331 151.08C85.2331 154.18 83.7731 156.2 81.0731 156.2C79.1731 156.2 77.9531 155.2 77.5131 154.12V159.48ZM77.5131 151.92C77.5131 153.94 78.7131 154.96 80.6731 154.96C82.5931 154.96 83.7931 154.08 83.7931 151.08C83.7931 148.04 82.6131 147.16 80.6731 147.16C78.7131 147.16 77.5131 148.18 77.5131 150.22V151.92ZM91.2692 156.2C88.3692 156.2 86.4692 154.06 86.4692 151.06C86.4692 148.06 88.3692 145.92 91.2692 145.92C94.1492 145.92 95.9892 148.06 95.9892 151.06C95.9892 154.06 94.1492 156.2 91.2692 156.2ZM91.2692 154.92C93.6492 154.92 94.5892 153.52 94.5892 151.06C94.5892 148.6 93.6492 147.22 91.2692 147.22C88.8492 147.22 87.8892 148.6 87.8892 151.06C87.8892 153.52 88.8492 154.92 91.2692 154.92ZM100.678 156H98.7984L96.2584 146.12H97.7784L99.3384 152.56L99.7384 154.7H99.8584L100.518 152.56L102.778 146.12H104.678L106.978 152.56L107.598 154.7H107.718L108.118 152.56L109.678 146.12H111.158L108.618 156H106.738L104.518 149.76L103.778 147.42H103.658L102.918 149.76L100.678 156ZM116.06 156.2C113.02 156.2 111.44 154.06 111.44 151.06C111.44 148.06 113.22 145.92 116.04 145.92C118.42 145.92 120.38 147.36 120.38 150.28C120.38 150.74 120.34 151.18 120.28 151.46H112.8C112.86 153.64 113.72 154.92 116.08 154.92C118.08 154.92 118.88 154.02 118.88 152.82V152.7H120.3V152.84C120.3 154.74 118.58 156.2 116.06 156.2ZM116 147.16C113.8 147.16 112.92 148.42 112.8 150.42H119.02C119.1 148.08 117.94 147.16 116 147.16ZM123.471 156H122.031V146H123.331V147.66H123.431C123.751 146.74 124.711 145.92 126.171 145.92C128.211 145.92 128.991 147.38 128.991 149.08V149.64H127.551V149.3C127.551 147.76 127.071 147.16 125.651 147.16C124.111 147.16 123.471 147.86 123.471 149.46V156ZM134.469 156.2C131.429 156.2 129.849 154.06 129.849 151.06C129.849 148.06 131.629 145.92 134.449 145.92C136.829 145.92 138.789 147.36 138.789 150.28C138.789 150.74 138.749 151.18 138.689 151.46H131.209C131.269 153.64 132.129 154.92 134.489 154.92C136.489 154.92 137.289 154.02 137.289 152.82V152.7H138.709V152.84C138.709 154.74 136.989 156.2 134.469 156.2ZM134.409 147.16C132.209 147.16 131.329 148.42 131.209 150.42H137.429C137.509 148.08 136.349 147.16 134.409 147.16ZM144.477 156.2C141.697 156.2 140.137 154.18 140.137 151.06C140.137 147.94 141.617 145.92 144.317 145.92C146.217 145.92 147.437 146.92 147.857 148V142.6H149.297V156H148.017V154.1H147.937C147.497 155.34 146.337 156.2 144.477 156.2ZM141.577 151.06C141.577 154.08 142.757 154.96 144.717 154.96C146.677 154.96 147.857 153.94 147.857 151.92V150.22C147.857 148.18 146.677 147.16 144.717 147.16C142.777 147.16 141.577 148.04 141.577 151.06ZM158.765 156.2C155.985 156.2 154.425 154.18 154.425 151.06C154.425 147.94 155.905 145.92 158.605 145.92C160.505 145.92 161.725 146.92 162.145 148V142.6H163.585V156H162.305V154.1H162.225C161.785 155.34 160.625 156.2 158.765 156.2ZM155.865 151.06C155.865 154.08 157.045 154.96 159.005 154.96C160.965 154.96 162.145 153.94 162.145 151.92V150.22C162.145 148.18 160.965 147.16 159.005 147.16C157.065 147.16 155.865 148.04 155.865 151.06ZM169.763 156.2C166.723 156.2 165.143 154.06 165.143 151.06C165.143 148.06 166.923 145.92 169.743 145.92C172.123 145.92 174.083 147.36 174.083 150.28C174.083 150.74 174.043 151.18 173.983 151.46H166.503C166.563 153.64 167.423 154.92 169.783 154.92C171.783 154.92 172.583 154.02 172.583 152.82V152.7H174.003V152.84C174.003 154.74 172.283 156.2 169.763 156.2ZM169.703 147.16C167.503 147.16 166.623 148.42 166.503 150.42H172.723C172.803 148.08 171.643 147.16 169.703 147.16ZM180.111 156.22C177.191 156.22 175.431 154.08 175.431 151.08C175.431 148.06 177.191 145.92 180.111 145.92C182.631 145.92 184.331 147.54 184.331 149.86V150H182.911V149.88C182.911 148.16 181.991 147.22 180.051 147.22C177.791 147.22 176.851 148.64 176.851 151.08C176.851 153.5 177.791 154.92 180.051 154.92C181.991 154.92 182.911 153.98 182.911 152.26V152.14H184.331V152.28C184.331 154.6 182.631 156.22 180.111 156.22ZM187.245 144.8H185.825V142.6H187.245V144.8ZM187.245 156H185.825V146H187.245V156ZM193.161 156.2C190.461 156.2 188.981 155.06 188.981 152.76V152.72H190.381V152.96C190.381 154.32 190.941 154.98 193.181 154.98C195.021 154.98 195.501 154.46 195.501 153.46C195.501 152.46 194.881 152.1 193.381 151.82L191.741 151.54C190.141 151.24 188.981 150.5 188.981 148.76C188.981 147.06 190.421 145.92 192.761 145.92C195.021 145.92 196.681 147.08 196.681 149.3V149.4H195.301V149.24C195.301 148.06 194.841 147.16 192.721 147.16C190.921 147.16 190.361 147.74 190.361 148.74C190.361 149.74 190.861 150.08 192.341 150.36L194.021 150.68C195.741 151 196.881 151.76 196.881 153.4C196.881 155.16 195.441 156.2 193.161 156.2ZM199.95 144.8H198.53V142.6H199.95V144.8ZM199.95 156H198.53V146H199.95V156ZM206.228 156.2C203.328 156.2 201.428 154.06 201.428 151.06C201.428 148.06 203.328 145.92 206.228 145.92C209.108 145.92 210.948 148.06 210.948 151.06C210.948 154.06 209.108 156.2 206.228 156.2ZM206.228 154.92C208.608 154.92 209.548 153.52 209.548 151.06C209.548 148.6 208.608 147.22 206.228 147.22C203.808 147.22 202.848 148.6 202.848 151.06C202.848 153.52 203.808 154.92 206.228 154.92ZM213.927 156H212.487V146.12H213.787V148.16H213.847C214.227 147.12 215.347 145.92 217.387 145.92C219.927 145.92 221.087 147.56 221.087 149.94V156H219.667V150.26C219.667 148.12 218.967 147.18 216.947 147.18C214.987 147.18 213.927 148.1 213.927 150.3V156ZM230.78 156.2C227.74 156.2 226.16 154.06 226.16 151.06C226.16 148.06 227.94 145.92 230.76 145.92C233.14 145.92 235.1 147.36 235.1 150.28C235.1 150.74 235.06 151.18 235 151.46H227.52C227.58 153.64 228.44 154.92 230.8 154.92C232.8 154.92 233.6 154.02 233.6 152.82V152.7H235.02V152.84C235.02 154.74 233.3 156.2 230.78 156.2ZM230.72 147.16C228.52 147.16 227.64 148.42 227.52 150.42H233.74C233.82 148.08 232.66 147.16 230.72 147.16ZM238.19 156H236.75V146.12H238.05V148.16H238.11C238.49 147.12 239.61 145.92 241.65 145.92C244.19 145.92 245.35 147.56 245.35 149.94V156H243.93V150.26C243.93 148.12 243.23 147.18 241.21 147.18C239.25 147.18 238.19 148.1 238.19 150.3V156ZM251.173 155.12C248.453 155.12 246.893 153.32 246.893 150.52C246.893 147.72 248.433 145.92 251.193 145.92C252.933 145.92 254.253 146.78 254.693 148.04H254.773V146.12H256.053V155.58C256.053 158.26 254.333 159.6 251.733 159.6C249.213 159.6 247.433 158.28 247.433 156H248.853C248.853 157.62 249.673 158.32 251.753 158.32C253.873 158.32 254.613 157.56 254.613 155.58V153.06H254.593C254.133 154.2 252.893 155.12 251.173 155.12ZM248.333 150.52C248.333 153.14 249.593 153.88 251.513 153.88C253.293 153.88 254.613 152.86 254.613 150.82V150.22C254.613 148.18 253.273 147.16 251.433 147.16C249.553 147.16 248.333 147.92 248.333 150.52ZM259.449 144.8H258.029V142.6H259.449V144.8ZM259.449 156H258.029V146H259.449V156ZM262.864 156H261.424V146.12H262.724V148.16H262.784C263.164 147.12 264.284 145.92 266.324 145.92C268.864 145.92 270.024 147.56 270.024 149.94V156H268.604V150.26C268.604 148.12 267.904 147.18 265.884 147.18C263.924 147.18 262.864 148.1 262.864 150.3V156ZM276.186 156.2C273.146 156.2 271.566 154.06 271.566 151.06C271.566 148.06 273.346 145.92 276.166 145.92C278.546 145.92 280.506 147.36 280.506 150.28C280.506 150.74 280.466 151.18 280.406 151.46H272.926C272.986 153.64 273.846 154.92 276.206 154.92C278.206 154.92 279.006 154.02 279.006 152.82V152.7H280.426V152.84C280.426 154.74 278.706 156.2 276.186 156.2ZM276.126 147.16C273.926 147.16 273.046 148.42 272.926 150.42H279.146C279.226 148.08 278.066 147.16 276.126 147.16ZM5.12 184.2C2.42 184.2 0.94 183.06 0.94 180.76V180.72H2.34V180.96C2.34 182.32 2.9 182.98 5.14 182.98C6.98 182.98 7.46 182.46 7.46 181.46C7.46 180.46 6.84 180.1 5.34 179.82L3.7 179.54C2.1 179.24 0.94 178.5 0.94 176.76C0.94 175.06 2.38 173.92 4.72 173.92C6.98 173.92 8.64 175.08 8.64 177.3V177.4H7.26V177.24C7.26 176.06 6.8 175.16 4.68 175.16C2.88 175.16 2.32 175.74 2.32 176.74C2.32 177.74 2.82 178.08 4.3 178.36L5.98 178.68C7.7 179 8.84 179.76 8.84 181.4C8.84 183.16 7.4 184.2 5.12 184.2ZM11.9889 187.48H10.5489V174.12H11.8489V176.04H11.9089C12.3489 174.78 13.5289 173.92 15.3889 173.92C18.1689 173.92 19.7089 175.94 19.7089 179.08C19.7089 182.18 18.2489 184.2 15.5489 184.2C13.6489 184.2 12.4289 183.2 11.9889 182.12V187.48ZM11.9889 179.92C11.9889 181.94 13.1889 182.96 15.1489 182.96C17.0689 182.96 18.2689 182.08 18.2689 179.08C18.2689 176.04 17.0889 175.16 15.1489 175.16C13.1889 175.16 11.9889 176.18 11.9889 178.22V179.92ZM25.565 184.2C22.525 184.2 20.945 182.06 20.945 179.06C20.945 176.06 22.725 173.92 25.545 173.92C27.925 173.92 29.885 175.36 29.885 178.28C29.885 178.74 29.845 179.18 29.785 179.46H22.305C22.365 181.64 23.225 182.92 25.585 182.92C27.585 182.92 28.385 182.02 28.385 180.82V180.7H29.805V180.84C29.805 182.74 28.085 184.2 25.565 184.2ZM25.505 175.16C23.305 175.16 22.425 176.42 22.305 178.42H28.525C28.605 176.08 27.445 175.16 25.505 175.16ZM35.8533 184.2C32.8133 184.2 31.2333 182.06 31.2333 179.06C31.2333 176.06 33.0133 173.92 35.8333 173.92C38.2133 173.92 40.1733 175.36 40.1733 178.28C40.1733 178.74 40.1333 179.18 40.0733 179.46H32.5933C32.6533 181.64 33.5133 182.92 35.8733 182.92C37.8733 182.92 38.6733 182.02 38.6733 180.82V180.7H40.0933V180.84C40.0933 182.74 38.3733 184.2 35.8533 184.2ZM35.7933 175.16C33.5933 175.16 32.7133 176.42 32.5933 178.42H38.8133C38.8933 176.08 37.7333 175.16 35.7933 175.16ZM45.8616 184.2C43.0816 184.2 41.5216 182.18 41.5216 179.06C41.5216 175.94 43.0016 173.92 45.7016 173.92C47.6016 173.92 48.8216 174.92 49.2416 176V170.6H50.6816V184H49.4016V182.1H49.3216C48.8816 183.34 47.7216 184.2 45.8616 184.2ZM42.9616 179.06C42.9616 182.08 44.1416 182.96 46.1016 182.96C48.0616 182.96 49.2416 181.94 49.2416 179.92V178.22C49.2416 176.18 48.0616 175.16 46.1016 175.16C44.1616 175.16 42.9616 176.04 42.9616 179.06ZM56.6591 184.2C53.9591 184.2 52.4791 183.06 52.4791 180.76V180.72H53.8791V180.96C53.8791 182.32 54.4391 182.98 56.6791 182.98C58.5191 182.98 58.9991 182.46 58.9991 181.46C58.9991 180.46 58.3791 180.1 56.8791 179.82L55.2391 179.54C53.6391 179.24 52.4791 178.5 52.4791 176.76C52.4791 175.06 53.9191 173.92 56.2591 173.92C58.5191 173.92 60.1791 175.08 60.1791 177.3V177.4H58.7991V177.24C58.7991 176.06 58.3391 175.16 56.2191 175.16C54.4191 175.16 53.8591 175.74 53.8591 176.74C53.8591 177.74 54.3591 178.08 55.8391 178.36L57.5191 178.68C59.2391 179 60.3791 179.76 60.3791 181.4C60.3791 183.16 58.9391 184.2 56.6591 184.2ZM69.358 184.2C66.778 184.2 65.578 182.42 65.578 180.06V174.12H67.018V179.86C67.018 182 67.878 182.94 69.818 182.94C71.638 182.94 72.878 181.98 72.878 179.66V174.12H74.298V184H72.998V181.82H72.938C72.538 182.96 71.418 184.2 69.358 184.2ZM77.7959 187.48H76.3559V174.12H77.6559V176.04H77.7159C78.1559 174.78 79.3359 173.92 81.1959 173.92C83.9759 173.92 85.5159 175.94 85.5159 179.08C85.5159 182.18 84.0559 184.2 81.3559 184.2C79.4559 184.2 78.2359 183.2 77.7959 182.12V187.48ZM77.7959 179.92C77.7959 181.94 78.9959 182.96 80.9559 182.96C82.8759 182.96 84.0759 182.08 84.0759 179.08C84.0759 176.04 82.8959 175.16 80.9559 175.16C78.9959 175.16 77.7959 176.18 77.7959 178.22V179.92ZM94.9234 184.22C92.0034 184.22 90.2434 182.08 90.2434 179.08C90.2434 176.06 92.0034 173.92 94.9234 173.92C97.4434 173.92 99.1434 175.54 99.1434 177.86V178H97.7234V177.88C97.7234 176.16 96.8034 175.22 94.8634 175.22C92.6034 175.22 91.6634 176.64 91.6634 179.08C91.6634 181.5 92.6034 182.92 94.8634 182.92C96.8034 182.92 97.7234 181.98 97.7234 180.26V180.14H99.1434V180.28C99.1434 182.6 97.4434 184.22 94.9234 184.22ZM102.137 184H100.697V174H101.997V175.66H102.097C102.417 174.74 103.377 173.92 104.837 173.92C106.877 173.92 107.657 175.38 107.657 177.08V177.64H106.217V177.3C106.217 175.76 105.737 175.16 104.317 175.16C102.777 175.16 102.137 175.86 102.137 177.46V184ZM113.135 184.2C110.095 184.2 108.515 182.06 108.515 179.06C108.515 176.06 110.295 173.92 113.115 173.92C115.495 173.92 117.455 175.36 117.455 178.28C117.455 178.74 117.415 179.18 117.355 179.46H109.875C109.935 181.64 110.795 182.92 113.155 182.92C115.155 182.92 115.955 182.02 115.955 180.82V180.7H117.375V180.84C117.375 182.74 115.655 184.2 113.135 184.2ZM113.075 175.16C110.875 175.16 109.995 176.42 109.875 178.42H116.095C116.175 176.08 115.015 175.16 113.075 175.16ZM123.144 184.2C120.364 184.2 118.804 182.18 118.804 179.06C118.804 175.94 120.284 173.92 122.984 173.92C124.884 173.92 126.104 174.92 126.524 176V170.6H127.964V184H126.684V182.1H126.604C126.164 183.34 125.004 184.2 123.144 184.2ZM120.244 179.06C120.244 182.08 121.424 182.96 123.384 182.96C125.344 182.96 126.524 181.94 126.524 179.92V178.22C126.524 176.18 125.344 175.16 123.384 175.16C121.444 175.16 120.244 176.04 120.244 179.06ZM131.36 172.8H129.94V170.6H131.36V172.8ZM131.36 184H129.94V174H131.36V184ZM136.918 184.02C135.098 184.02 134.038 183.3 134.038 181.2V175.36H132.378V174.12H134.058L134.398 171.6H135.478V174.12H138.598V175.36H135.478V181.28C135.478 182.44 136.018 182.7 137.298 182.7H138.598V183.86C138.258 183.92 137.638 184.02 136.918 184.02ZM146.025 184.2C144.225 184.2 142.865 183.28 142.865 181.62C142.865 179.9 144.145 179.14 146.305 178.84L149.785 178.36V177.64C149.785 175.9 149.045 175.2 147.185 175.2C145.385 175.2 144.545 175.9 144.545 177.48V177.78H143.165V177.62C143.165 175.56 144.745 173.92 147.305 173.92C149.945 173.92 151.145 175.62 151.145 177.82V184H149.845V182.18L149.745 182.16C149.165 183.3 147.905 184.2 146.025 184.2ZM144.265 181.52C144.265 182.54 144.905 183 146.425 183C148.125 183 149.785 182.12 149.785 179.78V179.44L146.425 179.92C144.845 180.14 144.265 180.46 144.265 181.52ZM154.585 187.48H153.145V174.12H154.445V176.04H154.505C154.945 174.78 156.125 173.92 157.985 173.92C160.765 173.92 162.305 175.94 162.305 179.08C162.305 182.18 160.845 184.2 158.145 184.2C156.245 184.2 155.025 183.2 154.585 182.12V187.48ZM154.585 179.92C154.585 181.94 155.785 182.96 157.745 182.96C159.665 182.96 160.865 182.08 160.865 179.08C160.865 176.04 159.685 175.16 157.745 175.16C155.785 175.16 154.585 176.18 154.585 178.22V179.92ZM165.283 187.48H163.843V174.12H165.143V176.04H165.203C165.643 174.78 166.823 173.92 168.683 173.92C171.463 173.92 173.003 175.94 173.003 179.08C173.003 182.18 171.543 184.2 168.843 184.2C166.943 184.2 165.723 183.2 165.283 182.12V187.48ZM165.283 179.92C165.283 181.94 166.483 182.96 168.443 182.96C170.363 182.96 171.563 182.08 171.563 179.08C171.563 176.04 170.383 175.16 168.443 175.16C166.483 175.16 165.283 176.18 165.283 178.22V179.92ZM175.982 184H174.542V174H175.842V175.66H175.942C176.262 174.74 177.222 173.92 178.682 173.92C180.722 173.92 181.502 175.38 181.502 177.08V177.64H180.062V177.3C180.062 175.76 179.582 175.16 178.162 175.16C176.622 175.16 175.982 175.86 175.982 177.46V184ZM187.16 184.2C184.26 184.2 182.36 182.06 182.36 179.06C182.36 176.06 184.26 173.92 187.16 173.92C190.04 173.92 191.88 176.06 191.88 179.06C191.88 182.06 190.04 184.2 187.16 184.2ZM187.16 182.92C189.54 182.92 190.48 181.52 190.48 179.06C190.48 176.6 189.54 175.22 187.16 175.22C184.74 175.22 183.78 176.6 183.78 179.06C183.78 181.52 184.74 182.92 187.16 182.92ZM197.869 184H196.089L192.049 174.12H193.609L196.949 182.6H197.049L200.369 174.12H201.909L197.869 184ZM205.236 184.2C203.436 184.2 202.076 183.28 202.076 181.62C202.076 179.9 203.356 179.14 205.516 178.84L208.996 178.36V177.64C208.996 175.9 208.256 175.2 206.396 175.2C204.596 175.2 203.756 175.9 203.756 177.48V177.78H202.376V177.62C202.376 175.56 203.956 173.92 206.516 173.92C209.156 173.92 210.356 175.62 210.356 177.82V184H209.056V182.18L208.956 182.16C208.376 183.3 207.116 184.2 205.236 184.2ZM203.476 181.52C203.476 182.54 204.116 183 205.636 183C207.336 183 208.996 182.12 208.996 179.78V179.44L205.636 179.92C204.056 180.14 203.476 180.46 203.476 181.52ZM213.795 184H212.355V170.6H213.795V184ZM219.768 184.2C217.068 184.2 215.588 183.06 215.588 180.76V180.72H216.988V180.96C216.988 182.32 217.548 182.98 219.788 182.98C221.628 182.98 222.108 182.46 222.108 181.46C222.108 180.46 221.488 180.1 219.988 179.82L218.348 179.54C216.748 179.24 215.588 178.5 215.588 176.76C215.588 175.06 217.028 173.92 219.368 173.92C221.628 173.92 223.288 175.08 223.288 177.3V177.4H221.908V177.24C221.908 176.06 221.448 175.16 219.328 175.16C217.528 175.16 216.968 175.74 216.968 176.74C216.968 177.74 217.468 178.08 218.948 178.36L220.628 178.68C222.348 179 223.488 179.76 223.488 181.4C223.488 183.16 222.048 184.2 219.768 184.2ZM225.156 185.84H224.716V184.9H225.116C225.396 184.9 225.536 184.84 225.536 184.5V184H224.756V181.22H226.516V184.48C226.516 185.42 225.996 185.84 225.156 185.84ZM232.995 184H231.555V174H232.855V175.66H232.955C233.275 174.74 234.235 173.92 235.695 173.92C237.735 173.92 238.515 175.38 238.515 177.08V177.64H237.075V177.3C237.075 175.76 236.595 175.16 235.175 175.16C233.635 175.16 232.995 175.86 232.995 177.46V184ZM243.993 184.2C240.953 184.2 239.373 182.06 239.373 179.06C239.373 176.06 241.153 173.92 243.973 173.92C246.353 173.92 248.313 175.36 248.313 178.28C248.313 178.74 248.273 179.18 248.213 179.46H240.733C240.793 181.64 241.653 182.92 244.013 182.92C246.013 182.92 246.813 182.02 246.813 180.82V180.7H248.233V180.84C248.233 182.74 246.513 184.2 243.993 184.2ZM243.933 175.16C241.733 175.16 240.853 176.42 240.733 178.42H246.953C247.033 176.08 245.873 175.16 243.933 175.16ZM254.001 184.2C251.221 184.2 249.661 182.18 249.661 179.06C249.661 175.94 251.141 173.92 253.841 173.92C255.741 173.92 256.961 174.92 257.381 176V170.6H258.821V184H257.541V182.1H257.461C257.021 183.34 255.861 184.2 254.001 184.2ZM251.101 179.06C251.101 182.08 252.281 182.96 254.241 182.96C256.201 182.96 257.381 181.94 257.381 179.92V178.22C257.381 176.18 256.201 175.16 254.241 175.16C252.301 175.16 251.101 176.04 251.101 179.06ZM264.577 184.2C261.997 184.2 260.797 182.42 260.797 180.06V174.12H262.237V179.86C262.237 182 263.097 182.94 265.037 182.94C266.857 182.94 268.097 181.98 268.097 179.66V174.12H269.517V184H268.217V181.82H268.157C267.757 182.96 266.637 184.2 264.577 184.2ZM275.816 184.22C272.896 184.22 271.136 182.08 271.136 179.08C271.136 176.06 272.896 173.92 275.816 173.92C278.336 173.92 280.036 175.54 280.036 177.86V178H278.616V177.88C278.616 176.16 277.696 175.22 275.756 175.22C273.496 175.22 272.556 176.64 272.556 179.08C272.556 181.5 273.496 182.92 275.756 182.92C277.696 182.92 278.616 181.98 278.616 180.26V180.14H280.036V180.28C280.036 182.6 278.336 184.22 275.816 184.22ZM282.95 172.8H281.53V170.6H282.95V172.8ZM282.95 184H281.53V174H282.95V184ZM286.365 184H284.925V174.12H286.225V176.16H286.285C286.665 175.12 287.785 173.92 289.825 173.92C292.365 173.92 293.525 175.56 293.525 177.94V184H292.105V178.26C292.105 176.12 291.405 175.18 289.385 175.18C287.425 175.18 286.365 176.1 286.365 178.3V184ZM299.348 183.12C296.628 183.12 295.068 181.32 295.068 178.52C295.068 175.72 296.608 173.92 299.368 173.92C301.108 173.92 302.428 174.78 302.868 176.04H302.948V174.12H304.228V183.58C304.228 186.26 302.508 187.6 299.908 187.6C297.388 187.6 295.608 186.28 295.608 184H297.028C297.028 185.62 297.848 186.32 299.928 186.32C302.048 186.32 302.788 185.56 302.788 183.58V181.06H302.768C302.308 182.2 301.068 183.12 299.348 183.12ZM296.508 178.52C296.508 181.14 297.768 181.88 299.688 181.88C301.468 181.88 302.788 180.86 302.788 178.82V178.22C302.788 176.18 301.448 175.16 299.608 175.16C297.728 175.16 296.508 175.92 296.508 178.52ZM4.82 212.02C3 212.02 1.94 211.3 1.94 209.2V203.36H0.28V202.12H1.96L2.3 199.6H3.38V202.12H6.5V203.36H3.38V209.28C3.38 210.44 3.92 210.7 5.2 210.7H6.5V211.86C6.16 211.92 5.54 212.02 4.82 212.02ZM11.4564 212.2C8.87641 212.2 7.67641 210.42 7.67641 208.06V202.12H9.11641V207.86C9.11641 210 9.97641 210.94 11.9164 210.94C13.7364 210.94 14.9764 209.98 14.9764 207.66V202.12H16.3964V212H15.0964V209.82H15.0364C14.6364 210.96 13.5164 212.2 11.4564 212.2ZM19.8944 212H18.4544V202H19.7544V203.66H19.8544C20.1744 202.74 21.1344 201.92 22.5944 201.92C24.6344 201.92 25.4144 203.38 25.4144 205.08V205.64H23.9744V205.3C23.9744 203.76 23.4944 203.16 22.0744 203.16C20.5344 203.16 19.8944 203.86 19.8944 205.46V212ZM28.0733 212H26.6333V202.12H27.9333V204.16H27.9933C28.3733 203.12 29.4933 201.92 31.5333 201.92C34.0733 201.92 35.2333 203.56 35.2333 205.94V212H33.8133V206.26C33.8133 204.12 33.1133 203.18 31.0933 203.18C29.1333 203.18 28.0733 204.1 28.0733 206.3V212ZM39.8755 212.2C38.0755 212.2 36.7155 211.28 36.7155 209.62C36.7155 207.9 37.9955 207.14 40.1555 206.84L43.6355 206.36V205.64C43.6355 203.9 42.8955 203.2 41.0355 203.2C39.2355 203.2 38.3955 203.9 38.3955 205.48V205.78H37.0155V205.62C37.0155 203.56 38.5955 201.92 41.1555 201.92C43.7955 201.92 44.9955 203.62 44.9955 205.82V212H43.6955V210.18L43.5955 210.16C43.0155 211.3 41.7555 212.2 39.8755 212.2ZM38.1155 209.52C38.1155 210.54 38.7555 211 40.2755 211C41.9755 211 43.6355 210.12 43.6355 207.78V207.44L40.2755 207.92C38.6955 208.14 38.1155 208.46 38.1155 209.52ZM48.435 212H46.995V202H48.295V203.66H48.395C48.715 202.74 49.675 201.92 51.135 201.92C53.175 201.92 53.955 203.38 53.955 205.08V205.64H52.515V205.3C52.515 203.76 52.035 203.16 50.615 203.16C49.075 203.16 48.435 203.86 48.435 205.46V212ZM59.613 212.2C56.713 212.2 54.813 210.06 54.813 207.06C54.813 204.06 56.713 201.92 59.613 201.92C62.493 201.92 64.333 204.06 64.333 207.06C64.333 210.06 62.493 212.2 59.613 212.2ZM59.613 210.92C61.993 210.92 62.933 209.52 62.933 207.06C62.933 204.6 61.993 203.22 59.613 203.22C57.193 203.22 56.233 204.6 56.233 207.06C56.233 209.52 57.193 210.92 59.613 210.92ZM69.5923 212.2C67.0123 212.2 65.8123 210.42 65.8123 208.06V202.12H67.2523V207.86C67.2523 210 68.1123 210.94 70.0523 210.94C71.8723 210.94 73.1123 209.98 73.1123 207.66V202.12H74.5323V212H73.2323V209.82H73.1723C72.7723 210.96 71.6523 212.2 69.5923 212.2ZM78.0303 212H76.5903V202.12H77.8903V204.16H77.9503C78.3303 203.12 79.4503 201.92 81.4903 201.92C84.0303 201.92 85.1903 203.56 85.1903 205.94V212H83.7703V206.26C83.7703 204.12 83.0703 203.18 81.0503 203.18C79.0903 203.18 78.0303 204.1 78.0303 206.3V212ZM91.0725 212.2C88.2925 212.2 86.7325 210.18 86.7325 207.06C86.7325 203.94 88.2125 201.92 90.9125 201.92C92.8125 201.92 94.0325 202.92 94.4525 204V198.6H95.8925V212H94.6125V210.1H94.5325C94.0925 211.34 92.9325 212.2 91.0725 212.2ZM88.1725 207.06C88.1725 210.08 89.3525 210.96 91.3125 210.96C93.2725 210.96 94.4525 209.94 94.4525 207.92V206.22C94.4525 204.18 93.2725 203.16 91.3125 203.16C89.3725 203.16 88.1725 204.04 88.1725 207.06ZM105.12 212.02C103.3 212.02 102.24 211.3 102.24 209.2V203.36H100.58V202.12H102.26L102.6 199.6H103.68V202.12H106.8V203.36H103.68V209.28C103.68 210.44 104.22 210.7 105.5 210.7H106.8V211.86C106.46 211.92 105.84 212.02 105.12 212.02ZM109.279 200.8H107.859V198.6H109.279V200.8ZM109.279 212H107.859V202H109.279V212ZM112.694 212H111.254V202.12H112.554V204.16H112.614C112.994 203.12 114.034 201.92 116.074 201.92C117.874 201.92 118.954 202.78 119.394 204.18H119.454C119.854 203.12 120.874 201.92 122.914 201.92C125.454 201.92 126.614 203.56 126.614 205.92V212H125.194V206.26C125.194 204.12 124.474 203.18 122.474 203.18C120.594 203.18 119.654 204.1 119.654 206.3V212H118.234V206.26C118.234 204.12 117.534 203.18 115.534 203.18C113.654 203.18 112.694 204.1 112.694 206.3V212ZM132.794 212.2C129.754 212.2 128.174 210.06 128.174 207.06C128.174 204.06 129.954 201.92 132.774 201.92C135.154 201.92 137.114 203.36 137.114 206.28C137.114 206.74 137.074 207.18 137.014 207.46H129.534C129.594 209.64 130.454 210.92 132.814 210.92C134.814 210.92 135.614 210.02 135.614 208.82V208.7H137.034V208.84C137.034 210.74 135.314 212.2 132.794 212.2ZM132.734 203.16C130.534 203.16 129.654 204.42 129.534 206.42H135.754C135.834 204.08 134.674 203.16 132.734 203.16ZM145.054 212.2C143.254 212.2 141.894 211.28 141.894 209.62C141.894 207.9 143.174 207.14 145.334 206.84L148.814 206.36V205.64C148.814 203.9 148.074 203.2 146.214 203.2C144.414 203.2 143.574 203.9 143.574 205.48V205.78H142.194V205.62C142.194 203.56 143.774 201.92 146.334 201.92C148.974 201.92 150.174 203.62 150.174 205.82V212H148.874V210.18L148.774 210.16C148.194 211.3 146.934 212.2 145.054 212.2ZM143.294 209.52C143.294 210.54 143.934 211 145.454 211C147.154 211 148.814 210.12 148.814 207.78V207.44L145.454 207.92C143.874 208.14 143.294 208.46 143.294 209.52ZM153.613 212H152.173V202.12H153.473V204.16H153.533C153.913 203.12 155.033 201.92 157.073 201.92C159.613 201.92 160.773 203.56 160.773 205.94V212H159.353V206.26C159.353 204.12 158.653 203.18 156.633 203.18C154.673 203.18 153.613 204.1 153.613 206.3V212ZM166.655 212.2C163.875 212.2 162.315 210.18 162.315 207.06C162.315 203.94 163.795 201.92 166.495 201.92C168.395 201.92 169.615 202.92 170.035 204V198.6H171.475V212H170.195V210.1H170.115C169.675 211.34 168.515 212.2 166.655 212.2ZM163.755 207.06C163.755 210.08 164.935 210.96 166.895 210.96C168.855 210.96 170.035 209.94 170.035 207.92V206.22C170.035 204.18 168.855 203.16 166.895 203.16C164.955 203.16 163.755 204.04 163.755 207.06ZM180.943 212.2C178.163 212.2 176.603 210.18 176.603 207.06C176.603 203.94 178.083 201.92 180.783 201.92C182.683 201.92 183.903 202.92 184.323 204V198.6H185.763V212H184.483V210.1H184.403C183.963 211.34 182.803 212.2 180.943 212.2ZM178.043 207.06C178.043 210.08 179.223 210.96 181.183 210.96C183.143 210.96 184.323 209.94 184.323 207.92V206.22C184.323 204.18 183.143 203.16 181.183 203.16C179.243 203.16 178.043 204.04 178.043 207.06ZM189.239 212H187.799V202H189.099V203.66H189.199C189.519 202.74 190.479 201.92 191.939 201.92C193.979 201.92 194.759 203.38 194.759 205.08V205.64H193.319V205.3C193.319 203.76 192.839 203.16 191.419 203.16C189.879 203.16 189.239 203.86 189.239 205.46V212ZM197.26 200.8H195.84V198.6H197.26V200.8ZM197.26 212H195.84V202H197.26V212ZM203.9 212H202.12L198.08 202.12H199.64L202.98 210.6H203.08L206.4 202.12H207.94L203.9 212ZM210.18 200.8H208.76V198.6H210.18V200.8ZM210.18 212H208.76V202H210.18V212ZM213.595 212H212.155V202.12H213.455V204.16H213.515C213.895 203.12 215.015 201.92 217.055 201.92C219.595 201.92 220.755 203.56 220.755 205.94V212H219.335V206.26C219.335 204.12 218.635 203.18 216.615 203.18C214.655 203.18 213.595 204.1 213.595 206.3V212ZM226.577 211.12C223.857 211.12 222.297 209.32 222.297 206.52C222.297 203.72 223.837 201.92 226.597 201.92C228.337 201.92 229.657 202.78 230.097 204.04H230.177V202.12H231.457V211.58C231.457 214.26 229.737 215.6 227.137 215.6C224.617 215.6 222.837 214.28 222.837 212H224.257C224.257 213.62 225.077 214.32 227.157 214.32C229.277 214.32 230.017 213.56 230.017 211.58V209.06H229.997C229.537 210.2 228.297 211.12 226.577 211.12ZM223.737 206.52C223.737 209.14 224.997 209.88 226.917 209.88C228.697 209.88 230.017 208.86 230.017 206.82V206.22C230.017 204.18 228.677 203.16 226.837 203.16C224.957 203.16 223.737 203.92 223.737 206.52ZM238.425 212H236.985V202.12H238.285V204.16H238.345C238.725 203.12 239.765 201.92 241.805 201.92C243.605 201.92 244.685 202.78 245.125 204.18H245.185C245.585 203.12 246.605 201.92 248.645 201.92C251.185 201.92 252.345 203.56 252.345 205.92V212H250.925V206.26C250.925 204.12 250.205 203.18 248.205 203.18C246.325 203.18 245.385 204.1 245.385 206.3V212H243.965V206.26C243.965 204.12 243.265 203.18 241.265 203.18C239.385 203.18 238.425 204.1 238.425 206.3V212ZM258.704 212.2C255.804 212.2 253.904 210.06 253.904 207.06C253.904 204.06 255.804 201.92 258.704 201.92C261.584 201.92 263.424 204.06 263.424 207.06C263.424 210.06 261.584 212.2 258.704 212.2ZM258.704 210.92C261.084 210.92 262.024 209.52 262.024 207.06C262.024 204.6 261.084 203.22 258.704 203.22C256.284 203.22 255.324 204.6 255.324 207.06C255.324 209.52 256.284 210.92 258.704 210.92ZM266.404 212H264.964V202H266.264V203.66H266.364C266.684 202.74 267.644 201.92 269.104 201.92C271.144 201.92 271.924 203.38 271.924 205.08V205.64H270.484V205.3C270.484 203.76 270.004 203.16 268.584 203.16C267.044 203.16 266.404 203.86 266.404 205.46V212ZM277.402 212.2C274.362 212.2 272.782 210.06 272.782 207.06C272.782 204.06 274.562 201.92 277.382 201.92C279.762 201.92 281.722 203.36 281.722 206.28C281.722 206.74 281.682 207.18 281.622 207.46H274.142C274.202 209.64 275.062 210.92 277.422 210.92C279.422 210.92 280.222 210.02 280.222 208.82V208.7H281.642V208.84C281.642 210.74 279.922 212.2 277.402 212.2ZM277.342 203.16C275.142 203.16 274.262 204.42 274.142 206.42H280.362C280.442 204.08 279.282 203.16 277.342 203.16ZM290.961 212.2C288.261 212.2 286.781 211.06 286.781 208.76V208.72H288.181V208.96C288.181 210.32 288.741 210.98 290.981 210.98C292.821 210.98 293.301 210.46 293.301 209.46C293.301 208.46 292.681 208.1 291.181 207.82L289.541 207.54C287.941 207.24 286.781 206.5 286.781 204.76C286.781 203.06 288.221 201.92 290.561 201.92C292.821 201.92 294.481 203.08 294.481 205.3V205.4H293.101V205.24C293.101 204.06 292.641 203.16 290.521 203.16C288.721 203.16 288.161 203.74 288.161 204.74C288.161 205.74 288.661 206.08 290.141 206.36L291.821 206.68C293.541 207 294.681 207.76 294.681 209.4C294.681 211.16 293.241 212.2 290.961 212.2ZM299.129 212.2C297.329 212.2 295.969 211.28 295.969 209.62C295.969 207.9 297.249 207.14 299.409 206.84L302.889 206.36V205.64C302.889 203.9 302.149 203.2 300.289 203.2C298.489 203.2 297.649 203.9 297.649 205.48V205.78H296.269V205.62C296.269 203.56 297.849 201.92 300.409 201.92C303.049 201.92 304.249 203.62 304.249 205.82V212H302.949V210.18L302.849 210.16C302.269 211.3 301.009 212.2 299.129 212.2ZM297.369 209.52C297.369 210.54 298.009 211 299.529 211C301.229 211 302.889 210.12 302.889 207.78V207.44L299.529 207.92C297.949 208.14 297.369 208.46 297.369 209.52ZM307.689 212H306.249V198.6H307.689V212ZM313.863 212.2C310.823 212.2 309.243 210.06 309.243 207.06C309.243 204.06 311.023 201.92 313.843 201.92C316.223 201.92 318.183 203.36 318.183 206.28C318.183 206.74 318.143 207.18 318.083 207.46H310.603C310.663 209.64 311.523 210.92 313.883 210.92C315.883 210.92 316.683 210.02 316.683 208.82V208.7H318.103V208.84C318.103 210.74 316.383 212.2 313.863 212.2ZM313.803 203.16C311.603 203.16 310.723 204.42 310.603 206.42H316.823C316.903 204.08 315.743 203.16 313.803 203.16ZM323.931 212.2C321.231 212.2 319.751 211.06 319.751 208.76V208.72H321.151V208.96C321.151 210.32 321.711 210.98 323.951 210.98C325.791 210.98 326.271 210.46 326.271 209.46C326.271 208.46 325.651 208.1 324.151 207.82L322.511 207.54C320.911 207.24 319.751 206.5 319.751 204.76C319.751 203.06 321.191 201.92 323.531 201.92C325.791 201.92 327.451 203.08 327.451 205.3V205.4H326.071V205.24C326.071 204.06 325.611 203.16 323.491 203.16C321.691 203.16 321.131 203.74 321.131 204.74C321.131 205.74 321.631 206.08 323.111 206.36L324.791 206.68C326.511 207 327.651 207.76 327.651 209.4C327.651 211.16 326.211 212.2 323.931 212.2ZM330.678 212H328.918V209.22H330.678V212ZM6.3 240.2C2.58 240.2 0.96 238.24 0.96 235.94V235.64H2.38V235.86C2.38 237.72 3.36 238.88 6.34 238.88C8.56 238.88 9.6 238.14 9.6 236.6C9.6 235.1 8.92 234.54 6.9 234.1L4.58 233.58C2.48 233.14 1.04 232.18 1.04 230.02C1.04 228.08 2.64 226.4 5.82 226.4C9.3 226.4 10.82 228.52 10.82 230.7V230.96H9.4V230.74C9.4 228.9 8.44 227.72 5.8 227.72C3.58 227.72 2.48 228.46 2.48 229.92C2.48 231.44 3.22 231.88 5.18 232.34L7.5 232.88C9.72 233.38 11.04 234.42 11.04 236.52C11.04 238.56 9.46 240.2 6.3 240.2ZM15.2997 240.2C13.4997 240.2 12.1397 239.28 12.1397 237.62C12.1397 235.9 13.4197 235.14 15.5797 234.84L19.0597 234.36V233.64C19.0597 231.9 18.3197 231.2 16.4597 231.2C14.6597 231.2 13.8197 231.9 13.8197 233.48V233.78H12.4397V233.62C12.4397 231.56 14.0197 229.92 16.5797 229.92C19.2197 229.92 20.4197 231.62 20.4197 233.82V240H19.1197V238.18L19.0197 238.16C18.4397 239.3 17.1797 240.2 15.2997 240.2ZM13.5397 237.52C13.5397 238.54 14.1797 239 15.6997 239C17.3997 239 19.0597 238.12 19.0597 235.78V235.44L15.6997 235.92C14.1197 236.14 13.5397 236.46 13.5397 237.52ZM23.2914 243.4C22.8114 243.4 22.2914 243.32 22.0114 243.26V242.1H23.1314C24.0314 242.1 24.3314 241.92 24.6914 241.14L25.2514 239.86L21.0114 230.12H22.5714L24.8914 235.62L25.9314 238.04H26.0514L27.0314 235.62L29.2114 230.12H30.7714L25.9514 241.58C25.3114 243.08 24.3714 243.4 23.2914 243.4ZM39.2586 239.12C36.5386 239.12 34.9786 237.32 34.9786 234.52C34.9786 231.72 36.5186 229.92 39.2786 229.92C41.0186 229.92 42.3386 230.78 42.7786 232.04H42.8586V230.12H44.1386V239.58C44.1386 242.26 42.4186 243.6 39.8186 243.6C37.2986 243.6 35.5186 242.28 35.5186 240H36.9386C36.9386 241.62 37.7586 242.32 39.8386 242.32C41.9586 242.32 42.6986 241.56 42.6986 239.58V237.06H42.6786C42.2186 238.2 40.9786 239.12 39.2586 239.12ZM36.4186 234.52C36.4186 237.14 37.6786 237.88 39.5986 237.88C41.3786 237.88 42.6986 236.86 42.6986 234.82V234.22C42.6986 232.18 41.3586 231.16 39.5186 231.16C37.6386 231.16 36.4186 231.92 36.4186 234.52ZM50.477 240.2C47.577 240.2 45.677 238.06 45.677 235.06C45.677 232.06 47.577 229.92 50.477 229.92C53.357 229.92 55.197 232.06 55.197 235.06C55.197 238.06 53.357 240.2 50.477 240.2ZM50.477 238.92C52.857 238.92 53.797 237.52 53.797 235.06C53.797 232.6 52.857 231.22 50.477 231.22C48.057 231.22 47.097 232.6 47.097 235.06C47.097 237.52 48.057 238.92 50.477 238.92ZM61.2341 240.2C58.3341 240.2 56.4341 238.06 56.4341 235.06C56.4341 232.06 58.3341 229.92 61.2341 229.92C64.1141 229.92 65.9541 232.06 65.9541 235.06C65.9541 238.06 64.1141 240.2 61.2341 240.2ZM61.2341 238.92C63.6141 238.92 64.5541 237.52 64.5541 235.06C64.5541 232.6 63.6141 231.22 61.2341 231.22C58.8141 231.22 57.8541 232.6 57.8541 235.06C57.8541 237.52 58.8141 238.92 61.2341 238.92ZM71.5311 240.2C68.7511 240.2 67.1911 238.18 67.1911 235.06C67.1911 231.94 68.6711 229.92 71.3711 229.92C73.2711 229.92 74.4911 230.92 74.9111 232V226.6H76.3511V240H75.0711V238.1H74.9911C74.5511 239.34 73.3911 240.2 71.5311 240.2ZM68.6311 235.06C68.6311 238.08 69.8111 238.96 71.7711 238.96C73.7311 238.96 74.9111 237.94 74.9111 235.92V234.22C74.9111 232.18 73.7311 231.16 71.7711 231.16C69.8311 231.16 68.6311 232.04 68.6311 235.06ZM79.8044 240H78.5044V226.6H79.9444V232C80.3844 230.92 81.6044 229.92 83.5044 229.92C86.2044 229.92 87.6644 231.94 87.6644 235.06C87.6644 238.18 86.1244 240.2 83.3444 240.2C81.4844 240.2 80.3044 239.34 79.8644 238.1H79.8044V240ZM79.9444 235.92C79.9444 237.94 81.1444 238.96 83.1044 238.96C85.0444 238.96 86.2244 238.08 86.2244 235.06C86.2244 232.04 85.0244 231.16 83.1044 231.16C81.1444 231.16 79.9444 232.18 79.9444 234.22V235.92ZM90.0555 243.4C89.5755 243.4 89.0555 243.32 88.7755 243.26V242.1H89.8955C90.7955 242.1 91.0955 241.92 91.4555 241.14L92.0155 239.86L87.7755 230.12H89.3355L91.6555 235.62L92.6955 238.04H92.8155L93.7955 235.62L95.9755 230.12H97.5355L92.7155 241.58C92.0755 243.08 91.1355 243.4 90.0555 243.4ZM102.285 240.2C99.2453 240.2 97.6653 238.06 97.6653 235.06C97.6653 232.06 99.4453 229.92 102.265 229.92C104.645 229.92 106.605 231.36 106.605 234.28C106.605 234.74 106.565 235.18 106.505 235.46H99.0253C99.0853 237.64 99.9453 238.92 102.305 238.92C104.305 238.92 105.105 238.02 105.105 236.82V236.7H106.525V236.84C106.525 238.74 104.805 240.2 102.285 240.2ZM102.225 231.16C100.025 231.16 99.1453 232.42 99.0253 234.42H105.245C105.325 232.08 104.165 231.16 102.225 231.16ZM115.545 240.02C113.725 240.02 112.665 239.3 112.665 237.2V231.36H111.005V230.12H112.685L113.025 227.6H114.105V230.12H117.225V231.36H114.105V237.28C114.105 238.44 114.645 238.7 115.925 238.7H117.225V239.86C116.885 239.92 116.265 240.02 115.545 240.02ZM122.412 240.2C119.512 240.2 117.612 238.06 117.612 235.06C117.612 232.06 119.512 229.92 122.412 229.92C125.292 229.92 127.132 232.06 127.132 235.06C127.132 238.06 125.292 240.2 122.412 240.2ZM122.412 238.92C124.792 238.92 125.732 237.52 125.732 235.06C125.732 232.6 124.792 231.22 122.412 231.22C119.992 231.22 119.032 232.6 119.032 235.06C119.032 237.52 119.992 238.92 122.412 238.92ZM133.701 240H132.261V226.6H133.701V240ZM140.054 240.2C137.154 240.2 135.254 238.06 135.254 235.06C135.254 232.06 137.154 229.92 140.054 229.92C142.934 229.92 144.774 232.06 144.774 235.06C144.774 238.06 142.934 240.2 140.054 240.2ZM140.054 238.92C142.434 238.92 143.374 237.52 143.374 235.06C143.374 232.6 142.434 231.22 140.054 231.22C137.634 231.22 136.674 232.6 136.674 235.06C136.674 237.52 137.634 238.92 140.054 238.92ZM147.754 240H146.314V230.12H147.614V232.16H147.674C148.054 231.12 149.174 229.92 151.214 229.92C153.754 229.92 154.914 231.56 154.914 233.94V240H153.494V234.26C153.494 232.12 152.794 231.18 150.774 231.18C148.814 231.18 147.754 232.1 147.754 234.3V240ZM160.736 239.12C158.016 239.12 156.456 237.32 156.456 234.52C156.456 231.72 157.996 229.92 160.756 229.92C162.496 229.92 163.816 230.78 164.256 232.04H164.336V230.12H165.616V239.58C165.616 242.26 163.896 243.6 161.296 243.6C158.776 243.6 156.996 242.28 156.996 240H158.416C158.416 241.62 159.236 242.32 161.316 242.32C163.436 242.32 164.176 241.56 164.176 239.58V237.06H164.156C163.696 238.2 162.456 239.12 160.736 239.12ZM157.896 234.52C157.896 237.14 159.156 237.88 161.076 237.88C162.856 237.88 164.176 236.86 164.176 234.82V234.22C164.176 232.18 162.836 231.16 160.996 231.16C159.116 231.16 157.896 231.92 157.896 234.52ZM174.703 240H172.823L170.283 230.12H171.803L173.363 236.56L173.763 238.7H173.883L174.543 236.56L176.803 230.12H178.703L181.003 236.56L181.623 238.7H181.743L182.143 236.56L183.703 230.12H185.183L182.643 240H180.763L178.543 233.76L177.803 231.42H177.683L176.943 233.76L174.703 240ZM188.624 240.2C186.824 240.2 185.464 239.28 185.464 237.62C185.464 235.9 186.744 235.14 188.904 234.84L192.384 234.36V233.64C192.384 231.9 191.644 231.2 189.784 231.2C187.984 231.2 187.144 231.9 187.144 233.48V233.78H185.764V233.62C185.764 231.56 187.344 229.92 189.904 229.92C192.544 229.92 193.744 231.62 193.744 233.82V240H192.444V238.18L192.344 238.16C191.764 239.3 190.504 240.2 188.624 240.2ZM186.864 237.52C186.864 238.54 187.504 239 189.024 239C190.724 239 192.384 238.12 192.384 235.78V235.44L189.024 235.92C187.444 236.14 186.864 236.46 186.864 237.52ZM197.103 228.8H195.683V226.6H197.103V228.8ZM197.103 240H195.683V230H197.103V240ZM202.661 240.02C200.841 240.02 199.781 239.3 199.781 237.2V231.36H198.121V230.12H199.801L200.141 227.6H201.221V230.12H204.341V231.36H201.221V237.28C201.221 238.44 201.761 238.7 203.041 238.7H204.341V239.86C204.001 239.92 203.381 240.02 202.661 240.02ZM212.769 240.02C210.949 240.02 209.889 239.3 209.889 237.2V231.36H208.229V230.12H209.909L210.249 227.6H211.329V230.12H214.449V231.36H211.329V237.28C211.329 238.44 211.869 238.7 213.149 238.7H214.449V239.86C214.109 239.92 213.489 240.02 212.769 240.02ZM216.928 228.8H215.508V226.6H216.928V228.8ZM216.928 240H215.508V230H216.928V240ZM220.344 240H218.904V230.12H220.204V232.16H220.264C220.644 231.12 221.684 229.92 223.724 229.92C225.524 229.92 226.604 230.78 227.044 232.18H227.104C227.504 231.12 228.524 229.92 230.564 229.92C233.104 229.92 234.264 231.56 234.264 233.92V240H232.844V234.26C232.844 232.12 232.124 231.18 230.124 231.18C228.244 231.18 227.304 232.1 227.304 234.3V240H225.884V234.26C225.884 232.12 225.184 231.18 223.184 231.18C221.304 231.18 220.344 232.1 220.344 234.3V240ZM240.443 240.2C237.403 240.2 235.823 238.06 235.823 235.06C235.823 232.06 237.603 229.92 240.423 229.92C242.803 229.92 244.763 231.36 244.763 234.28C244.763 234.74 244.723 235.18 244.663 235.46H237.183C237.243 237.64 238.103 238.92 240.463 238.92C242.463 238.92 243.263 238.02 243.263 236.82V236.7H244.683V236.84C244.683 238.74 242.963 240.2 240.443 240.2ZM240.383 231.16C238.183 231.16 237.303 232.42 237.183 234.42H243.403C243.483 232.08 242.323 231.16 240.383 231.16ZM250.511 240.2C247.811 240.2 246.331 239.06 246.331 236.76V236.72H247.731V236.96C247.731 238.32 248.291 238.98 250.531 238.98C252.371 238.98 252.851 238.46 252.851 237.46C252.851 236.46 252.231 236.1 250.731 235.82L249.091 235.54C247.491 235.24 246.331 234.5 246.331 232.76C246.331 231.06 247.771 229.92 250.111 229.92C252.371 229.92 254.031 231.08 254.031 233.3V233.4H252.651V233.24C252.651 232.06 252.191 231.16 250.071 231.16C248.271 231.16 247.711 231.74 247.711 232.74C247.711 233.74 248.211 234.08 249.691 234.36L251.371 234.68C253.091 235 254.231 235.76 254.231 237.4C254.231 239.16 252.791 240.2 250.511 240.2ZM262.19 240.2C260.39 240.2 259.03 239.28 259.03 237.62C259.03 235.9 260.31 235.14 262.47 234.84L265.95 234.36V233.64C265.95 231.9 265.21 231.2 263.35 231.2C261.55 231.2 260.71 231.9 260.71 233.48V233.78H259.33V233.62C259.33 231.56 260.91 229.92 263.47 229.92C266.11 229.92 267.31 231.62 267.31 233.82V240H266.01V238.18L265.91 238.16C265.33 239.3 264.07 240.2 262.19 240.2ZM260.43 237.52C260.43 238.54 261.07 239 262.59 239C264.29 239 265.95 238.12 265.95 235.78V235.44L262.59 235.92C261.01 236.14 260.43 236.46 260.43 237.52ZM270.75 240H269.31V230.12H270.61V232.16H270.67C271.05 231.12 272.17 229.92 274.21 229.92C276.75 229.92 277.91 231.56 277.91 233.94V240H276.49V234.26C276.49 232.12 275.79 231.18 273.77 231.18C271.81 231.18 270.75 232.1 270.75 234.3V240ZM283.792 240.2C281.012 240.2 279.452 238.18 279.452 235.06C279.452 231.94 280.932 229.92 283.632 229.92C285.532 229.92 286.752 230.92 287.172 232V226.6H288.612V240H287.332V238.1H287.252C286.812 239.34 285.652 240.2 283.792 240.2ZM280.892 235.06C280.892 238.08 282.072 238.96 284.032 238.96C285.992 238.96 287.172 237.94 287.172 235.92V234.22C287.172 232.18 285.992 231.16 284.032 231.16C282.092 231.16 280.892 232.04 280.892 235.06ZM295.58 240H294.14V226.6H295.58V231.96H295.66C296.04 231.02 297.06 229.92 299.06 229.92C301.64 229.92 302.74 231.64 302.74 233.9V240H301.32V234.26C301.32 232.12 300.6 231.18 298.6 231.18C296.62 231.18 295.58 232.1 295.58 234.32V240ZM309.038 240.2C305.998 240.2 304.418 238.06 304.418 235.06C304.418 232.06 306.198 229.92 309.018 229.92C311.398 229.92 313.358 231.36 313.358 234.28C313.358 234.74 313.318 235.18 313.258 235.46H305.778C305.838 237.64 306.698 238.92 309.058 238.92C311.058 238.92 311.858 238.02 311.858 236.82V236.7H313.278V236.84C313.278 238.74 311.558 240.2 309.038 240.2ZM308.978 231.16C306.778 231.16 305.898 232.42 305.778 234.42H311.998C312.078 232.08 310.918 231.16 308.978 231.16ZM316.469 240H315.029V226.6H316.469V240ZM320.058 240H318.618V226.6H320.058V240ZM326.411 240.2C323.511 240.2 321.611 238.06 321.611 235.06C321.611 232.06 323.511 229.92 326.411 229.92C329.291 229.92 331.131 232.06 331.131 235.06C331.131 238.06 329.291 240.2 326.411 240.2ZM326.411 238.92C328.791 238.92 329.731 237.52 329.731 235.06C329.731 232.6 328.791 231.22 326.411 231.22C323.991 231.22 323.031 232.6 323.031 235.06C323.031 237.52 323.991 238.92 326.411 238.92ZM4.82 268.02C3 268.02 1.94 267.3 1.94 265.2V259.36H0.28V258.12H1.96L2.3 255.6H3.38V258.12H6.5V259.36H3.38V265.28C3.38 266.44 3.92 266.7 5.2 266.7H6.5V267.86C6.16 267.92 5.54 268.02 4.82 268.02ZM11.6872 268.2C8.78719 268.2 6.88719 266.06 6.88719 263.06C6.88719 260.06 8.78719 257.92 11.6872 257.92C14.5672 257.92 16.4072 260.06 16.4072 263.06C16.4072 266.06 14.5672 268.2 11.6872 268.2ZM11.6872 266.92C14.0672 266.92 15.0072 265.52 15.0072 263.06C15.0072 260.6 14.0672 259.22 11.6872 259.22C9.26719 259.22 8.30719 260.6 8.30719 263.06C8.30719 265.52 9.26719 266.92 11.6872 266.92ZM22.8956 256.8H21.4756V254.6H22.8956V256.8ZM22.8956 268H21.4756V258H22.8956V268ZM26.3108 268H24.8708V258.12H26.1708V260.16H26.2308C26.6108 259.12 27.7308 257.92 29.7708 257.92C32.3108 257.92 33.4708 259.56 33.4708 261.94V268H32.0508V262.26C32.0508 260.12 31.3508 259.18 29.3308 259.18C27.3708 259.18 26.3108 260.1 26.3108 262.3V268ZM39.693 268.22C36.773 268.22 35.013 266.08 35.013 263.08C35.013 260.06 36.773 257.92 39.693 257.92C42.213 257.92 43.913 259.54 43.913 261.86V262H42.493V261.88C42.493 260.16 41.573 259.22 39.633 259.22C37.373 259.22 36.433 260.64 36.433 263.08C36.433 265.5 37.373 266.92 39.633 266.92C41.573 266.92 42.493 265.98 42.493 264.26V264.14H43.913V264.28C43.913 266.6 42.213 268.22 39.693 268.22ZM46.9069 268H45.4669V258H46.7669V259.66H46.8669C47.1869 258.74 48.1469 257.92 49.6069 257.92C51.6469 257.92 52.4269 259.38 52.4269 261.08V261.64H50.9869V261.3C50.9869 259.76 50.5069 259.16 49.0869 259.16C47.5469 259.16 46.9069 259.86 46.9069 261.46V268ZM57.9048 268.2C54.8648 268.2 53.2848 266.06 53.2848 263.06C53.2848 260.06 55.0648 257.92 57.8848 257.92C60.2648 257.92 62.2248 259.36 62.2248 262.28C62.2248 262.74 62.1848 263.18 62.1248 263.46H54.6448C54.7048 265.64 55.5648 266.92 57.9248 266.92C59.9248 266.92 60.7248 266.02 60.7248 264.82V264.7H62.1448V264.84C62.1448 266.74 60.4248 268.2 57.9048 268.2ZM57.8448 259.16C55.6448 259.16 54.7648 260.42 54.6448 262.42H60.8648C60.9448 260.08 59.7848 259.16 57.8448 259.16ZM66.6927 268.2C64.8927 268.2 63.5327 267.28 63.5327 265.62C63.5327 263.9 64.8127 263.14 66.9727 262.84L70.4527 262.36V261.64C70.4527 259.9 69.7127 259.2 67.8527 259.2C66.0527 259.2 65.2127 259.9 65.2127 261.48V261.78H63.8327V261.62C63.8327 259.56 65.4127 257.92 67.9727 257.92C70.6127 257.92 71.8127 259.62 71.8127 261.82V268H70.5127V266.18L70.4127 266.16C69.8327 267.3 68.5727 268.2 66.6927 268.2ZM64.9327 265.52C64.9327 266.54 65.5727 267 67.0927 267C68.7927 267 70.4527 266.12 70.4527 263.78V263.44L67.0927 263.92C65.5127 264.14 64.9327 264.46 64.9327 265.52ZM77.7536 268.2C75.0536 268.2 73.5736 267.06 73.5736 264.76V264.72H74.9736V264.96C74.9736 266.32 75.5336 266.98 77.7736 266.98C79.6136 266.98 80.0936 266.46 80.0936 265.46C80.0936 264.46 79.4736 264.1 77.9736 263.82L76.3336 263.54C74.7336 263.24 73.5736 262.5 73.5736 260.76C73.5736 259.06 75.0136 257.92 77.3536 257.92C79.6136 257.92 81.2736 259.08 81.2736 261.3V261.4H79.8936V261.24C79.8936 260.06 79.4336 259.16 77.3136 259.16C75.5136 259.16 74.9536 259.74 74.9536 260.74C74.9536 261.74 75.4536 262.08 76.9336 262.36L78.6136 262.68C80.3336 263 81.4736 263.76 81.4736 265.4C81.4736 267.16 80.0336 268.2 77.7536 268.2ZM87.4611 268.2C84.4211 268.2 82.8411 266.06 82.8411 263.06C82.8411 260.06 84.6211 257.92 87.4411 257.92C89.8211 257.92 91.7811 259.36 91.7811 262.28C91.7811 262.74 91.7411 263.18 91.6811 263.46H84.2011C84.2611 265.64 85.1211 266.92 87.4811 266.92C89.4811 266.92 90.2811 266.02 90.2811 264.82V264.7H91.7011V264.84C91.7011 266.74 89.9811 268.2 87.4611 268.2ZM87.4011 259.16C85.2011 259.16 84.3211 260.42 84.2011 262.42H90.4211C90.5011 260.08 89.3411 259.16 87.4011 259.16ZM97.4694 268.2C94.6894 268.2 93.1294 266.18 93.1294 263.06C93.1294 259.94 94.6094 257.92 97.3094 257.92C99.2094 257.92 100.429 258.92 100.849 260V254.6H102.289V268H101.009V266.1H100.929C100.489 267.34 99.3294 268.2 97.4694 268.2ZM94.5694 263.06C94.5694 266.08 95.7494 266.96 97.7094 266.96C99.6694 266.96 100.849 265.94 100.849 263.92V262.22C100.849 260.18 99.6694 259.16 97.7094 259.16C95.7694 259.16 94.5694 260.04 94.5694 263.06ZM112.097 268.22C109.177 268.22 107.417 266.08 107.417 263.08C107.417 260.06 109.177 257.92 112.097 257.92C114.617 257.92 116.317 259.54 116.317 261.86V262H114.897V261.88C114.897 260.16 113.977 259.22 112.037 259.22C109.777 259.22 108.837 260.64 108.837 263.08C108.837 265.5 109.777 266.92 112.037 266.92C113.977 266.92 114.897 265.98 114.897 264.26V264.14H116.317V264.28C116.317 266.6 114.617 268.22 112.097 268.22ZM121.591 268.2C119.011 268.2 117.811 266.42 117.811 264.06V258.12H119.251V263.86C119.251 266 120.111 266.94 122.051 266.94C123.871 266.94 125.111 265.98 125.111 263.66V258.12H126.531V268H125.231V265.82H125.171C124.771 266.96 123.651 268.2 121.591 268.2ZM132.53 268.2C129.83 268.2 128.35 267.06 128.35 264.76V264.72H129.75V264.96C129.75 266.32 130.31 266.98 132.55 266.98C134.39 266.98 134.87 266.46 134.87 265.46C134.87 264.46 134.25 264.1 132.75 263.82L131.11 263.54C129.51 263.24 128.35 262.5 128.35 260.76C128.35 259.06 129.79 257.92 132.13 257.92C134.39 257.92 136.05 259.08 136.05 261.3V261.4H134.67V261.24C134.67 260.06 134.21 259.16 132.09 259.16C130.29 259.16 129.73 259.74 129.73 260.74C129.73 261.74 130.23 262.08 131.71 262.36L133.39 262.68C135.11 263 136.25 263.76 136.25 265.4C136.25 267.16 134.81 268.2 132.53 268.2ZM141.6 268.02C139.78 268.02 138.72 267.3 138.72 265.2V259.36H137.06V258.12H138.74L139.08 255.6H140.16V258.12H143.28V259.36H140.16V265.28C140.16 266.44 140.7 266.7 141.98 266.7H143.28V267.86C142.94 267.92 142.32 268.02 141.6 268.02ZM148.468 268.2C145.568 268.2 143.668 266.06 143.668 263.06C143.668 260.06 145.568 257.92 148.468 257.92C151.348 257.92 153.188 260.06 153.188 263.06C153.188 266.06 151.348 268.2 148.468 268.2ZM148.468 266.92C150.848 266.92 151.788 265.52 151.788 263.06C151.788 260.6 150.848 259.22 148.468 259.22C146.048 259.22 145.088 260.6 145.088 263.06C145.088 265.52 146.048 266.92 148.468 266.92ZM156.167 268H154.727V258.12H156.027V260.16H156.087C156.467 259.12 157.507 257.92 159.547 257.92C161.347 257.92 162.427 258.78 162.867 260.18H162.927C163.327 259.12 164.347 257.92 166.387 257.92C168.927 257.92 170.087 259.56 170.087 261.92V268H168.667V262.26C168.667 260.12 167.947 259.18 165.947 259.18C164.067 259.18 163.127 260.1 163.127 262.3V268H161.707V262.26C161.707 260.12 161.007 259.18 159.007 259.18C157.127 259.18 156.167 260.1 156.167 262.3V268ZM176.267 268.2C173.227 268.2 171.647 266.06 171.647 263.06C171.647 260.06 173.427 257.92 176.247 257.92C178.627 257.92 180.587 259.36 180.587 262.28C180.587 262.74 180.547 263.18 180.487 263.46H173.007C173.067 265.64 173.927 266.92 176.287 266.92C178.287 266.92 179.087 266.02 179.087 264.82V264.7H180.507V264.84C180.507 266.74 178.787 268.2 176.267 268.2ZM176.207 259.16C174.007 259.16 173.127 260.42 173.007 262.42H179.227C179.307 260.08 178.147 259.16 176.207 259.16ZM183.677 268H182.237V258H183.537V259.66H183.637C183.957 258.74 184.917 257.92 186.377 257.92C188.417 257.92 189.197 259.38 189.197 261.08V261.64H187.757V261.3C187.757 259.76 187.277 259.16 185.857 259.16C184.317 259.16 183.677 259.86 183.677 261.46V268ZM198.122 268.2C195.422 268.2 193.942 267.06 193.942 264.76V264.72H195.342V264.96C195.342 266.32 195.902 266.98 198.142 266.98C199.982 266.98 200.462 266.46 200.462 265.46C200.462 264.46 199.842 264.1 198.342 263.82L196.702 263.54C195.102 263.24 193.942 262.5 193.942 260.76C193.942 259.06 195.382 257.92 197.722 257.92C199.982 257.92 201.642 259.08 201.642 261.3V261.4H200.262V261.24C200.262 260.06 199.802 259.16 197.682 259.16C195.882 259.16 195.322 259.74 195.322 260.74C195.322 261.74 195.822 262.08 197.302 262.36L198.982 262.68C200.702 263 201.842 263.76 201.842 265.4C201.842 267.16 200.402 268.2 198.122 268.2ZM206.29 268.2C204.49 268.2 203.13 267.28 203.13 265.62C203.13 263.9 204.41 263.14 206.57 262.84L210.05 262.36V261.64C210.05 259.9 209.31 259.2 207.45 259.2C205.65 259.2 204.81 259.9 204.81 261.48V261.78H203.43V261.62C203.43 259.56 205.01 257.92 207.57 257.92C210.21 257.92 211.41 259.62 211.41 261.82V268H210.11V266.18L210.01 266.16C209.43 267.3 208.17 268.2 206.29 268.2ZM204.53 265.52C204.53 266.54 205.17 267 206.69 267C208.39 267 210.05 266.12 210.05 263.78V263.44L206.69 263.92C205.11 264.14 204.53 264.46 204.53 265.52ZM216.954 268.02C215.134 268.02 214.074 267.3 214.074 265.2V259.36H212.414V258.12H214.094L214.434 255.6H215.514V258.12H218.634V259.36H215.514V265.28C215.514 266.44 216.054 266.7 217.334 266.7H218.634V267.86C218.294 267.92 217.674 268.02 216.954 268.02ZM221.113 256.8H219.693V254.6H221.113V256.8ZM221.113 268H219.693V258H221.113V268ZM227.029 268.2C224.329 268.2 222.849 267.06 222.849 264.76V264.72H224.249V264.96C224.249 266.32 224.809 266.98 227.049 266.98C228.889 266.98 229.369 266.46 229.369 265.46C229.369 264.46 228.749 264.1 227.249 263.82L225.609 263.54C224.009 263.24 222.849 262.5 222.849 260.76C222.849 259.06 224.289 257.92 226.629 257.92C228.889 257.92 230.549 259.08 230.549 261.3V261.4H229.169V261.24C229.169 260.06 228.709 259.16 226.589 259.16C224.789 259.16 224.229 259.74 224.229 260.74C224.229 261.74 224.729 262.08 226.209 262.36L227.889 262.68C229.609 263 230.749 263.76 230.749 265.4C230.749 267.16 229.309 268.2 227.029 268.2ZM234.32 268H232.9V259.36H231.44V258.12H232.9V257.74C232.9 255.7 234.04 254.6 236.22 254.6H237.1V255.78H235.96C234.82 255.78 234.3 256.26 234.3 257.26V258.12H237.1V259.36H234.32V268ZM240.447 268.2C238.647 268.2 237.287 267.28 237.287 265.62C237.287 263.9 238.567 263.14 240.727 262.84L244.207 262.36V261.64C244.207 259.9 243.467 259.2 241.607 259.2C239.807 259.2 238.967 259.9 238.967 261.48V261.78H237.587V261.62C237.587 259.56 239.167 257.92 241.727 257.92C244.367 257.92 245.567 259.62 245.567 261.82V268H244.267V266.18L244.167 266.16C243.587 267.3 242.327 268.2 240.447 268.2ZM238.687 265.52C238.687 266.54 239.327 267 240.847 267C242.547 267 244.207 266.12 244.207 263.78V263.44L240.847 263.92C239.267 264.14 238.687 264.46 238.687 265.52ZM251.807 268.22C248.887 268.22 247.127 266.08 247.127 263.08C247.127 260.06 248.887 257.92 251.807 257.92C254.327 257.92 256.027 259.54 256.027 261.86V262H254.607V261.88C254.607 260.16 253.687 259.22 251.747 259.22C249.487 259.22 248.547 260.64 248.547 263.08C248.547 265.5 249.487 266.92 251.747 266.92C253.687 266.92 254.607 265.98 254.607 264.26V264.14H256.027V264.28C256.027 266.6 254.327 268.22 251.807 268.22ZM261.183 268.02C259.363 268.02 258.303 267.3 258.303 265.2V259.36H256.643V258.12H258.323L258.663 255.6H259.743V258.12H262.863V259.36H259.743V265.28C259.743 266.44 260.283 266.7 261.563 266.7H262.863V267.86C262.523 267.92 261.903 268.02 261.183 268.02ZM265.342 256.8H263.922V254.6H265.342V256.8ZM265.342 268H263.922V258H265.342V268ZM271.62 268.2C268.72 268.2 266.82 266.06 266.82 263.06C266.82 260.06 268.72 257.92 271.62 257.92C274.5 257.92 276.34 260.06 276.34 263.06C276.34 266.06 274.5 268.2 271.62 268.2ZM271.62 266.92C274 266.92 274.94 265.52 274.94 263.06C274.94 260.6 274 259.22 271.62 259.22C269.2 259.22 268.24 260.6 268.24 263.06C268.24 265.52 269.2 266.92 271.62 266.92ZM279.319 268H277.879V258.12H279.179V260.16H279.239C279.619 259.12 280.739 257.92 282.779 257.92C285.319 257.92 286.479 259.56 286.479 261.94V268H285.059V262.26C285.059 260.12 284.359 259.18 282.339 259.18C280.379 259.18 279.319 260.1 279.319 262.3V268ZM294.652 268.2C292.852 268.2 291.492 267.28 291.492 265.62C291.492 263.9 292.772 263.14 294.932 262.84L298.412 262.36V261.64C298.412 259.9 297.672 259.2 295.812 259.2C294.012 259.2 293.172 259.9 293.172 261.48V261.78H291.792V261.62C291.792 259.56 293.372 257.92 295.932 257.92C298.572 257.92 299.772 259.62 299.772 261.82V268H298.472V266.18L298.372 266.16C297.792 267.3 296.532 268.2 294.652 268.2ZM292.892 265.52C292.892 266.54 293.532 267 295.052 267C296.752 267 298.412 266.12 298.412 263.78V263.44L295.052 263.92C293.472 264.14 292.892 264.46 292.892 265.52ZM303.212 268H301.772V258.12H303.072V260.16H303.132C303.512 259.12 304.632 257.92 306.672 257.92C309.212 257.92 310.372 259.56 310.372 261.94V268H308.952V262.26C308.952 260.12 308.252 259.18 306.232 259.18C304.272 259.18 303.212 260.1 303.212 262.3V268ZM316.254 268.2C313.474 268.2 311.914 266.18 311.914 263.06C311.914 259.94 313.394 257.92 316.094 257.92C317.994 257.92 319.214 258.92 319.634 260V254.6H321.074V268H319.794V266.1H319.714C319.274 267.34 318.114 268.2 316.254 268.2ZM313.354 263.06C313.354 266.08 314.534 266.96 316.494 266.96C318.454 266.96 319.634 265.94 319.634 263.92V262.22C319.634 260.18 318.454 259.16 316.494 259.16C314.554 259.16 313.354 260.04 313.354 263.06ZM2.56 296H1.12V282.6H2.56V287.96H2.64C3.02 287.02 4.04 285.92 6.04 285.92C8.62 285.92 9.72 287.64 9.72 289.9V296H8.3V290.26C8.3 288.12 7.58 287.18 5.58 287.18C3.6 287.18 2.56 288.1 2.56 290.32V296ZM13.198 284.8H11.778V282.6H13.198V284.8ZM13.198 296H11.778V286H13.198V296ZM18.9555 295.12C16.2355 295.12 14.6755 293.32 14.6755 290.52C14.6755 287.72 16.2155 285.92 18.9755 285.92C20.7155 285.92 22.0355 286.78 22.4755 288.04H22.5555V286.12H23.8355V295.58C23.8355 298.26 22.1155 299.6 19.5155 299.6C16.9955 299.6 15.2155 298.28 15.2155 296H16.6355C16.6355 297.62 17.4555 298.32 19.5355 298.32C21.6555 298.32 22.3955 297.56 22.3955 295.58V293.06H22.3755C21.9155 294.2 20.6755 295.12 18.9555 295.12ZM16.1155 290.52C16.1155 293.14 17.3755 293.88 19.2955 293.88C21.0755 293.88 22.3955 292.86 22.3955 290.82V290.22C22.3955 288.18 21.0555 287.16 19.2155 287.16C17.3355 287.16 16.1155 287.92 16.1155 290.52ZM27.3116 296H25.8716V282.6H27.3116V287.96H27.3916C27.7716 287.02 28.7916 285.92 30.7916 285.92C33.3716 285.92 34.4716 287.64 34.4716 289.9V296H33.0516V290.26C33.0516 288.12 32.3316 287.18 30.3316 287.18C28.3516 287.18 27.3116 288.1 27.3116 290.32V296ZM40.7705 296.2C37.7305 296.2 36.1505 294.06 36.1505 291.06C36.1505 288.06 37.9305 285.92 40.7505 285.92C43.1305 285.92 45.0905 287.36 45.0905 290.28C45.0905 290.74 45.0505 291.18 44.9905 291.46H37.5105C37.5705 293.64 38.4305 294.92 40.7905 294.92C42.7905 294.92 43.5905 294.02 43.5905 292.82V292.7H45.0105V292.84C45.0105 294.74 43.2905 296.2 40.7705 296.2ZM40.7105 287.16C38.5105 287.16 37.6305 288.42 37.5105 290.42H43.7305C43.8105 288.08 42.6505 287.16 40.7105 287.16ZM48.1811 296H46.7411V286H48.0411V287.66H48.1411C48.4611 286.74 49.4211 285.92 50.8811 285.92C52.9211 285.92 53.7011 287.38 53.7011 289.08V289.64H52.2611V289.3C52.2611 287.76 51.7811 287.16 50.3611 287.16C48.8211 287.16 48.1811 287.86 48.1811 289.46V296ZM62.9062 296.22C59.9862 296.22 58.2262 294.08 58.2262 291.08C58.2262 288.06 59.9862 285.92 62.9062 285.92C65.4262 285.92 67.1262 287.54 67.1262 289.86V290H65.7062V289.88C65.7062 288.16 64.7862 287.22 62.8462 287.22C60.5862 287.22 59.6462 288.64 59.6462 291.08C59.6462 293.5 60.5862 294.92 62.8462 294.92C64.7862 294.92 65.7062 293.98 65.7062 292.26V292.14H67.1262V292.28C67.1262 294.6 65.4262 296.22 62.9062 296.22ZM73.1778 296.2C70.2778 296.2 68.3778 294.06 68.3778 291.06C68.3778 288.06 70.2778 285.92 73.1778 285.92C76.0578 285.92 77.8978 288.06 77.8978 291.06C77.8978 294.06 76.0578 296.2 73.1778 296.2ZM73.1778 294.92C75.5578 294.92 76.4978 293.52 76.4978 291.06C76.4978 288.6 75.5578 287.22 73.1778 287.22C70.7578 287.22 69.7978 288.6 69.7978 291.06C69.7978 293.52 70.7578 294.92 73.1778 294.92ZM80.8772 296H79.4372V286.12H80.7372V288.16H80.7972C81.1772 287.12 82.2972 285.92 84.3372 285.92C86.8772 285.92 88.0372 287.56 88.0372 289.94V296H86.6172V290.26C86.6172 288.12 85.9172 287.18 83.8972 287.18C81.9372 287.18 80.8772 288.1 80.8772 290.3V296ZM94.5464 296H92.7664L88.7264 286.12H90.2864L93.6264 294.6H93.7264L97.0464 286.12H98.5864L94.5464 296ZM103.374 296.2C100.334 296.2 98.7544 294.06 98.7544 291.06C98.7544 288.06 100.534 285.92 103.354 285.92C105.734 285.92 107.694 287.36 107.694 290.28C107.694 290.74 107.654 291.18 107.594 291.46H100.114C100.174 293.64 101.034 294.92 103.394 294.92C105.394 294.92 106.194 294.02 106.194 292.82V292.7H107.614V292.84C107.614 294.74 105.894 296.2 103.374 296.2ZM103.314 287.16C101.114 287.16 100.234 288.42 100.114 290.42H106.334C106.414 288.08 105.254 287.16 103.314 287.16ZM110.785 296H109.345V286H110.645V287.66H110.745C111.065 286.74 112.025 285.92 113.485 285.92C115.525 285.92 116.305 287.38 116.305 289.08V289.64H114.865V289.3C114.865 287.76 114.385 287.16 112.965 287.16C111.425 287.16 110.785 287.86 110.785 289.46V296ZM121.739 296.2C119.039 296.2 117.559 295.06 117.559 292.76V292.72H118.959V292.96C118.959 294.32 119.519 294.98 121.759 294.98C123.599 294.98 124.079 294.46 124.079 293.46C124.079 292.46 123.459 292.1 121.959 291.82L120.319 291.54C118.719 291.24 117.559 290.5 117.559 288.76C117.559 287.06 118.999 285.92 121.339 285.92C123.599 285.92 125.259 287.08 125.259 289.3V289.4H123.879V289.24C123.879 288.06 123.419 287.16 121.299 287.16C119.499 287.16 118.939 287.74 118.939 288.74C118.939 289.74 119.439 290.08 120.919 290.36L122.599 290.68C124.319 291 125.459 291.76 125.459 293.4C125.459 295.16 124.019 296.2 121.739 296.2ZM128.528 284.8H127.108V282.6H128.528V284.8ZM128.528 296H127.108V286H128.528V296ZM134.805 296.2C131.905 296.2 130.005 294.06 130.005 291.06C130.005 288.06 131.905 285.92 134.805 285.92C137.685 285.92 139.525 288.06 139.525 291.06C139.525 294.06 137.685 296.2 134.805 296.2ZM134.805 294.92C137.185 294.92 138.125 293.52 138.125 291.06C138.125 288.6 137.185 287.22 134.805 287.22C132.385 287.22 131.425 288.6 131.425 291.06C131.425 293.52 132.385 294.92 134.805 294.92ZM142.505 296H141.065V286.12H142.365V288.16H142.425C142.805 287.12 143.925 285.92 145.965 285.92C148.505 285.92 149.665 287.56 149.665 289.94V296H148.245V290.26C148.245 288.12 147.545 287.18 145.525 287.18C143.565 287.18 142.505 288.1 142.505 290.3V296ZM156.577 296H155.137V286H156.437V287.66H156.537C156.857 286.74 157.817 285.92 159.277 285.92C161.317 285.92 162.097 287.38 162.097 289.08V289.64H160.657V289.3C160.657 287.76 160.177 287.16 158.757 287.16C157.217 287.16 156.577 287.86 156.577 289.46V296ZM165.801 296.2C164.001 296.2 162.641 295.28 162.641 293.62C162.641 291.9 163.921 291.14 166.081 290.84L169.561 290.36V289.64C169.561 287.9 168.821 287.2 166.961 287.2C165.161 287.2 164.321 287.9 164.321 289.48V289.78H162.941V289.62C162.941 287.56 164.521 285.92 167.081 285.92C169.721 285.92 170.921 287.62 170.921 289.82V296H169.621V294.18L169.521 294.16C168.941 295.3 167.681 296.2 165.801 296.2ZM164.041 293.52C164.041 294.54 164.681 295 166.201 295C167.901 295 169.561 294.12 169.561 291.78V291.44L166.201 291.92C164.621 292.14 164.041 292.46 164.041 293.52ZM176.465 296.02C174.645 296.02 173.585 295.3 173.585 293.2V287.36H171.925V286.12H173.605L173.945 283.6H175.025V286.12H178.145V287.36H175.025V293.28C175.025 294.44 175.565 294.7 176.845 294.7H178.145V295.86C177.805 295.92 177.185 296.02 176.465 296.02ZM183.152 296.2C180.112 296.2 178.532 294.06 178.532 291.06C178.532 288.06 180.312 285.92 183.132 285.92C185.512 285.92 187.472 287.36 187.472 290.28C187.472 290.74 187.432 291.18 187.372 291.46H179.892C179.952 293.64 180.812 294.92 183.172 294.92C185.172 294.92 185.972 294.02 185.972 292.82V292.7H187.392V292.84C187.392 294.74 185.672 296.2 183.152 296.2ZM183.092 287.16C180.892 287.16 180.012 288.42 179.892 290.42H186.112C186.192 288.08 185.032 287.16 183.092 287.16ZM193.22 296.2C190.52 296.2 189.04 295.06 189.04 292.76V292.72H190.44V292.96C190.44 294.32 191 294.98 193.24 294.98C195.08 294.98 195.56 294.46 195.56 293.46C195.56 292.46 194.94 292.1 193.44 291.82L191.8 291.54C190.2 291.24 189.04 290.5 189.04 288.76C189.04 287.06 190.48 285.92 192.82 285.92C195.08 285.92 196.74 287.08 196.74 289.3V289.4H195.36V289.24C195.36 288.06 194.9 287.16 192.78 287.16C190.98 287.16 190.42 287.74 190.42 288.74C190.42 289.74 190.92 290.08 192.4 290.36L194.08 290.68C195.8 291 196.94 291.76 196.94 293.4C196.94 295.16 195.5 296.2 193.22 296.2ZM199.967 296H198.207V293.22H199.967V296Z" fill="white"/>
</svg>
