<svg width="147" height="137" viewBox="0 0 147 137" fill="none" xmlns="http://www.w3.org/2000/svg">
<path d="M138.293 136.207C138.683 136.597 139.317 136.597 139.707 136.207L146.071 129.843C146.462 129.452 146.462 128.819 146.071 128.429C145.681 128.038 145.047 128.038 144.657 128.429L139 134.085L133.343 128.429C132.953 128.038 132.319 128.038 131.929 128.429C131.538 128.819 131.538 129.452 131.929 129.843L138.293 136.207ZM0.900223 4.68132C0.939199 5.23222 1.41739 5.64723 1.9683 5.60825C2.51921 5.56927 2.93421 5.09108 2.89524 4.54017L0.900223 4.68132ZM3.8998 12.1959C3.79416 11.6538 3.26907 11.3 2.72698 11.4056C2.1849 11.5113 1.83109 12.0364 1.93673 12.5784L3.8998 12.1959ZM3.9694 20.2859C4.14543 20.8094 4.7125 21.091 5.23598 20.915C5.75946 20.739 6.04112 20.1719 5.86509 19.6484L3.9694 20.2859ZM8.80884 26.7699C8.56399 26.2749 7.96418 26.072 7.46914 26.3169C6.97411 26.5618 6.77129 27.1616 7.01615 27.6566L8.80884 26.7699ZM11.0196 34.5684C11.3265 35.0276 11.9475 35.1511 12.4067 34.8442C12.8659 34.5374 12.9894 33.9164 12.6825 33.4572L11.0196 34.5684ZM17.3578 39.6198C16.9993 39.1997 16.3681 39.1497 15.948 39.5082C15.5279 39.8667 15.4779 40.4979 15.8364 40.918L17.3578 39.6198ZM21.3091 46.6947C21.7082 47.0765 22.3412 47.0624 22.723 46.6633C23.1047 46.2642 23.0907 45.6312 22.6916 45.2494L21.3091 46.6947ZM28.542 50.3761C28.1121 50.0294 27.4825 50.0968 27.1358 50.5267C26.7891 50.9566 26.8565 51.5862 27.2864 51.9329L28.542 50.3761ZM33.6361 56.6909C34.0888 57.0072 34.7123 56.8966 35.0286 56.4439C35.3449 55.9912 35.2344 55.3677 34.7816 55.0514L33.6361 56.6909ZM41.3005 59.3346C40.831 59.0436 40.2146 59.1883 39.9236 59.6577C39.6327 60.1271 39.7773 60.7435 40.2467 61.0345L41.3005 59.3346ZM47.0553 65.0463C47.5368 65.3168 48.1464 65.1458 48.4169 64.6643C48.6874 64.1828 48.5164 63.5732 48.0349 63.3027L47.0553 65.0463ZM54.9261 67.0199C54.436 66.7653 53.8323 66.9562 53.5777 67.4463C53.3231 67.9364 53.514 68.5401 54.0041 68.7947L54.9261 67.0199ZM61.0485 72.3434C61.5445 72.5864 62.1435 72.3814 62.3865 71.8854C62.6295 71.3895 62.4245 70.7905 61.9286 70.5474L61.0485 72.3434ZM69.0054 73.9433C68.5059 73.7078 67.91 73.9218 67.6745 74.4214C67.439 74.9209 67.653 75.5168 68.1526 75.7523L69.0054 73.9433ZM75.2853 79.0789C75.7865 79.311 76.3808 79.0928 76.6129 78.5916C76.8449 78.0904 76.6267 77.4961 76.1256 77.264L75.2853 79.0789ZM83.26 80.5667C82.7591 80.334 82.1644 80.5514 81.9318 81.0523C81.6991 81.5532 81.9165 82.1478 82.4174 82.3805L83.26 80.5667ZM89.5208 85.7177C90.0193 85.9555 90.6162 85.7442 90.8539 85.2457C91.0917 84.7472 90.8804 84.1503 90.3819 83.9126L89.5208 85.7177ZM97.4736 87.3761C96.98 87.1283 96.379 87.3274 96.1311 87.821C95.8833 88.3145 96.0824 88.9155 96.576 89.1634L97.4736 87.3761ZM103.526 92.7872C104.011 93.051 104.618 92.8717 104.882 92.3865C105.146 91.9013 104.967 91.2941 104.482 91.0302L103.526 92.7872ZM111.343 94.9667C110.871 94.6797 110.256 94.8295 109.969 95.3013C109.682 95.7731 109.832 96.3883 110.304 96.6754L111.343 94.9667ZM116.809 100.93C117.26 101.249 117.884 101.142 118.203 100.691C118.522 100.24 118.415 99.616 117.964 99.297L116.809 100.93ZM124.253 104.199C123.835 103.837 123.204 103.882 122.842 104.3C122.48 104.717 122.525 105.349 122.943 105.71L124.253 104.199ZM128.438 111.127C128.803 111.542 129.435 111.582 129.85 111.218C130.264 110.853 130.305 110.221 129.94 109.806L128.438 111.127ZM134.698 116.266C134.413 115.793 133.799 115.64 133.326 115.924C132.852 116.209 132.699 116.823 132.984 117.297L134.698 116.266ZM136.198 124.211C136.374 124.734 136.941 125.016 137.465 124.839C137.988 124.663 138.27 124.096 138.093 123.573L136.198 124.211ZM139.793 131.438C139.737 130.889 139.245 130.489 138.696 130.546C138.147 130.603 137.747 131.094 137.804 131.644L139.793 131.438ZM0.730398 0.640545C0.749593 2.01133 0.806598 3.35803 0.900223 4.68132L2.89524 4.54017C2.80432 3.25518 2.74888 1.94621 2.7302 0.612538L0.730398 0.640545ZM1.93673 12.5784C2.45751 15.2506 3.13933 17.8174 3.9694 20.2859L5.86509 19.6484C5.06318 17.2637 4.40382 14.782 3.8998 12.1959L1.93673 12.5784ZM7.01615 27.6566C8.20573 30.0616 9.54556 32.3626 11.0196 34.5684L12.6825 33.4572C11.2545 31.3203 9.95848 29.0941 8.80884 26.7699L7.01615 27.6566ZM15.8364 40.918C17.5498 42.9261 19.3793 44.8488 21.3091 46.6947L22.6916 45.2494C20.8067 43.4465 19.0241 41.5727 17.3578 39.6198L15.8364 40.918ZM27.2864 51.9329C29.3278 53.5793 31.449 55.1627 33.6361 56.6909L34.7816 55.0514C32.6284 53.5469 30.5442 51.991 28.542 50.3761L27.2864 51.9329ZM40.2467 61.0345C42.4709 62.4133 44.7446 63.7482 47.0553 65.0463L48.0349 63.3027C45.7461 62.0168 43.4974 60.6964 41.3005 59.3346L40.2467 61.0345ZM54.0041 68.7947C56.3316 70.0039 58.6837 71.1846 61.0485 72.3434L61.9286 70.5474C59.5751 69.3942 57.2373 68.2206 54.9261 67.0199L54.0041 68.7947ZM68.1526 75.7523C70.5321 76.8742 72.9139 77.981 75.2853 79.0789L76.1256 77.264C73.7555 76.1667 71.3787 75.0622 69.0054 73.9433L68.1526 75.7523ZM82.4174 82.3805C84.8118 83.4929 87.1834 84.6028 89.5208 85.7177L90.3819 83.9126C88.0358 82.7935 85.6575 81.6805 83.26 80.5667L82.4174 82.3805ZM96.576 89.1634C98.95 90.3557 101.271 91.5609 103.526 92.7872L104.482 91.0302C102.204 89.7916 99.8632 88.5762 97.4736 87.3761L96.576 89.1634ZM110.304 96.6754C112.574 98.0566 114.748 99.4713 116.809 100.93L117.964 99.297C115.86 97.8082 113.647 96.3682 111.343 94.9667L110.304 96.6754ZM122.943 105.71C124.947 107.446 126.786 109.247 128.438 111.127L129.94 109.806C128.221 107.85 126.316 105.986 124.253 104.199L122.943 105.71ZM132.984 117.297C134.301 119.489 135.382 121.788 136.198 124.211L138.093 123.573C137.228 121.005 136.085 118.575 134.698 116.266L132.984 117.297ZM137.804 131.644C137.934 132.896 138 134.18 138 135.5L140 135.5C140 134.113 139.93 132.76 139.793 131.438L137.804 131.644ZM138.293 136.207C138.683 136.597 139.317 136.597 139.707 136.207L146.071 129.843C146.462 129.452 146.462 128.819 146.071 128.429C145.681 128.038 145.047 128.038 144.657 128.429L139 134.085L133.343 128.429C132.953 128.038 132.319 128.038 131.929 128.429C131.538 128.819 131.538 129.452 131.929 129.843L138.293 136.207ZM0.900223 4.68132C0.939199 5.23222 1.41739 5.64723 1.9683 5.60825C2.51921 5.56927 2.93421 5.09108 2.89524 4.54017L0.900223 4.68132ZM3.8998 12.1959C3.79416 11.6538 3.26907 11.3 2.72698 11.4056C2.1849 11.5113 1.83109 12.0364 1.93673 12.5784L3.8998 12.1959ZM3.9694 20.2859C4.14543 20.8094 4.7125 21.091 5.23598 20.915C5.75946 20.739 6.04112 20.1719 5.86509 19.6484L3.9694 20.2859ZM8.80884 26.7699C8.56399 26.2749 7.96418 26.072 7.46914 26.3169C6.97411 26.5618 6.77129 27.1616 7.01615 27.6566L8.80884 26.7699ZM11.0196 34.5684C11.3265 35.0276 11.9475 35.1511 12.4067 34.8442C12.8659 34.5374 12.9894 33.9164 12.6825 33.4572L11.0196 34.5684ZM17.3578 39.6198C16.9993 39.1997 16.3681 39.1497 15.948 39.5082C15.5279 39.8667 15.4779 40.4979 15.8364 40.918L17.3578 39.6198ZM21.3091 46.6947C21.7082 47.0765 22.3412 47.0624 22.723 46.6633C23.1047 46.2642 23.0907 45.6312 22.6916 45.2494L21.3091 46.6947ZM28.542 50.3761C28.1121 50.0294 27.4825 50.0968 27.1358 50.5267C26.7891 50.9566 26.8565 51.5862 27.2864 51.9329L28.542 50.3761ZM33.6361 56.6909C34.0888 57.0072 34.7123 56.8966 35.0286 56.4439C35.3449 55.9912 35.2344 55.3677 34.7816 55.0514L33.6361 56.6909ZM41.3005 59.3346C40.831 59.0436 40.2146 59.1883 39.9236 59.6577C39.6327 60.1271 39.7773 60.7435 40.2467 61.0345L41.3005 59.3346ZM47.0553 65.0463C47.5368 65.3168 48.1464 65.1458 48.4169 64.6643C48.6874 64.1828 48.5164 63.5732 48.0349 63.3027L47.0553 65.0463ZM54.9261 67.0199C54.436 66.7653 53.8323 66.9562 53.5777 67.4463C53.3231 67.9364 53.514 68.5401 54.0041 68.7947L54.9261 67.0199ZM61.0485 72.3434C61.5445 72.5864 62.1435 72.3814 62.3865 71.8854C62.6295 71.3895 62.4245 70.7905 61.9286 70.5474L61.0485 72.3434ZM69.0054 73.9433C68.5059 73.7078 67.91 73.9218 67.6745 74.4214C67.439 74.9209 67.653 75.5168 68.1526 75.7523L69.0054 73.9433ZM75.2853 79.0789C75.7865 79.311 76.3808 79.0928 76.6129 78.5916C76.8449 78.0904 76.6267 77.4961 76.1256 77.264L75.2853 79.0789ZM83.26 80.5667C82.7591 80.334 82.1644 80.5514 81.9318 81.0523C81.6991 81.5532 81.9165 82.1478 82.4174 82.3805L83.26 80.5667ZM89.5208 85.7177C90.0193 85.9555 90.6162 85.7442 90.8539 85.2457C91.0917 84.7472 90.8804 84.1503 90.3819 83.9126L89.5208 85.7177ZM97.4736 87.3761C96.98 87.1283 96.379 87.3274 96.1311 87.821C95.8833 88.3145 96.0824 88.9155 96.576 89.1634L97.4736 87.3761ZM103.526 92.7872C104.011 93.051 104.618 92.8717 104.882 92.3865C105.146 91.9013 104.967 91.2941 104.482 91.0302L103.526 92.7872ZM111.343 94.9667C110.871 94.6797 110.256 94.8295 109.969 95.3013C109.682 95.7731 109.832 96.3883 110.304 96.6754L111.343 94.9667ZM116.809 100.93C117.26 101.249 117.884 101.142 118.203 100.691C118.522 100.24 118.415 99.616 117.964 99.297L116.809 100.93ZM124.253 104.199C123.835 103.837 123.204 103.882 122.842 104.3C122.48 104.717 122.525 105.349 122.943 105.71L124.253 104.199ZM128.438 111.127C128.803 111.542 129.435 111.582 129.85 111.218C130.264 110.853 130.305 110.221 129.94 109.806L128.438 111.127ZM134.698 116.266C134.413 115.793 133.799 115.64 133.326 115.924C132.852 116.209 132.699 116.823 132.984 117.297L134.698 116.266ZM136.198 124.211C136.374 124.734 136.941 125.016 137.465 124.839C137.988 124.663 138.27 124.096 138.093 123.573L136.198 124.211ZM139.793 131.438C139.737 130.889 139.245 130.489 138.696 130.546C138.147 130.603 137.747 131.094 137.804 131.644L139.793 131.438ZM0.730398 0.640545C0.749593 2.01133 0.806598 3.35803 0.900223 4.68132L2.89524 4.54017C2.80432 3.25518 2.74888 1.94621 2.7302 0.612538L0.730398 0.640545ZM1.93673 12.5784C2.45751 15.2506 3.13933 17.8174 3.9694 20.2859L5.86509 19.6484C5.06318 17.2637 4.40382 14.782 3.8998 12.1959L1.93673 12.5784ZM7.01615 27.6566C8.20573 30.0616 9.54556 32.3626 11.0196 34.5684L12.6825 33.4572C11.2545 31.3203 9.95848 29.0941 8.80884 26.7699L7.01615 27.6566ZM15.8364 40.918C17.5498 42.9261 19.3793 44.8488 21.3091 46.6947L22.6916 45.2494C20.8067 43.4465 19.0241 41.5727 17.3578 39.6198L15.8364 40.918ZM27.2864 51.9329C29.3278 53.5793 31.449 55.1627 33.6361 56.6909L34.7816 55.0514C32.6284 53.5469 30.5442 51.991 28.542 50.3761L27.2864 51.9329ZM40.2467 61.0345C42.4709 62.4133 44.7446 63.7482 47.0553 65.0463L48.0349 63.3027C45.7461 62.0168 43.4974 60.6964 41.3005 59.3346L40.2467 61.0345ZM54.0041 68.7947C56.3316 70.0039 58.6837 71.1846 61.0485 72.3434L61.9286 70.5474C59.5751 69.3942 57.2373 68.2206 54.9261 67.0199L54.0041 68.7947ZM68.1526 75.7523C70.5321 76.8742 72.9139 77.981 75.2853 79.0789L76.1256 77.264C73.7555 76.1667 71.3787 75.0622 69.0054 73.9433L68.1526 75.7523ZM82.4174 82.3805C84.8118 83.4929 87.1834 84.6028 89.5208 85.7177L90.3819 83.9126C88.0358 82.7935 85.6575 81.6805 83.26 80.5667L82.4174 82.3805ZM96.576 89.1634C98.95 90.3557 101.271 91.5609 103.526 92.7872L104.482 91.0302C102.204 89.7916 99.8632 88.5762 97.4736 87.3761L96.576 89.1634ZM110.304 96.6754C112.574 98.0566 114.748 99.4713 116.809 100.93L117.964 99.297C115.86 97.8082 113.647 96.3682 111.343 94.9667L110.304 96.6754ZM122.943 105.71C124.947 107.446 126.786 109.247 128.438 111.127L129.94 109.806C128.221 107.85 126.316 105.986 124.253 104.199L122.943 105.71ZM132.984 117.297C134.301 119.489 135.382 121.788 136.198 124.211L138.093 123.573C137.228 121.005 136.085 118.575 134.698 116.266L132.984 117.297ZM137.804 131.644C137.934 132.896 138 134.18 138 135.5L140 135.5C140 134.113 139.93 132.76 139.793 131.438L137.804 131.644Z" fill="#4E0CC9"/>
</svg>
