<svg width="147" height="137" viewBox="0 0 147 137" fill="none" xmlns="http://www.w3.org/2000/svg">
<path d="M8.57652 136.207C8.186 136.597 7.55283 136.597 7.16231 136.207L0.798342 129.843C0.407817 129.452 0.407816 128.819 0.79834 128.429C1.18886 128.038 1.82203 128.038 2.21255 128.429L7.86941 134.085L13.5263 128.429C13.9168 128.038 14.55 128.038 14.9405 128.429C15.331 128.819 15.331 129.452 14.9405 129.843L8.57652 136.207ZM145.969 4.68132C145.93 5.23222 145.452 5.64723 144.901 5.60825C144.35 5.56927 143.935 5.09108 143.974 4.54017L145.969 4.68132ZM142.97 12.1959C143.075 11.6538 143.6 11.3 144.142 11.4056C144.684 11.5113 145.038 12.0364 144.933 12.5784L142.97 12.1959ZM142.9 20.2859C142.724 20.8094 142.157 21.091 141.633 20.915C141.11 20.739 140.828 20.1719 141.004 19.6484L142.9 20.2859ZM138.061 26.7699C138.305 26.2749 138.905 26.072 139.4 26.3169C139.895 26.5618 140.098 27.1616 139.853 27.6566L138.061 26.7699ZM135.85 34.5684C135.543 35.0276 134.922 35.1511 134.463 34.8442C134.004 34.5374 133.88 33.9164 134.187 33.4572L135.85 34.5684ZM129.512 39.6198C129.87 39.1997 130.501 39.1497 130.921 39.5082C131.342 39.8667 131.391 40.4979 131.033 40.918L129.512 39.6198ZM125.56 46.6947C125.161 47.0765 124.528 47.0624 124.146 46.6633C123.765 46.2642 123.779 45.6312 124.178 45.2494L125.56 46.6947ZM118.327 50.3761C118.757 50.0294 119.387 50.0968 119.734 50.5267C120.08 50.9566 120.013 51.5862 119.583 51.9329L118.327 50.3761ZM113.233 56.6909C112.781 57.0072 112.157 56.8966 111.841 56.4439C111.524 55.9912 111.635 55.3677 112.088 55.0514L113.233 56.6909ZM105.569 59.3346C106.038 59.0436 106.655 59.1883 106.946 59.6577C107.237 60.1271 107.092 60.7435 106.623 61.0345L105.569 59.3346ZM99.8141 65.0463C99.3326 65.3168 98.723 65.1458 98.4525 64.6643C98.182 64.1828 98.353 63.5732 98.8345 63.3027L99.8141 65.0463ZM91.9433 67.0199C92.4333 66.7653 93.0371 66.9562 93.2917 67.4463C93.5463 67.9364 93.3554 68.5401 92.8653 68.7947L91.9433 67.0199ZM85.8209 72.3434C85.3249 72.5864 84.7259 72.3814 84.4829 71.8854C84.2398 71.3895 84.4449 70.7905 84.9408 70.5474L85.8209 72.3434ZM77.8639 73.9433C78.3635 73.7078 78.9594 73.9218 79.1949 74.4214C79.4304 74.9209 79.2164 75.5168 78.7168 75.7523L77.8639 73.9433ZM71.5841 79.0789C71.0829 79.311 70.4885 79.0928 70.2565 78.5916C70.0245 78.0904 70.2426 77.4961 70.7438 77.264L71.5841 79.0789ZM63.6094 80.5667C64.1103 80.334 64.7049 80.5514 64.9376 81.0523C65.1703 81.5532 64.9529 82.1478 64.452 82.3805L63.6094 80.5667ZM57.3485 85.7177C56.8501 85.9555 56.2532 85.7442 56.0154 85.2457C55.7777 84.7472 55.989 84.1503 56.4875 83.9126L57.3485 85.7177ZM49.3958 87.3761C49.8893 87.1283 50.4904 87.3274 50.7382 87.821C50.9861 88.3145 50.7869 88.9155 50.2934 89.1634L49.3958 87.3761ZM43.3433 92.7872C42.8582 93.051 42.2509 92.8717 41.9871 92.3865C41.7232 91.9013 41.9026 91.2941 42.3878 91.0302L43.3433 92.7872ZM35.5262 94.9667C35.998 94.6797 36.6132 94.8295 36.9002 95.3013C37.1873 95.7731 37.0375 96.3883 36.5657 96.6754L35.5262 94.9667ZM30.0602 100.93C29.6094 101.249 28.9853 101.142 28.6663 100.691C28.3473 100.24 28.4542 99.616 28.905 99.297L30.0602 100.93ZM22.6169 104.199C23.0343 103.837 23.6658 103.882 24.0275 104.3C24.3891 104.717 24.3439 105.349 23.9265 105.71L22.6169 104.199ZM18.4311 111.127C18.0665 111.542 17.4346 111.582 17.0198 111.218C16.605 110.853 16.5644 110.221 16.929 109.806L18.4311 111.127ZM12.1716 116.266C12.4561 115.793 13.0704 115.64 13.5438 115.924C14.0172 116.209 14.1703 116.823 13.8858 117.297L12.1716 116.266ZM10.6715 124.211C10.4952 124.734 9.928 125.016 9.4046 124.839C8.88121 124.663 8.59983 124.096 8.77612 123.573L10.6715 124.211ZM7.07588 131.438C7.13269 130.889 7.62409 130.489 8.17344 130.546C8.7228 130.603 9.12209 131.094 9.06527 131.644L7.07588 131.438ZM146.139 0.640545C146.12 2.01133 146.063 3.35803 145.969 4.68132L143.974 4.54017C144.065 3.25518 144.121 1.94621 144.139 0.612538L146.139 0.640545ZM144.933 12.5784C144.412 15.2506 143.73 17.8174 142.9 20.2859L141.004 19.6484C141.806 17.2637 142.466 14.782 142.97 12.1959L144.933 12.5784ZM139.853 27.6566C138.664 30.0616 137.324 32.3626 135.85 34.5684L134.187 33.4572C135.615 31.3203 136.911 29.0941 138.061 26.7699L139.853 27.6566ZM131.033 40.918C129.32 42.9261 127.49 44.8488 125.56 46.6947L124.178 45.2494C126.063 43.4465 127.845 41.5727 129.512 39.6198L131.033 40.918ZM119.583 51.9329C117.542 53.5793 115.42 55.1627 113.233 56.6909L112.088 55.0514C114.241 53.5469 116.325 51.991 118.327 50.3761L119.583 51.9329ZM106.623 61.0345C104.398 62.4133 102.125 63.7482 99.8141 65.0463L98.8345 63.3027C101.123 62.0168 103.372 60.6964 105.569 59.3346L106.623 61.0345ZM92.8653 68.7947C90.5378 70.0039 88.1857 71.1846 85.8209 72.3434L84.9408 70.5474C87.2943 69.3942 89.6321 68.2206 91.9433 67.0199L92.8653 68.7947ZM78.7168 75.7523C76.3373 76.8742 73.9555 77.981 71.5841 79.0789L70.7438 77.264C73.1139 76.1667 75.4907 75.0622 77.8639 73.9433L78.7168 75.7523ZM64.452 82.3805C62.0576 83.4929 59.686 84.6028 57.3485 85.7177L56.4875 83.9126C58.8336 82.7935 61.2119 81.6805 63.6094 80.5667L64.452 82.3805ZM50.2934 89.1634C47.9193 90.3557 45.5981 91.5609 43.3433 92.7872L42.3878 91.0302C44.6652 89.7916 47.0062 88.5762 49.3958 87.3761L50.2934 89.1634ZM36.5657 96.6754C34.2953 98.0566 32.1212 99.4713 30.0602 100.93L28.905 99.297C31.0091 97.8082 33.2225 96.3682 35.5262 94.9667L36.5657 96.6754ZM23.9265 105.71C21.9226 107.446 20.0834 109.247 18.4311 111.127L16.929 109.806C18.6486 107.85 20.5538 105.986 22.6169 104.199L23.9265 105.71ZM13.8858 117.297C12.568 119.489 11.4876 121.788 10.6715 124.211L8.77612 123.573C9.64099 121.005 10.7839 118.575 12.1716 116.266L13.8858 117.297ZM9.06527 131.644C8.93578 132.896 8.86941 134.18 8.86941 135.5L6.86941 135.5C6.86941 134.113 6.93917 132.76 7.07588 131.438L9.06527 131.644ZM8.57652 136.207C8.186 136.597 7.55283 136.597 7.16231 136.207L0.798342 129.843C0.407817 129.452 0.407816 128.819 0.79834 128.429C1.18886 128.038 1.82203 128.038 2.21255 128.429L7.86941 134.085L13.5263 128.429C13.9168 128.038 14.55 128.038 14.9405 128.429C15.331 128.819 15.331 129.452 14.9405 129.843L8.57652 136.207ZM145.969 4.68132C145.93 5.23222 145.452 5.64723 144.901 5.60825C144.35 5.56927 143.935 5.09108 143.974 4.54017L145.969 4.68132ZM142.97 12.1959C143.075 11.6538 143.6 11.3 144.142 11.4056C144.684 11.5113 145.038 12.0364 144.933 12.5784L142.97 12.1959ZM142.9 20.2859C142.724 20.8094 142.157 21.091 141.633 20.915C141.11 20.739 140.828 20.1719 141.004 19.6484L142.9 20.2859ZM138.061 26.7699C138.305 26.2749 138.905 26.072 139.4 26.3169C139.895 26.5618 140.098 27.1616 139.853 27.6566L138.061 26.7699ZM135.85 34.5684C135.543 35.0276 134.922 35.1511 134.463 34.8442C134.004 34.5374 133.88 33.9164 134.187 33.4572L135.85 34.5684ZM129.512 39.6198C129.87 39.1997 130.501 39.1497 130.921 39.5082C131.342 39.8667 131.391 40.4979 131.033 40.918L129.512 39.6198ZM125.56 46.6947C125.161 47.0765 124.528 47.0624 124.146 46.6633C123.765 46.2642 123.779 45.6312 124.178 45.2494L125.56 46.6947ZM118.327 50.3761C118.757 50.0294 119.387 50.0968 119.734 50.5267C120.08 50.9566 120.013 51.5862 119.583 51.9329L118.327 50.3761ZM113.233 56.6909C112.781 57.0072 112.157 56.8966 111.841 56.4439C111.524 55.9912 111.635 55.3677 112.088 55.0514L113.233 56.6909ZM105.569 59.3346C106.038 59.0436 106.655 59.1883 106.946 59.6577C107.237 60.1271 107.092 60.7435 106.623 61.0345L105.569 59.3346ZM99.8141 65.0463C99.3326 65.3168 98.723 65.1458 98.4525 64.6643C98.182 64.1828 98.353 63.5732 98.8345 63.3027L99.8141 65.0463ZM91.9433 67.0199C92.4333 66.7653 93.0371 66.9562 93.2917 67.4463C93.5463 67.9364 93.3554 68.5401 92.8653 68.7947L91.9433 67.0199ZM85.8209 72.3434C85.3249 72.5864 84.7259 72.3814 84.4829 71.8854C84.2398 71.3895 84.4449 70.7905 84.9408 70.5474L85.8209 72.3434ZM77.8639 73.9433C78.3635 73.7078 78.9594 73.9218 79.1949 74.4214C79.4304 74.9209 79.2164 75.5168 78.7168 75.7523L77.8639 73.9433ZM71.5841 79.0789C71.0829 79.311 70.4885 79.0928 70.2565 78.5916C70.0245 78.0904 70.2426 77.4961 70.7438 77.264L71.5841 79.0789ZM63.6094 80.5667C64.1103 80.334 64.7049 80.5514 64.9376 81.0523C65.1703 81.5532 64.9529 82.1478 64.452 82.3805L63.6094 80.5667ZM57.3485 85.7177C56.8501 85.9555 56.2532 85.7442 56.0154 85.2457C55.7777 84.7472 55.989 84.1503 56.4875 83.9126L57.3485 85.7177ZM49.3958 87.3761C49.8893 87.1283 50.4904 87.3274 50.7382 87.821C50.9861 88.3145 50.7869 88.9155 50.2934 89.1634L49.3958 87.3761ZM43.3433 92.7872C42.8582 93.051 42.2509 92.8717 41.9871 92.3865C41.7232 91.9013 41.9026 91.2941 42.3878 91.0302L43.3433 92.7872ZM35.5262 94.9667C35.998 94.6797 36.6132 94.8295 36.9002 95.3013C37.1873 95.7731 37.0375 96.3883 36.5657 96.6754L35.5262 94.9667ZM30.0602 100.93C29.6094 101.249 28.9853 101.142 28.6663 100.691C28.3473 100.24 28.4542 99.616 28.905 99.297L30.0602 100.93ZM22.6169 104.199C23.0343 103.837 23.6658 103.882 24.0275 104.3C24.3891 104.717 24.3439 105.349 23.9265 105.71L22.6169 104.199ZM18.4311 111.127C18.0665 111.542 17.4346 111.582 17.0198 111.218C16.605 110.853 16.5644 110.221 16.929 109.806L18.4311 111.127ZM12.1716 116.266C12.4561 115.793 13.0704 115.64 13.5438 115.924C14.0172 116.209 14.1703 116.823 13.8858 117.297L12.1716 116.266ZM10.6715 124.211C10.4952 124.734 9.928 125.016 9.4046 124.839C8.88121 124.663 8.59983 124.096 8.77612 123.573L10.6715 124.211ZM7.07588 131.438C7.13269 130.889 7.62409 130.489 8.17344 130.546C8.7228 130.603 9.12209 131.094 9.06527 131.644L7.07588 131.438ZM146.139 0.640545C146.12 2.01133 146.063 3.35803 145.969 4.68132L143.974 4.54017C144.065 3.25518 144.121 1.94621 144.139 0.612538L146.139 0.640545ZM144.933 12.5784C144.412 15.2506 143.73 17.8174 142.9 20.2859L141.004 19.6484C141.806 17.2637 142.466 14.782 142.97 12.1959L144.933 12.5784ZM139.853 27.6566C138.664 30.0616 137.324 32.3626 135.85 34.5684L134.187 33.4572C135.615 31.3203 136.911 29.0941 138.061 26.7699L139.853 27.6566ZM131.033 40.918C129.32 42.9261 127.49 44.8488 125.56 46.6947L124.178 45.2494C126.063 43.4465 127.845 41.5727 129.512 39.6198L131.033 40.918ZM119.583 51.9329C117.542 53.5793 115.42 55.1627 113.233 56.6909L112.088 55.0514C114.241 53.5469 116.325 51.991 118.327 50.3761L119.583 51.9329ZM106.623 61.0345C104.398 62.4133 102.125 63.7482 99.8141 65.0463L98.8345 63.3027C101.123 62.0168 103.372 60.6964 105.569 59.3346L106.623 61.0345ZM92.8653 68.7947C90.5378 70.0039 88.1857 71.1846 85.8209 72.3434L84.9408 70.5474C87.2943 69.3942 89.6321 68.2206 91.9433 67.0199L92.8653 68.7947ZM78.7168 75.7523C76.3373 76.8742 73.9555 77.981 71.5841 79.0789L70.7438 77.264C73.1139 76.1667 75.4907 75.0622 77.8639 73.9433L78.7168 75.7523ZM64.452 82.3805C62.0576 83.4929 59.686 84.6028 57.3485 85.7177L56.4875 83.9126C58.8336 82.7935 61.2119 81.6805 63.6094 80.5667L64.452 82.3805ZM50.2934 89.1634C47.9193 90.3557 45.5981 91.5609 43.3433 92.7872L42.3878 91.0302C44.6652 89.7916 47.0062 88.5762 49.3958 87.3761L50.2934 89.1634ZM36.5657 96.6754C34.2953 98.0566 32.1212 99.4713 30.0602 100.93L28.905 99.297C31.0091 97.8082 33.2225 96.3682 35.5262 94.9667L36.5657 96.6754ZM23.9265 105.71C21.9226 107.446 20.0834 109.247 18.4311 111.127L16.929 109.806C18.6486 107.85 20.5538 105.986 22.6169 104.199L23.9265 105.71ZM13.8858 117.297C12.568 119.489 11.4876 121.788 10.6715 124.211L8.77612 123.573C9.64099 121.005 10.7839 118.575 12.1716 116.266L13.8858 117.297ZM9.06527 131.644C8.93578 132.896 8.86941 134.18 8.86941 135.5L6.86941 135.5C6.86941 134.113 6.93917 132.76 7.07588 131.438L9.06527 131.644Z" fill="#4E0CC9"/>
</svg>
