<svg width="1440" height="1106" viewBox="0 0 1440 1106" fill="none" xmlns="http://www.w3.org/2000/svg">
<rect x="-6.95239" y="-7" width="85.5238" height="85.5238" stroke="#0F0D30" stroke-opacity="0.02" stroke-width="1.71048"/>
<rect x="78.5714" y="-7" width="85.5238" height="85.5238" stroke="#0F0D30" stroke-opacity="0.02" stroke-width="1.71048"/>
<rect x="164.095" y="-7" width="85.5238" height="85.5238" stroke="#0F0D30" stroke-opacity="0.02" stroke-width="1.71048"/>
<rect x="249.619" y="-7" width="85.5238" height="85.5238" stroke="#0F0D30" stroke-opacity="0.02" stroke-width="1.71048"/>
<rect x="335.143" y="-7" width="85.5238" height="85.5238" stroke="#0F0D30" stroke-opacity="0.02" stroke-width="1.71048"/>
<rect x="420.667" y="-7" width="85.5238" height="85.5238" stroke="#0F0D30" stroke-opacity="0.02" stroke-width="1.71048"/>
<rect x="506.19" y="-7" width="85.5238" height="85.5238" stroke="#0F0D30" stroke-opacity="0.02" stroke-width="1.71048"/>
<rect x="591.714" y="-7" width="85.5238" height="85.5238" stroke="#0F0D30" stroke-opacity="0.02" stroke-width="1.71048"/>
<rect x="677.238" y="-7" width="85.5238" height="85.5238" stroke="#0F0D30" stroke-opacity="0.02" stroke-width="1.71048"/>
<rect x="762.762" y="-7" width="85.5238" height="85.5238" stroke="#0F0D30" stroke-opacity="0.02" stroke-width="1.71048"/>
<rect x="848.286" y="-7" width="85.5238" height="85.5238" stroke="#0F0D30" stroke-opacity="0.02" stroke-width="1.71048"/>
<rect x="933.81" y="-7" width="85.5238" height="85.5238" stroke="#0F0D30" stroke-opacity="0.02" stroke-width="1.71048"/>
<rect x="1019.33" y="-7" width="85.5238" height="85.5238" stroke="#0F0D30" stroke-opacity="0.02" stroke-width="1.71048"/>
<rect x="1104.86" y="-7" width="85.5238" height="85.5238" stroke="#0F0D30" stroke-opacity="0.02" stroke-width="1.71048"/>
<rect x="1190.38" y="-7" width="85.5238" height="85.5238" stroke="#0F0D30" stroke-opacity="0.02" stroke-width="1.71048"/>
<rect x="1275.9" y="-7" width="85.5238" height="85.5238" stroke="#0F0D30" stroke-opacity="0.02" stroke-width="1.71048"/>
<rect x="1361.43" y="-7" width="85.5238" height="85.5238" stroke="#0F0D30" stroke-opacity="0.02" stroke-width="1.71048"/>
<rect x="-6.95239" y="78.5239" width="85.5238" height="85.5238" fill="#0F0D30" fill-opacity="0.03" stroke="#0F0D30" stroke-opacity="0.02" stroke-width="1.71048"/>
<rect x="78.5714" y="78.5239" width="85.5238" height="85.5238" stroke="#0F0D30" stroke-opacity="0.02" stroke-width="1.71048"/>
<rect x="164.095" y="78.5239" width="85.5238" height="85.5238" stroke="#0F0D30" stroke-opacity="0.02" stroke-width="1.71048"/>
<rect x="249.619" y="78.5239" width="85.5238" height="85.5238" stroke="#0F0D30" stroke-opacity="0.02" stroke-width="1.71048"/>
<rect x="335.143" y="78.5239" width="85.5238" height="85.5238" stroke="#0F0D30" stroke-opacity="0.02" stroke-width="1.71048"/>
<rect x="420.667" y="78.5239" width="85.5238" height="85.5238" stroke="#0F0D30" stroke-opacity="0.02" stroke-width="1.71048"/>
<rect x="506.19" y="78.5239" width="85.5238" height="85.5238" stroke="#0F0D30" stroke-opacity="0.02" stroke-width="1.71048"/>
<rect x="591.714" y="78.5239" width="85.5238" height="85.5238" fill="#0F0D30" fill-opacity="0.03" stroke="#0F0D30" stroke-opacity="0.02" stroke-width="1.71048"/>
<rect x="677.238" y="78.5239" width="85.5238" height="85.5238" stroke="#0F0D30" stroke-opacity="0.02" stroke-width="1.71048"/>
<rect x="762.762" y="78.5239" width="85.5238" height="85.5238" stroke="#0F0D30" stroke-opacity="0.02" stroke-width="1.71048"/>
<rect x="848.286" y="78.5239" width="85.5238" height="85.5238" stroke="#0F0D30" stroke-opacity="0.02" stroke-width="1.71048"/>
<rect x="933.81" y="78.5239" width="85.5238" height="85.5238" stroke="#0F0D30" stroke-opacity="0.02" stroke-width="1.71048"/>
<rect x="1019.33" y="78.5239" width="85.5238" height="85.5238" stroke="#0F0D30" stroke-opacity="0.02" stroke-width="1.71048"/>
<rect x="1104.86" y="78.5239" width="85.5238" height="85.5238" stroke="#0F0D30" stroke-opacity="0.02" stroke-width="1.71048"/>
<rect x="1190.38" y="78.5239" width="85.5238" height="85.5238" stroke="#0F0D30" stroke-opacity="0.02" stroke-width="1.71048"/>
<rect x="1275.9" y="78.5239" width="85.5238" height="85.5238" stroke="#0F0D30" stroke-opacity="0.02" stroke-width="1.71048"/>
<rect x="1361.43" y="78.5239" width="85.5238" height="85.5238" stroke="#0F0D30" stroke-opacity="0.02" stroke-width="1.71048"/>
<rect x="-6.95239" y="164.048" width="85.5238" height="85.5238" stroke="#0F0D30" stroke-opacity="0.02" stroke-width="1.71048"/>
<rect x="78.5714" y="164.048" width="85.5238" height="85.5238" stroke="#0F0D30" stroke-opacity="0.02" stroke-width="1.71048"/>
<rect x="164.095" y="164.048" width="85.5238" height="85.5238" stroke="#0F0D30" stroke-opacity="0.02" stroke-width="1.71048"/>
<rect x="249.619" y="164.048" width="85.5238" height="85.5238" stroke="#0F0D30" stroke-opacity="0.02" stroke-width="1.71048"/>
<rect x="335.143" y="164.048" width="85.5238" height="85.5238" stroke="#0F0D30" stroke-opacity="0.02" stroke-width="1.71048"/>
<rect x="420.667" y="164.048" width="85.5238" height="85.5238" stroke="#0F0D30" stroke-opacity="0.02" stroke-width="1.71048"/>
<rect x="506.19" y="164.048" width="85.5238" height="85.5238" stroke="#0F0D30" stroke-opacity="0.02" stroke-width="1.71048"/>
<rect x="591.714" y="164.048" width="85.5238" height="85.5238" stroke="#0F0D30" stroke-opacity="0.02" stroke-width="1.71048"/>
<rect x="677.238" y="164.048" width="85.5238" height="85.5238" stroke="#0F0D30" stroke-opacity="0.02" stroke-width="1.71048"/>
<rect x="762.762" y="164.048" width="85.5238" height="85.5238" stroke="#0F0D30" stroke-opacity="0.02" stroke-width="1.71048"/>
<rect x="848.286" y="164.048" width="85.5238" height="85.5238" stroke="#0F0D30" stroke-opacity="0.02" stroke-width="1.71048"/>
<rect x="933.81" y="164.048" width="85.5238" height="85.5238" stroke="#0F0D30" stroke-opacity="0.02" stroke-width="1.71048"/>
<rect x="1019.33" y="164.048" width="85.5238" height="85.5238" stroke="#0F0D30" stroke-opacity="0.02" stroke-width="1.71048"/>
<rect x="1104.86" y="164.048" width="85.5238" height="85.5238" stroke="#0F0D30" stroke-opacity="0.02" stroke-width="1.71048"/>
<rect x="1190.38" y="164.048" width="85.5238" height="85.5238" fill="#0F0D30" fill-opacity="0.03" stroke="#0F0D30" stroke-opacity="0.02" stroke-width="1.71048"/>
<rect x="1275.9" y="164.048" width="85.5238" height="85.5238" stroke="#0F0D30" stroke-opacity="0.02" stroke-width="1.71048"/>
<rect x="1361.43" y="164.048" width="85.5238" height="85.5238" stroke="#0F0D30" stroke-opacity="0.02" stroke-width="1.71048"/>
<rect x="-6.95239" y="249.572" width="85.5238" height="85.5238" stroke="#0F0D30" stroke-opacity="0.02" stroke-width="1.71048"/>
<rect x="78.5714" y="249.572" width="85.5238" height="85.5238" stroke="#0F0D30" stroke-opacity="0.02" stroke-width="1.71048"/>
<rect x="164.095" y="249.572" width="85.5238" height="85.5238" stroke="#0F0D30" stroke-opacity="0.02" stroke-width="1.71048"/>
<rect x="249.619" y="249.572" width="85.5238" height="85.5238" stroke="#0F0D30" stroke-opacity="0.02" stroke-width="1.71048"/>
<rect x="335.143" y="249.572" width="85.5238" height="85.5238" stroke="#0F0D30" stroke-opacity="0.02" stroke-width="1.71048"/>
<rect x="420.667" y="249.572" width="85.5238" height="85.5238" stroke="#0F0D30" stroke-opacity="0.02" stroke-width="1.71048"/>
<rect x="506.19" y="249.572" width="85.5238" height="85.5238" stroke="#0F0D30" stroke-opacity="0.02" stroke-width="1.71048"/>
<rect x="591.714" y="249.572" width="85.5238" height="85.5238" stroke="#0F0D30" stroke-opacity="0.02" stroke-width="1.71048"/>
<rect x="677.238" y="249.572" width="85.5238" height="85.5238" stroke="#0F0D30" stroke-opacity="0.02" stroke-width="1.71048"/>
<rect x="762.762" y="249.572" width="85.5238" height="85.5238" stroke="#0F0D30" stroke-opacity="0.02" stroke-width="1.71048"/>
<rect x="848.286" y="249.572" width="85.5238" height="85.5238" stroke="#0F0D30" stroke-opacity="0.02" stroke-width="1.71048"/>
<rect x="933.81" y="249.572" width="85.5238" height="85.5238" stroke="#0F0D30" stroke-opacity="0.02" stroke-width="1.71048"/>
<rect x="1019.33" y="249.572" width="85.5238" height="85.5238" stroke="#0F0D30" stroke-opacity="0.02" stroke-width="1.71048"/>
<rect x="1104.86" y="249.572" width="85.5238" height="85.5238" stroke="#0F0D30" stroke-opacity="0.02" stroke-width="1.71048"/>
<rect x="1190.38" y="249.572" width="85.5238" height="85.5238" stroke="#0F0D30" stroke-opacity="0.02" stroke-width="1.71048"/>
<rect x="1275.9" y="249.572" width="85.5238" height="85.5238" stroke="#0F0D30" stroke-opacity="0.02" stroke-width="1.71048"/>
<rect x="1361.43" y="249.572" width="85.5238" height="85.5238" stroke="#0F0D30" stroke-opacity="0.02" stroke-width="1.71048"/>
<rect x="-6.95239" y="335.096" width="85.5238" height="85.5238" stroke="#0F0D30" stroke-opacity="0.02" stroke-width="1.71048"/>
<rect x="78.5714" y="335.096" width="85.5238" height="85.5238" fill="#0F0D30" fill-opacity="0.03" stroke="#0F0D30" stroke-opacity="0.02" stroke-width="1.71048"/>
<rect x="164.095" y="335.096" width="85.5238" height="85.5238" stroke="#0F0D30" stroke-opacity="0.02" stroke-width="1.71048"/>
<rect x="249.619" y="335.096" width="85.5238" height="85.5238" stroke="#0F0D30" stroke-opacity="0.02" stroke-width="1.71048"/>
<rect x="335.143" y="335.096" width="85.5238" height="85.5238" stroke="#0F0D30" stroke-opacity="0.02" stroke-width="1.71048"/>
<rect x="420.667" y="335.096" width="85.5238" height="85.5238" stroke="#0F0D30" stroke-opacity="0.02" stroke-width="1.71048"/>
<rect x="506.19" y="335.096" width="85.5238" height="85.5238" stroke="#0F0D30" stroke-opacity="0.02" stroke-width="1.71048"/>
<rect x="591.714" y="335.096" width="85.5238" height="85.5238" stroke="#0F0D30" stroke-opacity="0.02" stroke-width="1.71048"/>
<rect x="677.238" y="335.096" width="85.5238" height="85.5238" stroke="#0F0D30" stroke-opacity="0.02" stroke-width="1.71048"/>
<rect x="762.762" y="335.096" width="85.5238" height="85.5238" stroke="#0F0D30" stroke-opacity="0.02" stroke-width="1.71048"/>
<rect x="848.286" y="335.096" width="85.5238" height="85.5238" fill="#0F0D30" fill-opacity="0.03" stroke="#0F0D30" stroke-opacity="0.02" stroke-width="1.71048"/>
<rect x="933.81" y="335.096" width="85.5238" height="85.5238" stroke="#0F0D30" stroke-opacity="0.02" stroke-width="1.71048"/>
<rect x="1019.33" y="335.096" width="85.5238" height="85.5238" stroke="#0F0D30" stroke-opacity="0.02" stroke-width="1.71048"/>
<rect x="1104.86" y="335.096" width="85.5238" height="85.5238" stroke="#0F0D30" stroke-opacity="0.02" stroke-width="1.71048"/>
<rect x="1190.38" y="335.096" width="85.5238" height="85.5238" stroke="#0F0D30" stroke-opacity="0.02" stroke-width="1.71048"/>
<rect x="1275.9" y="335.096" width="85.5238" height="85.5238" stroke="#0F0D30" stroke-opacity="0.02" stroke-width="1.71048"/>
<rect x="1361.43" y="335.096" width="85.5238" height="85.5238" stroke="#0F0D30" stroke-opacity="0.02" stroke-width="1.71048"/>
<rect x="-6.95239" y="420.62" width="85.5238" height="85.5238" stroke="#0F0D30" stroke-opacity="0.02" stroke-width="1.71048"/>
<rect x="78.5714" y="420.62" width="85.5238" height="85.5238" stroke="#0F0D30" stroke-opacity="0.02" stroke-width="1.71048"/>
<rect x="164.095" y="420.62" width="85.5238" height="85.5238" stroke="#0F0D30" stroke-opacity="0.02" stroke-width="1.71048"/>
<rect x="249.619" y="420.62" width="85.5238" height="85.5238" stroke="#0F0D30" stroke-opacity="0.02" stroke-width="1.71048"/>
<rect x="335.143" y="420.62" width="85.5238" height="85.5238" stroke="#0F0D30" stroke-opacity="0.02" stroke-width="1.71048"/>
<rect x="420.667" y="420.62" width="85.5238" height="85.5238" stroke="#0F0D30" stroke-opacity="0.02" stroke-width="1.71048"/>
<rect x="506.19" y="420.62" width="85.5238" height="85.5238" stroke="#0F0D30" stroke-opacity="0.02" stroke-width="1.71048"/>
<rect x="591.714" y="420.62" width="85.5238" height="85.5238" stroke="#0F0D30" stroke-opacity="0.02" stroke-width="1.71048"/>
<rect x="677.238" y="420.62" width="85.5238" height="85.5238" stroke="#0F0D30" stroke-opacity="0.02" stroke-width="1.71048"/>
<rect x="762.762" y="420.62" width="85.5238" height="85.5238" stroke="#0F0D30" stroke-opacity="0.02" stroke-width="1.71048"/>
<rect x="848.286" y="420.62" width="85.5238" height="85.5238" stroke="#0F0D30" stroke-opacity="0.02" stroke-width="1.71048"/>
<rect x="933.81" y="420.62" width="85.5238" height="85.5238" stroke="#0F0D30" stroke-opacity="0.02" stroke-width="1.71048"/>
<rect x="1019.33" y="420.62" width="85.5238" height="85.5238" stroke="#0F0D30" stroke-opacity="0.02" stroke-width="1.71048"/>
<rect x="1104.86" y="420.62" width="85.5238" height="85.5238" stroke="#0F0D30" stroke-opacity="0.02" stroke-width="1.71048"/>
<rect x="1190.38" y="420.62" width="85.5238" height="85.5238" stroke="#0F0D30" stroke-opacity="0.02" stroke-width="1.71048"/>
<rect x="1275.9" y="420.62" width="85.5238" height="85.5238" stroke="#0F0D30" stroke-opacity="0.02" stroke-width="1.71048"/>
<rect x="1361.43" y="420.62" width="85.5238" height="85.5238" fill="#0F0D30" fill-opacity="0.03" stroke="#0F0D30" stroke-opacity="0.02" stroke-width="1.71048"/>
<rect x="-6.95239" y="506.144" width="85.5238" height="85.5238" stroke="#0F0D30" stroke-opacity="0.02" stroke-width="1.71048"/>
<rect x="78.5714" y="506.144" width="85.5238" height="85.5238" stroke="#0F0D30" stroke-opacity="0.02" stroke-width="1.71048"/>
<rect x="164.095" y="506.144" width="85.5238" height="85.5238" stroke="#0F0D30" stroke-opacity="0.02" stroke-width="1.71048"/>
<rect x="249.619" y="506.144" width="85.5238" height="85.5238" stroke="#0F0D30" stroke-opacity="0.02" stroke-width="1.71048"/>
<rect x="335.143" y="506.144" width="85.5238" height="85.5238" stroke="#0F0D30" stroke-opacity="0.02" stroke-width="1.71048"/>
<rect x="420.667" y="506.144" width="85.5238" height="85.5238" stroke="#0F0D30" stroke-opacity="0.02" stroke-width="1.71048"/>
<rect x="506.19" y="506.144" width="85.5238" height="85.5238" stroke="#0F0D30" stroke-opacity="0.02" stroke-width="1.71048"/>
<rect x="591.714" y="506.144" width="85.5238" height="85.5238" stroke="#0F0D30" stroke-opacity="0.02" stroke-width="1.71048"/>
<rect x="677.238" y="506.144" width="85.5238" height="85.5238" stroke="#0F0D30" stroke-opacity="0.02" stroke-width="1.71048"/>
<rect x="762.762" y="506.144" width="85.5238" height="85.5238" stroke="#0F0D30" stroke-opacity="0.02" stroke-width="1.71048"/>
<rect x="848.286" y="506.144" width="85.5238" height="85.5238" stroke="#0F0D30" stroke-opacity="0.02" stroke-width="1.71048"/>
<rect x="933.81" y="506.144" width="85.5238" height="85.5238" stroke="#0F0D30" stroke-opacity="0.02" stroke-width="1.71048"/>
<rect x="1019.33" y="506.144" width="85.5238" height="85.5238" stroke="#0F0D30" stroke-opacity="0.02" stroke-width="1.71048"/>
<rect x="1104.86" y="506.144" width="85.5238" height="85.5238" stroke="#0F0D30" stroke-opacity="0.02" stroke-width="1.71048"/>
<rect x="1190.38" y="506.144" width="85.5238" height="85.5238" stroke="#0F0D30" stroke-opacity="0.02" stroke-width="1.71048"/>
<rect x="1275.9" y="506.144" width="85.5238" height="85.5238" stroke="#0F0D30" stroke-opacity="0.02" stroke-width="1.71048"/>
<rect x="1361.43" y="506.144" width="85.5238" height="85.5238" stroke="#0F0D30" stroke-opacity="0.02" stroke-width="1.71048"/>
<rect x="-6.95239" y="591.667" width="85.5238" height="85.5238" stroke="#0F0D30" stroke-opacity="0.02" stroke-width="1.71048"/>
<rect x="78.5714" y="591.667" width="85.5238" height="85.5238" stroke="#0F0D30" stroke-opacity="0.02" stroke-width="1.71048"/>
<rect x="164.095" y="591.667" width="85.5238" height="85.5238" stroke="#0F0D30" stroke-opacity="0.02" stroke-width="1.71048"/>
<rect x="249.619" y="591.667" width="85.5238" height="85.5238" stroke="#0F0D30" stroke-opacity="0.02" stroke-width="1.71048"/>
<rect x="335.143" y="591.667" width="85.5238" height="85.5238" stroke="#0F0D30" stroke-opacity="0.02" stroke-width="1.71048"/>
<rect x="420.667" y="591.667" width="85.5238" height="85.5238" stroke="#0F0D30" stroke-opacity="0.02" stroke-width="1.71048"/>
<rect x="506.19" y="591.667" width="85.5238" height="85.5238" fill="#0F0D30" fill-opacity="0.03" stroke="#0F0D30" stroke-opacity="0.02" stroke-width="1.71048"/>
<rect x="591.714" y="591.667" width="85.5238" height="85.5238" stroke="#0F0D30" stroke-opacity="0.02" stroke-width="1.71048"/>
<rect x="677.238" y="591.667" width="85.5238" height="85.5238" stroke="#0F0D30" stroke-opacity="0.02" stroke-width="1.71048"/>
<rect x="762.762" y="591.667" width="85.5238" height="85.5238" stroke="#0F0D30" stroke-opacity="0.02" stroke-width="1.71048"/>
<rect x="848.286" y="591.667" width="85.5238" height="85.5238" stroke="#0F0D30" stroke-opacity="0.02" stroke-width="1.71048"/>
<rect x="933.81" y="591.667" width="85.5238" height="85.5238" stroke="#0F0D30" stroke-opacity="0.02" stroke-width="1.71048"/>
<rect x="1019.33" y="591.667" width="85.5238" height="85.5238" stroke="#0F0D30" stroke-opacity="0.02" stroke-width="1.71048"/>
<rect x="1104.86" y="591.667" width="85.5238" height="85.5238" stroke="#0F0D30" stroke-opacity="0.02" stroke-width="1.71048"/>
<rect x="1190.38" y="591.667" width="85.5238" height="85.5238" stroke="#0F0D30" stroke-opacity="0.02" stroke-width="1.71048"/>
<rect x="1275.9" y="591.667" width="85.5238" height="85.5238" stroke="#0F0D30" stroke-opacity="0.02" stroke-width="1.71048"/>
<rect x="1361.43" y="591.667" width="85.5238" height="85.5238" stroke="#0F0D30" stroke-opacity="0.02" stroke-width="1.71048"/>
<rect x="-6.95239" y="677.191" width="85.5238" height="85.5238" stroke="#0F0D30" stroke-opacity="0.02" stroke-width="1.71048"/>
<rect x="78.5714" y="677.191" width="85.5238" height="85.5238" stroke="#0F0D30" stroke-opacity="0.02" stroke-width="1.71048"/>
<rect x="164.095" y="677.191" width="85.5238" height="85.5238" fill="#0F0D30" fill-opacity="0.03" stroke="#0F0D30" stroke-opacity="0.02" stroke-width="1.71048"/>
<rect x="249.619" y="677.191" width="85.5238" height="85.5238" stroke="#0F0D30" stroke-opacity="0.02" stroke-width="1.71048"/>
<rect x="335.143" y="677.191" width="85.5238" height="85.5238" stroke="#0F0D30" stroke-opacity="0.02" stroke-width="1.71048"/>
<rect x="420.667" y="677.191" width="85.5238" height="85.5238" stroke="#0F0D30" stroke-opacity="0.02" stroke-width="1.71048"/>
<rect x="506.19" y="677.191" width="85.5238" height="85.5238" stroke="#0F0D30" stroke-opacity="0.02" stroke-width="1.71048"/>
<rect x="591.714" y="677.191" width="85.5238" height="85.5238" stroke="#0F0D30" stroke-opacity="0.02" stroke-width="1.71048"/>
<rect x="677.238" y="677.191" width="85.5238" height="85.5238" stroke="#0F0D30" stroke-opacity="0.02" stroke-width="1.71048"/>
<rect x="762.762" y="677.191" width="85.5238" height="85.5238" stroke="#0F0D30" stroke-opacity="0.02" stroke-width="1.71048"/>
<rect x="848.286" y="677.191" width="85.5238" height="85.5238" stroke="#0F0D30" stroke-opacity="0.02" stroke-width="1.71048"/>
<rect x="933.81" y="677.191" width="85.5238" height="85.5238" stroke="#0F0D30" stroke-opacity="0.02" stroke-width="1.71048"/>
<rect x="1019.33" y="677.191" width="85.5238" height="85.5238" stroke="#0F0D30" stroke-opacity="0.02" stroke-width="1.71048"/>
<rect x="1104.86" y="677.191" width="85.5238" height="85.5238" stroke="#0F0D30" stroke-opacity="0.02" stroke-width="1.71048"/>
<rect x="1190.38" y="677.191" width="85.5238" height="85.5238" stroke="#0F0D30" stroke-opacity="0.02" stroke-width="1.71048"/>
<rect x="1275.9" y="677.191" width="85.5238" height="85.5238" stroke="#0F0D30" stroke-opacity="0.02" stroke-width="1.71048"/>
<rect x="1361.43" y="677.191" width="85.5238" height="85.5238" stroke="#0F0D30" stroke-opacity="0.02" stroke-width="1.71048"/>
<rect x="-6.95239" y="762.712" width="85.5238" height="85.5238" stroke="#0F0D30" stroke-opacity="0.02" stroke-width="1.71048"/>
<rect x="78.5714" y="762.712" width="85.5238" height="85.5238" stroke="#0F0D30" stroke-opacity="0.02" stroke-width="1.71048"/>
<rect x="164.095" y="762.712" width="85.5238" height="85.5238" stroke="#0F0D30" stroke-opacity="0.02" stroke-width="1.71048"/>
<rect x="249.619" y="762.712" width="85.5238" height="85.5238" stroke="#0F0D30" stroke-opacity="0.02" stroke-width="1.71048"/>
<rect x="335.143" y="762.712" width="85.5238" height="85.5238" stroke="#0F0D30" stroke-opacity="0.02" stroke-width="1.71048"/>
<rect x="420.667" y="762.712" width="85.5238" height="85.5238" stroke="#0F0D30" stroke-opacity="0.02" stroke-width="1.71048"/>
<rect x="506.19" y="762.712" width="85.5238" height="85.5238" stroke="#0F0D30" stroke-opacity="0.02" stroke-width="1.71048"/>
<rect x="591.714" y="762.712" width="85.5238" height="85.5238" stroke="#0F0D30" stroke-opacity="0.02" stroke-width="1.71048"/>
<rect x="677.238" y="762.712" width="85.5238" height="85.5238" stroke="#0F0D30" stroke-opacity="0.02" stroke-width="1.71048"/>
<rect x="762.762" y="762.712" width="85.5238" height="85.5238" stroke="#0F0D30" stroke-opacity="0.02" stroke-width="1.71048"/>
<rect x="848.286" y="762.712" width="85.5238" height="85.5238" stroke="#0F0D30" stroke-opacity="0.02" stroke-width="1.71048"/>
<rect x="933.81" y="762.712" width="85.5238" height="85.5238" stroke="#0F0D30" stroke-opacity="0.02" stroke-width="1.71048"/>
<rect x="1019.33" y="762.712" width="85.5238" height="85.5238" stroke="#0F0D30" stroke-opacity="0.02" stroke-width="1.71048"/>
<rect x="1104.86" y="762.712" width="85.5238" height="85.5238" stroke="#0F0D30" stroke-opacity="0.02" stroke-width="1.71048"/>
<rect x="1190.38" y="762.712" width="85.5238" height="85.5238" stroke="#0F0D30" stroke-opacity="0.02" stroke-width="1.71048"/>
<rect x="1275.9" y="762.712" width="85.5238" height="85.5238" stroke="#0F0D30" stroke-opacity="0.02" stroke-width="1.71048"/>
<rect x="1361.43" y="762.712" width="85.5238" height="85.5238" stroke="#0F0D30" stroke-opacity="0.02" stroke-width="1.71048"/>
<rect x="-6.95239" y="848.239" width="85.5238" height="85.5238" stroke="#0F0D30" stroke-opacity="0.02" stroke-width="1.71048"/>
<rect x="78.5714" y="848.239" width="85.5238" height="85.5238" stroke="#0F0D30" stroke-opacity="0.02" stroke-width="1.71048"/>
<rect x="164.095" y="848.239" width="85.5238" height="85.5238" stroke="#0F0D30" stroke-opacity="0.02" stroke-width="1.71048"/>
<rect x="249.619" y="848.239" width="85.5238" height="85.5238" stroke="#0F0D30" stroke-opacity="0.02" stroke-width="1.71048"/>
<rect x="335.143" y="848.239" width="85.5238" height="85.5238" stroke="#0F0D30" stroke-opacity="0.02" stroke-width="1.71048"/>
<rect x="420.667" y="848.239" width="85.5238" height="85.5238" stroke="#0F0D30" stroke-opacity="0.02" stroke-width="1.71048"/>
<rect x="506.19" y="848.239" width="85.5238" height="85.5238" stroke="#0F0D30" stroke-opacity="0.02" stroke-width="1.71048"/>
<rect x="591.714" y="848.239" width="85.5238" height="85.5238" stroke="#0F0D30" stroke-opacity="0.02" stroke-width="1.71048"/>
<rect x="677.238" y="848.239" width="85.5238" height="85.5238" stroke="#0F0D30" stroke-opacity="0.02" stroke-width="1.71048"/>
<rect x="762.762" y="848.239" width="85.5238" height="85.5238" stroke="#0F0D30" stroke-opacity="0.02" stroke-width="1.71048"/>
<rect x="848.286" y="848.239" width="85.5238" height="85.5238" stroke="#0F0D30" stroke-opacity="0.02" stroke-width="1.71048"/>
<rect x="933.81" y="848.239" width="85.5238" height="85.5238" stroke="#0F0D30" stroke-opacity="0.02" stroke-width="1.71048"/>
<rect x="1019.33" y="848.239" width="85.5238" height="85.5238" stroke="#0F0D30" stroke-opacity="0.02" stroke-width="1.71048"/>
<rect x="1104.86" y="848.239" width="85.5238" height="85.5238" stroke="#0F0D30" stroke-opacity="0.02" stroke-width="1.71048"/>
<rect x="1190.38" y="848.239" width="85.5238" height="85.5238" stroke="#0F0D30" stroke-opacity="0.02" stroke-width="1.71048"/>
<rect x="1275.9" y="848.239" width="85.5238" height="85.5238" stroke="#0F0D30" stroke-opacity="0.02" stroke-width="1.71048"/>
<rect x="1361.43" y="848.239" width="85.5238" height="85.5238" stroke="#0F0D30" stroke-opacity="0.02" stroke-width="1.71048"/>
<rect x="-6.95239" y="933.76" width="85.5238" height="85.5238" stroke="#0F0D30" stroke-opacity="0.02" stroke-width="1.71048"/>
<rect x="78.5714" y="933.76" width="85.5238" height="85.5238" stroke="#0F0D30" stroke-opacity="0.02" stroke-width="1.71048"/>
<rect x="164.095" y="933.76" width="85.5238" height="85.5238" stroke="#0F0D30" stroke-opacity="0.02" stroke-width="1.71048"/>
<rect x="249.619" y="933.76" width="85.5238" height="85.5238" stroke="#0F0D30" stroke-opacity="0.02" stroke-width="1.71048"/>
<rect x="335.143" y="933.76" width="85.5238" height="85.5238" stroke="#0F0D30" stroke-opacity="0.02" stroke-width="1.71048"/>
<rect x="420.667" y="933.76" width="85.5238" height="85.5238" stroke="#0F0D30" stroke-opacity="0.02" stroke-width="1.71048"/>
<rect x="506.19" y="933.76" width="85.5238" height="85.5238" stroke="#0F0D30" stroke-opacity="0.02" stroke-width="1.71048"/>
<rect x="591.714" y="933.76" width="85.5238" height="85.5238" stroke="#0F0D30" stroke-opacity="0.02" stroke-width="1.71048"/>
<rect x="677.238" y="933.76" width="85.5238" height="85.5238" stroke="#0F0D30" stroke-opacity="0.02" stroke-width="1.71048"/>
<rect x="762.762" y="933.76" width="85.5238" height="85.5238" stroke="#0F0D30" stroke-opacity="0.02" stroke-width="1.71048"/>
<rect x="848.286" y="933.76" width="85.5238" height="85.5238" stroke="#0F0D30" stroke-opacity="0.02" stroke-width="1.71048"/>
<rect x="933.81" y="933.76" width="85.5238" height="85.5238" stroke="#0F0D30" stroke-opacity="0.02" stroke-width="1.71048"/>
<rect x="1019.33" y="933.76" width="85.5238" height="85.5238" stroke="#0F0D30" stroke-opacity="0.02" stroke-width="1.71048"/>
<rect x="1104.86" y="933.76" width="85.5238" height="85.5238" stroke="#0F0D30" stroke-opacity="0.02" stroke-width="1.71048"/>
<rect x="1190.38" y="933.76" width="85.5238" height="85.5238" stroke="#0F0D30" stroke-opacity="0.02" stroke-width="1.71048"/>
<rect x="1275.9" y="933.76" width="85.5238" height="85.5238" stroke="#0F0D30" stroke-opacity="0.02" stroke-width="1.71048"/>
<rect x="1361.43" y="933.76" width="85.5238" height="85.5238" stroke="#0F0D30" stroke-opacity="0.02" stroke-width="1.71048"/>
<rect x="-6.95239" y="1019.29" width="85.5238" height="85.5238" stroke="#0F0D30" stroke-opacity="0.02" stroke-width="1.71048"/>
<rect x="78.5714" y="1019.29" width="85.5238" height="85.5238" stroke="#0F0D30" stroke-opacity="0.02" stroke-width="1.71048"/>
<rect x="164.095" y="1019.29" width="85.5238" height="85.5238" stroke="#0F0D30" stroke-opacity="0.02" stroke-width="1.71048"/>
<rect x="249.619" y="1019.29" width="85.5238" height="85.5238" stroke="#0F0D30" stroke-opacity="0.02" stroke-width="1.71048"/>
<rect x="335.143" y="1019.29" width="85.5238" height="85.5238" stroke="#0F0D30" stroke-opacity="0.02" stroke-width="1.71048"/>
<rect x="420.667" y="1019.29" width="85.5238" height="85.5238" stroke="#0F0D30" stroke-opacity="0.02" stroke-width="1.71048"/>
<rect x="506.19" y="1019.29" width="85.5238" height="85.5238" stroke="#0F0D30" stroke-opacity="0.02" stroke-width="1.71048"/>
<rect x="591.714" y="1019.29" width="85.5238" height="85.5238" stroke="#0F0D30" stroke-opacity="0.02" stroke-width="1.71048"/>
<rect x="677.238" y="1019.29" width="85.5238" height="85.5238" stroke="#0F0D30" stroke-opacity="0.02" stroke-width="1.71048"/>
<rect x="762.762" y="1019.29" width="85.5238" height="85.5238" stroke="#0F0D30" stroke-opacity="0.02" stroke-width="1.71048"/>
<rect x="848.286" y="1019.29" width="85.5238" height="85.5238" stroke="#0F0D30" stroke-opacity="0.02" stroke-width="1.71048"/>
<rect x="933.81" y="1019.29" width="85.5238" height="85.5238" stroke="#0F0D30" stroke-opacity="0.02" stroke-width="1.71048"/>
<rect x="1019.33" y="1019.29" width="85.5238" height="85.5238" stroke="#0F0D30" stroke-opacity="0.02" stroke-width="1.71048"/>
<rect x="1104.86" y="1019.29" width="85.5238" height="85.5238" stroke="#0F0D30" stroke-opacity="0.02" stroke-width="1.71048"/>
<rect x="1190.38" y="1019.29" width="85.5238" height="85.5238" stroke="#0F0D30" stroke-opacity="0.02" stroke-width="1.71048"/>
<rect x="1275.9" y="1019.29" width="85.5238" height="85.5238" stroke="#0F0D30" stroke-opacity="0.02" stroke-width="1.71048"/>
<rect x="1361.43" y="1019.29" width="85.5238" height="85.5238" stroke="#0F0D30" stroke-opacity="0.02" stroke-width="1.71048"/>
<g filter="url(#filter0_f_11168_21715)">
<circle cx="330.5" cy="378.5" r="288.5" fill="white"/>
</g>
<g filter="url(#filter1_f_11168_21715)">
<circle cx="1256.5" cy="288.5" r="288.5" fill="white"/>
</g>
<defs>
<filter id="filter0_f_11168_21715" x="-18" y="30" width="697" height="697" filterUnits="userSpaceOnUse" color-interpolation-filters="sRGB">
<feFlood flood-opacity="0" result="BackgroundImageFix"/>
<feBlend mode="normal" in="SourceGraphic" in2="BackgroundImageFix" result="shape"/>
<feGaussianBlur stdDeviation="30" result="effect1_foregroundBlur_11168_21715"/>
</filter>
<filter id="filter1_f_11168_21715" x="908" y="-60" width="697" height="697" filterUnits="userSpaceOnUse" color-interpolation-filters="sRGB">
<feFlood flood-opacity="0" result="BackgroundImageFix"/>
<feBlend mode="normal" in="SourceGraphic" in2="BackgroundImageFix" result="shape"/>
<feGaussianBlur stdDeviation="30" result="effect1_foregroundBlur_11168_21715"/>
</filter>
</defs>
</svg>
