<svg width="479" height="291" viewBox="0 0 479 291" fill="none" xmlns="http://www.w3.org/2000/svg">
<path d="M18.752 29H1.6V7.56H18.752V10.664H5.056V16.68H18.272V19.752H5.056V25.896H18.752V29ZM24.8998 29H21.4438V13.096H24.6118V17.896H24.8038C25.2198 15.24 26.9478 12.776 30.9158 12.776C34.5318 12.776 36.4838 14.984 36.9318 18.024H37.1238C37.5398 15.304 39.3318 12.776 43.3638 12.776C47.4918 12.776 49.5718 15.592 49.5718 19.432V29H46.1478V20.36C46.1478 17.224 44.8998 15.88 41.8278 15.88C38.4358 15.88 37.2198 17.608 37.2198 21.128V29H33.7958V20.36C33.7958 17.224 32.5798 15.88 29.5078 15.88C26.0838 15.88 24.8998 17.608 24.8998 21.128V29ZM56.1185 34.44H52.6625V13.096H55.8305V17.512H56.1185C56.7585 14.568 58.9985 12.776 62.7425 12.776C67.6705 12.776 70.4545 16.136 70.4545 21.064C70.4545 25.992 67.7345 29.32 62.7745 29.32C59.1905 29.32 56.8865 27.432 56.2465 24.52H56.1185V34.44ZM56.1185 21.32C56.1185 24.584 58.1985 26.184 61.5905 26.184C65.0145 26.184 66.9985 24.872 66.9985 21.064C66.9985 17.224 64.9825 15.944 61.6545 15.944C58.1025 15.944 56.1185 17.608 56.1185 21.032V21.32ZM80.978 29.32C75.698 29.32 72.146 25.96 72.146 21.064C72.146 16.104 75.698 12.776 80.978 12.776C86.29 12.776 89.842 16.104 89.842 21.064C89.842 25.96 86.29 29.32 80.978 29.32ZM80.978 26.248C84.85 26.248 86.45 24.424 86.45 21.064C86.45 17.672 84.85 15.816 80.978 15.816C77.138 15.816 75.538 17.672 75.538 21.064C75.538 24.424 77.138 26.248 80.978 26.248ZM99.966 29H95.678L90.91 13.096H94.494L97.15 22.12L97.886 26.216H98.142L99.326 21.8L102.654 13.096H107.07L110.43 21.8L111.614 26.216H111.87L112.606 22.12L115.262 13.096H118.782L113.95 29H109.662L106.174 19.848L104.958 15.944H104.702L103.486 19.848L99.966 29ZM128.538 29.32C123.322 29.32 119.898 26.376 119.898 21.064C119.898 16.104 123.29 12.776 128.474 12.776C133.402 12.776 136.762 15.496 136.762 20.328C136.762 20.904 136.73 21.352 136.634 21.832H123.13C123.258 24.904 124.762 26.536 128.442 26.536C131.77 26.536 133.146 25.448 133.146 23.56V23.304H136.602V23.592C136.602 26.984 133.274 29.32 128.538 29.32ZM128.41 15.496C124.89 15.496 123.354 17.064 123.161 19.912H133.498V19.848C133.498 16.904 131.802 15.496 128.41 15.496ZM142.806 29H139.35V13.096H142.518V17.384H142.742C143.222 14.824 144.95 12.776 148.214 12.776C151.83 12.776 153.398 15.368 153.398 18.376V20.456H149.974V19.048C149.974 16.776 149.014 15.72 146.646 15.72C143.926 15.72 142.806 17.224 142.806 20.072V29ZM172.046 29H168.622V21.608L159.213 7.56H163.438L168.494 15.176L170.286 17.896H170.542L172.302 15.176L177.326 7.56H181.582L172.046 21.672V29ZM191.041 29.32C185.761 29.32 182.209 25.96 182.209 21.064C182.209 16.104 185.761 12.776 191.041 12.776C196.353 12.776 199.905 16.104 199.905 21.064C199.905 25.96 196.353 29.32 191.041 29.32ZM191.041 26.248C194.913 26.248 196.513 24.424 196.513 21.064C196.513 17.672 194.913 15.816 191.041 15.816C187.201 15.816 185.601 17.672 185.601 21.064C185.601 24.424 187.201 26.248 191.041 26.248ZM209.036 29.32C204.557 29.32 202.381 26.344 202.381 22.664V13.096H205.805V21.736C205.805 24.712 207.181 26.216 210.541 26.216C214.061 26.216 215.693 24.424 215.693 20.968V13.096H219.117V29H215.949V24.072H215.757C215.245 26.76 213.133 29.32 209.036 29.32ZM225.712 29H222.256V13.096H225.424V17.384H225.648C226.128 14.824 227.856 12.776 231.12 12.776C234.736 12.776 236.304 15.368 236.304 18.376V20.456H232.88V19.048C232.88 16.776 231.92 15.72 229.552 15.72C226.832 15.72 225.712 17.224 225.712 20.072V29ZM252.936 29.32C246.536 29.32 243.272 26.504 243.272 21.992V21.8H246.728V22.312C246.728 24.872 248.232 26.152 252.936 26.152C257.032 26.152 258.472 25.256 258.472 23.24C258.472 21.384 257.384 20.68 254.664 20.168L249.416 19.304C245.8 18.664 243.24 17 243.24 13.48C243.24 10.376 245.8 7.24 252.456 7.24C258.728 7.24 261.576 10.376 261.576 14.568V14.76H258.152V14.344C258.152 11.72 256.584 10.408 252.136 10.408C248.232 10.408 246.696 11.368 246.696 13.288C246.696 15.144 247.784 15.752 250.312 16.296L255.528 17.192C259.816 17.96 261.928 19.912 261.928 23.048C261.928 26.312 259.272 29.32 252.936 29.32ZM269.053 29.32C265.757 29.32 263.677 27.784 263.677 25.16C263.677 22.696 265.661 21.416 268.797 21.064L276.029 20.296V19.368C276.029 16.744 274.877 15.816 271.837 15.816C268.893 15.816 267.453 16.776 267.453 19.112V19.24H264.029V19.112C264.029 15.496 267.037 12.776 272.093 12.776C277.149 12.776 279.421 15.528 279.421 19.336V29H276.253V25.032H276.029C275.197 27.72 272.669 29.32 269.053 29.32ZM267.133 24.936C267.133 26.216 267.997 26.824 269.981 26.824C273.597 26.824 276.029 25.48 276.029 22.344L269.789 23.048C267.997 23.272 267.133 23.688 267.133 24.936ZM285.962 29H282.506V7.56H285.962V29ZM297.163 29.32C291.947 29.32 288.523 26.376 288.523 21.064C288.523 16.104 291.915 12.776 297.099 12.776C302.027 12.776 305.387 15.496 305.387 20.328C305.387 20.904 305.355 21.352 305.259 21.832H291.755C291.883 24.904 293.387 26.536 297.067 26.536C300.395 26.536 301.771 25.448 301.771 23.56V23.304H305.227V23.592C305.227 26.984 301.899 29.32 297.163 29.32ZM297.035 15.496C293.515 15.496 291.979 17.064 291.786 19.912H302.123V19.848C302.123 16.904 300.427 15.496 297.035 15.496ZM315.495 29.32C310.375 29.32 307.463 27.304 307.463 23.624V23.528H310.919V23.784C310.919 25.864 312.167 26.536 315.495 26.536C318.599 26.536 319.527 25.896 319.527 24.488C319.527 23.176 318.759 22.76 316.487 22.44L312.135 21.864C309.127 21.48 307.303 20.2 307.303 17.544C307.303 14.76 309.831 12.776 314.727 12.776C319.591 12.776 322.535 14.728 322.535 18.504V18.6H319.111V18.408C319.111 16.52 318.151 15.528 314.631 15.528C311.719 15.528 310.695 16.168 310.695 17.672C310.695 18.92 311.335 19.368 313.735 19.688L317.415 20.2C321.191 20.68 322.919 21.96 322.919 24.584C322.919 27.56 319.975 29.32 315.495 29.32ZM333.121 29H329.281L338.849 7.56H343.713L353.281 29H349.377L346.913 23.432H335.585L333.121 29ZM339.873 13.8L336.961 20.328H345.537L342.625 13.8L341.377 10.76H341.121L339.873 13.8ZM361.793 27.56C357.057 27.56 354.241 24.584 354.241 20.168C354.241 15.752 357.185 12.776 362.017 12.776C365.345 12.776 367.841 14.28 368.417 17.064H368.609V13.096H371.777V27.144C371.777 32.488 368.449 34.76 363.233 34.76C358.529 34.76 355.265 32.552 355.265 28.712H358.689C358.689 31.016 360.033 31.88 363.425 31.88C367.041 31.88 368.353 30.888 368.353 27.336V23.432H368.129C367.553 25.832 365.409 27.56 361.793 27.56ZM357.729 20.168C357.729 23.432 359.649 24.584 362.913 24.584C366.433 24.584 368.353 23.112 368.353 20.296V19.848C368.353 17.16 366.369 15.784 363.009 15.784C359.681 15.784 357.729 16.904 357.729 20.168ZM382.975 29.32C377.759 29.32 374.335 26.376 374.335 21.064C374.335 16.104 377.727 12.776 382.911 12.776C387.839 12.776 391.199 15.496 391.199 20.328C391.199 20.904 391.167 21.352 391.071 21.832H377.567C377.695 24.904 379.199 26.536 382.879 26.536C386.207 26.536 387.583 25.448 387.583 23.56V23.304H391.039V23.592C391.039 26.984 387.711 29.32 382.975 29.32ZM382.847 15.496C379.327 15.496 377.791 17.064 377.599 19.912H387.935V19.848C387.935 16.904 386.239 15.496 382.847 15.496ZM397.244 29H393.788V13.096H396.956V18.024H397.18C397.66 15.336 399.772 12.776 403.804 12.776C408.22 12.776 410.396 15.752 410.396 19.432V29H406.94V20.36C406.94 17.384 405.596 15.88 402.3 15.88C398.812 15.88 397.244 17.672 397.244 21.128V29ZM423.907 29H420.259C416.835 29 414.723 27.496 414.723 23.624V15.976H412.035V13.096H414.723V9.608H418.147V13.096H423.907V15.976H418.147V23.432C418.147 25.384 419.043 25.896 421.027 25.896H423.907V29ZM433.589 29.32C428.469 29.32 425.557 27.304 425.557 23.624V23.528H429.013V23.784C429.013 25.864 430.261 26.536 433.589 26.536C436.693 26.536 437.621 25.896 437.621 24.488C437.621 23.176 436.853 22.76 434.581 22.44L430.229 21.864C427.221 21.48 425.397 20.2 425.397 17.544C425.397 14.76 427.925 12.776 432.821 12.776C437.685 12.776 440.629 14.728 440.629 18.504V18.6H437.205V18.408C437.205 16.52 436.245 15.528 432.725 15.528C429.813 15.528 428.789 16.168 428.789 17.672C428.789 18.92 429.429 19.368 431.829 19.688L435.509 20.2C439.285 20.68 441.013 21.96 441.013 24.584C441.013 27.56 438.069 29.32 433.589 29.32ZM9.216 67H4.928L0.16 51.096H3.744L6.4 60.12L7.136 64.216H7.392L8.576 59.8L11.904 51.096H16.32L19.68 59.8L20.864 64.216H21.12L21.856 60.12L24.512 51.096H28.032L23.2 67H18.912L15.424 57.848L14.208 53.944H13.952L12.736 57.848L9.216 67ZM33.2435 49.24H29.7875V45.56H33.2435V49.24ZM33.2435 67H29.7875V51.096H33.2435V67ZM46.8758 67H43.2278C39.8038 67 37.6918 65.496 37.6918 61.624V53.976H35.0038V51.096H37.6918V47.608H41.1158V51.096H46.8758V53.976H41.1158V61.432C41.1158 63.384 42.0118 63.896 43.9958 63.896H46.8758V67ZM52.4935 67H49.0375V45.56H52.4935V55.96H52.6855C53.2295 53.272 55.1815 50.776 59.2455 50.776C63.6295 50.776 65.7735 53.656 65.7735 57.528V67H62.3495V58.36C62.3495 55.16 60.9095 53.88 57.6135 53.88C53.8375 53.88 52.4935 55.928 52.4935 59.288V67ZM84.302 67H74.542V45.56H84.302C90.958 45.56 95.15 49.656 95.15 56.28C95.15 62.904 90.958 67 84.302 67ZM84.302 48.664H77.966V63.896H84.302C89.262 63.896 91.502 61.784 91.502 56.28C91.502 50.776 89.262 48.664 84.302 48.664ZM102.397 67.32C99.101 67.32 97.021 65.784 97.021 63.16C97.021 60.696 99.005 59.416 102.141 59.064L109.373 58.296V57.368C109.373 54.744 108.221 53.816 105.181 53.816C102.237 53.816 100.797 54.776 100.797 57.112V57.24H97.373V57.112C97.373 53.496 100.381 50.776 105.437 50.776C110.493 50.776 112.765 53.528 112.765 57.336V67H109.597V63.032H109.373C108.541 65.72 106.013 67.32 102.397 67.32ZM100.477 62.936C100.477 64.216 101.341 64.824 103.325 64.824C106.941 64.824 109.373 63.48 109.373 60.344L103.133 61.048C101.341 61.272 100.477 61.688 100.477 62.936ZM126.282 67H122.634C119.21 67 117.098 65.496 117.098 61.624V53.976H114.41V51.096H117.098V47.608H120.522V51.096H126.282V53.976H120.522V61.432C120.522 63.384 121.418 63.896 123.402 63.896H126.282V67ZM133.116 67.32C129.82 67.32 127.74 65.784 127.74 63.16C127.74 60.696 129.724 59.416 132.86 59.064L140.092 58.296V57.368C140.092 54.744 138.94 53.816 135.9 53.816C132.956 53.816 131.516 54.776 131.516 57.112V57.24H128.092V57.112C128.092 53.496 131.1 50.776 136.156 50.776C141.212 50.776 143.484 53.528 143.484 57.336V67H140.316V63.032H140.092C139.26 65.72 136.732 67.32 133.116 67.32ZM131.196 62.936C131.196 64.216 132.06 64.824 134.044 64.824C137.66 64.824 140.092 63.48 140.092 60.344L133.852 61.048C132.06 61.272 131.196 61.688 131.196 62.936ZM156.105 59.064H145.929V56.12H156.105V59.064ZM168.615 67H158.855V45.56H168.615C175.271 45.56 179.463 49.656 179.463 56.28C179.463 62.904 175.271 67 168.615 67ZM168.615 48.664H162.279V63.896H168.615C173.575 63.896 175.815 61.784 175.815 56.28C175.815 50.776 173.575 48.664 168.615 48.664ZM185.494 67H182.038V51.096H185.206V55.384H185.43C185.91 52.824 187.638 50.776 190.902 50.776C194.518 50.776 196.086 53.368 196.086 56.376V58.456H192.662V57.048C192.662 54.776 191.702 53.72 189.334 53.72C186.614 53.72 185.494 55.224 185.494 58.072V67ZM201.712 49.24H198.256V45.56H201.712V49.24ZM201.712 67H198.256V51.096H201.712V67ZM215.121 67H210.897L203.473 51.096H207.281L212.945 63.64H213.201L218.865 51.096H222.609L215.121 67ZM232.381 67.32C227.165 67.32 223.741 64.376 223.741 59.064C223.741 54.104 227.133 50.776 232.317 50.776C237.245 50.776 240.605 53.496 240.605 58.328C240.605 58.904 240.573 59.352 240.477 59.832H226.973C227.101 62.904 228.605 64.536 232.285 64.536C235.613 64.536 236.989 63.448 236.989 61.56V61.304H240.445V61.592C240.445 64.984 237.117 67.32 232.381 67.32ZM232.253 53.496C228.733 53.496 227.197 55.064 227.005 57.912H237.341V57.848C237.341 54.904 235.645 53.496 232.253 53.496ZM246.65 67H243.194V51.096H246.362V56.024H246.586C247.066 53.336 249.178 50.776 253.21 50.776C257.626 50.776 259.802 53.752 259.802 57.432V67H256.346V58.36C256.346 55.384 255.002 53.88 251.706 53.88C248.218 53.88 246.65 55.672 246.65 59.128V67ZM271.806 67H268.35V45.56H271.806V67ZM278.462 67H275.006V51.096H278.174V56.024H278.398C278.878 53.336 280.99 50.776 285.022 50.776C289.438 50.776 291.614 53.752 291.614 57.432V67H288.158V58.36C288.158 55.384 286.814 53.88 283.518 53.88C280.03 53.88 278.462 55.672 278.462 59.128V67ZM302.214 67.32C297.094 67.32 294.182 65.304 294.182 61.624V61.528H297.638V61.784C297.638 63.864 298.886 64.536 302.214 64.536C305.318 64.536 306.246 63.896 306.246 62.488C306.246 61.176 305.478 60.76 303.206 60.44L298.854 59.864C295.846 59.48 294.022 58.2 294.022 55.544C294.022 52.76 296.55 50.776 301.446 50.776C306.31 50.776 309.254 52.728 309.254 56.504V56.6H305.83V56.408C305.83 54.52 304.87 53.528 301.35 53.528C298.438 53.528 297.414 54.168 297.414 55.672C297.414 56.92 298.054 57.368 300.454 57.688L304.134 58.2C307.91 58.68 309.638 59.96 309.638 62.584C309.638 65.56 306.694 67.32 302.214 67.32ZM315.587 49.24H312.131V45.56H315.587V49.24ZM315.587 67H312.131V51.096H315.587V67ZM325.7 65.56C320.964 65.56 318.148 62.584 318.148 58.168C318.148 53.752 321.092 50.776 325.924 50.776C329.252 50.776 331.748 52.28 332.324 55.064H332.516V51.096H335.684V65.144C335.684 70.488 332.356 72.76 327.14 72.76C322.436 72.76 319.172 70.552 319.172 66.712H322.596C322.596 69.016 323.94 69.88 327.332 69.88C330.948 69.88 332.26 68.888 332.26 65.336V61.432H332.036C331.46 63.832 329.316 65.56 325.7 65.56ZM321.636 58.168C321.636 61.432 323.556 62.584 326.82 62.584C330.34 62.584 332.26 61.112 332.26 58.296V57.848C332.26 55.16 330.276 53.784 326.916 53.784C323.588 53.784 321.636 54.904 321.636 58.168ZM342.337 67H338.881V45.56H342.337V55.96H342.529C343.073 53.272 345.025 50.776 349.089 50.776C353.473 50.776 355.617 53.656 355.617 57.528V67H352.193V58.36C352.193 55.16 350.753 53.88 347.457 53.88C343.681 53.88 342.337 55.928 342.337 59.288V67ZM369.157 67H365.509C362.085 67 359.973 65.496 359.973 61.624V53.976H357.285V51.096H359.973V47.608H363.397V51.096H369.157V53.976H363.397V61.432C363.397 63.384 364.293 63.896 366.277 63.896H369.157V67ZM378.839 67.32C373.719 67.32 370.807 65.304 370.807 61.624V61.528H374.263V61.784C374.263 63.864 375.511 64.536 378.839 64.536C381.943 64.536 382.871 63.896 382.871 62.488C382.871 61.176 382.103 60.76 379.831 60.44L375.479 59.864C372.471 59.48 370.647 58.2 370.647 55.544C370.647 52.76 373.175 50.776 378.071 50.776C382.935 50.776 385.879 52.728 385.879 56.504V56.6H382.455V56.408C382.455 54.52 381.495 53.528 377.975 53.528C375.063 53.528 374.039 54.168 374.039 55.672C374.039 56.92 374.679 57.368 377.079 57.688L380.759 58.2C384.535 58.68 386.263 59.96 386.263 62.584C386.263 65.56 383.319 67.32 378.839 67.32Z" fill="#0F0D35"/>
<path d="M8.016 124.24C3.528 124.24 0.864 121.024 0.864 115.96C0.864 110.944 3.696 107.68 8.352 107.68C12.216 107.68 14.928 109.936 14.928 113.512V113.728H13.104V113.512C13.104 110.8 11.592 109.336 8.208 109.336C4.392 109.336 2.688 111.496 2.688 115.96C2.688 120.424 4.416 122.584 8.328 122.584C11.64 122.584 13.272 121.24 13.272 118.36V117.544H7.704V116.032H14.952V124H13.392V121.336H13.296C12.528 123.16 10.536 124.24 8.016 124.24ZM19.3588 110.56H17.6548V107.92H19.3588V110.56ZM19.3588 124H17.6548V112H19.3588V124ZM27.5666 124H25.4306L20.5826 112.144H22.4546L26.4626 122.32H26.5826L30.5666 112.144H32.4146L27.5666 124ZM38.4002 124.24C34.7522 124.24 32.8562 121.672 32.8562 118.072C32.8562 114.472 34.9922 111.904 38.3762 111.904C41.2322 111.904 43.5842 113.632 43.5842 117.136C43.5842 117.688 43.5362 118.216 43.4642 118.552H34.4882C34.5602 121.168 35.5922 122.704 38.4242 122.704C40.8242 122.704 41.7842 121.624 41.7842 120.184V120.04H43.4882V120.208C43.4882 122.488 41.4242 124.24 38.4002 124.24ZM38.3282 113.392C35.6882 113.392 34.6322 114.904 34.4882 117.304H41.9522C42.0482 114.496 40.6562 113.392 38.3282 113.392ZM52.0078 128.08C51.4318 128.08 50.8078 127.984 50.4718 127.912V126.52H51.8158C52.8958 126.52 53.2558 126.304 53.6878 125.368L54.3598 123.832L49.2718 112.144H51.1438L53.9278 118.744L55.1758 121.648H55.3198L56.4958 118.744L59.1118 112.144H60.9838L55.1998 125.896C54.4318 127.696 53.3038 128.08 52.0078 128.08ZM67.1396 124.24C63.6596 124.24 61.3796 121.672 61.3796 118.072C61.3796 114.472 63.6596 111.904 67.1396 111.904C70.5956 111.904 72.8036 114.472 72.8036 118.072C72.8036 121.672 70.5956 124.24 67.1396 124.24ZM67.1396 122.704C69.9956 122.704 71.1236 121.024 71.1236 118.072C71.1236 115.12 69.9956 113.464 67.1396 113.464C64.2356 113.464 63.0836 115.12 63.0836 118.072C63.0836 121.024 64.2356 122.704 67.1396 122.704ZM79.3549 124.24C76.2589 124.24 74.8189 122.104 74.8189 119.272V112.144H76.5469V119.032C76.5469 121.6 77.5789 122.728 79.9069 122.728C82.0909 122.728 83.5789 121.576 83.5789 118.792V112.144H85.2829V124H83.7229V121.384H83.6509C83.1709 122.752 81.8269 124.24 79.3549 124.24ZM89.7204 124H87.9924V112H89.5524V113.992H89.6724C90.0564 112.888 91.2084 111.904 92.9604 111.904C95.4084 111.904 96.3444 113.656 96.3444 115.696V116.368H94.6164V115.96C94.6164 114.112 94.0404 113.392 92.3364 113.392C90.4884 113.392 89.7204 114.232 89.7204 116.152V124ZM105.039 124H103.335V113.632H101.583V112.144H103.335V111.688C103.335 109.24 104.703 107.92 107.319 107.92H108.375V109.336H107.007C105.639 109.336 105.015 109.912 105.015 111.112V112.144H108.375V113.632H105.039V124ZM111.351 110.56H109.647V107.92H111.351V110.56ZM111.351 124H109.647V112H111.351V124ZM118.908 124.24C115.26 124.24 113.364 121.672 113.364 118.072C113.364 114.472 115.5 111.904 118.884 111.904C121.74 111.904 124.092 113.632 124.092 117.136C124.092 117.688 124.044 118.216 123.972 118.552H114.996C115.068 121.168 116.1 122.704 118.932 122.704C121.332 122.704 122.292 121.624 122.292 120.184V120.04H123.996V120.208C123.996 122.488 121.932 124.24 118.908 124.24ZM118.836 113.392C116.196 113.392 115.14 114.904 114.996 117.304H122.46C122.556 114.496 121.164 113.392 118.836 113.392ZM128.064 124H126.336V107.92H128.064V124ZM135.377 124.24C132.041 124.24 130.169 121.816 130.169 118.072C130.169 114.328 131.945 111.904 135.185 111.904C137.465 111.904 138.929 113.104 139.433 114.4V107.92H141.161V124H139.625V121.72H139.529C139.001 123.208 137.609 124.24 135.377 124.24ZM131.897 118.072C131.897 121.696 133.313 122.752 135.665 122.752C138.017 122.752 139.433 121.528 139.433 119.104V117.064C139.433 114.616 138.017 113.392 135.665 113.392C133.337 113.392 131.897 114.448 131.897 118.072ZM153.074 124.24C149.834 124.24 148.058 122.872 148.058 120.112V120.064H149.738V120.352C149.738 121.984 150.41 122.776 153.098 122.776C155.306 122.776 155.882 122.152 155.882 120.952C155.882 119.752 155.138 119.32 153.338 118.984L151.37 118.648C149.45 118.288 148.058 117.4 148.058 115.312C148.058 113.272 149.786 111.904 152.594 111.904C155.306 111.904 157.298 113.296 157.298 115.96V116.08H155.642V115.888C155.642 114.472 155.09 113.392 152.546 113.392C150.386 113.392 149.714 114.088 149.714 115.288C149.714 116.488 150.314 116.896 152.09 117.232L154.106 117.616C156.17 118 157.538 118.912 157.538 120.88C157.538 122.992 155.81 124.24 153.074 124.24ZM163.115 124.24C160.955 124.24 159.323 123.136 159.323 121.144C159.323 119.08 160.859 118.168 163.451 117.808L167.627 117.232V116.368C167.627 114.28 166.739 113.44 164.507 113.44C162.347 113.44 161.339 114.28 161.339 116.176V116.536H159.683V116.344C159.683 113.872 161.579 111.904 164.651 111.904C167.819 111.904 169.259 113.944 169.259 116.584V124H167.699V121.816L167.579 121.792C166.883 123.16 165.371 124.24 163.115 124.24ZM161.003 121.024C161.003 122.248 161.771 122.8 163.595 122.8C165.635 122.8 167.627 121.744 167.627 118.936V118.528L163.595 119.104C161.699 119.368 161.003 119.752 161.003 121.024ZM173.627 124H171.899V107.92H173.627V124ZM181.275 124.24C177.627 124.24 175.731 121.672 175.731 118.072C175.731 114.472 177.867 111.904 181.251 111.904C184.107 111.904 186.459 113.632 186.459 117.136C186.459 117.688 186.411 118.216 186.339 118.552H177.363C177.435 121.168 178.467 122.704 181.299 122.704C183.699 122.704 184.659 121.624 184.659 120.184V120.04H186.363V120.208C186.363 122.488 184.299 124.24 181.275 124.24ZM181.203 113.392C178.563 113.392 177.507 114.904 177.363 117.304H184.827C184.923 114.496 183.531 113.392 181.203 113.392ZM193.597 124.24C190.357 124.24 188.581 122.872 188.581 120.112V120.064H190.261V120.352C190.261 121.984 190.933 122.776 193.621 122.776C195.829 122.776 196.405 122.152 196.405 120.952C196.405 119.752 195.661 119.32 193.861 118.984L191.893 118.648C189.973 118.288 188.581 117.4 188.581 115.312C188.581 113.272 190.309 111.904 193.117 111.904C195.829 111.904 197.821 113.296 197.821 115.96V116.08H196.165V115.888C196.165 114.472 195.613 113.392 193.069 113.392C190.909 113.392 190.237 114.088 190.237 115.288C190.237 116.488 190.837 116.896 192.613 117.232L194.629 117.616C196.693 118 198.061 118.912 198.061 120.88C198.061 122.992 196.333 124.24 193.597 124.24ZM208.092 124.24C205.932 124.24 204.3 123.136 204.3 121.144C204.3 119.08 205.836 118.168 208.428 117.808L212.604 117.232V116.368C212.604 114.28 211.716 113.44 209.484 113.44C207.324 113.44 206.316 114.28 206.316 116.176V116.536H204.66V116.344C204.66 113.872 206.556 111.904 209.628 111.904C212.796 111.904 214.236 113.944 214.236 116.584V124H212.676V121.816L212.556 121.792C211.86 123.16 210.348 124.24 208.092 124.24ZM205.98 121.024C205.98 122.248 206.748 122.8 208.572 122.8C210.612 122.8 212.604 121.744 212.604 118.936V118.528L208.572 119.104C206.676 119.368 205.98 119.752 205.98 121.024ZM221.484 122.944C218.22 122.944 216.348 120.784 216.348 117.424C216.348 114.064 218.196 111.904 221.508 111.904C223.596 111.904 225.18 112.936 225.708 114.448H225.804V112.144H227.34V123.496C227.34 126.712 225.276 128.32 222.156 128.32C219.132 128.32 216.996 126.736 216.996 124H218.7C218.7 125.944 219.684 126.784 222.18 126.784C224.724 126.784 225.612 125.872 225.612 123.496V120.472H225.588C225.036 121.84 223.548 122.944 221.484 122.944ZM218.076 117.424C218.076 120.568 219.588 121.456 221.892 121.456C224.028 121.456 225.612 120.232 225.612 117.784V117.064C225.612 114.616 224.004 113.392 221.796 113.392C219.54 113.392 218.076 114.304 218.076 117.424ZM234.971 124.24C231.323 124.24 229.427 121.672 229.427 118.072C229.427 114.472 231.562 111.904 234.947 111.904C237.803 111.904 240.155 113.632 240.155 117.136C240.155 117.688 240.107 118.216 240.035 118.552H231.059C231.131 121.168 232.163 122.704 234.995 122.704C237.395 122.704 238.355 121.624 238.355 120.184V120.04H240.059V120.208C240.059 122.488 237.995 124.24 234.971 124.24ZM234.898 113.392C232.259 113.392 231.203 114.904 231.059 117.304H238.523C238.619 114.496 237.227 113.392 234.898 113.392ZM244.103 124H242.375V112.144H243.935V114.592H244.007C244.463 113.344 245.807 111.904 248.255 111.904C251.303 111.904 252.695 113.872 252.695 116.728V124H250.991V117.112C250.991 114.544 250.151 113.416 247.727 113.416C245.375 113.416 244.103 114.52 244.103 117.16V124ZM259.565 124.024C257.381 124.024 256.109 123.16 256.109 120.64V113.632H254.117V112.144H256.133L256.541 109.12H257.837V112.144H261.581V113.632H257.837V120.736C257.837 122.128 258.485 122.44 260.021 122.44H261.581V123.832C261.173 123.904 260.429 124.024 259.565 124.024ZM267.8 124.24C264.56 124.24 262.784 122.872 262.784 120.112V120.064H264.464V120.352C264.464 121.984 265.136 122.776 267.824 122.776C270.032 122.776 270.608 122.152 270.608 120.952C270.608 119.752 269.864 119.32 268.064 118.984L266.096 118.648C264.176 118.288 262.784 117.4 262.784 115.312C262.784 113.272 264.512 111.904 267.32 111.904C270.032 111.904 272.024 113.296 272.024 115.96V116.08H270.368V115.888C270.368 114.472 269.816 113.392 267.272 113.392C265.112 113.392 264.44 114.088 264.44 115.288C264.44 116.488 265.04 116.896 266.816 117.232L268.832 117.616C270.896 118 272.264 118.912 272.264 120.88C272.264 122.992 270.536 124.24 267.8 124.24ZM283.495 124.024C281.311 124.024 280.039 123.16 280.039 120.64V113.632H278.047V112.144H280.063L280.471 109.12H281.767V112.144H285.511V113.632H281.767V120.736C281.767 122.128 282.415 122.44 283.951 122.44H285.511V123.832C285.103 123.904 284.359 124.024 283.495 124.024ZM289.033 124H287.305V107.92H289.033V114.352H289.129C289.585 113.224 290.809 111.904 293.209 111.904C296.305 111.904 297.625 113.968 297.625 116.68V124H295.921V117.112C295.921 114.544 295.057 113.416 292.657 113.416C290.281 113.416 289.033 114.52 289.033 117.184V124ZM305.424 124.24C301.776 124.24 299.88 121.672 299.88 118.072C299.88 114.472 302.016 111.904 305.4 111.904C308.256 111.904 310.608 113.632 310.608 117.136C310.608 117.688 310.56 118.216 310.488 118.552H301.512C301.584 121.168 302.616 122.704 305.448 122.704C307.848 122.704 308.808 121.624 308.808 120.184V120.04H310.512V120.208C310.512 122.488 308.448 124.24 305.424 124.24ZM305.352 113.392C302.712 113.392 301.656 114.904 301.512 117.304H308.976C309.072 114.496 307.68 113.392 305.352 113.392ZM322.511 124.264C319.007 124.264 316.895 121.696 316.895 118.096C316.895 114.472 319.007 111.904 322.511 111.904C325.535 111.904 327.575 113.848 327.575 116.632V116.8H325.871V116.656C325.871 114.592 324.767 113.464 322.439 113.464C319.727 113.464 318.599 115.168 318.599 118.096C318.599 121 319.727 122.704 322.439 122.704C324.767 122.704 325.871 121.576 325.871 119.512V119.368H327.575V119.536C327.575 122.32 325.535 124.264 322.511 124.264ZM335.077 124.24C331.597 124.24 329.317 121.672 329.317 118.072C329.317 114.472 331.597 111.904 335.077 111.904C338.533 111.904 340.741 114.472 340.741 118.072C340.741 121.672 338.533 124.24 335.077 124.24ZM335.077 122.704C337.933 122.704 339.061 121.024 339.061 118.072C339.061 115.12 337.933 113.464 335.077 113.464C332.173 113.464 331.021 115.12 331.021 118.072C331.021 121.024 332.173 122.704 335.077 122.704ZM344.556 124H342.828V112.144H344.388V114.592H344.46C344.916 113.344 346.164 111.904 348.612 111.904C350.772 111.904 352.068 112.936 352.596 114.616H352.668C353.148 113.344 354.372 111.904 356.82 111.904C359.868 111.904 361.26 113.872 361.26 116.704V124H359.556V117.112C359.556 114.544 358.692 113.416 356.292 113.416C354.036 113.416 352.908 114.52 352.908 117.16V124H351.204V117.112C351.204 114.544 350.364 113.416 347.964 113.416C345.708 113.416 344.556 114.52 344.556 117.16V124ZM365.627 128.176H363.899V112.144H365.459V114.448H365.531C366.059 112.936 367.475 111.904 369.707 111.904C373.043 111.904 374.891 114.328 374.891 118.096C374.891 121.816 373.139 124.24 369.899 124.24C367.619 124.24 366.155 123.04 365.627 121.744V128.176ZM365.627 119.104C365.627 121.528 367.067 122.752 369.419 122.752C371.723 122.752 373.163 121.696 373.163 118.096C373.163 114.448 371.747 113.392 369.419 113.392C367.067 113.392 365.627 114.616 365.627 117.064V119.104ZM382.158 124.24C378.51 124.24 376.614 121.672 376.614 118.072C376.614 114.472 378.75 111.904 382.134 111.904C384.99 111.904 387.342 113.632 387.342 117.136C387.342 117.688 387.294 118.216 387.222 118.552H378.246C378.318 121.168 379.35 122.704 382.182 122.704C384.582 122.704 385.542 121.624 385.542 120.184V120.04H387.246V120.208C387.246 122.488 385.182 124.24 382.158 124.24ZM382.086 113.392C379.446 113.392 378.39 114.904 378.246 117.304H385.71C385.806 114.496 384.414 113.392 382.086 113.392ZM393.886 124.024C391.702 124.024 390.43 123.16 390.43 120.64V113.632H388.438V112.144H390.454L390.862 109.12H392.158V112.144H395.902V113.632H392.158V120.736C392.158 122.128 392.806 122.44 394.342 122.44H395.902V123.832C395.494 123.904 394.75 124.024 393.886 124.024ZM399.117 110.56H397.413V107.92H399.117V110.56ZM399.117 124H397.413V112H399.117V124ZM406.026 124.024C403.842 124.024 402.57 123.16 402.57 120.64V113.632H400.578V112.144H402.594L403.002 109.12H404.298V112.144H408.042V113.632H404.298V120.736C404.298 122.128 404.946 122.44 406.482 122.44H408.042V123.832C407.634 123.904 406.89 124.024 406.026 124.024ZM411.257 110.56H409.553V107.92H411.257V110.56ZM411.257 124H409.553V112H411.257V124ZM419.465 124H417.329L412.481 112.144H414.353L418.361 122.32H418.481L422.465 112.144H424.313L419.465 124ZM430.299 124.24C426.651 124.24 424.755 121.672 424.755 118.072C424.755 114.472 426.891 111.904 430.275 111.904C433.131 111.904 435.483 113.632 435.483 117.136C435.483 117.688 435.435 118.216 435.363 118.552H426.387C426.459 121.168 427.491 122.704 430.323 122.704C432.723 122.704 433.683 121.624 433.683 120.184V120.04H435.387V120.208C435.387 122.488 433.323 124.24 430.299 124.24ZM430.227 113.392C427.587 113.392 426.531 114.904 426.387 117.304H433.851C433.947 114.496 432.555 113.392 430.227 113.392ZM6.408 156.24C2.76 156.24 0.864 153.672 0.864 150.072C0.864 146.472 3 143.904 6.384 143.904C9.24 143.904 11.592 145.632 11.592 149.136C11.592 149.688 11.544 150.216 11.472 150.552H2.496C2.568 153.168 3.6 154.704 6.432 154.704C8.832 154.704 9.792 153.624 9.792 152.184V152.04H11.496V152.208C11.496 154.488 9.432 156.24 6.408 156.24ZM6.336 145.392C3.696 145.392 2.64 146.904 2.496 149.304H9.96C10.056 146.496 8.664 145.392 6.336 145.392ZM18.6579 156.24C15.3219 156.24 13.4499 153.816 13.4499 150.072C13.4499 146.328 15.2259 143.904 18.4659 143.904C20.7459 143.904 22.2099 145.104 22.7139 146.4V139.92H24.4419V156H22.9059V153.72H22.8099C22.2819 155.208 20.8899 156.24 18.6579 156.24ZM15.1779 150.072C15.1779 153.696 16.5939 154.752 18.9459 154.752C21.2979 154.752 22.7139 153.528 22.7139 151.104V149.064C22.7139 146.616 21.2979 145.392 18.9459 145.392C16.6179 145.392 15.1779 146.448 15.1779 150.072ZM31.6875 154.944C28.4235 154.944 26.5515 152.784 26.5515 149.424C26.5515 146.064 28.3995 143.904 31.7115 143.904C33.7995 143.904 35.3835 144.936 35.9115 146.448H36.0075V144.144H37.5435V155.496C37.5435 158.712 35.4795 160.32 32.3595 160.32C29.3355 160.32 27.1995 158.736 27.1995 156H28.9035C28.9035 157.944 29.8875 158.784 32.3835 158.784C34.9275 158.784 35.8155 157.872 35.8155 155.496V152.472H35.7915C35.2395 153.84 33.7515 154.944 31.6875 154.944ZM28.2795 149.424C28.2795 152.568 29.7915 153.456 32.0955 153.456C34.2315 153.456 35.8155 152.232 35.8155 149.784V149.064C35.8155 146.616 34.2075 145.392 31.9995 145.392C29.7435 145.392 28.2795 146.304 28.2795 149.424ZM45.1736 156.24C41.5256 156.24 39.6296 153.672 39.6296 150.072C39.6296 146.472 41.7656 143.904 45.1496 143.904C48.0056 143.904 50.3576 145.632 50.3576 149.136C50.3576 149.688 50.3096 150.216 50.2376 150.552H41.2616C41.3336 153.168 42.3656 154.704 45.1976 154.704C47.5976 154.704 48.5576 153.624 48.5576 152.184V152.04H50.2616V152.208C50.2616 154.488 48.1976 156.24 45.1736 156.24ZM45.1016 145.392C42.4616 145.392 41.4056 146.904 41.2616 149.304H48.7256C48.8216 146.496 47.4296 145.392 45.1016 145.392ZM61.5653 156.024C59.3813 156.024 58.1093 155.16 58.1093 152.64V145.632H56.1173V144.144H58.1333L58.5413 141.12H59.8373V144.144H63.5813V145.632H59.8373V152.736C59.8373 154.128 60.4853 154.44 62.0213 154.44H63.5813V155.832C63.1733 155.904 62.4293 156.024 61.5653 156.024ZM67.1033 156H65.3753V139.92H67.1033V146.352H67.1992C67.6553 145.224 68.8793 143.904 71.2793 143.904C74.3753 143.904 75.6953 145.968 75.6953 148.68V156H73.9913V149.112C73.9913 146.544 73.1273 145.416 70.7273 145.416C68.3513 145.416 67.1033 146.52 67.1033 149.184V156ZM83.4939 156.24C79.8459 156.24 77.9499 153.672 77.9499 150.072C77.9499 146.472 80.0859 143.904 83.4699 143.904C86.3259 143.904 88.6779 145.632 88.6779 149.136C88.6779 149.688 88.6299 150.216 88.5579 150.552H79.5819C79.6539 153.168 80.6859 154.704 83.5179 154.704C85.9179 154.704 86.8779 153.624 86.8779 152.184V152.04H88.5819V152.208C88.5819 154.488 86.5179 156.24 83.4939 156.24ZM83.4219 145.392C80.7819 145.392 79.7259 146.904 79.5819 149.304H87.0459C87.1419 146.496 85.7499 145.392 83.4219 145.392ZM91.9219 160.08C91.3459 160.08 90.7219 159.984 90.3859 159.912V158.52H91.7299C92.8099 158.52 93.1699 158.304 93.6019 157.368L94.2739 155.832L89.1859 144.144H91.0579L93.8419 150.744L95.0899 153.648H95.2339L96.4099 150.744L99.0259 144.144H100.898L95.1139 157.896C94.3459 159.696 93.2179 160.08 91.9219 160.08ZM108.635 156H106.907V144.144H108.467V146.592H108.539C108.995 145.344 110.339 143.904 112.787 143.904C115.835 143.904 117.227 145.872 117.227 148.728V156H115.523V149.112C115.523 146.544 114.683 145.416 112.259 145.416C109.907 145.416 108.635 146.52 108.635 149.16V156ZM124.861 156.24C121.213 156.24 119.317 153.672 119.317 150.072C119.317 146.472 121.453 143.904 124.837 143.904C127.693 143.904 130.045 145.632 130.045 149.136C130.045 149.688 129.997 150.216 129.925 150.552H120.949C121.021 153.168 122.053 154.704 124.885 154.704C127.285 154.704 128.245 153.624 128.245 152.184V152.04H129.949V152.208C129.949 154.488 127.885 156.24 124.861 156.24ZM124.789 145.392C122.149 145.392 121.093 146.904 120.949 149.304H128.413C128.509 146.496 127.117 145.392 124.789 145.392ZM137.447 156.24C133.799 156.24 131.903 153.672 131.903 150.072C131.903 146.472 134.039 143.904 137.423 143.904C140.279 143.904 142.631 145.632 142.631 149.136C142.631 149.688 142.583 150.216 142.511 150.552H133.535C133.607 153.168 134.639 154.704 137.471 154.704C139.871 154.704 140.831 153.624 140.831 152.184V152.04H142.535V152.208C142.535 154.488 140.471 156.24 137.447 156.24ZM137.375 145.392C134.735 145.392 133.679 146.904 133.535 149.304H140.999C141.095 146.496 139.703 145.392 137.375 145.392ZM149.697 156.24C146.361 156.24 144.489 153.816 144.489 150.072C144.489 146.328 146.265 143.904 149.505 143.904C151.785 143.904 153.249 145.104 153.753 146.4V139.92H155.481V156H153.945V153.72H153.849C153.321 155.208 151.929 156.24 149.697 156.24ZM146.217 150.072C146.217 153.696 147.633 154.752 149.985 154.752C152.337 154.752 153.753 153.528 153.753 151.104V149.064C153.753 146.616 152.337 145.392 149.985 145.392C147.657 145.392 146.217 146.448 146.217 150.072ZM164.154 156H162.594V139.92H164.322V146.4C164.85 145.104 166.314 143.904 168.594 143.904C171.834 143.904 173.586 146.328 173.586 150.072C173.586 153.816 171.738 156.24 168.402 156.24C166.17 156.24 164.754 155.208 164.226 153.72H164.154V156ZM164.322 151.104C164.322 153.528 165.762 154.752 168.114 154.752C170.442 154.752 171.858 153.696 171.858 150.072C171.858 146.448 170.418 145.392 168.114 145.392C165.762 145.392 164.322 146.616 164.322 149.064V151.104ZM176.695 160.08C176.119 160.08 175.495 159.984 175.159 159.912V158.52H176.503C177.583 158.52 177.943 158.304 178.375 157.368L179.047 155.832L173.959 144.144H175.831L178.615 150.744L179.863 153.648H180.007L181.183 150.744L183.799 144.144H185.671L179.887 157.896C179.119 159.696 177.991 160.08 176.695 160.08ZM196.744 156.24C193.096 156.24 191.2 153.672 191.2 150.072C191.2 146.472 193.336 143.904 196.72 143.904C199.576 143.904 201.928 145.632 201.928 149.136C201.928 149.688 201.88 150.216 201.808 150.552H192.832C192.904 153.168 193.936 154.704 196.768 154.704C199.168 154.704 200.128 153.624 200.128 152.184V152.04H201.832V152.208C201.832 154.488 199.768 156.24 196.744 156.24ZM196.672 145.392C194.032 145.392 192.976 146.904 192.832 149.304H200.296C200.392 146.496 199 145.392 196.672 145.392ZM208.802 156.24C205.562 156.24 203.786 153.816 203.786 150.096C203.786 146.328 205.658 143.904 208.994 143.904C211.226 143.904 212.618 144.936 213.146 146.448H213.242V144.144H214.778V160.176H213.05V153.744C212.546 155.04 211.082 156.24 208.802 156.24ZM205.514 150.096C205.514 153.696 206.954 154.752 209.282 154.752C211.634 154.752 213.05 153.528 213.05 151.104V149.064C213.05 146.616 211.634 145.392 209.282 145.392C206.93 145.392 205.514 146.448 205.514 150.096ZM221.925 156.24C218.829 156.24 217.389 154.104 217.389 151.272V144.144H219.117V151.032C219.117 153.6 220.149 154.728 222.477 154.728C224.661 154.728 226.149 153.576 226.149 150.792V144.144H227.853V156H226.293V153.384H226.221C225.741 154.752 224.397 156.24 221.925 156.24ZM232.195 142.56H230.491V139.92H232.195V142.56ZM232.195 156H230.491V144H232.195V156ZM236.533 160.176H234.805V144.144H236.365V146.448H236.437C236.965 144.936 238.381 143.904 240.613 143.904C243.949 143.904 245.797 146.328 245.797 150.096C245.797 153.816 244.045 156.24 240.805 156.24C238.525 156.24 237.061 155.04 236.533 153.744V160.176ZM236.533 151.104C236.533 153.528 237.973 154.752 240.325 154.752C242.629 154.752 244.069 153.696 244.069 150.096C244.069 146.448 242.653 145.392 240.325 145.392C237.973 145.392 236.533 146.616 236.533 149.064V151.104ZM249.611 160.176H247.883V144.144H249.443V146.448H249.515C250.043 144.936 251.459 143.904 253.691 143.904C257.027 143.904 258.875 146.328 258.875 150.096C258.875 153.816 257.123 156.24 253.883 156.24C251.603 156.24 250.139 155.04 249.611 153.744V160.176ZM249.611 151.104C249.611 153.528 251.051 154.752 253.403 154.752C255.707 154.752 257.147 153.696 257.147 150.096C257.147 146.448 255.731 145.392 253.403 145.392C251.051 145.392 249.611 146.616 249.611 149.064V151.104ZM262.593 142.56H260.889V139.92H262.593V142.56ZM262.593 156H260.889V144H262.593V156ZM266.931 156H265.203V144.144H266.763V146.592H266.835C267.291 145.344 268.635 143.904 271.083 143.904C274.131 143.904 275.523 145.872 275.523 148.728V156H273.819V149.112C273.819 146.544 272.979 145.416 270.555 145.416C268.203 145.416 266.931 146.52 266.931 149.16V156ZM282.75 154.944C279.486 154.944 277.614 152.784 277.614 149.424C277.614 146.064 279.462 143.904 282.774 143.904C284.862 143.904 286.446 144.936 286.974 146.448H287.07V144.144H288.606V155.496C288.606 158.712 286.542 160.32 283.422 160.32C280.398 160.32 278.262 158.736 278.262 156H279.966C279.966 157.944 280.95 158.784 283.446 158.784C285.99 158.784 286.878 157.872 286.878 155.496V152.472H286.854C286.302 153.84 284.814 154.944 282.75 154.944ZM279.342 149.424C279.342 152.568 280.854 153.456 283.158 153.456C285.294 153.456 286.878 152.232 286.878 149.784V149.064C286.878 146.616 285.27 145.392 283.062 145.392C280.806 145.392 279.342 146.304 279.342 149.424ZM300.159 156.024C297.975 156.024 296.703 155.16 296.703 152.64V145.632H294.711V144.144H296.727L297.135 141.12H298.431V144.144H302.175V145.632H298.431V152.736C298.431 154.128 299.079 154.44 300.615 154.44H302.175V155.832C301.767 155.904 301.023 156.024 300.159 156.024ZM305.697 156H303.969V139.92H305.697V146.352H305.793C306.249 145.224 307.473 143.904 309.873 143.904C312.969 143.904 314.289 145.968 314.289 148.68V156H312.585V149.112C312.585 146.544 311.721 145.416 309.321 145.416C306.945 145.416 305.697 146.52 305.697 149.184V156ZM322.088 156.24C318.44 156.24 316.544 153.672 316.544 150.072C316.544 146.472 318.68 143.904 322.064 143.904C324.92 143.904 327.272 145.632 327.272 149.136C327.272 149.688 327.224 150.216 327.152 150.552H318.176C318.248 153.168 319.28 154.704 322.112 154.704C324.512 154.704 325.472 153.624 325.472 152.184V152.04H327.176V152.208C327.176 154.488 325.112 156.24 322.088 156.24ZM322.016 145.392C319.376 145.392 318.32 146.904 318.176 149.304H325.64C325.736 146.496 324.344 145.392 322.016 145.392ZM331.22 156H329.492V144.144H331.052V146.592H331.124C331.58 145.344 332.828 143.904 335.276 143.904C337.436 143.904 338.732 144.936 339.26 146.616H339.332C339.812 145.344 341.036 143.904 343.484 143.904C346.532 143.904 347.924 145.872 347.924 148.704V156H346.22V149.112C346.22 146.544 345.356 145.416 342.956 145.416C340.7 145.416 339.572 146.52 339.572 149.16V156H337.868V149.112C337.868 146.544 337.028 145.416 334.628 145.416C332.372 145.416 331.22 146.52 331.22 149.16V156ZM359.264 156H357.008L353.96 144.144H355.784L357.656 151.872L358.136 154.44H358.28L359.072 151.872L361.784 144.144H364.064L366.824 151.872L367.568 154.44H367.712L368.192 151.872L370.064 144.144H371.84L368.792 156H366.536L363.872 148.512L362.984 145.704H362.84L361.952 148.512L359.264 156ZM374.906 142.56H373.202V139.92H374.906V142.56ZM374.906 156H373.202V144H374.906V156ZM381.815 156.024C379.631 156.024 378.359 155.16 378.359 152.64V145.632H376.367V144.144H378.383L378.791 141.12H380.087V144.144H383.831V145.632H380.087V152.736C380.087 154.128 380.735 154.44 382.271 154.44H383.831V155.832C383.423 155.904 382.679 156.024 381.815 156.024ZM387.353 156H385.625V139.92H387.353V146.352H387.449C387.905 145.224 389.129 143.904 391.529 143.904C394.625 143.904 395.945 145.968 395.945 148.68V156H394.241V149.112C394.241 146.544 393.377 145.416 390.977 145.416C388.601 145.416 387.353 146.52 387.353 149.184V156ZM404.789 142.56H403.085V139.92H404.789V142.56ZM404.789 156H403.085V144H404.789V156ZM409.127 156H407.399V144.144H408.959V146.592H409.031C409.487 145.344 410.831 143.904 413.279 143.904C416.327 143.904 417.719 145.872 417.719 148.728V156H416.015V149.112C416.015 146.544 415.175 145.416 412.751 145.416C410.399 145.416 409.127 146.52 409.127 149.16V156ZM425.066 156.24C421.826 156.24 420.05 154.872 420.05 152.112V152.064H421.73V152.352C421.73 153.984 422.402 154.776 425.09 154.776C427.298 154.776 427.874 154.152 427.874 152.952C427.874 151.752 427.13 151.32 425.33 150.984L423.362 150.648C421.442 150.288 420.05 149.4 420.05 147.312C420.05 145.272 421.778 143.904 424.586 143.904C427.298 143.904 429.29 145.296 429.29 147.96V148.08H427.634V147.888C427.634 146.472 427.082 145.392 424.538 145.392C422.378 145.392 421.706 146.088 421.706 147.288C421.706 148.488 422.306 148.896 424.082 149.232L426.098 149.616C428.162 150 429.53 150.912 429.53 152.88C429.53 154.992 427.802 156.24 425.066 156.24ZM436.19 156.024C434.006 156.024 432.734 155.16 432.734 152.64V145.632H430.742V144.144H432.758L433.166 141.12H434.462V144.144H438.206V145.632H434.462V152.736C434.462 154.128 435.11 154.44 436.646 154.44H438.206V155.832C437.798 155.904 437.054 156.024 436.19 156.024ZM443.029 156.24C440.869 156.24 439.237 155.136 439.237 153.144C439.237 151.08 440.773 150.168 443.365 149.808L447.541 149.232V148.368C447.541 146.28 446.653 145.44 444.421 145.44C442.261 145.44 441.253 146.28 441.253 148.176V148.536H439.597V148.344C439.597 145.872 441.493 143.904 444.565 143.904C447.733 143.904 449.173 145.944 449.173 148.584V156H447.613V153.816L447.493 153.792C446.797 155.16 445.285 156.24 443.029 156.24ZM440.917 153.024C440.917 154.248 441.685 154.8 443.509 154.8C445.549 154.8 447.541 153.744 447.541 150.936V150.528L443.509 151.104C441.613 151.368 440.917 151.752 440.917 153.024ZM453.541 156H451.813V144.144H453.373V146.592H453.445C453.901 145.344 455.245 143.904 457.693 143.904C460.741 143.904 462.133 145.872 462.133 148.728V156H460.429V149.112C460.429 146.544 459.589 145.416 457.165 145.416C454.813 145.416 453.541 146.52 453.541 149.16V156ZM469.003 156.024C466.819 156.024 465.547 155.16 465.547 152.64V145.632H463.555V144.144H465.571L465.979 141.12H467.275V144.144H471.019V145.632H467.275V152.736C467.275 154.128 467.923 154.44 469.459 154.44H471.019V155.832C470.611 155.904 469.867 156.024 469.003 156.024ZM2.976 174.56H1.272V171.92H2.976V174.56ZM2.976 188H1.272V176H2.976V188ZM7.31419 188H5.58619V176.144H7.14619V178.592H7.21819C7.67419 177.344 9.01819 175.904 11.4662 175.904C14.5142 175.904 15.9062 177.872 15.9062 180.728V188H14.2022V181.112C14.2022 178.544 13.3622 177.416 10.9382 177.416C8.58619 177.416 7.31419 178.52 7.31419 181.16V188ZM23.2534 188.24C20.0134 188.24 18.2374 186.872 18.2374 184.112V184.064H19.9174V184.352C19.9174 185.984 20.5894 186.776 23.2774 186.776C25.4854 186.776 26.0614 186.152 26.0614 184.952C26.0614 183.752 25.3174 183.32 23.5174 182.984L21.5494 182.648C19.6294 182.288 18.2374 181.4 18.2374 179.312C18.2374 177.272 19.9654 175.904 22.7734 175.904C25.4854 175.904 27.4774 177.296 27.4774 179.96V180.08H25.8214V179.888C25.8214 178.472 25.2694 177.392 22.7254 177.392C20.5654 177.392 19.8934 178.088 19.8934 179.288C19.8934 180.488 20.4934 180.896 22.2694 181.232L24.2854 181.616C26.3494 182 27.7174 182.912 27.7174 184.88C27.7174 186.992 25.9894 188.24 23.2534 188.24ZM31.6401 174.56H29.9361V171.92H31.6401V174.56ZM31.6401 188H29.9361V176H31.6401V188ZM38.7891 186.944C35.5251 186.944 33.6531 184.784 33.6531 181.424C33.6531 178.064 35.5011 175.904 38.8131 175.904C40.9011 175.904 42.4851 176.936 43.0131 178.448H43.1091V176.144H44.6451V187.496C44.6451 190.712 42.5811 192.32 39.4611 192.32C36.4371 192.32 34.3011 190.736 34.3011 188H36.0051C36.0051 189.944 36.9891 190.784 39.4851 190.784C42.0291 190.784 42.9171 189.872 42.9171 187.496V184.472H42.8931C42.3411 185.84 40.8531 186.944 38.7891 186.944ZM35.3811 181.424C35.3811 184.568 36.8931 185.456 39.1971 185.456C41.3331 185.456 42.9171 184.232 42.9171 181.784V181.064C42.9171 178.616 41.3091 177.392 39.1011 177.392C36.8451 177.392 35.3811 178.304 35.3811 181.424ZM49.0564 188H47.3284V171.92H49.0564V178.352H49.1524C49.6084 177.224 50.8324 175.904 53.2324 175.904C56.3284 175.904 57.6484 177.968 57.6484 180.68V188H55.9444V181.112C55.9444 178.544 55.0804 177.416 52.6804 177.416C50.3044 177.416 49.0564 178.52 49.0564 181.184V188ZM64.6824 188.024C62.4984 188.024 61.2264 187.16 61.2264 184.64V177.632H59.2344V176.144H61.2504L61.6584 173.12H62.9544V176.144H66.6984V177.632H62.9544V184.736C62.9544 186.128 63.6024 186.44 65.1384 186.44H66.6984V187.832C66.2904 187.904 65.5464 188.024 64.6824 188.024ZM72.9174 188.24C69.6774 188.24 67.9014 186.872 67.9014 184.112V184.064H69.5814V184.352C69.5814 185.984 70.2534 186.776 72.9414 186.776C75.1494 186.776 75.7254 186.152 75.7254 184.952C75.7254 183.752 74.9814 183.32 73.1814 182.984L71.2134 182.648C69.2934 182.288 67.9014 181.4 67.9014 179.312C67.9014 177.272 69.6294 175.904 72.4374 175.904C75.1494 175.904 77.1414 177.296 77.1414 179.96V180.08H75.4854V179.888C75.4854 178.472 74.9334 177.392 72.3894 177.392C70.2294 177.392 69.5574 178.088 69.5574 179.288C69.5574 180.488 70.1574 180.896 71.9334 181.232L73.9494 181.616C76.0134 182 77.3814 182.912 77.3814 184.88C77.3814 186.992 75.6534 188.24 72.9174 188.24ZM85.8041 174.56H84.1001V171.92H85.8041V174.56ZM85.8041 188H84.1001V176H85.8041V188ZM90.1423 188H88.4143V176.144H89.9743V178.592H90.0463C90.5023 177.344 91.8463 175.904 94.2943 175.904C97.3423 175.904 98.7343 177.872 98.7343 180.728V188H97.0303V181.112C97.0303 178.544 96.1903 177.416 93.7663 177.416C91.4143 177.416 90.1423 178.52 90.1423 181.16V188ZM105.604 188.024C103.42 188.024 102.148 187.16 102.148 184.64V177.632H100.156V176.144H102.172L102.58 173.12H103.876V176.144H107.62V177.632H103.876V184.736C103.876 186.128 104.524 186.44 106.06 186.44H107.62V187.832C107.212 187.904 106.468 188.024 105.604 188.024ZM114.085 188.24C110.605 188.24 108.325 185.672 108.325 182.072C108.325 178.472 110.605 175.904 114.085 175.904C117.541 175.904 119.749 178.472 119.749 182.072C119.749 185.672 117.541 188.24 114.085 188.24ZM114.085 186.704C116.941 186.704 118.069 185.024 118.069 182.072C118.069 179.12 116.941 177.464 114.085 177.464C111.181 177.464 110.029 179.12 110.029 182.072C110.029 185.024 111.181 186.704 114.085 186.704ZM131.519 188.264C128.015 188.264 125.903 185.696 125.903 182.096C125.903 178.472 128.015 175.904 131.519 175.904C134.543 175.904 136.583 177.848 136.583 180.632V180.8H134.879V180.656C134.879 178.592 133.775 177.464 131.447 177.464C128.735 177.464 127.607 179.168 127.607 182.096C127.607 185 128.735 186.704 131.447 186.704C133.775 186.704 134.879 185.576 134.879 183.512V183.368H136.583V183.536C136.583 186.32 134.543 188.264 131.519 188.264ZM143.152 188.24C140.056 188.24 138.616 186.104 138.616 183.272V176.144H140.344V183.032C140.344 185.6 141.376 186.728 143.704 186.728C145.888 186.728 147.376 185.576 147.376 182.792V176.144H149.08V188H147.52V185.384H147.448C146.968 186.752 145.624 188.24 143.152 188.24ZM156.519 188.24C153.279 188.24 151.503 186.872 151.503 184.112V184.064H153.183V184.352C153.183 185.984 153.855 186.776 156.543 186.776C158.751 186.776 159.327 186.152 159.327 184.952C159.327 183.752 158.583 183.32 156.783 182.984L154.815 182.648C152.895 182.288 151.503 181.4 151.503 179.312C151.503 177.272 153.231 175.904 156.039 175.904C158.751 175.904 160.743 177.296 160.743 179.96V180.08H159.087V179.888C159.087 178.472 158.535 177.392 155.991 177.392C153.831 177.392 153.159 178.088 153.159 179.288C153.159 180.488 153.759 180.896 155.535 181.232L157.551 181.616C159.615 182 160.983 182.912 160.983 184.88C160.983 186.992 159.255 188.24 156.519 188.24ZM167.643 188.024C165.459 188.024 164.187 187.16 164.187 184.64V177.632H162.195V176.144H164.211L164.619 173.12H165.915V176.144H169.659V177.632H165.915V184.736C165.915 186.128 166.563 186.44 168.099 186.44H169.659V187.832C169.251 187.904 168.507 188.024 167.643 188.024ZM176.124 188.24C172.644 188.24 170.364 185.672 170.364 182.072C170.364 178.472 172.644 175.904 176.124 175.904C179.58 175.904 181.788 178.472 181.788 182.072C181.788 185.672 179.58 188.24 176.124 188.24ZM176.124 186.704C178.98 186.704 180.108 185.024 180.108 182.072C180.108 179.12 178.98 177.464 176.124 177.464C173.22 177.464 172.068 179.12 172.068 182.072C172.068 185.024 173.22 186.704 176.124 186.704ZM185.603 188H183.875V176.144H185.435V178.592H185.507C185.963 177.344 187.211 175.904 189.659 175.904C191.819 175.904 193.115 176.936 193.643 178.616H193.715C194.195 177.344 195.419 175.904 197.867 175.904C200.915 175.904 202.307 177.872 202.307 180.704V188H200.603V181.112C200.603 178.544 199.739 177.416 197.339 177.416C195.083 177.416 193.955 178.52 193.955 181.16V188H192.251V181.112C192.251 178.544 191.411 177.416 189.011 177.416C186.755 177.416 185.603 178.52 185.603 181.16V188ZM209.963 188.24C206.315 188.24 204.419 185.672 204.419 182.072C204.419 178.472 206.555 175.904 209.939 175.904C212.795 175.904 215.147 177.632 215.147 181.136C215.147 181.688 215.099 182.216 215.027 182.552H206.051C206.123 185.168 207.155 186.704 209.987 186.704C212.387 186.704 213.347 185.624 213.347 184.184V184.04H215.051V184.208C215.051 186.488 212.987 188.24 209.963 188.24ZM209.891 177.392C207.251 177.392 206.195 178.904 206.051 181.304H213.515C213.611 178.496 212.219 177.392 209.891 177.392ZM219.095 188H217.367V176H218.927V177.992H219.047C219.431 176.888 220.583 175.904 222.335 175.904C224.783 175.904 225.719 177.656 225.719 179.696V180.368H223.991V179.96C223.991 178.112 223.415 177.392 221.711 177.392C219.863 177.392 219.095 178.232 219.095 180.152V188ZM237.174 188.24C233.526 188.24 231.63 185.672 231.63 182.072C231.63 178.472 233.766 175.904 237.15 175.904C240.006 175.904 242.358 177.632 242.358 181.136C242.358 181.688 242.31 182.216 242.238 182.552H233.262C233.334 185.168 234.366 186.704 237.198 186.704C239.598 186.704 240.558 185.624 240.558 184.184V184.04H242.262V184.208C242.262 186.488 240.198 188.24 237.174 188.24ZM237.102 177.392C234.462 177.392 233.406 178.904 233.262 181.304H240.726C240.822 178.496 239.43 177.392 237.102 177.392ZM246.33 188H244.602V171.92H246.33V188ZM250.64 174.56H248.936V171.92H250.64V174.56ZM250.64 188H248.936V176H250.64V188ZM257.789 186.944C254.525 186.944 252.653 184.784 252.653 181.424C252.653 178.064 254.501 175.904 257.813 175.904C259.901 175.904 261.485 176.936 262.013 178.448H262.109V176.144H263.645V187.496C263.645 190.712 261.581 192.32 258.461 192.32C255.437 192.32 253.301 190.736 253.301 188H255.005C255.005 189.944 255.989 190.784 258.485 190.784C261.029 190.784 261.917 189.872 261.917 187.496V184.472H261.893C261.341 185.84 259.853 186.944 257.789 186.944ZM254.381 181.424C254.381 184.568 255.893 185.456 258.197 185.456C260.333 185.456 261.917 184.232 261.917 181.784V181.064C261.917 178.616 260.309 177.392 258.101 177.392C255.845 177.392 254.381 178.304 254.381 181.424ZM267.96 174.56H266.256V171.92H267.96V174.56ZM267.96 188H266.256V176H267.96V188ZM272.131 188H270.571V171.92H272.299V178.4C272.827 177.104 274.291 175.904 276.571 175.904C279.811 175.904 281.563 178.328 281.563 182.072C281.563 185.816 279.715 188.24 276.379 188.24C274.147 188.24 272.731 187.208 272.203 185.72H272.131V188ZM272.299 183.104C272.299 185.528 273.739 186.752 276.091 186.752C278.419 186.752 279.835 185.696 279.835 182.072C279.835 178.448 278.395 177.392 276.091 177.392C273.739 177.392 272.299 178.616 272.299 181.064V183.104ZM285.281 174.56H283.577V171.92H285.281V174.56ZM285.281 188H283.577V176H285.281V188ZM289.619 188H287.891V171.92H289.619V188ZM293.929 174.56H292.225V171.92H293.929V174.56ZM293.929 188H292.225V176H293.929V188ZM300.839 188.024C298.655 188.024 297.383 187.16 297.383 184.64V177.632H295.391V176.144H297.407L297.815 173.12H299.111V176.144H302.855V177.632H299.111V184.736C299.111 186.128 299.759 186.44 301.295 186.44H302.855V187.832C302.447 187.904 301.703 188.024 300.839 188.024ZM305.672 192.08C305.096 192.08 304.472 191.984 304.136 191.912V190.52H305.48C306.56 190.52 306.92 190.304 307.352 189.368L308.024 187.832L302.936 176.144H304.808L307.592 182.744L308.84 185.648H308.984L310.16 182.744L312.776 176.144H314.648L308.864 189.896C308.096 191.696 306.968 192.08 305.672 192.08ZM316.192 188H314.08V184.664H316.192V188ZM330.351 188H328.071L321.759 171.92H323.679L329.199 186.08H329.319L334.791 171.92H336.663L330.351 188ZM339.632 174.56H337.928V171.92H339.632V174.56ZM339.632 188H337.928V176H339.632V188ZM346.853 188.24C343.517 188.24 341.645 185.816 341.645 182.072C341.645 178.328 343.421 175.904 346.661 175.904C348.941 175.904 350.405 177.104 350.909 178.4V171.92H352.637V188H351.101V185.72H351.005C350.477 187.208 349.085 188.24 346.853 188.24ZM343.373 182.072C343.373 185.696 344.789 186.752 347.141 186.752C349.493 186.752 350.909 185.528 350.909 183.104V181.064C350.909 178.616 349.493 177.392 347.141 177.392C344.813 177.392 343.373 178.448 343.373 182.072ZM358.49 188.24C356.33 188.24 354.698 187.136 354.698 185.144C354.698 183.08 356.234 182.168 358.826 181.808L363.002 181.232V180.368C363.002 178.28 362.114 177.44 359.882 177.44C357.722 177.44 356.714 178.28 356.714 180.176V180.536H355.058V180.344C355.058 177.872 356.954 175.904 360.026 175.904C363.194 175.904 364.634 177.944 364.634 180.584V188H363.074V185.816L362.954 185.792C362.258 187.16 360.746 188.24 358.49 188.24ZM356.378 185.024C356.378 186.248 357.146 186.8 358.97 186.8C361.01 186.8 363.002 185.744 363.002 182.936V182.528L358.97 183.104C357.074 183.368 356.378 183.752 356.378 185.024ZM374.943 188.24C372.783 188.24 371.151 187.136 371.151 185.144C371.151 183.08 372.687 182.168 375.279 181.808L379.455 181.232V180.368C379.455 178.28 378.567 177.44 376.335 177.44C374.175 177.44 373.167 178.28 373.167 180.176V180.536H371.511V180.344C371.511 177.872 373.407 175.904 376.479 175.904C379.647 175.904 381.087 177.944 381.087 180.584V188H379.527V185.816L379.407 185.792C378.711 187.16 377.199 188.24 374.943 188.24ZM372.831 185.024C372.831 186.248 373.599 186.8 375.423 186.8C377.463 186.8 379.455 185.744 379.455 182.936V182.528L375.423 183.104C373.527 183.368 372.831 183.752 372.831 185.024ZM385.455 188H383.727V176.144H385.287V178.592H385.359C385.815 177.344 387.159 175.904 389.607 175.904C392.655 175.904 394.047 177.872 394.047 180.728V188H392.343V181.112C392.343 178.544 391.503 177.416 389.079 177.416C386.727 177.416 385.455 178.52 385.455 181.16V188ZM399.857 188.24C397.697 188.24 396.065 187.136 396.065 185.144C396.065 183.08 397.601 182.168 400.193 181.808L404.369 181.232V180.368C404.369 178.28 403.481 177.44 401.249 177.44C399.089 177.44 398.081 178.28 398.081 180.176V180.536H396.425V180.344C396.425 177.872 398.321 175.904 401.393 175.904C404.561 175.904 406.001 177.944 406.001 180.584V188H404.441V185.816L404.321 185.792C403.625 187.16 402.113 188.24 399.857 188.24ZM397.745 185.024C397.745 186.248 398.513 186.8 400.337 186.8C402.377 186.8 404.369 185.744 404.369 182.936V182.528L400.337 183.104C398.441 183.368 397.745 183.752 397.745 185.024ZM410.369 188H408.641V171.92H410.369V188ZM414.492 192.08C413.916 192.08 413.292 191.984 412.956 191.912V190.52H414.3C415.38 190.52 415.74 190.304 416.172 189.368L416.844 187.832L411.756 176.144H413.628L416.412 182.744L417.66 185.648H417.804L418.98 182.744L421.596 176.144H423.468L417.684 189.896C416.916 191.696 415.788 192.08 414.492 192.08ZM434.543 188H423.767V186.608L430.487 179.264L431.831 177.824V177.68H424.127V176.144H434.183V177.632L427.367 185L426.119 186.32V186.464H434.543V188ZM440.588 188.24C436.94 188.24 435.044 185.672 435.044 182.072C435.044 178.472 437.18 175.904 440.564 175.904C443.42 175.904 445.772 177.632 445.772 181.136C445.772 181.688 445.724 182.216 445.652 182.552H436.676C436.748 185.168 437.78 186.704 440.612 186.704C443.012 186.704 443.972 185.624 443.972 184.184V184.04H445.676V184.208C445.676 186.488 443.612 188.24 440.588 188.24ZM440.516 177.392C437.876 177.392 436.82 178.904 436.676 181.304H444.14C444.236 178.496 442.844 177.392 440.516 177.392ZM452.91 188.24C449.67 188.24 447.894 186.872 447.894 184.112V184.064H449.574V184.352C449.574 185.984 450.246 186.776 452.934 186.776C455.142 186.776 455.718 186.152 455.718 184.952C455.718 183.752 454.974 183.32 453.174 182.984L451.206 182.648C449.286 182.288 447.894 181.4 447.894 179.312C447.894 177.272 449.622 175.904 452.43 175.904C455.142 175.904 457.134 177.296 457.134 179.96V180.08H455.478V179.888C455.478 178.472 454.926 177.392 452.382 177.392C450.222 177.392 449.55 178.088 449.55 179.288C449.55 180.488 450.15 180.896 451.926 181.232L453.942 181.616C456.006 182 457.374 182.912 457.374 184.88C457.374 186.992 455.646 188.24 452.91 188.24ZM6.48 220.264C2.976 220.264 0.864 217.696 0.864 214.096C0.864 210.472 2.976 207.904 6.48 207.904C9.504 207.904 11.544 209.848 11.544 212.632V212.8H9.84V212.656C9.84 210.592 8.736 209.464 6.408 209.464C3.696 209.464 2.568 211.168 2.568 214.096C2.568 217 3.696 218.704 6.408 218.704C8.736 218.704 9.84 217.576 9.84 215.512V215.368H11.544V215.536C11.544 218.32 9.504 220.264 6.48 220.264ZM15.3767 220H13.6487V208H15.2087V209.992H15.3287C15.7127 208.888 16.8647 207.904 18.6167 207.904C21.0647 207.904 22.0007 209.656 22.0007 211.696V212.368H20.2727V211.96C20.2727 210.112 19.6967 209.392 17.9927 209.392C16.1447 209.392 15.3767 210.232 15.3767 212.152V220ZM28.8143 220.24C25.1663 220.24 23.2703 217.672 23.2703 214.072C23.2703 210.472 25.4062 207.904 28.7903 207.904C31.6463 207.904 33.9983 209.632 33.9983 213.136C33.9983 213.688 33.9503 214.216 33.8783 214.552H24.9023C24.9743 217.168 26.0063 218.704 28.8383 218.704C31.2383 218.704 32.1983 217.624 32.1983 216.184V216.04H33.9023V216.208C33.9023 218.488 31.8383 220.24 28.8143 220.24ZM28.7422 209.392C26.1023 209.392 25.0463 210.904 24.9023 213.304H32.3663C32.4623 210.496 31.0703 209.392 28.7422 209.392ZM41.0642 220.24C37.7282 220.24 35.8562 217.816 35.8562 214.072C35.8562 210.328 37.6322 207.904 40.8722 207.904C43.1522 207.904 44.6162 209.104 45.1202 210.4V203.92H46.8482V220H45.3122V217.72H45.2162C44.6882 219.208 43.2962 220.24 41.0642 220.24ZM37.5842 214.072C37.5842 217.696 39.0002 218.752 41.3522 218.752C43.7042 218.752 45.1202 217.528 45.1202 215.104V213.064C45.1202 210.616 43.7042 209.392 41.3522 209.392C39.0242 209.392 37.5842 210.448 37.5842 214.072ZM51.1635 206.56H49.4595V203.92H51.1635V206.56ZM51.1635 220H49.4595V208H51.1635V220ZM58.0731 220.024C55.8891 220.024 54.6171 219.16 54.6171 216.64V209.632H52.6251V208.144H54.6411L55.0491 205.12H56.3451V208.144H60.0891V209.632H56.3451V216.736C56.3451 218.128 56.9931 218.44 58.5291 218.44H60.0891V219.832C59.6811 219.904 58.9371 220.024 58.0731 220.024ZM67.9704 224.176H66.2424V208.144H67.8024V210.448H67.8744C68.4024 208.936 69.8184 207.904 72.0504 207.904C75.3864 207.904 77.2344 210.328 77.2344 214.096C77.2344 217.816 75.4824 220.24 72.2424 220.24C69.9624 220.24 68.4984 219.04 67.9704 217.744V224.176ZM67.9704 215.104C67.9704 217.528 69.4104 218.752 71.7624 218.752C74.0664 218.752 75.5064 217.696 75.5064 214.096C75.5064 210.448 74.0904 209.392 71.7624 209.392C69.4104 209.392 67.9704 210.616 67.9704 213.064V215.104ZM81.0486 220H79.3206V208H80.8806V209.992H81.0006C81.3846 208.888 82.5366 207.904 84.2886 207.904C86.7366 207.904 87.6726 209.656 87.6726 211.696V212.368H85.9446V211.96C85.9446 210.112 85.3686 209.392 83.6646 209.392C81.8166 209.392 81.0486 210.232 81.0486 212.152V220ZM94.7021 220.24C91.2221 220.24 88.9421 217.672 88.9421 214.072C88.9421 210.472 91.2221 207.904 94.7021 207.904C98.1581 207.904 100.366 210.472 100.366 214.072C100.366 217.672 98.1581 220.24 94.7021 220.24ZM94.7021 218.704C97.5581 218.704 98.6861 217.024 98.6861 214.072C98.6861 211.12 97.5581 209.464 94.7021 209.464C91.7981 209.464 90.6461 211.12 90.6461 214.072C90.6461 217.024 91.7981 218.704 94.7021 218.704ZM104.64 220H102.936V209.632H101.184V208.144H102.936V207.688C102.936 205.24 104.304 203.92 106.92 203.92H107.976V205.336H106.608C105.24 205.336 104.616 205.912 104.616 207.112V208.144H107.976V209.632H104.64V220ZM110.952 206.56H109.248V203.92H110.952V206.56ZM110.952 220H109.248V208H110.952V220ZM115.291 220H113.563V203.92H115.291V220ZM122.939 220.24C119.291 220.24 117.395 217.672 117.395 214.072C117.395 210.472 119.531 207.904 122.915 207.904C125.771 207.904 128.123 209.632 128.123 213.136C128.123 213.688 128.075 214.216 128.003 214.552H119.027C119.099 217.168 120.131 218.704 122.963 218.704C125.363 218.704 126.323 217.624 126.323 216.184V216.04H128.027V216.208C128.027 218.488 125.963 220.24 122.939 220.24ZM122.867 209.392C120.227 209.392 119.171 210.904 119.027 213.304H126.491C126.587 210.496 125.195 209.392 122.867 209.392ZM135.261 220.24C132.021 220.24 130.245 218.872 130.245 216.112V216.064H131.925V216.352C131.925 217.984 132.597 218.776 135.285 218.776C137.493 218.776 138.069 218.152 138.069 216.952C138.069 215.752 137.325 215.32 135.525 214.984L133.557 214.648C131.637 214.288 130.245 213.4 130.245 211.312C130.245 209.272 131.973 207.904 134.781 207.904C137.493 207.904 139.485 209.296 139.485 211.96V212.08H137.829V211.888C137.829 210.472 137.277 209.392 134.733 209.392C132.573 209.392 131.901 210.088 131.901 211.288C131.901 212.488 132.501 212.896 134.277 213.232L136.293 213.616C138.357 214 139.725 214.912 139.725 216.88C139.725 218.992 137.997 220.24 135.261 220.24ZM148.148 206.56H146.444V203.92H148.148V206.56ZM148.148 220H146.444V208H148.148V220ZM152.486 220H150.758V208.144H152.318V210.592H152.39C152.846 209.344 154.19 207.904 156.638 207.904C159.686 207.904 161.078 209.872 161.078 212.728V220H159.374V213.112C159.374 210.544 158.534 209.416 156.11 209.416C153.758 209.416 152.486 210.52 152.486 213.16V220ZM169.853 220H168.125V208H169.685V209.992H169.805C170.189 208.888 171.341 207.904 173.093 207.904C175.541 207.904 176.477 209.656 176.477 211.696V212.368H174.749V211.96C174.749 210.112 174.173 209.392 172.469 209.392C170.621 209.392 169.853 210.232 169.853 212.152V220ZM183.291 220.24C179.643 220.24 177.747 217.672 177.747 214.072C177.747 210.472 179.883 207.904 183.267 207.904C186.123 207.904 188.475 209.632 188.475 213.136C188.475 213.688 188.427 214.216 188.355 214.552H179.379C179.451 217.168 180.483 218.704 183.315 218.704C185.715 218.704 186.675 217.624 186.675 216.184V216.04H188.379V216.208C188.379 218.488 186.315 220.24 183.291 220.24ZM183.219 209.392C180.579 209.392 179.523 210.904 179.379 213.304H186.843C186.939 210.496 185.547 209.392 183.219 209.392ZM194.076 220.24C191.916 220.24 190.284 219.136 190.284 217.144C190.284 215.08 191.82 214.168 194.412 213.808L198.588 213.232V212.368C198.588 210.28 197.7 209.44 195.468 209.44C193.308 209.44 192.3 210.28 192.3 212.176V212.536H190.644V212.344C190.644 209.872 192.54 207.904 195.612 207.904C198.78 207.904 200.22 209.944 200.22 212.584V220H198.66V217.816L198.54 217.792C197.844 219.16 196.332 220.24 194.076 220.24ZM191.964 217.024C191.964 218.248 192.732 218.8 194.556 218.8C196.596 218.8 198.588 217.744 198.588 214.936V214.528L194.556 215.104C192.66 215.368 191.964 215.752 191.964 217.024ZM204.588 220H202.86V203.92H204.588V220ZM213.098 213.736H206.546V212.224H213.098V213.736ZM219.745 220.024C217.561 220.024 216.289 219.16 216.289 216.64V209.632H214.297V208.144H216.313L216.721 205.12H218.017V208.144H221.761V209.632H218.017V216.736C218.017 218.128 218.665 218.44 220.201 218.44H221.761V219.832C221.353 219.904 220.609 220.024 219.745 220.024ZM224.976 206.56H223.272V203.92H224.976V206.56ZM224.976 220H223.272V208H224.976V220ZM229.314 220H227.586V208.144H229.146V210.592H229.218C229.674 209.344 230.922 207.904 233.37 207.904C235.53 207.904 236.826 208.936 237.354 210.616H237.426C237.906 209.344 239.13 207.904 241.578 207.904C244.626 207.904 246.018 209.872 246.018 212.704V220H244.314V213.112C244.314 210.544 243.45 209.416 241.05 209.416C238.794 209.416 237.666 210.52 237.666 213.16V220H235.962V213.112C235.962 210.544 235.122 209.416 232.722 209.416C230.466 209.416 229.314 210.52 229.314 213.16V220ZM253.674 220.24C250.026 220.24 248.13 217.672 248.13 214.072C248.13 210.472 250.266 207.904 253.65 207.904C256.506 207.904 258.858 209.632 258.858 213.136C258.858 213.688 258.81 214.216 258.738 214.552H249.762C249.834 217.168 250.866 218.704 253.698 218.704C256.098 218.704 257.058 217.624 257.058 216.184V216.04H258.762V216.208C258.762 218.488 256.698 220.24 253.674 220.24ZM253.602 209.392C250.962 209.392 249.906 210.904 249.762 213.304H257.226C257.322 210.496 255.93 209.392 253.602 209.392ZM260.841 222.208H260.313V221.08H260.793C261.129 221.08 261.297 221.008 261.297 220.6V220H260.361V216.664H262.473V220.576C262.473 221.704 261.849 222.208 260.841 222.208ZM274.064 220.24C270.416 220.24 268.52 217.672 268.52 214.072C268.52 210.472 270.656 207.904 274.04 207.904C276.896 207.904 279.248 209.632 279.248 213.136C279.248 213.688 279.2 214.216 279.128 214.552H270.152C270.224 217.168 271.256 218.704 274.088 218.704C276.488 218.704 277.448 217.624 277.448 216.184V216.04H279.152V216.208C279.152 218.488 277.088 220.24 274.064 220.24ZM273.992 209.392C271.352 209.392 270.296 210.904 270.152 213.304H277.616C277.712 210.496 276.32 209.392 273.992 209.392ZM283.197 220H281.469V208.144H283.029V210.592H283.101C283.557 209.344 284.901 207.904 287.349 207.904C290.397 207.904 291.789 209.872 291.789 212.728V220H290.085V213.112C290.085 210.544 289.245 209.416 286.821 209.416C284.469 209.416 283.197 210.52 283.197 213.16V220ZM297.6 220.24C295.44 220.24 293.808 219.136 293.808 217.144C293.808 215.08 295.344 214.168 297.936 213.808L302.112 213.232V212.368C302.112 210.28 301.224 209.44 298.992 209.44C296.832 209.44 295.824 210.28 295.824 212.176V212.536H294.168V212.344C294.168 209.872 296.064 207.904 299.136 207.904C302.304 207.904 303.744 209.944 303.744 212.584V220H302.184V217.816L302.064 217.792C301.368 219.16 299.856 220.24 297.6 220.24ZM295.488 217.024C295.488 218.248 296.256 218.8 298.08 218.8C300.12 218.8 302.112 217.744 302.112 214.936V214.528L298.08 215.104C296.184 215.368 295.488 215.752 295.488 217.024ZM307.943 220H306.383V203.92H308.111V210.4C308.639 209.104 310.103 207.904 312.383 207.904C315.623 207.904 317.375 210.328 317.375 214.072C317.375 217.816 315.527 220.24 312.191 220.24C309.959 220.24 308.543 219.208 308.015 217.72H307.943V220ZM308.111 215.104C308.111 217.528 309.551 218.752 311.903 218.752C314.231 218.752 315.647 217.696 315.647 214.072C315.647 210.448 314.207 209.392 311.903 209.392C309.551 209.392 308.111 210.616 308.111 213.064V215.104ZM321.213 220H319.485V203.92H321.213V220ZM325.523 206.56H323.819V203.92H325.523V206.56ZM325.523 220H323.819V208H325.523V220ZM329.861 220H328.133V208.144H329.693V210.592H329.765C330.221 209.344 331.565 207.904 334.013 207.904C337.061 207.904 338.453 209.872 338.453 212.728V220H336.749V213.112C336.749 210.544 335.909 209.416 333.485 209.416C331.133 209.416 329.861 210.52 329.861 213.16V220ZM345.68 218.944C342.416 218.944 340.544 216.784 340.544 213.424C340.544 210.064 342.392 207.904 345.704 207.904C347.792 207.904 349.376 208.936 349.904 210.448H350V208.144H351.536V219.496C351.536 222.712 349.472 224.32 346.352 224.32C343.328 224.32 341.192 222.736 341.192 220H342.896C342.896 221.944 343.88 222.784 346.376 222.784C348.92 222.784 349.808 221.872 349.808 219.496V216.472H349.784C349.232 217.84 347.744 218.944 345.68 218.944ZM342.272 213.424C342.272 216.568 343.784 217.456 346.088 217.456C348.224 217.456 349.808 216.232 349.808 213.784V213.064C349.808 210.616 348.2 209.392 345.992 209.392C343.736 209.392 342.272 210.304 342.272 213.424ZM360.305 224.08C359.729 224.08 359.105 223.984 358.769 223.912V222.52H360.113C361.193 222.52 361.553 222.304 361.985 221.368L362.657 219.832L357.569 208.144H359.441L362.225 214.744L363.473 217.648H363.617L364.793 214.744L367.409 208.144H369.281L363.497 221.896C362.729 223.696 361.601 224.08 360.305 224.08ZM375.437 220.24C371.957 220.24 369.677 217.672 369.677 214.072C369.677 210.472 371.957 207.904 375.437 207.904C378.893 207.904 381.101 210.472 381.101 214.072C381.101 217.672 378.893 220.24 375.437 220.24ZM375.437 218.704C378.293 218.704 379.421 217.024 379.421 214.072C379.421 211.12 378.293 209.464 375.437 209.464C372.533 209.464 371.381 211.12 371.381 214.072C371.381 217.024 372.533 218.704 375.437 218.704ZM387.652 220.24C384.556 220.24 383.116 218.104 383.116 215.272V208.144H384.844V215.032C384.844 217.6 385.876 218.728 388.204 218.728C390.388 218.728 391.876 217.576 391.876 214.792V208.144H393.58V220H392.02V217.384H391.948C391.468 218.752 390.124 220.24 387.652 220.24ZM398.017 220H396.289V208H397.849V209.992H397.969C398.353 208.888 399.505 207.904 401.257 207.904C403.705 207.904 404.641 209.656 404.641 211.696V212.368H402.913V211.96C402.913 210.112 402.337 209.392 400.633 209.392C398.785 209.392 398.017 210.232 398.017 212.152V220ZM4.584 252.24C2.424 252.24 0.792 251.136 0.792 249.144C0.792 247.08 2.328 246.168 4.92 245.808L9.096 245.232V244.368C9.096 242.28 8.208 241.44 5.976 241.44C3.816 241.44 2.808 242.28 2.808 244.176V244.536H1.152V244.344C1.152 241.872 3.048 239.904 6.12 239.904C9.288 239.904 10.728 241.944 10.728 244.584V252H9.168V249.816L9.048 249.792C8.352 251.16 6.84 252.24 4.584 252.24ZM2.472 249.024C2.472 250.248 3.24 250.8 5.064 250.8C7.104 250.8 9.096 249.744 9.096 246.936V246.528L5.064 247.104C3.168 247.368 2.472 247.752 2.472 249.024ZM17.9766 250.944C14.7126 250.944 12.8406 248.784 12.8406 245.424C12.8406 242.064 14.6886 239.904 18.0006 239.904C20.0886 239.904 21.6726 240.936 22.2006 242.448H22.2966V240.144H23.8326V251.496C23.8326 254.712 21.7686 256.32 18.6486 256.32C15.6246 256.32 13.4886 254.736 13.4886 252H15.1926C15.1926 253.944 16.1766 254.784 18.6726 254.784C21.2166 254.784 22.1046 253.872 22.1046 251.496V248.472H22.0806C21.5286 249.84 20.0406 250.944 17.9766 250.944ZM14.5686 245.424C14.5686 248.568 16.0806 249.456 18.3846 249.456C20.5206 249.456 22.1046 248.232 22.1046 245.784V245.064C22.1046 242.616 20.4966 241.392 18.2886 241.392C16.0326 241.392 14.5686 242.304 14.5686 245.424ZM31.4627 252.24C27.8147 252.24 25.9187 249.672 25.9187 246.072C25.9187 242.472 28.0547 239.904 31.4387 239.904C34.2947 239.904 36.6467 241.632 36.6467 245.136C36.6467 245.688 36.5987 246.216 36.5267 246.552H27.5507C27.6227 249.168 28.6547 250.704 31.4867 250.704C33.8867 250.704 34.8467 249.624 34.8467 248.184V248.04H36.5507V248.208C36.5507 250.488 34.4867 252.24 31.4627 252.24ZM31.3907 241.392C28.7507 241.392 27.6947 242.904 27.5507 245.304H35.0147C35.1107 242.496 33.7187 241.392 31.3907 241.392ZM40.5954 252H38.8674V240.144H40.4274V242.592H40.4994C40.9554 241.344 42.2994 239.904 44.7474 239.904C47.7954 239.904 49.1874 241.872 49.1874 244.728V252H47.4834V245.112C47.4834 242.544 46.6434 241.416 44.2194 241.416C41.8674 241.416 40.5954 242.52 40.5954 245.16V252ZM56.0574 252.024C53.8734 252.024 52.6014 251.16 52.6014 248.64V241.632H50.6094V240.144H52.6254L53.0334 237.12H54.3294V240.144H58.0734V241.632H54.3294V248.736C54.3294 250.128 54.9774 250.44 56.5134 250.44H58.0734V251.832C57.6654 251.904 56.9214 252.024 56.0574 252.024ZM64.2924 252.24C61.0524 252.24 59.2764 250.872 59.2764 248.112V248.064H60.9564V248.352C60.9564 249.984 61.6284 250.776 64.3164 250.776C66.5244 250.776 67.1004 250.152 67.1004 248.952C67.1004 247.752 66.3564 247.32 64.5564 246.984L62.5884 246.648C60.6684 246.288 59.2764 245.4 59.2764 243.312C59.2764 241.272 61.0044 239.904 63.8124 239.904C66.5244 239.904 68.5164 241.296 68.5164 243.96V244.08H66.8604V243.888C66.8604 242.472 66.3084 241.392 63.7644 241.392C61.6044 241.392 60.9324 242.088 60.9324 243.288C60.9324 244.488 61.5324 244.896 63.3084 245.232L65.3244 245.616C67.3884 246 68.7564 246.912 68.7564 248.88C68.7564 250.992 67.0284 252.24 64.2924 252.24ZM79.9871 252.024C77.8031 252.024 76.5311 251.16 76.5311 248.64V241.632H74.5391V240.144H76.5551L76.9631 237.12H78.2591V240.144H82.0031V241.632H78.2591V248.736C78.2591 250.128 78.9071 250.44 80.4431 250.44H82.0031V251.832C81.5951 251.904 80.8511 252.024 79.9871 252.024ZM88.4678 252.24C84.9878 252.24 82.7078 249.672 82.7078 246.072C82.7078 242.472 84.9878 239.904 88.4678 239.904C91.9238 239.904 94.1318 242.472 94.1318 246.072C94.1318 249.672 91.9238 252.24 88.4678 252.24ZM88.4678 250.704C91.3238 250.704 92.4518 249.024 92.4518 246.072C92.4518 243.12 91.3238 241.464 88.4678 241.464C85.5638 241.464 84.4118 243.12 84.4118 246.072C84.4118 249.024 85.5638 250.704 88.4678 250.704ZM105.206 252.024C103.022 252.024 101.75 251.16 101.75 248.64V241.632H99.7579V240.144H101.774L102.182 237.12H103.478V240.144H107.222V241.632H103.478V248.736C103.478 250.128 104.126 250.44 105.662 250.44H107.222V251.832C106.814 251.904 106.07 252.024 105.206 252.024ZM112.045 252.24C109.885 252.24 108.253 251.136 108.253 249.144C108.253 247.08 109.789 246.168 112.381 245.808L116.557 245.232V244.368C116.557 242.28 115.669 241.44 113.437 241.44C111.277 241.44 110.269 242.28 110.269 244.176V244.536H108.613V244.344C108.613 241.872 110.509 239.904 113.581 239.904C116.749 239.904 118.189 241.944 118.189 244.584V252H116.629V249.816L116.509 249.792C115.813 251.16 114.301 252.24 112.045 252.24ZM109.933 249.024C109.933 250.248 110.701 250.8 112.525 250.8C114.565 250.8 116.557 249.744 116.557 246.936V246.528L112.525 247.104C110.629 247.368 109.933 247.752 109.933 249.024ZM122.556 252H120.828V240H122.388V241.992H122.508C122.892 240.888 124.044 239.904 125.796 239.904C128.244 239.904 129.18 241.656 129.18 243.696V244.368H127.452V243.96C127.452 242.112 126.876 241.392 125.172 241.392C123.324 241.392 122.556 242.232 122.556 244.152V252ZM135.586 250.944C132.322 250.944 130.45 248.784 130.45 245.424C130.45 242.064 132.298 239.904 135.61 239.904C137.698 239.904 139.282 240.936 139.81 242.448H139.906V240.144H141.442V251.496C141.442 254.712 139.378 256.32 136.258 256.32C133.234 256.32 131.098 254.736 131.098 252H132.802C132.802 253.944 133.786 254.784 136.282 254.784C138.826 254.784 139.714 253.872 139.714 251.496V248.472H139.69C139.138 249.84 137.65 250.944 135.586 250.944ZM132.178 245.424C132.178 248.568 133.69 249.456 135.994 249.456C138.13 249.456 139.714 248.232 139.714 245.784V245.064C139.714 242.616 138.106 241.392 135.898 241.392C133.642 241.392 132.178 242.304 132.178 245.424ZM149.072 252.24C145.424 252.24 143.528 249.672 143.528 246.072C143.528 242.472 145.664 239.904 149.048 239.904C151.904 239.904 154.256 241.632 154.256 245.136C154.256 245.688 154.208 246.216 154.136 246.552H145.16C145.232 249.168 146.264 250.704 149.096 250.704C151.496 250.704 152.456 249.624 152.456 248.184V248.04H154.16V248.208C154.16 250.488 152.096 252.24 149.072 252.24ZM149 241.392C146.36 241.392 145.304 242.904 145.16 245.304H152.624C152.72 242.496 151.328 241.392 149 241.392ZM160.8 252.024C158.616 252.024 157.344 251.16 157.344 248.64V241.632H155.352V240.144H157.368L157.776 237.12H159.072V240.144H162.816V241.632H159.072V248.736C159.072 250.128 159.72 250.44 161.256 250.44H162.816V251.832C162.408 251.904 161.664 252.024 160.8 252.024ZM173.409 252.024C171.225 252.024 169.953 251.16 169.953 248.64V241.632H167.961V240.144H169.977L170.385 237.12H171.681V240.144H175.425V241.632H171.681V248.736C171.681 250.128 172.329 250.44 173.865 250.44H175.425V251.832C175.017 251.904 174.273 252.024 173.409 252.024ZM178.947 252H177.219V235.92H178.947V242.352H179.043C179.499 241.224 180.723 239.904 183.123 239.904C186.219 239.904 187.539 241.968 187.539 244.68V252H185.835V245.112C185.835 242.544 184.971 241.416 182.571 241.416C180.195 241.416 178.947 242.52 178.947 245.184V252ZM195.338 252.24C191.69 252.24 189.794 249.672 189.794 246.072C189.794 242.472 191.93 239.904 195.314 239.904C198.17 239.904 200.522 241.632 200.522 245.136C200.522 245.688 200.474 246.216 200.402 246.552H191.426C191.498 249.168 192.53 250.704 195.362 250.704C197.762 250.704 198.722 249.624 198.722 248.184V248.04H200.426V248.208C200.426 250.488 198.362 252.24 195.338 252.24ZM195.266 241.392C192.626 241.392 191.57 242.904 191.426 245.304H198.89C198.986 242.496 197.594 241.392 195.266 241.392ZM209.017 252H207.289V240H208.849V241.992H208.969C209.353 240.888 210.505 239.904 212.257 239.904C214.705 239.904 215.641 241.656 215.641 243.696V244.368H213.913V243.96C213.913 242.112 213.337 241.392 211.633 241.392C209.785 241.392 209.017 242.232 209.017 244.152V252ZM218.882 238.56H217.178V235.92H218.882V238.56ZM218.882 252H217.178V240H218.882V252ZM226.031 250.944C222.767 250.944 220.895 248.784 220.895 245.424C220.895 242.064 222.743 239.904 226.055 239.904C228.143 239.904 229.727 240.936 230.255 242.448H230.351V240.144H231.887V251.496C231.887 254.712 229.823 256.32 226.703 256.32C223.679 256.32 221.543 254.736 221.543 252H223.247C223.247 253.944 224.231 254.784 226.727 254.784C229.271 254.784 230.159 253.872 230.159 251.496V248.472H230.135C229.583 249.84 228.095 250.944 226.031 250.944ZM222.623 245.424C222.623 248.568 224.135 249.456 226.439 249.456C228.575 249.456 230.159 248.232 230.159 245.784V245.064C230.159 242.616 228.551 241.392 226.343 241.392C224.087 241.392 222.623 242.304 222.623 245.424ZM236.299 252H234.571V235.92H236.299V242.352H236.395C236.851 241.224 238.075 239.904 240.475 239.904C243.571 239.904 244.891 241.968 244.891 244.68V252H243.187V245.112C243.187 242.544 242.323 241.416 239.923 241.416C237.547 241.416 236.299 242.52 236.299 245.184V252ZM251.925 252.024C249.741 252.024 248.469 251.16 248.469 248.64V241.632H246.477V240.144H248.493L248.901 237.12H250.197V240.144H253.941V241.632H250.197V248.736C250.197 250.128 250.845 250.44 252.381 250.44H253.941V251.832C253.533 251.904 252.789 252.024 251.925 252.024ZM265.23 252.264C261.726 252.264 259.614 249.696 259.614 246.096C259.614 242.472 261.726 239.904 265.23 239.904C268.254 239.904 270.294 241.848 270.294 244.632V244.8H268.59V244.656C268.59 242.592 267.486 241.464 265.158 241.464C262.446 241.464 261.318 243.168 261.318 246.096C261.318 249 262.446 250.704 265.158 250.704C267.486 250.704 268.59 249.576 268.59 247.512V247.368H270.294V247.536C270.294 250.32 268.254 252.264 265.23 252.264ZM276.863 252.24C273.767 252.24 272.327 250.104 272.327 247.272V240.144H274.055V247.032C274.055 249.6 275.087 250.728 277.415 250.728C279.599 250.728 281.087 249.576 281.087 246.792V240.144H282.791V252H281.231V249.384H281.159C280.679 250.752 279.335 252.24 276.863 252.24ZM290.23 252.24C286.99 252.24 285.214 250.872 285.214 248.112V248.064H286.894V248.352C286.894 249.984 287.566 250.776 290.254 250.776C292.462 250.776 293.038 250.152 293.038 248.952C293.038 247.752 292.294 247.32 290.494 246.984L288.526 246.648C286.606 246.288 285.214 245.4 285.214 243.312C285.214 241.272 286.942 239.904 289.75 239.904C292.462 239.904 294.454 241.296 294.454 243.96V244.08H292.798V243.888C292.798 242.472 292.246 241.392 289.702 241.392C287.542 241.392 286.87 242.088 286.87 243.288C286.87 244.488 287.47 244.896 289.246 245.232L291.262 245.616C293.326 246 294.694 246.912 294.694 248.88C294.694 250.992 292.966 252.24 290.23 252.24ZM301.354 252.024C299.17 252.024 297.898 251.16 297.898 248.64V241.632H295.906V240.144H297.922L298.33 237.12H299.626V240.144H303.37V241.632H299.626V248.736C299.626 250.128 300.274 250.44 301.81 250.44H303.37V251.832C302.962 251.904 302.218 252.024 301.354 252.024ZM309.835 252.24C306.355 252.24 304.075 249.672 304.075 246.072C304.075 242.472 306.355 239.904 309.835 239.904C313.291 239.904 315.499 242.472 315.499 246.072C315.499 249.672 313.291 252.24 309.835 252.24ZM309.835 250.704C312.691 250.704 313.819 249.024 313.819 246.072C313.819 243.12 312.691 241.464 309.835 241.464C306.931 241.464 305.779 243.12 305.779 246.072C305.779 249.024 306.931 250.704 309.835 250.704ZM319.314 252H317.586V240.144H319.146V242.592H319.218C319.674 241.344 320.922 239.904 323.37 239.904C325.53 239.904 326.826 240.936 327.354 242.616H327.426C327.906 241.344 329.13 239.904 331.578 239.904C334.626 239.904 336.018 241.872 336.018 244.704V252H334.314V245.112C334.314 242.544 333.45 241.416 331.05 241.416C328.794 241.416 327.666 242.52 327.666 245.16V252H325.962V245.112C325.962 242.544 325.122 241.416 322.722 241.416C320.466 241.416 319.314 242.52 319.314 245.16V252ZM343.674 252.24C340.026 252.24 338.13 249.672 338.13 246.072C338.13 242.472 340.266 239.904 343.65 239.904C346.506 239.904 348.858 241.632 348.858 245.136C348.858 245.688 348.81 246.216 348.738 246.552H339.762C339.834 249.168 340.866 250.704 343.698 250.704C346.098 250.704 347.058 249.624 347.058 248.184V248.04H348.762V248.208C348.762 250.488 346.698 252.24 343.674 252.24ZM343.602 241.392C340.962 241.392 339.906 242.904 339.762 245.304H347.226C347.322 242.496 345.93 241.392 343.602 241.392ZM352.806 252H351.078V240H352.638V241.992H352.758C353.142 240.888 354.294 239.904 356.046 239.904C358.494 239.904 359.43 241.656 359.43 243.696V244.368H357.702V243.96C357.702 242.112 357.126 241.392 355.422 241.392C353.574 241.392 352.806 242.232 352.806 244.152V252ZM366.191 252.24C362.951 252.24 361.175 250.872 361.175 248.112V248.064H362.855V248.352C362.855 249.984 363.527 250.776 366.215 250.776C368.423 250.776 368.999 250.152 368.999 248.952C368.999 247.752 368.255 247.32 366.455 246.984L364.487 246.648C362.567 246.288 361.175 245.4 361.175 243.312C361.175 241.272 362.903 239.904 365.711 239.904C368.423 239.904 370.415 241.296 370.415 243.96V244.08H368.759V243.888C368.759 242.472 368.207 241.392 365.663 241.392C363.503 241.392 362.831 242.088 362.831 243.288C362.831 244.488 363.431 244.896 365.207 245.232L367.223 245.616C369.287 246 370.655 246.912 370.655 248.88C370.655 250.992 368.927 252.24 366.191 252.24ZM372.896 254.208H372.368V253.08H372.848C373.184 253.08 373.352 253.008 373.352 252.6V252H372.416V248.664H374.528V252.576C374.528 253.704 373.904 254.208 372.896 254.208ZM386.191 252.264C382.687 252.264 380.575 249.696 380.575 246.096C380.575 242.472 382.687 239.904 386.191 239.904C389.215 239.904 391.255 241.848 391.255 244.632V244.8H389.551V244.656C389.551 242.592 388.447 241.464 386.119 241.464C383.407 241.464 382.279 243.168 382.279 246.096C382.279 249 383.407 250.704 386.119 250.704C388.447 250.704 389.551 249.576 389.551 247.512V247.368H391.255V247.536C391.255 250.32 389.215 252.264 386.191 252.264ZM395.111 252H393.383V235.92H395.111V252ZM402.976 252.24C399.496 252.24 397.216 249.672 397.216 246.072C397.216 242.472 399.496 239.904 402.976 239.904C406.432 239.904 408.64 242.472 408.64 246.072C408.64 249.672 406.432 252.24 402.976 252.24ZM402.976 250.704C405.832 250.704 406.96 249.024 406.96 246.072C406.96 243.12 405.832 241.464 402.976 241.464C400.072 241.464 398.92 243.12 398.92 246.072C398.92 249.024 400.072 250.704 402.976 250.704ZM415.644 252.24C412.404 252.24 410.628 250.872 410.628 248.112V248.064H412.308V248.352C412.308 249.984 412.98 250.776 415.668 250.776C417.876 250.776 418.452 250.152 418.452 248.952C418.452 247.752 417.708 247.32 415.908 246.984L413.94 246.648C412.02 246.288 410.628 245.4 410.628 243.312C410.628 241.272 412.356 239.904 415.164 239.904C417.876 239.904 419.868 241.296 419.868 243.96V244.08H418.212V243.888C418.212 242.472 417.66 241.392 415.116 241.392C412.956 241.392 412.284 242.088 412.284 243.288C412.284 244.488 412.884 244.896 414.66 245.232L416.676 245.616C418.74 246 420.108 246.912 420.108 248.88C420.108 250.992 418.38 252.24 415.644 252.24ZM427.533 252.24C423.885 252.24 421.989 249.672 421.989 246.072C421.989 242.472 424.125 239.904 427.509 239.904C430.365 239.904 432.717 241.632 432.717 245.136C432.717 245.688 432.669 246.216 432.597 246.552H423.621C423.693 249.168 424.725 250.704 427.557 250.704C429.957 250.704 430.917 249.624 430.917 248.184V248.04H432.621V248.208C432.621 250.488 430.557 252.24 427.533 252.24ZM427.461 241.392C424.821 241.392 423.765 242.904 423.621 245.304H431.085C431.181 242.496 429.789 241.392 427.461 241.392ZM6.072 284.24C2.736 284.24 0.864 281.816 0.864 278.072C0.864 274.328 2.64 271.904 5.88 271.904C8.16 271.904 9.624 273.104 10.128 274.4V267.92H11.856V284H10.32V281.72H10.224C9.696 283.208 8.304 284.24 6.072 284.24ZM2.592 278.072C2.592 281.696 4.008 282.752 6.36 282.752C8.712 282.752 10.128 281.528 10.128 279.104V277.064C10.128 274.616 8.712 273.392 6.36 273.392C4.032 273.392 2.592 274.448 2.592 278.072ZM19.5096 284.24C15.8616 284.24 13.9656 281.672 13.9656 278.072C13.9656 274.472 16.1016 271.904 19.4856 271.904C22.3416 271.904 24.6936 273.632 24.6936 277.136C24.6936 277.688 24.6456 278.216 24.5736 278.552H15.5976C15.6696 281.168 16.7016 282.704 19.5336 282.704C21.9336 282.704 22.8936 281.624 22.8936 280.184V280.04H24.5976V280.208C24.5976 282.488 22.5336 284.24 19.5096 284.24ZM19.4376 273.392C16.7976 273.392 15.7416 274.904 15.5976 277.304H23.0616C23.1576 274.496 21.7656 273.392 19.4376 273.392ZM30.2949 284.24C28.1349 284.24 26.5029 283.136 26.5029 281.144C26.5029 279.08 28.0389 278.168 30.6309 277.808L34.8069 277.232V276.368C34.8069 274.28 33.9189 273.44 31.6869 273.44C29.5269 273.44 28.5189 274.28 28.5189 276.176V276.536H26.8629V276.344C26.8629 273.872 28.7589 271.904 31.8309 271.904C34.9989 271.904 36.4389 273.944 36.4389 276.584V284H34.8789V281.816L34.7589 281.792C34.0629 283.16 32.5509 284.24 30.2949 284.24ZM28.1829 281.024C28.1829 282.248 28.9509 282.8 30.7749 282.8C32.8149 282.8 34.8069 281.744 34.8069 278.936V278.528L30.7749 279.104C28.8789 279.368 28.1829 279.752 28.1829 281.024ZM40.8064 284H39.0784V267.92H40.8064V284ZM48.2143 284.24C44.9743 284.24 43.1983 282.872 43.1983 280.112V280.064H44.8783V280.352C44.8783 281.984 45.5503 282.776 48.2383 282.776C50.4463 282.776 51.0223 282.152 51.0223 280.952C51.0223 279.752 50.2783 279.32 48.4783 278.984L46.5103 278.648C44.5903 278.288 43.1983 277.4 43.1983 275.312C43.1983 273.272 44.9263 271.904 47.7343 271.904C50.4463 271.904 52.4383 273.296 52.4383 275.96V276.08H50.7823V275.888C50.7823 274.472 50.2303 273.392 47.6863 273.392C45.5263 273.392 44.8543 274.088 44.8543 275.288C44.8543 276.488 45.4543 276.896 47.2303 277.232L49.2463 277.616C51.3103 278 52.6783 278.912 52.6783 280.88C52.6783 282.992 50.9503 284.24 48.2143 284.24ZM61.773 284H60.069V273.632H58.317V272.144H60.069V271.688C60.069 269.24 61.437 267.92 64.053 267.92H65.109V269.336H63.741C62.373 269.336 61.749 269.912 61.749 271.112V272.144H65.109V273.632H61.773V284ZM69.3653 284.24C67.2053 284.24 65.5732 283.136 65.5732 281.144C65.5732 279.08 67.1093 278.168 69.7013 277.808L73.8773 277.232V276.368C73.8773 274.28 72.9893 273.44 70.7573 273.44C68.5973 273.44 67.5893 274.28 67.5893 276.176V276.536H65.9333V276.344C65.9333 273.872 67.8293 271.904 70.9013 271.904C74.0693 271.904 75.5093 273.944 75.5093 276.584V284H73.9493V281.816L73.8293 281.792C73.1333 283.16 71.6213 284.24 69.3653 284.24ZM67.2533 281.024C67.2533 282.248 68.0213 282.8 69.8453 282.8C71.8853 282.8 73.8773 281.744 73.8773 278.936V278.528L69.8453 279.104C67.9492 279.368 67.2533 279.752 67.2533 281.024ZM82.8784 284.24C79.6384 284.24 77.8624 282.872 77.8624 280.112V280.064H79.5424V280.352C79.5424 281.984 80.2144 282.776 82.9024 282.776C85.1104 282.776 85.6864 282.152 85.6864 280.952C85.6864 279.752 84.9424 279.32 83.1424 278.984L81.1744 278.648C79.2544 278.288 77.8624 277.4 77.8624 275.312C77.8624 273.272 79.5904 271.904 82.3984 271.904C85.1104 271.904 87.1024 273.296 87.1024 275.96V276.08H85.4464V275.888C85.4464 274.472 84.8944 273.392 82.3504 273.392C80.1904 273.392 79.5184 274.088 79.5184 275.288C79.5184 276.488 80.1184 276.896 81.8944 277.232L83.9104 277.616C85.9744 278 87.3424 278.912 87.3424 280.88C87.3424 282.992 85.6144 284.24 82.8784 284.24ZM94.0028 284.024C91.8188 284.024 90.5468 283.16 90.5468 280.64V273.632H88.5548V272.144H90.5708L90.9788 269.12H92.2748V272.144H96.0188V273.632H92.2748V280.736C92.2748 282.128 92.9228 282.44 94.4588 282.44H96.0188V283.832C95.6108 283.904 94.8668 284.024 94.0028 284.024ZM102.267 284.24C98.6194 284.24 96.7234 281.672 96.7234 278.072C96.7234 274.472 98.8594 271.904 102.243 271.904C105.099 271.904 107.451 273.632 107.451 277.136C107.451 277.688 107.403 278.216 107.331 278.552H98.3554C98.4274 281.168 99.4594 282.704 102.291 282.704C104.691 282.704 105.651 281.624 105.651 280.184V280.04H107.355V280.208C107.355 282.488 105.291 284.24 102.267 284.24ZM102.195 273.392C99.5554 273.392 98.4994 274.904 98.3554 277.304H105.819C105.915 274.496 104.523 273.392 102.195 273.392ZM111.4 284H109.672V272H111.232V273.992H111.352C111.736 272.888 112.888 271.904 114.64 271.904C117.088 271.904 118.024 273.656 118.024 275.696V276.368H116.296V275.96C116.296 274.112 115.72 273.392 114.016 273.392C112.168 273.392 111.4 274.232 111.4 276.152V284ZM118.177 286.208H117.649V285.08H118.129C118.465 285.08 118.633 285.008 118.633 284.6V284H117.697V280.664H119.809V284.576C119.809 285.704 119.185 286.208 118.177 286.208ZM129.576 284.24C127.416 284.24 125.784 283.136 125.784 281.144C125.784 279.08 127.32 278.168 129.912 277.808L134.088 277.232V276.368C134.088 274.28 133.2 273.44 130.968 273.44C128.808 273.44 127.8 274.28 127.8 276.176V276.536H126.144V276.344C126.144 273.872 128.04 271.904 131.112 271.904C134.28 271.904 135.72 273.944 135.72 276.584V284H134.16V281.816L134.04 281.792C133.344 283.16 131.832 284.24 129.576 284.24ZM127.464 281.024C127.464 282.248 128.232 282.8 130.056 282.8C132.096 282.8 134.088 281.744 134.088 278.936V278.528L130.056 279.104C128.16 279.368 127.464 279.752 127.464 281.024ZM140.088 284H138.36V272.144H139.92V274.592H139.992C140.448 273.344 141.792 271.904 144.24 271.904C147.288 271.904 148.68 273.872 148.68 276.728V284H146.976V277.112C146.976 274.544 146.136 273.416 143.712 273.416C141.36 273.416 140.088 274.52 140.088 277.16V284ZM155.978 284.24C152.642 284.24 150.77 281.816 150.77 278.072C150.77 274.328 152.546 271.904 155.786 271.904C158.066 271.904 159.53 273.104 160.034 274.4V267.92H161.762V284H160.226V281.72H160.13C159.602 283.208 158.21 284.24 155.978 284.24ZM152.498 278.072C152.498 281.696 153.914 282.752 156.266 282.752C158.618 282.752 160.034 281.528 160.034 279.104V277.064C160.034 274.616 158.618 273.392 156.266 273.392C153.938 273.392 152.498 274.448 152.498 278.072ZM170.603 284H168.875V272.144H170.435V274.592H170.507C170.963 273.344 172.211 271.904 174.659 271.904C176.819 271.904 178.115 272.936 178.643 274.616H178.715C179.195 273.344 180.419 271.904 182.867 271.904C185.915 271.904 187.307 273.872 187.307 276.704V284H185.603V277.112C185.603 274.544 184.739 273.416 182.339 273.416C180.083 273.416 178.955 274.52 178.955 277.16V284H177.251V277.112C177.251 274.544 176.411 273.416 174.011 273.416C171.755 273.416 170.603 274.52 170.603 277.16V284ZM193.139 284.24C190.979 284.24 189.347 283.136 189.347 281.144C189.347 279.08 190.883 278.168 193.475 277.808L197.651 277.232V276.368C197.651 274.28 196.763 273.44 194.531 273.44C192.371 273.44 191.363 274.28 191.363 276.176V276.536H189.707V276.344C189.707 273.872 191.603 271.904 194.675 271.904C197.843 271.904 199.283 273.944 199.283 276.584V284H197.723V281.816L197.603 281.792C196.907 283.16 195.395 284.24 193.139 284.24ZM191.027 281.024C191.027 282.248 191.795 282.8 193.619 282.8C195.659 282.8 197.651 281.744 197.651 278.936V278.528L193.619 279.104C191.723 279.368 191.027 279.752 191.027 281.024ZM202.365 284H200.421L204.909 278V277.88L200.421 272.144H202.413L206.205 276.968H206.349L210.093 272.144H212.061L207.549 277.928V278.072L212.061 284H210.069L206.253 278.96H206.133L202.365 284ZM215.132 270.56H213.428V267.92H215.132V270.56ZM215.132 284H213.428V272H215.132V284ZM219.47 284H217.742V272.144H219.302V274.592H219.374C219.83 273.344 221.078 271.904 223.526 271.904C225.686 271.904 226.982 272.936 227.51 274.616H227.582C228.062 273.344 229.286 271.904 231.734 271.904C234.782 271.904 236.174 273.872 236.174 276.704V284H234.47V277.112C234.47 274.544 233.606 273.416 231.206 273.416C228.95 273.416 227.822 274.52 227.822 277.16V284H226.118V277.112C226.118 274.544 225.278 273.416 222.878 273.416C220.622 273.416 219.47 274.52 219.47 277.16V284ZM240.445 270.56H238.741V267.92H240.445V270.56ZM240.445 284H238.741V272H240.445V284ZM252.809 284H242.033V282.608L248.753 275.264L250.097 273.824V273.68H242.393V272.144H252.449V273.632L245.633 281L244.385 282.32V282.464H252.809V284ZM258.853 284.24C255.205 284.24 253.309 281.672 253.309 278.072C253.309 274.472 255.445 271.904 258.829 271.904C261.685 271.904 264.037 273.632 264.037 277.136C264.037 277.688 263.989 278.216 263.917 278.552H254.941C255.013 281.168 256.045 282.704 258.877 282.704C261.277 282.704 262.237 281.624 262.237 280.184V280.04H263.941V280.208C263.941 282.488 261.877 284.24 258.853 284.24ZM258.781 273.392C256.141 273.392 255.085 274.904 254.941 277.304H262.405C262.501 274.496 261.109 273.392 258.781 273.392ZM275.605 284.24C272.365 284.24 270.589 282.872 270.589 280.112V280.064H272.269V280.352C272.269 281.984 272.941 282.776 275.629 282.776C277.837 282.776 278.413 282.152 278.413 280.952C278.413 279.752 277.669 279.32 275.869 278.984L273.901 278.648C271.981 278.288 270.589 277.4 270.589 275.312C270.589 273.272 272.317 271.904 275.125 271.904C277.837 271.904 279.829 273.296 279.829 275.96V276.08H278.173V275.888C278.173 274.472 277.621 273.392 275.077 273.392C272.917 273.392 272.245 274.088 272.245 275.288C272.245 276.488 272.845 276.896 274.621 277.232L276.637 277.616C278.701 278 280.069 278.912 280.069 280.88C280.069 282.992 278.341 284.24 275.605 284.24ZM285.647 284.24C283.487 284.24 281.854 283.136 281.854 281.144C281.854 279.08 283.391 278.168 285.983 277.808L290.159 277.232V276.368C290.159 274.28 289.271 273.44 287.039 273.44C284.879 273.44 283.871 274.28 283.871 276.176V276.536H282.215V276.344C282.215 273.872 284.111 271.904 287.183 271.904C290.351 271.904 291.791 273.944 291.791 276.584V284H290.231V281.816L290.111 281.792C289.415 283.16 287.903 284.24 285.647 284.24ZM283.535 281.024C283.535 282.248 284.303 282.8 286.127 282.8C288.167 282.8 290.159 281.744 290.159 278.936V278.528L286.127 279.104C284.23 279.368 283.535 279.752 283.535 281.024ZM296.158 284H294.43V267.92H296.158V284ZM303.806 284.24C300.158 284.24 298.262 281.672 298.262 278.072C298.262 274.472 300.398 271.904 303.782 271.904C306.638 271.904 308.99 273.632 308.99 277.136C308.99 277.688 308.942 278.216 308.87 278.552H299.894C299.966 281.168 300.998 282.704 303.83 282.704C306.23 282.704 307.19 281.624 307.19 280.184V280.04H308.894V280.208C308.894 282.488 306.83 284.24 303.806 284.24ZM303.734 273.392C301.094 273.392 300.038 274.904 299.894 277.304H307.358C307.454 274.496 306.062 273.392 303.734 273.392ZM316.128 284.24C312.888 284.24 311.112 282.872 311.112 280.112V280.064H312.792V280.352C312.792 281.984 313.464 282.776 316.152 282.776C318.36 282.776 318.936 282.152 318.936 280.952C318.936 279.752 318.192 279.32 316.392 278.984L314.424 278.648C312.504 278.288 311.112 277.4 311.112 275.312C311.112 273.272 312.84 271.904 315.648 271.904C318.36 271.904 320.352 273.296 320.352 275.96V276.08H318.696V275.888C318.696 274.472 318.144 273.392 315.6 273.392C313.44 273.392 312.768 274.088 312.768 275.288C312.768 276.488 313.368 276.896 315.144 277.232L317.16 277.616C319.224 278 320.592 278.912 320.592 280.88C320.592 282.992 318.864 284.24 316.128 284.24ZM332.663 284.24C329.183 284.24 326.903 281.672 326.903 278.072C326.903 274.472 329.183 271.904 332.663 271.904C336.119 271.904 338.327 274.472 338.327 278.072C338.327 281.672 336.119 284.24 332.663 284.24ZM332.663 282.704C335.519 282.704 336.647 281.024 336.647 278.072C336.647 275.12 335.519 273.464 332.663 273.464C329.759 273.464 328.607 275.12 328.607 278.072C328.607 281.024 329.759 282.704 332.663 282.704ZM342.142 288.176H340.414V272.144H341.974V274.448H342.046C342.574 272.936 343.99 271.904 346.222 271.904C349.558 271.904 351.406 274.328 351.406 278.096C351.406 281.816 349.654 284.24 346.414 284.24C344.134 284.24 342.67 283.04 342.142 281.744V288.176ZM342.142 279.104C342.142 281.528 343.582 282.752 345.934 282.752C348.238 282.752 349.678 281.696 349.678 278.096C349.678 274.448 348.262 273.392 345.934 273.392C343.582 273.392 342.142 274.616 342.142 277.064V279.104ZM355.22 288.176H353.492V272.144H355.052V274.448H355.124C355.652 272.936 357.068 271.904 359.3 271.904C362.636 271.904 364.484 274.328 364.484 278.096C364.484 281.816 362.732 284.24 359.492 284.24C357.212 284.24 355.748 283.04 355.22 281.744V288.176ZM355.22 279.104C355.22 281.528 356.66 282.752 359.012 282.752C361.316 282.752 362.756 281.696 362.756 278.096C362.756 274.448 361.34 273.392 359.012 273.392C356.66 273.392 355.22 274.616 355.22 277.064V279.104ZM371.968 284.24C368.488 284.24 366.208 281.672 366.208 278.072C366.208 274.472 368.488 271.904 371.968 271.904C375.424 271.904 377.632 274.472 377.632 278.072C377.632 281.672 375.424 284.24 371.968 284.24ZM371.968 282.704C374.824 282.704 375.952 281.024 375.952 278.072C375.952 275.12 374.824 273.464 371.968 273.464C369.064 273.464 367.912 275.12 367.912 278.072C367.912 281.024 369.064 282.704 371.968 282.704ZM381.447 284H379.719V272H381.279V273.992H381.399C381.783 272.888 382.935 271.904 384.687 271.904C387.135 271.904 388.071 273.656 388.071 275.696V276.368H386.343V275.96C386.343 274.112 385.767 273.392 384.063 273.392C382.215 273.392 381.447 274.232 381.447 276.152V284ZM394.448 284.024C392.264 284.024 390.992 283.16 390.992 280.64V273.632H389V272.144H391.016L391.424 269.12H392.72V272.144H396.464V273.632H392.72V280.736C392.72 282.128 393.368 282.44 394.904 282.44H396.464V283.832C396.056 283.904 395.312 284.024 394.448 284.024ZM402.652 284.24C399.556 284.24 398.116 282.104 398.116 279.272V272.144H399.844V279.032C399.844 281.6 400.876 282.728 403.204 282.728C405.388 282.728 406.876 281.576 406.876 278.792V272.144H408.58V284H407.02V281.384H406.948C406.468 282.752 405.124 284.24 402.652 284.24ZM413.017 284H411.289V272.144H412.849V274.592H412.921C413.377 273.344 414.721 271.904 417.169 271.904C420.217 271.904 421.609 273.872 421.609 276.728V284H419.905V277.112C419.905 274.544 419.065 273.416 416.641 273.416C414.289 273.416 413.017 274.52 413.017 277.16V284ZM425.859 270.56H424.155V267.92H425.859V270.56ZM425.859 284H424.155V272H425.859V284ZM432.768 284.024C430.584 284.024 429.312 283.16 429.312 280.64V273.632H427.32V272.144H429.336L429.744 269.12H431.04V272.144H434.784V273.632H431.04V280.736C431.04 282.128 431.688 282.44 433.224 282.44H434.784V283.832C434.376 283.904 433.632 284.024 432.768 284.024ZM437.999 270.56H436.295V267.92H437.999V270.56ZM437.999 284H436.295V272H437.999V284ZM445.556 284.24C441.908 284.24 440.012 281.672 440.012 278.072C440.012 274.472 442.148 271.904 445.532 271.904C448.388 271.904 450.74 273.632 450.74 277.136C450.74 277.688 450.692 278.216 450.62 278.552H441.644C441.716 281.168 442.748 282.704 445.58 282.704C447.98 282.704 448.94 281.624 448.94 280.184V280.04H450.644V280.208C450.644 282.488 448.58 284.24 445.556 284.24ZM445.484 273.392C442.844 273.392 441.788 274.904 441.644 277.304H449.108C449.204 274.496 447.812 273.392 445.484 273.392ZM457.878 284.24C454.638 284.24 452.862 282.872 452.862 280.112V280.064H454.542V280.352C454.542 281.984 455.214 282.776 457.902 282.776C460.11 282.776 460.686 282.152 460.686 280.952C460.686 279.752 459.942 279.32 458.142 278.984L456.174 278.648C454.254 278.288 452.862 277.4 452.862 275.312C452.862 273.272 454.59 271.904 457.398 271.904C460.11 271.904 462.102 273.296 462.102 275.96V276.08H460.446V275.888C460.446 274.472 459.894 273.392 457.35 273.392C455.19 273.392 454.518 274.088 454.518 275.288C454.518 276.488 455.118 276.896 456.894 277.232L458.91 277.616C460.974 278 462.342 278.912 462.342 280.88C462.342 282.992 460.614 284.24 457.878 284.24ZM466.215 284H464.103V280.664H466.215V284Z" fill="#6A6A6A"/>
</svg>
