<svg width="64" height="64" viewBox="0 0 64 64" fill="none" xmlns="http://www.w3.org/2000/svg">
<rect width="64" height="64" rx="8" fill="#4E0CC9"/>
<path d="M40 25.5465C39.92 25.5332 39.8267 25.5332 39.7467 25.5465C37.9067 25.4798 36.44 23.9732 36.44 22.1065C36.44 20.1998 37.9733 18.6665 39.88 18.6665C41.7867 18.6665 43.32 20.2132 43.32 22.1065C43.3067 23.9732 41.84 25.4798 40 25.5465Z" stroke="white" stroke-width="1.5" stroke-linecap="round" stroke-linejoin="round"/>
<path d="M38.6267 35.2534C40.4533 35.5601 42.4667 35.2401 43.88 34.2934C45.76 33.0401 45.76 30.9867 43.88 29.7334C42.4533 28.7867 40.4133 28.4667 38.5867 28.7867" stroke="white" stroke-width="1.5" stroke-linecap="round" stroke-linejoin="round"/>
<path d="M23.96 25.5465C24.04 25.5332 24.1333 25.5332 24.2133 25.5465C26.0533 25.4798 27.52 23.9732 27.52 22.1065C27.52 20.1998 25.9867 18.6665 24.08 18.6665C22.1733 18.6665 20.64 20.2132 20.64 22.1065C20.6533 23.9732 22.12 25.4798 23.96 25.5465Z" stroke="white" stroke-width="1.5" stroke-linecap="round" stroke-linejoin="round"/>
<path d="M25.3333 35.2534C23.5067 35.5601 21.4933 35.2401 20.08 34.2934C18.2 33.0401 18.2 30.9867 20.08 29.7334C21.5067 28.7867 23.5467 28.4667 25.3733 28.7867" stroke="white" stroke-width="1.5" stroke-linecap="round" stroke-linejoin="round"/>
<path d="M32 35.5065C31.92 35.4931 31.8267 35.4931 31.7467 35.5065C29.9067 35.4398 28.44 33.9331 28.44 32.0665C28.44 30.1598 29.9733 28.6265 31.88 28.6265C33.7867 28.6265 35.32 30.1731 35.32 32.0665C35.3067 33.9331 33.84 35.4531 32 35.5065Z" stroke="white" stroke-width="1.5" stroke-linecap="round" stroke-linejoin="round"/>
<path d="M28.12 39.7065C26.24 40.9598 26.24 43.0131 28.12 44.2665C30.2533 45.6931 33.7467 45.6931 35.88 44.2665C37.76 43.0131 37.76 40.9598 35.88 39.7065C33.76 38.2932 30.2533 38.2932 28.12 39.7065Z" stroke="white" stroke-width="1.5" stroke-linecap="round" stroke-linejoin="round"/>
</svg>
