<svg width="64" height="64" viewBox="0 0 64 64" fill="none" xmlns="http://www.w3.org/2000/svg">
<rect width="64" height="64" rx="8" fill="#4E0CC9"/>
<path d="M28 33.3335C27.12 33.7735 26.3867 34.4268 25.84 35.2402C25.5333 35.7068 25.5333 36.2935 25.84 36.7602C26.3867 37.5735 27.12 38.2268 28 38.6668" stroke="white" stroke-width="1.5" stroke-linecap="round" stroke-linejoin="round"/>
<path d="M36.28 33.3335C37.16 33.7735 37.8933 34.4268 38.44 35.2402C38.7467 35.7068 38.7467 36.2935 38.44 36.7602C37.8933 37.5735 37.16 38.2268 36.28 38.6668" stroke="white" stroke-width="1.5" stroke-linecap="round" stroke-linejoin="round"/>
<path d="M28 45.3332H36C42.6667 45.3332 45.3333 42.6665 45.3333 35.9998V27.9998C45.3333 21.3332 42.6667 18.6665 36 18.6665H28C21.3333 18.6665 18.6667 21.3332 18.6667 27.9998V35.9998C18.6667 42.6665 21.3333 45.3332 28 45.3332Z" stroke="white" stroke-width="1.5" stroke-linecap="round" stroke-linejoin="round"/>
<path d="M18.9733 26.6798L44.6 26.6665" stroke="white" stroke-width="1.5" stroke-linecap="round" stroke-linejoin="round"/>
</svg>
