<svg width="16" height="39" viewBox="0 0 16 39" fill="none" xmlns="http://www.w3.org/2000/svg">
<path d="M13.5917 34.5067L14.555 31.1398L15.9999 34.5067L15.0366 37.6675L13.5917 34.5067Z" fill="#A0A0AA"/>
<path d="M12.1178 35.7722L8.6407 36.2238L11.7604 38.1505L15.0333 37.6683L12.1178 35.7722Z" fill="#A0A0AA"/>
<path d="M10.5987 31.4256L11.9074 28.177L12.9938 31.6757L11.7065 34.7193L10.5987 31.4256Z" fill="#A0A0AA"/>
<path d="M9.00104 32.531L5.49578 32.6189L8.39784 34.8593L11.7033 34.7197L9.00104 32.531Z" fill="#A0A0AA"/>
<path d="M8.93735 27.7953L11.0276 24.9838L11.1909 28.6433L9.17343 31.2619L8.93735 27.7953Z" fill="#A0A0AA"/>
<path d="M7.11159 28.4603L3.69838 27.6585L5.9374 30.56L9.17039 31.2613L7.11159 28.4603Z" fill="#A0A0AA"/>
<path d="M7.44973 23.8515L9.78489 21.2393L9.61765 24.8986L7.37237 27.3252L7.44973 23.8515Z" fill="#A0A0AA"/>
<path d="M5.57141 24.35L2.24433 23.2446L4.21271 26.3356L7.36937 27.3247L5.57141 24.35Z" fill="#A0A0AA"/>
<path d="M6.65634 19.7783L9.22088 17.3903L8.7193 21.0191L6.26126 23.2304L6.65634 19.7783Z" fill="#A0A0AA"/>
<path d="M4.74023 20.1029L1.52829 18.6983L3.20542 21.9561L6.2583 23.2293L4.74023 20.1029Z" fill="#A0A0AA"/>
<path d="M7.03216 15.2361L10.0199 13.4033L8.80785 16.8607L5.95957 18.5415L7.03216 15.2361Z" fill="#A0A0AA"/>
<path d="M5.08951 15.1751L2.22018 13.1625L3.21725 16.6877L5.95676 18.5401L5.08951 15.1751Z" fill="#A0A0AA"/>
<path d="M8.23148 10.9954L11.5613 9.89816L9.58532 12.9844L6.42626 13.9657L8.23148 10.9954Z" fill="#A0A0AA"/>
<path d="M6.35484 10.4894L4.02607 7.87158L4.18437 11.5313L6.42371 13.9633L6.35484 10.4894Z" fill="#A0A0AA"/>
<path d="M9.96035 6.6225L13.3856 5.87384L11.1017 8.7402L7.85816 9.39116L9.96035 6.6225Z" fill="#A0A0AA"/>
<path d="M8.14635 5.92607L6.1002 3.08245L5.8799 6.73896L7.85629 9.38858L8.14635 5.92607Z" fill="#A0A0AA"/>
<path d="M10.3898 2.64064L13.237 0.596816L12.2785 4.13268L9.55944 6.01483L10.3898 2.64064Z" fill="#A0A0AA"/>
</svg>
