<svg width="64" height="64" viewBox="0 0 64 64" fill="none" xmlns="http://www.w3.org/2000/svg">
<rect width="64" height="64" rx="8" fill="#4E0CC9"/>
<path d="M19.3333 33.6535V31.3468C19.3333 28.5868 21.5867 26.3335 24.3467 26.3335H39.6533C42.4133 26.3335 44.6667 28.5868 44.6667 31.3468V33.2668H41.9733C41.2267 33.2668 40.5467 33.5601 40.0533 34.0668C39.4933 34.6135 39.1733 35.4002 39.2533 36.2402C39.3733 37.6802 40.6933 38.7335 42.1333 38.7335H44.6667V40.3202C44.6667 43.0802 42.4133 45.3335 39.6533 45.3335H32.3467" stroke="white" stroke-width="1.5" stroke-linecap="round" stroke-linejoin="round"/>
<path d="M19.3333 32.5467V26.4535C19.3333 24.8668 20.3067 23.4534 21.7867 22.8934L32.3733 18.8934C34.0267 18.2667 35.8 19.4935 35.8 21.2668V26.3334" stroke="white" stroke-width="1.5" stroke-linecap="round" stroke-linejoin="round"/>
<path d="M46.0784 34.627V37.3738C46.0784 38.1071 45.4917 38.7071 44.7451 38.7337H42.1317C40.6917 38.7337 39.3717 37.6804 39.2517 36.2404C39.1717 35.4004 39.4917 34.6137 40.0517 34.0671C40.5451 33.5604 41.2251 33.2671 41.9717 33.2671H44.7451C45.4917 33.2938 46.0784 33.8937 46.0784 34.627Z" stroke="white" stroke-width="1.5" stroke-linecap="round" stroke-linejoin="round"/>
<path d="M25.3333 32H34.6667" stroke="white" stroke-width="1.5" stroke-linecap="round" stroke-linejoin="round"/>
<path d="M20 38H27.12C27.9733 38 28.6667 38.6933 28.6667 39.5466V41.2533" stroke="white" stroke-width="1.5" stroke-miterlimit="10" stroke-linecap="round" stroke-linejoin="round"/>
<path d="M21.6267 36.3735L20 38.0002L21.6267 39.6268" stroke="white" stroke-width="1.5" stroke-miterlimit="10" stroke-linecap="round" stroke-linejoin="round"/>
<path d="M28.6667 45.04H21.5467C20.6933 45.04 20 44.3466 20 43.4932V41.7866" stroke="white" stroke-width="1.5" stroke-miterlimit="10" stroke-linecap="round" stroke-linejoin="round"/>
<path d="M27.0417 46.6674L28.6683 45.0408L27.0417 43.4141" stroke="white" stroke-width="1.5" stroke-miterlimit="10" stroke-linecap="round" stroke-linejoin="round"/>
</svg>
