<svg width="340" height="304" viewBox="0 0 340 304" fill="none" xmlns="http://www.w3.org/2000/svg">
<path d="M27.4533 14.0667V9.49333C27.4533 7.85333 26.2 6.04 24.6667 5.46666L18.0133 2.97333C16.9067 2.56 15.0933 2.56 13.9867 2.97333L7.33333 5.48C5.79999 6.05333 4.54666 7.86666 4.54666 9.49333V19.4C4.54666 20.9733 5.58666 23.04 6.85333 23.9867L12.5867 28.2667C13.52 28.9867 14.76 29.3333 16 29.3333" stroke="#CAAEFF" stroke-width="1.5" stroke-linecap="round" stroke-linejoin="round"/>
<path d="M21.3333 26.6667C24.2789 26.6667 26.6667 24.2789 26.6667 21.3333C26.6667 18.3878 24.2789 16 21.3333 16C18.3878 16 16 18.3878 16 21.3333C16 24.2789 18.3878 26.6667 21.3333 26.6667Z" stroke="#CAAEFF" stroke-width="1.5" stroke-linecap="round" stroke-linejoin="round"/>
<path d="M27.994 28H28.006" stroke="#CAAEFF" stroke-width="2" stroke-linecap="round" stroke-linejoin="round"/>
<path d="M3.936 86H1.344V69.92H8.184C11.544 69.92 14.016 71.912 14.016 75.368C14.016 78.824 11.544 80.816 8.184 80.816H3.936V86ZM8.496 72.248H3.936V78.488H8.496C10.608 78.488 11.448 77.672 11.448 75.368C11.448 73.064 10.608 72.248 8.496 72.248ZM18.0849 86H15.4929V74H17.8689V75.896H17.9889C18.4689 74.792 19.5729 73.832 21.3249 73.832C23.8209 73.832 24.7809 75.656 24.7809 77.888V78.68H22.1889V78.2C22.1889 76.616 21.7329 76.04 20.2209 76.04C18.6609 76.04 18.0849 76.64 18.0849 78.224V86ZM31.6703 86.24C27.9983 86.24 25.7183 83.744 25.7183 80.024C25.7183 76.328 27.9983 73.832 31.6703 73.832C35.3183 73.832 37.5263 76.328 37.5263 80.024C37.5263 83.744 35.3183 86.24 31.6703 86.24ZM31.6703 83.936C34.1663 83.936 35.0303 82.712 35.0303 80.024C35.0303 77.36 34.1663 76.136 31.6703 76.136C29.1503 76.136 28.2623 77.36 28.2623 80.024C28.2623 82.712 29.1503 83.936 31.6703 83.936ZM44.0987 86C41.4347 86 40.0427 85.016 40.0427 82.328V76.232H38.0507V74.072H40.0907L40.6427 71.12H42.6347V74.072H46.2347V76.232H42.6347V82.208C42.6347 83.456 43.1627 83.672 44.7707 83.672H46.2347V85.784C45.7307 85.904 44.9147 86 44.0987 86ZM52.6316 86.24C48.6956 86.24 46.8476 83.744 46.8476 80.024C46.8476 76.328 49.0556 73.832 52.6076 73.832C55.8236 73.832 58.0796 75.752 58.0796 79.016C58.0796 79.64 58.0076 80.288 57.9356 80.648H49.2716C49.3676 82.832 50.1596 83.936 52.6556 83.936C54.6476 83.936 55.4156 83.264 55.4156 82.184V81.992H57.9836V82.208C57.9836 84.656 55.8476 86.24 52.6316 86.24ZM52.5596 76.016C50.3036 76.016 49.4396 77.072 49.2956 78.92H55.6076C55.7036 76.88 54.5996 76.016 52.5596 76.016ZM65.3771 86.264C61.6571 86.264 59.5451 83.744 59.5451 80.048C59.5451 76.328 61.7291 73.832 65.4731 73.832C68.6171 73.832 70.7771 75.776 70.7771 78.632V78.848H68.2091V78.704C68.2091 76.952 67.2971 76.16 65.3051 76.16C63.0011 76.16 62.1131 77.456 62.1131 80.048C62.1131 82.64 63.0011 83.912 65.3051 83.912C67.2971 83.912 68.2091 83.144 68.2091 81.392V81.248H70.7771V81.464C70.7771 84.296 68.5931 86.264 65.3771 86.264ZM77.3631 86C74.6991 86 73.3071 85.016 73.3071 82.328V76.232H71.3151V74.072H73.3551L73.9071 71.12H75.8991V74.072H79.4991V76.232H75.8991V82.208C75.8991 83.456 76.4271 83.672 78.0351 83.672H79.4991V85.784C78.9951 85.904 78.1791 86 77.3631 86ZM92.9288 86H90.3608V80.024L84.1208 69.92H87.0728L90.1208 74.888L91.6088 77.408H91.7768L93.2408 74.888L96.2648 69.92H99.1928L92.9288 80.072V86ZM103.748 86.24C100.076 86.24 97.7961 83.744 97.7961 80.024C97.7961 76.328 100.076 73.832 103.748 73.832C107.396 73.832 109.604 76.328 109.604 80.024C109.604 83.744 107.396 86.24 103.748 86.24ZM103.748 83.936C106.244 83.936 107.108 82.712 107.108 80.024C107.108 77.36 106.244 76.136 103.748 76.136C101.228 76.136 100.34 77.36 100.34 80.024C100.34 82.712 101.228 83.936 103.748 83.936ZM115.742 86.24C112.622 86.24 111.23 84.152 111.23 81.44V74.072H113.822V80.984C113.822 83.12 114.638 84.008 116.702 84.008C118.694 84.008 119.822 83.144 119.822 80.792V74.072H122.414V86H120.014V83.624H119.918C119.342 84.992 118.07 86.24 115.742 86.24ZM127.318 86H124.726V74H127.102V75.896H127.222C127.702 74.792 128.806 73.832 130.558 73.832C133.054 73.832 134.014 75.656 134.014 77.888V78.68H131.422V78.2C131.422 76.616 130.966 76.04 129.454 76.04C127.894 76.04 127.318 76.64 127.318 78.224V86ZM147.631 86H139.951V69.92H147.343C150.487 69.92 152.383 71.216 152.383 73.928C152.383 75.8 151.327 77.072 149.263 77.384V77.576C151.711 77.888 152.959 79.472 152.959 81.584C152.959 84.32 151.015 86 147.631 86ZM142.543 72.248V76.592H147.103C149.047 76.592 149.815 76.064 149.815 74.432C149.815 72.776 149.119 72.248 147.175 72.248H142.543ZM142.543 78.752V83.672H147.559C149.503 83.672 150.343 83.12 150.343 81.224C150.343 79.304 149.503 78.752 147.559 78.752H142.543ZM159.289 86.24C156.169 86.24 154.777 84.152 154.777 81.44V74.072H157.369V80.984C157.369 83.12 158.185 84.008 160.25 84.008C162.242 84.008 163.369 83.144 163.369 80.792V74.072H165.962V86H163.561V83.624H163.466C162.889 84.992 161.617 86.24 159.289 86.24ZM173.219 86.24C169.739 86.24 167.915 84.872 167.915 81.968V81.92H170.411V82.352C170.411 83.648 170.987 84.128 173.267 84.128C175.187 84.128 175.547 83.696 175.547 82.808C175.547 81.848 174.971 81.56 173.219 81.248L171.371 80.936C169.235 80.552 167.891 79.592 167.891 77.432C167.891 75.272 169.667 73.832 172.787 73.832C175.595 73.832 177.707 75.224 177.707 77.936V78.152H175.235V77.864C175.235 76.76 174.851 75.968 172.715 75.968C170.819 75.968 170.363 76.472 170.363 77.384C170.363 78.296 170.795 78.56 172.475 78.896L174.491 79.28C176.795 79.736 177.995 80.768 177.995 82.736C177.995 84.944 176.243 86.24 173.219 86.24ZM182.2 72.56H179.632L179.608 69.92H182.2V72.56ZM182.224 86H179.632V74H182.224V86ZM186.956 86H184.364V74.072H186.74V76.304H186.836C187.388 75.032 188.66 73.832 190.988 73.832C194.084 73.832 195.476 75.8 195.476 78.512V86H192.884V79.088C192.884 76.952 192.212 76.064 190.028 76.064C187.916 76.064 186.956 76.88 186.956 79.112V86ZM202.975 86.24C199.039 86.24 197.191 83.744 197.191 80.024C197.191 76.328 199.399 73.832 202.951 73.832C206.167 73.832 208.423 75.752 208.423 79.016C208.423 79.64 208.351 80.288 208.279 80.648H199.615C199.711 82.832 200.503 83.936 202.999 83.936C204.991 83.936 205.759 83.264 205.759 82.184V81.992H208.327V82.208C208.327 84.656 206.191 86.24 202.975 86.24ZM202.903 76.016C200.647 76.016 199.783 77.072 199.639 78.92H205.951C206.047 76.88 204.943 76.016 202.903 76.016ZM215.384 86.24C211.904 86.24 210.08 84.872 210.08 81.968V81.92H212.576V82.352C212.576 83.648 213.152 84.128 215.432 84.128C217.352 84.128 217.712 83.696 217.712 82.808C217.712 81.848 217.136 81.56 215.384 81.248L213.536 80.936C211.4 80.552 210.056 79.592 210.056 77.432C210.056 75.272 211.832 73.832 214.952 73.832C217.76 73.832 219.872 75.224 219.872 77.936V78.152H217.4V77.864C217.4 76.76 217.016 75.968 214.88 75.968C212.984 75.968 212.528 76.472 212.528 77.384C212.528 78.296 212.96 78.56 214.64 78.896L216.656 79.28C218.96 79.736 220.16 80.768 220.16 82.736C220.16 84.944 218.408 86.24 215.384 86.24ZM226.957 86.24C223.477 86.24 221.653 84.872 221.653 81.968V81.92H224.149V82.352C224.149 83.648 224.725 84.128 227.005 84.128C228.925 84.128 229.285 83.696 229.285 82.808C229.285 81.848 228.709 81.56 226.957 81.248L225.109 80.936C222.973 80.552 221.629 79.592 221.629 77.432C221.629 75.272 223.405 73.832 226.525 73.832C229.333 73.832 231.445 75.224 231.445 77.936V78.152H228.973V77.864C228.973 76.76 228.589 75.968 226.453 75.968C224.557 75.968 224.101 76.472 224.101 77.384C224.101 78.296 224.533 78.56 226.213 78.896L228.229 79.28C230.533 79.736 231.733 80.768 231.733 82.736C231.733 84.944 229.981 86.24 226.957 86.24ZM243.195 86H239.811L236.859 74.072H239.667L241.035 80.696L241.515 83.84H241.707L242.499 80.696L244.587 74.072H247.947L250.059 80.72L250.803 83.84H250.995L251.475 80.72L252.867 74.072H255.555L252.603 86H249.243L247.107 79.352L246.315 76.352H246.123L245.355 79.352L243.195 86ZM258.988 72.56H256.42L256.396 69.92H258.988V72.56ZM259.012 86H256.42V74H259.012V86ZM266.051 86C263.387 86 261.995 85.016 261.995 82.328V76.232H260.003V74.072H262.043L262.595 71.12H264.587V74.072H268.187V76.232H264.587V82.208C264.587 83.456 265.115 83.672 266.723 83.672H268.187V85.784C267.683 85.904 266.867 86 266.051 86ZM272.387 86H269.795V69.92H272.387V76.064H272.483C273.035 74.984 274.307 73.832 276.467 73.832C279.587 73.832 280.907 75.872 280.907 78.488V86H278.315V79.088C278.315 76.952 277.643 76.064 275.459 76.064C273.347 76.064 272.387 76.88 272.387 79.136V86ZM2.928 114H0.216L6.48 97.92H10.2L16.464 114H13.656L12.024 109.824H4.56L2.928 114ZM7.152 103.248L5.472 107.496H11.112L9.432 103.248L8.4 100.272H8.208L7.152 103.248ZM22.0502 114.24C18.6422 114.24 16.7942 111.816 16.7942 108.024C16.7942 104.256 18.6182 101.832 21.9062 101.832C24.0182 101.832 25.2902 102.84 25.8182 103.92H25.8902V97.92H28.4582V114H26.0822V112.032H25.9862C25.4102 113.4 24.0902 114.24 22.0502 114.24ZM19.3862 108.024C19.3862 110.976 20.3222 112.032 22.6262 112.032C24.7382 112.032 25.8902 111.096 25.8902 109.104V106.968C25.8902 104.976 24.7382 104.04 22.6262 104.04C20.3462 104.04 19.3862 105.096 19.3862 108.024ZM37.4931 114H34.2291L29.4531 102.072H32.3331L35.8131 111.528H35.9811L39.4851 102.072H42.2931L37.4931 114ZM46.1441 114.24C44.0081 114.24 42.3521 113.136 42.3521 111.048C42.3521 109.08 43.7921 108.048 46.3361 107.688L50.5121 107.064V106.416C50.5121 104.64 49.6961 104.112 47.8241 104.112C45.9281 104.112 45.1841 104.712 45.1841 106.296V106.656H42.6881V106.416C42.6881 103.752 44.7761 101.832 47.9681 101.832C51.3041 101.832 52.9841 103.848 52.9841 106.752V114H50.5841V112.128H50.4641C49.7681 113.256 48.4001 114.24 46.1441 114.24ZM44.8721 110.856C44.8721 111.792 45.4721 112.176 46.9841 112.176C48.6641 112.176 50.5121 111.504 50.5121 109.104V108.888L46.7201 109.464C45.3521 109.656 44.8721 109.968 44.8721 110.856ZM57.8181 114H55.2261V102.072H57.6021V104.304H57.6981C58.2501 103.032 59.5221 101.832 61.8501 101.832C64.9461 101.832 66.3381 103.8 66.3381 106.512V114H63.7461V107.088C63.7461 104.952 63.0741 104.064 60.8901 104.064C58.7781 104.064 57.8181 104.88 57.8181 107.112V114ZM73.8849 114.264C70.1649 114.264 68.0529 111.744 68.0529 108.048C68.0529 104.328 70.2369 101.832 73.9809 101.832C77.1249 101.832 79.2849 103.776 79.2849 106.632V106.848H76.7169V106.704C76.7169 104.952 75.8049 104.16 73.8129 104.16C71.5089 104.16 70.6209 105.456 70.6209 108.048C70.6209 110.64 71.5089 111.912 73.8129 111.912C75.8049 111.912 76.7169 111.144 76.7169 109.392V109.248H79.2849V109.464C79.2849 112.296 77.1009 114.264 73.8849 114.264ZM86.4172 114.24C82.4812 114.24 80.6332 111.744 80.6332 108.024C80.6332 104.328 82.8412 101.832 86.3932 101.832C89.6092 101.832 91.8652 103.752 91.8652 107.016C91.8652 107.64 91.7932 108.288 91.7212 108.648H83.0572C83.1532 110.832 83.9452 111.936 86.4412 111.936C88.4332 111.936 89.2012 111.264 89.2012 110.184V109.992H91.7692V110.208C91.7692 112.656 89.6332 114.24 86.4172 114.24ZM86.3452 104.016C84.0892 104.016 83.2252 105.072 83.0812 106.92H89.3932C89.4892 104.88 88.3852 104.016 86.3452 104.016ZM98.5867 114.24C95.1787 114.24 93.3307 111.816 93.3307 108.024C93.3307 104.256 95.1547 101.832 98.4427 101.832C100.555 101.832 101.827 102.84 102.355 103.92H102.427V97.92H104.995V114H102.619V112.032H102.523C101.947 113.4 100.627 114.24 98.5867 114.24ZM95.9227 108.024C95.9227 110.976 96.8587 112.032 99.1628 112.032C101.275 112.032 102.427 111.096 102.427 109.104V106.968C102.427 104.976 101.275 104.04 99.1628 104.04C96.8827 104.04 95.9227 105.096 95.9227 108.024ZM114.253 114H111.661V97.92H114.253V114ZM121.164 114.24C117.756 114.24 115.908 111.816 115.908 108.024C115.908 104.256 117.732 101.832 121.02 101.832C123.132 101.832 124.404 102.84 124.932 103.92H125.004V97.92H127.572V114H125.196V112.032H125.1C124.524 113.4 123.204 114.24 121.164 114.24ZM118.5 108.024C118.5 110.976 119.436 112.032 121.74 112.032C123.852 112.032 125.004 111.096 125.004 109.104V106.968C125.004 104.976 123.852 104.04 121.74 104.04C119.46 104.04 118.5 105.096 118.5 108.024ZM135.092 114.24C131.156 114.24 129.308 111.744 129.308 108.024C129.308 104.328 131.516 101.832 135.068 101.832C138.284 101.832 140.54 103.752 140.54 107.016C140.54 107.64 140.468 108.288 140.396 108.648H131.732C131.828 110.832 132.62 111.936 135.116 111.936C137.108 111.936 137.876 111.264 137.876 110.184V109.992H140.444V110.208C140.444 112.656 138.308 114.24 135.092 114.24ZM135.02 104.016C132.764 104.016 131.9 105.072 131.756 106.92H138.068C138.164 104.88 137.06 104.016 135.02 104.016ZM144.961 114H142.369V102.072H144.745V104.304H144.841C145.393 103.032 146.665 101.832 148.993 101.832C152.089 101.832 153.481 103.8 153.481 106.512V114H150.889V107.088C150.889 104.952 150.217 104.064 148.033 104.064C145.921 104.064 144.961 104.88 144.961 107.112V114ZM160.574 114C157.91 114 156.518 113.016 156.518 110.328V104.232H154.526V102.072H156.566L157.118 99.12H159.11V102.072H162.71V104.232H159.11V110.208C159.11 111.456 159.638 111.672 161.246 111.672H162.71V113.784C162.206 113.904 161.39 114 160.574 114ZM166.578 100.56H164.01L163.986 97.92H166.578V100.56ZM166.602 114H164.01V102H166.602V114ZM173.641 114C170.977 114 169.585 113.016 169.585 110.328V104.232H167.593V102.072H169.633L170.185 99.12H172.177V102.072H175.777V104.232H172.177V110.208C172.177 111.456 172.705 111.672 174.313 111.672H175.777V113.784C175.273 113.904 174.457 114 173.641 114ZM178.91 118.08C178.262 118.08 177.518 117.984 177.11 117.864V115.752H178.742C179.774 115.752 180.134 115.584 180.518 114.696L180.974 113.688L175.91 102.072H178.766L181.166 107.856L182.246 110.448H182.438L183.422 107.856L185.606 102.072H188.462L182.822 115.416C181.934 117.528 180.782 118.08 178.91 118.08ZM202.582 114H199.15L193.054 97.92H195.958L200.806 111.12H200.998L205.798 97.92H208.678L202.582 114ZM213.891 114.24C209.955 114.24 208.107 111.744 208.107 108.024C208.107 104.328 210.315 101.832 213.867 101.832C217.083 101.832 219.339 103.752 219.339 107.016C219.339 107.64 219.267 108.288 219.195 108.648H210.531C210.627 110.832 211.419 111.936 213.915 111.936C215.907 111.936 216.675 111.264 216.675 110.184V109.992H219.243V110.208C219.243 112.656 217.107 114.24 213.891 114.24ZM213.819 104.016C211.563 104.016 210.699 105.072 210.555 106.92H216.867C216.963 104.88 215.859 104.016 213.819 104.016ZM223.759 114H221.167V102H223.543V103.896H223.663C224.143 102.792 225.247 101.832 226.999 101.832C229.495 101.832 230.455 103.656 230.455 105.888V106.68H227.863V106.2C227.863 104.616 227.407 104.04 225.895 104.04C224.335 104.04 223.759 104.64 223.759 106.224V114ZM234.156 100.56H231.588L231.564 97.92H234.156V100.56ZM234.18 114H231.588V102H234.18V114ZM239.442 114H236.85V104.232H235.098V102.072H236.85C236.898 99.384 238.506 97.92 241.53 97.92H242.49V99.984H241.05C239.898 99.984 239.37 100.416 239.37 101.424V102.072H242.49V104.232H239.442V114ZM246.282 100.56H243.714L243.69 97.92H246.282V100.56ZM246.306 114H243.714V102H246.306V114ZM253.666 114.264C249.946 114.264 247.834 111.744 247.834 108.048C247.834 104.328 250.018 101.832 253.762 101.832C256.906 101.832 259.066 103.776 259.066 106.632V106.848H256.498V106.704C256.498 104.952 255.586 104.16 253.594 104.16C251.29 104.16 250.402 105.456 250.402 108.048C250.402 110.64 251.29 111.912 253.594 111.912C255.586 111.912 256.498 111.144 256.498 109.392V109.248H259.066V109.464C259.066 112.296 256.882 114.264 253.666 114.264ZM264.135 114.24C261.999 114.24 260.343 113.136 260.343 111.048C260.343 109.08 261.783 108.048 264.327 107.688L268.503 107.064V106.416C268.503 104.64 267.687 104.112 265.815 104.112C263.919 104.112 263.175 104.712 263.175 106.296V106.656H260.679V106.416C260.679 103.752 262.767 101.832 265.959 101.832C269.295 101.832 270.975 103.848 270.975 106.752V114H268.575V112.128H268.455C267.759 113.256 266.391 114.24 264.135 114.24ZM262.863 110.856C262.863 111.792 263.463 112.176 264.975 112.176C266.655 112.176 268.503 111.504 268.503 109.104V108.888L264.711 109.464C263.343 109.656 262.863 109.968 262.863 110.856ZM278.069 114C275.405 114 274.013 113.016 274.013 110.328V104.232H272.021V102.072H274.061L274.613 99.12H276.605V102.072H280.205V104.232H276.605V110.208C276.605 111.456 277.133 111.672 278.741 111.672H280.205V113.784C279.701 113.904 278.885 114 278.069 114ZM284.073 100.56H281.505L281.481 97.92H284.073V100.56ZM284.097 114H281.505V102H284.097V114ZM291.592 114.24C287.92 114.24 285.64 111.744 285.64 108.024C285.64 104.328 287.92 101.832 291.592 101.832C295.24 101.832 297.448 104.328 297.448 108.024C297.448 111.744 295.24 114.24 291.592 114.24ZM291.592 111.936C294.088 111.936 294.952 110.712 294.952 108.024C294.952 105.36 294.088 104.136 291.592 104.136C289.072 104.136 288.184 105.36 288.184 108.024C288.184 110.712 289.072 111.936 291.592 111.936ZM301.738 114H299.146V102.072H301.522V104.304H301.618C302.17 103.032 303.442 101.832 305.77 101.832C308.866 101.832 310.258 103.8 310.258 106.512V114H307.666V107.088C307.666 104.952 306.994 104.064 304.81 104.064C302.698 104.064 301.738 104.88 301.738 107.112V114Z" fill="#CAAEFF"/>
<path d="M6.3 156.2C2.58 156.2 0.96 154.24 0.96 151.94V151.64H2.38V151.86C2.38 153.72 3.36 154.88 6.34 154.88C8.56 154.88 9.6 154.14 9.6 152.6C9.6 151.1 8.92 150.54 6.9 150.1L4.58 149.58C2.48 149.14 1.04 148.18 1.04 146.02C1.04 144.08 2.64 142.4 5.82 142.4C9.3 142.4 10.82 144.52 10.82 146.7V146.96H9.4V146.74C9.4 144.9 8.44 143.72 5.8 143.72C3.58 143.72 2.48 144.46 2.48 145.92C2.48 147.44 3.22 147.88 5.18 148.34L7.5 148.88C9.72 149.38 11.04 150.42 11.04 152.52C11.04 154.56 9.46 156.2 6.3 156.2ZM16.1044 156.02C14.2844 156.02 13.2244 155.3 13.2244 153.2V147.36H11.5644V146.12H13.2444L13.5844 143.6H14.6644V146.12H17.7844V147.36H14.6644V153.28C14.6644 154.44 15.2044 154.7 16.4844 154.7H17.7844V155.86C17.4444 155.92 16.8244 156.02 16.1044 156.02ZM22.9716 156.2C20.0716 156.2 18.1716 154.06 18.1716 151.06C18.1716 148.06 20.0716 145.92 22.9716 145.92C25.8516 145.92 27.6916 148.06 27.6916 151.06C27.6916 154.06 25.8516 156.2 22.9716 156.2ZM22.9716 154.92C25.3516 154.92 26.2916 153.52 26.2916 151.06C26.2916 148.6 25.3516 147.22 22.9716 147.22C20.5516 147.22 19.5916 148.6 19.5916 151.06C19.5916 153.52 20.5516 154.92 22.9716 154.92ZM30.6709 159.48H29.2309V146.12H30.5309V148.04H30.5909C31.0309 146.78 32.2109 145.92 34.0709 145.92C36.8509 145.92 38.3909 147.94 38.3909 151.08C38.3909 154.18 36.9309 156.2 34.2309 156.2C32.3309 156.2 31.1109 155.2 30.6709 154.12V159.48ZM30.6709 151.92C30.6709 153.94 31.8709 154.96 33.8309 154.96C35.7509 154.96 36.9509 154.08 36.9509 151.08C36.9509 148.04 35.7709 147.16 33.8309 147.16C31.8709 147.16 30.6709 148.18 30.6709 150.22V151.92ZM45.4384 156H44.0184V147.36H42.5584V146.12H44.0184V145.74C44.0184 143.7 45.1584 142.6 47.3384 142.6H48.2184V143.78H47.0784C45.9384 143.78 45.4184 144.26 45.4184 145.26V146.12H48.2184V147.36H45.4384V156ZM50.5787 156H49.1387V146H50.4387V147.66H50.5387C50.8587 146.74 51.8187 145.92 53.2787 145.92C55.3187 145.92 56.0987 147.38 56.0987 149.08V149.64H54.6587V149.3C54.6587 147.76 54.1787 147.16 52.7587 147.16C51.2187 147.16 50.5787 147.86 50.5787 149.46V156ZM59.8028 156.2C58.0028 156.2 56.6428 155.28 56.6428 153.62C56.6428 151.9 57.9228 151.14 60.0828 150.84L63.5628 150.36V149.64C63.5628 147.9 62.8228 147.2 60.9628 147.2C59.1628 147.2 58.3228 147.9 58.3228 149.48V149.78H56.9428V149.62C56.9428 147.56 58.5228 145.92 61.0828 145.92C63.7228 145.92 64.9228 147.62 64.9228 149.82V156H63.6228V154.18L63.5228 154.16C62.9428 155.3 61.6828 156.2 59.8028 156.2ZM58.0428 153.52C58.0428 154.54 58.6828 155 60.2028 155C61.9028 155 63.5628 154.12 63.5628 151.78V151.44L60.2028 151.92C58.6228 152.14 58.0428 152.46 58.0428 153.52ZM70.6423 156.2C68.0623 156.2 66.8623 154.42 66.8623 152.06V146.12H68.3023V151.86C68.3023 154 69.1623 154.94 71.1023 154.94C72.9223 154.94 74.1623 153.98 74.1623 151.66V146.12H75.5823V156H74.2823V153.82H74.2223C73.8223 154.96 72.7023 156.2 70.6423 156.2ZM81.5412 156.2C78.7612 156.2 77.2012 154.18 77.2012 151.06C77.2012 147.94 78.6812 145.92 81.3812 145.92C83.2812 145.92 84.5012 146.92 84.9212 148V142.6H86.3612V156H85.0812V154.1H85.0012C84.5612 155.34 83.4012 156.2 81.5412 156.2ZM78.6412 151.06C78.6412 154.08 79.8212 154.96 81.7812 154.96C83.7412 154.96 84.9212 153.94 84.9212 151.92V150.22C84.9212 148.18 83.7412 147.16 81.7812 147.16C79.8412 147.16 78.6412 148.04 78.6412 151.06ZM93.1888 156H91.8888V142.6H93.3288V148C93.7688 146.92 94.9888 145.92 96.8888 145.92C99.5888 145.92 101.049 147.94 101.049 151.06C101.049 154.18 99.5088 156.2 96.7288 156.2C94.8688 156.2 93.6888 155.34 93.2488 154.1H93.1888V156ZM93.3288 151.92C93.3288 153.94 94.5288 154.96 96.4888 154.96C98.4288 154.96 99.6088 154.08 99.6088 151.06C99.6088 148.04 98.4088 147.16 96.4888 147.16C94.5288 147.16 93.3288 148.18 93.3288 150.22V151.92ZM106.905 156.2C103.865 156.2 102.285 154.06 102.285 151.06C102.285 148.06 104.065 145.92 106.885 145.92C109.265 145.92 111.225 147.36 111.225 150.28C111.225 150.74 111.185 151.18 111.125 151.46H103.645C103.705 153.64 104.565 154.92 106.925 154.92C108.925 154.92 109.725 154.02 109.725 152.82V152.7H111.145V152.84C111.145 154.74 109.425 156.2 106.905 156.2ZM106.845 147.16C104.645 147.16 103.765 148.42 103.645 150.42H109.865C109.945 148.08 108.785 147.16 106.845 147.16ZM114.698 156H113.278V147.36H111.818V146.12H113.278V145.74C113.278 143.7 114.418 142.6 116.598 142.6H117.478V143.78H116.338C115.198 143.78 114.678 144.26 114.678 145.26V146.12H117.478V147.36H114.698V156ZM122.329 156.2C119.429 156.2 117.529 154.06 117.529 151.06C117.529 148.06 119.429 145.92 122.329 145.92C125.209 145.92 127.049 148.06 127.049 151.06C127.049 154.06 125.209 156.2 122.329 156.2ZM122.329 154.92C124.709 154.92 125.649 153.52 125.649 151.06C125.649 148.6 124.709 147.22 122.329 147.22C119.909 147.22 118.949 148.6 118.949 151.06C118.949 153.52 119.909 154.92 122.329 154.92ZM130.029 156H128.589V146H129.889V147.66H129.989C130.309 146.74 131.269 145.92 132.729 145.92C134.769 145.92 135.549 147.38 135.549 149.08V149.64H134.109V149.3C134.109 147.76 133.629 147.16 132.209 147.16C130.669 147.16 130.029 147.86 130.029 149.46V156ZM141.027 156.2C137.987 156.2 136.407 154.06 136.407 151.06C136.407 148.06 138.187 145.92 141.007 145.92C143.387 145.92 145.347 147.36 145.347 150.28C145.347 150.74 145.307 151.18 145.247 151.46H137.767C137.827 153.64 138.687 154.92 141.047 154.92C143.047 154.92 143.847 154.02 143.847 152.82V152.7H145.267V152.84C145.267 154.74 143.547 156.2 141.027 156.2ZM140.967 147.16C138.767 147.16 137.887 148.42 137.767 150.42H143.987C144.067 148.08 142.907 147.16 140.967 147.16ZM151.946 144.8H150.526V142.6H151.946V144.8ZM151.946 156H150.526V146H151.946V156ZM157.504 156.02C155.684 156.02 154.624 155.3 154.624 153.2V147.36H152.964V146.12H154.644L154.984 143.6H156.064V146.12H159.184V147.36H156.064V153.28C156.064 154.44 156.604 154.7 157.884 154.7H159.184V155.86C158.844 155.92 158.224 156.02 157.504 156.02ZM167.912 156.2C165.212 156.2 163.732 155.06 163.732 152.76V152.72H165.132V152.96C165.132 154.32 165.692 154.98 167.932 154.98C169.772 154.98 170.252 154.46 170.252 153.46C170.252 152.46 169.632 152.1 168.132 151.82L166.492 151.54C164.892 151.24 163.732 150.5 163.732 148.76C163.732 147.06 165.172 145.92 167.512 145.92C169.772 145.92 171.432 147.08 171.432 149.3V149.4H170.052V149.24C170.052 148.06 169.592 147.16 167.472 147.16C165.672 147.16 165.112 147.74 165.112 148.74C165.112 149.74 165.612 150.08 167.092 150.36L168.772 150.68C170.492 151 171.632 151.76 171.632 153.4C171.632 155.16 170.192 156.2 167.912 156.2ZM176.983 156.02C175.163 156.02 174.103 155.3 174.103 153.2V147.36H172.443V146.12H174.123L174.463 143.6H175.543V146.12H178.663V147.36H175.543V153.28C175.543 154.44 176.083 154.7 177.363 154.7H178.663V155.86C178.323 155.92 177.703 156.02 176.983 156.02ZM182.482 156.2C180.682 156.2 179.322 155.28 179.322 153.62C179.322 151.9 180.602 151.14 182.762 150.84L186.242 150.36V149.64C186.242 147.9 185.502 147.2 183.642 147.2C181.842 147.2 181.002 147.9 181.002 149.48V149.78H179.622V149.62C179.622 147.56 181.202 145.92 183.762 145.92C186.402 145.92 187.602 147.62 187.602 149.82V156H186.302V154.18L186.202 154.16C185.622 155.3 184.362 156.2 182.482 156.2ZM180.722 153.52C180.722 154.54 181.362 155 182.882 155C184.582 155 186.242 154.12 186.242 151.78V151.44L182.882 151.92C181.302 152.14 180.722 152.46 180.722 153.52ZM191.041 156H189.601V146H190.901V147.66H191.001C191.321 146.74 192.281 145.92 193.741 145.92C195.781 145.92 196.561 147.38 196.561 149.08V149.64H195.121V149.3C195.121 147.76 194.641 147.16 193.221 147.16C191.681 147.16 191.041 147.86 191.041 149.46V156ZM201.675 156.02C199.855 156.02 198.795 155.3 198.795 153.2V147.36H197.135V146.12H198.815L199.155 143.6H200.235V146.12H203.355V147.36H200.235V153.28C200.235 154.44 200.775 154.7 202.055 154.7H203.355V155.86C203.015 155.92 202.395 156.02 201.675 156.02ZM208.338 156.2C205.638 156.2 204.158 155.06 204.158 152.76V152.72H205.558V152.96C205.558 154.32 206.118 154.98 208.358 154.98C210.198 154.98 210.678 154.46 210.678 153.46C210.678 152.46 210.058 152.1 208.558 151.82L206.918 151.54C205.318 151.24 204.158 150.5 204.158 148.76C204.158 147.06 205.598 145.92 207.938 145.92C210.198 145.92 211.858 147.08 211.858 149.3V149.4H210.478V149.24C210.478 148.06 210.018 147.16 207.898 147.16C206.098 147.16 205.538 147.74 205.538 148.74C205.538 149.74 206.038 150.08 207.518 150.36L209.198 150.68C210.918 151 212.058 151.76 212.058 153.4C212.058 155.16 210.618 156.2 208.338 156.2ZM215.085 156H213.325V153.22H215.085V156ZM226.485 156H224.585L219.325 142.6H220.925L225.525 154.4H225.625L230.185 142.6H231.745L226.485 156ZM234.019 144.8H232.599V142.6H234.019V144.8ZM234.019 156H232.599V146H234.019V156ZM239.837 156.2C237.057 156.2 235.497 154.18 235.497 151.06C235.497 147.94 236.977 145.92 239.677 145.92C241.577 145.92 242.797 146.92 243.217 148V142.6H244.657V156H243.377V154.1H243.297C242.857 155.34 241.697 156.2 239.837 156.2ZM236.937 151.06C236.937 154.08 238.117 154.96 240.077 154.96C242.037 154.96 243.217 153.94 243.217 151.92V150.22C243.217 148.18 242.037 147.16 240.077 147.16C238.137 147.16 236.937 148.04 236.937 151.06ZM249.334 156.2C247.534 156.2 246.174 155.28 246.174 153.62C246.174 151.9 247.454 151.14 249.614 150.84L253.094 150.36V149.64C253.094 147.9 252.354 147.2 250.494 147.2C248.694 147.2 247.854 147.9 247.854 149.48V149.78H246.474V149.62C246.474 147.56 248.054 145.92 250.614 145.92C253.254 145.92 254.454 147.62 254.454 149.82V156H253.154V154.18L253.054 154.16C252.474 155.3 251.214 156.2 249.334 156.2ZM247.574 153.52C247.574 154.54 248.214 155 249.734 155C251.434 155 253.094 154.12 253.094 151.78V151.44L249.734 151.92C248.154 152.14 247.574 152.46 247.574 153.52ZM256.334 147.22H255.894V146.28H256.294C256.574 146.28 256.714 146.22 256.714 145.88V145.38H255.934V142.6H257.694V145.86C257.694 146.8 257.174 147.22 256.334 147.22ZM263.261 156.2C260.561 156.2 259.081 155.06 259.081 152.76V152.72H260.481V152.96C260.481 154.32 261.041 154.98 263.281 154.98C265.121 154.98 265.601 154.46 265.601 153.46C265.601 152.46 264.981 152.1 263.481 151.82L261.841 151.54C260.241 151.24 259.081 150.5 259.081 148.76C259.081 147.06 260.521 145.92 262.861 145.92C265.121 145.92 266.781 147.08 266.781 149.3V149.4H265.401V149.24C265.401 148.06 264.941 147.16 262.821 147.16C261.021 147.16 260.461 147.74 260.461 148.74C260.461 149.74 260.961 150.08 262.441 150.36L264.121 150.68C265.841 151 266.981 151.76 266.981 153.4C266.981 155.16 265.541 156.2 263.261 156.2ZM273.68 156H272.24V146H273.54V147.66H273.64C273.96 146.74 274.92 145.92 276.38 145.92C278.42 145.92 279.2 147.38 279.2 149.08V149.64H277.76V149.3C277.76 147.76 277.28 147.16 275.86 147.16C274.32 147.16 273.68 147.86 273.68 149.46V156ZM284.858 156.2C281.958 156.2 280.058 154.06 280.058 151.06C280.058 148.06 281.958 145.92 284.858 145.92C287.738 145.92 289.578 148.06 289.578 151.06C289.578 154.06 287.738 156.2 284.858 156.2ZM284.858 154.92C287.238 154.92 288.178 153.52 288.178 151.06C288.178 148.6 287.238 147.22 284.858 147.22C282.438 147.22 281.478 148.6 281.478 151.06C281.478 153.52 282.438 154.92 284.858 154.92ZM292.437 156H291.137V142.6H292.577V148C293.017 146.92 294.237 145.92 296.137 145.92C298.837 145.92 300.297 147.94 300.297 151.06C300.297 154.18 298.757 156.2 295.977 156.2C294.117 156.2 292.937 155.34 292.497 154.1H292.437V156ZM292.577 151.92C292.577 153.94 293.777 154.96 295.737 154.96C297.677 154.96 298.857 154.08 298.857 151.06C298.857 148.04 297.657 147.16 295.737 147.16C293.777 147.16 292.577 148.18 292.577 150.22V151.92ZM305.556 156.2C302.976 156.2 301.776 154.42 301.776 152.06V146.12H303.216V151.86C303.216 154 304.076 154.94 306.016 154.94C307.836 154.94 309.076 153.98 309.076 151.66V146.12H310.496V156H309.196V153.82H309.136C308.736 154.96 307.616 156.2 305.556 156.2ZM316.495 156.2C313.795 156.2 312.315 155.06 312.315 152.76V152.72H313.715V152.96C313.715 154.32 314.275 154.98 316.515 154.98C318.355 154.98 318.835 154.46 318.835 153.46C318.835 152.46 318.215 152.1 316.715 151.82L315.075 151.54C313.475 151.24 312.315 150.5 312.315 148.76C312.315 147.06 313.755 145.92 316.095 145.92C318.355 145.92 320.015 147.08 320.015 149.3V149.4H318.635V149.24C318.635 148.06 318.175 147.16 316.055 147.16C314.255 147.16 313.695 147.74 313.695 148.74C313.695 149.74 314.195 150.08 315.675 150.36L317.355 150.68C319.075 151 320.215 151.76 320.215 153.4C320.215 155.16 318.775 156.2 316.495 156.2ZM325.565 156.02C323.745 156.02 322.685 155.3 322.685 153.2V147.36H321.025V146.12H322.705L323.045 143.6H324.125V146.12H327.245V147.36H324.125V153.28C324.125 154.44 324.665 154.7 325.945 154.7H327.245V155.86C326.905 155.92 326.285 156.02 325.565 156.02ZM2.48 172.8H1.06V170.6H2.48V172.8ZM2.48 184H1.06V174H2.48V184ZM8.2975 184.2C5.5175 184.2 3.9575 182.18 3.9575 179.06C3.9575 175.94 5.4375 173.92 8.1375 173.92C10.0375 173.92 11.2575 174.92 11.6775 176V170.6H13.1175V184H11.8375V182.1H11.7575C11.3175 183.34 10.1575 184.2 8.2975 184.2ZM5.3975 179.06C5.3975 182.08 6.5775 182.96 8.5375 182.96C10.4975 182.96 11.6775 181.94 11.6775 179.92V178.22C11.6775 176.18 10.4975 175.16 8.5375 175.16C6.5975 175.16 5.3975 176.04 5.3975 179.06ZM19.2955 184.2C16.2555 184.2 14.6755 182.06 14.6755 179.06C14.6755 176.06 16.4555 173.92 19.2755 173.92C21.6555 173.92 23.6155 175.36 23.6155 178.28C23.6155 178.74 23.5755 179.18 23.5155 179.46H16.0355C16.0955 181.64 16.9555 182.92 19.3155 182.92C21.3155 182.92 22.1155 182.02 22.1155 180.82V180.7H23.5355V180.84C23.5355 182.74 21.8155 184.2 19.2955 184.2ZM19.2355 175.16C17.0355 175.16 16.1555 176.42 16.0355 178.42H22.2555C22.3355 176.08 21.1755 175.16 19.2355 175.16ZM26.7061 184H25.2661V174.12H26.5661V176.16H26.6261C27.0061 175.12 28.1261 173.92 30.1661 173.92C32.7061 173.92 33.8661 175.56 33.8661 177.94V184H32.4461V178.26C32.4461 176.12 31.7461 175.18 29.7261 175.18C27.7661 175.18 26.7061 176.1 26.7061 178.3V184ZM39.3911 184.02C37.5711 184.02 36.5111 183.3 36.5111 181.2V175.36H34.8511V174.12H36.5311L36.8711 171.6H37.9511V174.12H41.0711V175.36H37.9511V181.28C37.9511 182.44 38.4911 182.7 39.7711 182.7H41.0711V183.86C40.7311 183.92 40.1111 184.02 39.3911 184.02ZM43.5503 172.8H42.1303V170.6H43.5503V172.8ZM43.5503 184H42.1303V174H43.5503V184ZM49.1083 184.02C47.2883 184.02 46.2283 183.3 46.2283 181.2V175.36H44.5683V174.12H46.2483L46.5883 171.6H47.6683V174.12H50.7883V175.36H47.6683V181.28C47.6683 182.44 48.2083 182.7 49.4883 182.7H50.7883V183.86C50.4483 183.92 49.8283 184.02 49.1083 184.02ZM52.9359 187.4C52.4559 187.4 51.9359 187.32 51.6559 187.26V186.1H52.7759C53.6759 186.1 53.9759 185.92 54.3359 185.14L54.8959 183.86L50.6559 174.12H52.2159L54.5359 179.62L55.5759 182.04H55.6959L56.6759 179.62L58.8559 174.12H60.4159L55.5959 185.58C54.9559 187.08 54.0159 187.4 52.9359 187.4ZM69.8831 184H68.1031L64.0631 174.12H65.6231L68.9631 182.6H69.0631L72.3831 174.12H73.9231L69.8831 184ZM78.7111 184.2C75.6711 184.2 74.0911 182.06 74.0911 179.06C74.0911 176.06 75.8711 173.92 78.6911 173.92C81.0711 173.92 83.0311 175.36 83.0311 178.28C83.0311 178.74 82.9911 179.18 82.9311 179.46H75.4511C75.5111 181.64 76.3711 182.92 78.7311 182.92C80.7311 182.92 81.5311 182.02 81.5311 180.82V180.7H82.9511V180.84C82.9511 182.74 81.2311 184.2 78.7111 184.2ZM78.6511 175.16C76.4511 175.16 75.5711 176.42 75.4511 178.42H81.6711C81.7511 176.08 80.5911 175.16 78.6511 175.16ZM86.1217 184H84.6817V174H85.9817V175.66H86.0817C86.4017 174.74 87.3617 173.92 88.8217 173.92C90.8617 173.92 91.6417 175.38 91.6417 177.08V177.64H90.2017V177.3C90.2017 175.76 89.7217 175.16 88.3017 175.16C86.7617 175.16 86.1217 175.86 86.1217 177.46V184ZM94.1425 172.8H92.7225V170.6H94.1425V172.8ZM94.1425 184H92.7225V174H94.1425V184ZM97.9205 184H96.5005V175.36H95.0405V174.12H96.5005V173.74C96.5005 171.7 97.6405 170.6 99.8205 170.6H100.7V171.78H99.5605C98.4205 171.78 97.9005 172.26 97.9005 173.26V174.12H100.7V175.36H97.9205V184ZM103.18 172.8H101.76V170.6H103.18V172.8ZM103.18 184H101.76V174H103.18V184ZM109.338 184.22C106.418 184.22 104.658 182.08 104.658 179.08C104.658 176.06 106.418 173.92 109.338 173.92C111.858 173.92 113.558 175.54 113.558 177.86V178H112.138V177.88C112.138 176.16 111.218 175.22 109.278 175.22C107.018 175.22 106.078 176.64 106.078 179.08C106.078 181.5 107.018 182.92 109.278 182.92C111.218 182.92 112.138 181.98 112.138 180.26V180.14H113.558V180.28C113.558 182.6 111.858 184.22 109.338 184.22ZM117.929 184.2C116.129 184.2 114.769 183.28 114.769 181.62C114.769 179.9 116.049 179.14 118.209 178.84L121.689 178.36V177.64C121.689 175.9 120.949 175.2 119.089 175.2C117.289 175.2 116.449 175.9 116.449 177.48V177.78H115.069V177.62C115.069 175.56 116.649 173.92 119.209 173.92C121.849 173.92 123.049 175.62 123.049 177.82V184H121.749V182.18L121.649 182.16C121.069 183.3 119.809 184.2 117.929 184.2ZM116.169 181.52C116.169 182.54 116.809 183 118.329 183C120.029 183 121.689 182.12 121.689 179.78V179.44L118.329 179.92C116.749 180.14 116.169 180.46 116.169 181.52ZM128.593 184.02C126.773 184.02 125.713 183.3 125.713 181.2V175.36H124.053V174.12H125.733L126.073 171.6H127.153V174.12H130.273V175.36H127.153V181.28C127.153 182.44 127.693 182.7 128.973 182.7H130.273V183.86C129.933 183.92 129.313 184.02 128.593 184.02ZM132.752 172.8H131.332V170.6H132.752V172.8ZM132.752 184H131.332V174H132.752V184ZM139.029 184.2C136.129 184.2 134.229 182.06 134.229 179.06C134.229 176.06 136.129 173.92 139.029 173.92C141.909 173.92 143.749 176.06 143.749 179.06C143.749 182.06 141.909 184.2 139.029 184.2ZM139.029 182.92C141.409 182.92 142.349 181.52 142.349 179.06C142.349 176.6 141.409 175.22 139.029 175.22C136.609 175.22 135.649 176.6 135.649 179.06C135.649 181.52 136.609 182.92 139.029 182.92ZM146.729 184H145.289V174.12H146.589V176.16H146.649C147.029 175.12 148.149 173.92 150.189 173.92C152.729 173.92 153.889 175.56 153.889 177.94V184H152.469V178.26C152.469 176.12 151.769 175.18 149.749 175.18C147.789 175.18 146.729 176.1 146.729 178.3V184ZM162.061 184.2C160.261 184.2 158.901 183.28 158.901 181.62C158.901 179.9 160.181 179.14 162.341 178.84L165.821 178.36V177.64C165.821 175.9 165.081 175.2 163.221 175.2C161.421 175.2 160.581 175.9 160.581 177.48V177.78H159.201V177.62C159.201 175.56 160.781 173.92 163.341 173.92C165.981 173.92 167.181 175.62 167.181 177.82V184H165.881V182.18L165.781 182.16C165.201 183.3 163.941 184.2 162.061 184.2ZM160.301 181.52C160.301 182.54 160.941 183 162.461 183C164.161 183 165.821 182.12 165.821 179.78V179.44L162.461 179.92C160.881 180.14 160.301 180.46 160.301 181.52ZM170.621 184H169.181V174.12H170.481V176.16H170.541C170.921 175.12 172.041 173.92 174.081 173.92C176.621 173.92 177.781 175.56 177.781 177.94V184H176.361V178.26C176.361 176.12 175.661 175.18 173.641 175.18C171.681 175.18 170.621 176.1 170.621 178.3V184ZM183.663 184.2C180.883 184.2 179.323 182.18 179.323 179.06C179.323 175.94 180.803 173.92 183.503 173.92C185.403 173.92 186.623 174.92 187.043 176V170.6H188.483V184H187.203V182.1H187.123C186.683 183.34 185.523 184.2 183.663 184.2ZM180.763 179.06C180.763 182.08 181.943 182.96 183.903 182.96C185.863 182.96 187.043 181.94 187.043 179.92V178.22C187.043 176.18 185.863 175.16 183.903 175.16C181.963 175.16 180.763 176.04 180.763 179.06ZM195.931 184H194.511V175.36H193.051V174.12H194.511V173.74C194.511 171.7 195.651 170.6 197.831 170.6H198.711V171.78H197.571C196.431 171.78 195.911 172.26 195.911 173.26V174.12H198.711V175.36H195.931V184ZM201.071 184H199.631V174H200.931V175.66H201.031C201.351 174.74 202.311 173.92 203.771 173.92C205.811 173.92 206.591 175.38 206.591 177.08V177.64H205.151V177.3C205.151 175.76 204.671 175.16 203.251 175.16C201.711 175.16 201.071 175.86 201.071 177.46V184ZM210.295 184.2C208.495 184.2 207.135 183.28 207.135 181.62C207.135 179.9 208.415 179.14 210.575 178.84L214.055 178.36V177.64C214.055 175.9 213.315 175.2 211.455 175.2C209.655 175.2 208.815 175.9 208.815 177.48V177.78H207.435V177.62C207.435 175.56 209.015 173.92 211.575 173.92C214.215 173.92 215.415 175.62 215.415 177.82V184H214.115V182.18L214.015 182.16C213.435 183.3 212.175 184.2 210.295 184.2ZM208.535 181.52C208.535 182.54 209.175 183 210.695 183C212.395 183 214.055 182.12 214.055 179.78V179.44L210.695 179.92C209.115 180.14 208.535 180.46 208.535 181.52ZM221.135 184.2C218.555 184.2 217.355 182.42 217.355 180.06V174.12H218.795V179.86C218.795 182 219.655 182.94 221.595 182.94C223.415 182.94 224.655 181.98 224.655 179.66V174.12H226.075V184H224.775V181.82H224.715C224.315 182.96 223.195 184.2 221.135 184.2ZM232.033 184.2C229.253 184.2 227.693 182.18 227.693 179.06C227.693 175.94 229.173 173.92 231.873 173.92C233.773 173.92 234.993 174.92 235.413 176V170.6H236.853V184H235.573V182.1H235.493C235.053 183.34 233.893 184.2 232.033 184.2ZM229.133 179.06C229.133 182.08 230.313 182.96 232.273 182.96C234.233 182.96 235.413 181.94 235.413 179.92V178.22C235.413 176.18 234.233 175.16 232.273 175.16C230.333 175.16 229.133 176.04 229.133 179.06ZM243.821 187.48H242.381V174.12H243.681V176.04H243.741C244.181 174.78 245.361 173.92 247.221 173.92C250.001 173.92 251.541 175.94 251.541 179.08C251.541 182.18 250.081 184.2 247.381 184.2C245.481 184.2 244.261 183.2 243.821 182.12V187.48ZM243.821 179.92C243.821 181.94 245.021 182.96 246.981 182.96C248.901 182.96 250.101 182.08 250.101 179.08C250.101 176.04 248.921 175.16 246.981 175.16C245.021 175.16 243.821 176.18 243.821 178.22V179.92ZM254.519 184H253.079V174H254.379V175.66H254.479C254.799 174.74 255.759 173.92 257.219 173.92C259.259 173.92 260.039 175.38 260.039 177.08V177.64H258.599V177.3C258.599 175.76 258.119 175.16 256.699 175.16C255.159 175.16 254.519 175.86 254.519 177.46V184ZM265.517 184.2C262.477 184.2 260.897 182.06 260.897 179.06C260.897 176.06 262.677 173.92 265.497 173.92C267.877 173.92 269.837 175.36 269.837 178.28C269.837 178.74 269.797 179.18 269.737 179.46H262.257C262.317 181.64 263.177 182.92 265.537 182.92C267.537 182.92 268.337 182.02 268.337 180.82V180.7H269.757V180.84C269.757 182.74 268.037 184.2 265.517 184.2ZM265.457 175.16C263.257 175.16 262.377 176.42 262.257 178.42H268.477C268.557 176.08 267.397 175.16 265.457 175.16ZM275.938 184H274.158L270.118 174.12H271.678L275.018 182.6H275.118L278.438 174.12H279.978L275.938 184ZM284.766 184.2C281.726 184.2 280.146 182.06 280.146 179.06C280.146 176.06 281.926 173.92 284.746 173.92C287.126 173.92 289.086 175.36 289.086 178.28C289.086 178.74 289.046 179.18 288.986 179.46H281.506C281.566 181.64 282.426 182.92 284.786 182.92C286.786 182.92 287.586 182.02 287.586 180.82V180.7H289.006V180.84C289.006 182.74 287.286 184.2 284.766 184.2ZM284.706 175.16C282.506 175.16 281.626 176.42 281.506 178.42H287.726C287.806 176.08 286.646 175.16 284.706 175.16ZM292.176 184H290.736V174.12H292.036V176.16H292.096C292.476 175.12 293.596 173.92 295.636 173.92C298.176 173.92 299.336 175.56 299.336 177.94V184H297.916V178.26C297.916 176.12 297.216 175.18 295.196 175.18C293.236 175.18 292.176 176.1 292.176 178.3V184ZM304.861 184.02C303.041 184.02 301.981 183.3 301.981 181.2V175.36H300.321V174.12H302.001L302.341 171.6H303.421V174.12H306.541V175.36H303.421V181.28C303.421 182.44 303.961 182.7 305.241 182.7H306.541V183.86C306.201 183.92 305.581 184.02 304.861 184.02ZM309.021 172.8H307.601V170.6H309.021V172.8ZM309.021 184H307.601V174H309.021V184ZM315.298 184.2C312.398 184.2 310.498 182.06 310.498 179.06C310.498 176.06 312.398 173.92 315.298 173.92C318.178 173.92 320.018 176.06 320.018 179.06C320.018 182.06 318.178 184.2 315.298 184.2ZM315.298 182.92C317.678 182.92 318.618 181.52 318.618 179.06C318.618 176.6 317.678 175.22 315.298 175.22C312.878 175.22 311.918 176.6 311.918 179.06C311.918 181.52 312.878 182.92 315.298 182.92ZM322.998 184H321.558V174.12H322.858V176.16H322.918C323.298 175.12 324.418 173.92 326.458 173.92C328.998 173.92 330.158 175.56 330.158 177.94V184H328.738V178.26C328.738 176.12 328.038 175.18 326.018 175.18C324.058 175.18 322.998 176.1 322.998 178.3V184ZM4.82 212.02C3 212.02 1.94 211.3 1.94 209.2V203.36H0.28V202.12H1.96L2.3 199.6H3.38V202.12H6.5V203.36H3.38V209.28C3.38 210.44 3.92 210.7 5.2 210.7H6.5V211.86C6.16 211.92 5.54 212.02 4.82 212.02ZM11.6872 212.2C8.78719 212.2 6.88719 210.06 6.88719 207.06C6.88719 204.06 8.78719 201.92 11.6872 201.92C14.5672 201.92 16.4072 204.06 16.4072 207.06C16.4072 210.06 14.5672 212.2 11.6872 212.2ZM11.6872 210.92C14.0672 210.92 15.0072 209.52 15.0072 207.06C15.0072 204.6 14.0672 203.22 11.6872 203.22C9.26719 203.22 8.30719 204.6 8.30719 207.06C8.30719 209.52 9.26719 210.92 11.6872 210.92ZM22.4442 212.2C19.5442 212.2 17.6442 210.06 17.6442 207.06C17.6442 204.06 19.5442 201.92 22.4442 201.92C25.3242 201.92 27.1642 204.06 27.1642 207.06C27.1642 210.06 25.3242 212.2 22.4442 212.2ZM22.4442 210.92C24.8242 210.92 25.7642 209.52 25.7642 207.06C25.7642 204.6 24.8242 203.22 22.4442 203.22C20.0242 203.22 19.0642 204.6 19.0642 207.06C19.0642 209.52 20.0242 210.92 22.4442 210.92ZM30.1631 212H28.7231V198.6H30.1631V212ZM36.1364 212.2C33.4364 212.2 31.9564 211.06 31.9564 208.76V208.72H33.3564V208.96C33.3564 210.32 33.9164 210.98 36.1564 210.98C37.9964 210.98 38.4764 210.46 38.4764 209.46C38.4764 208.46 37.8564 208.1 36.3564 207.82L34.7164 207.54C33.1164 207.24 31.9564 206.5 31.9564 204.76C31.9564 203.06 33.3964 201.92 35.7364 201.92C37.9964 201.92 39.6564 203.08 39.6564 205.3V205.4H38.2764V205.24C38.2764 204.06 37.8164 203.16 35.6964 203.16C33.8964 203.16 33.3364 203.74 33.3364 204.74C33.3364 205.74 33.8364 206.08 35.3164 206.36L36.9964 206.68C38.7164 207 39.8564 207.76 39.8564 209.4C39.8564 211.16 38.4164 212.2 36.1364 212.2ZM49.1153 212.2C46.4153 212.2 44.9353 211.06 44.9353 208.76V208.72H46.3353V208.96C46.3353 210.32 46.8953 210.98 49.1353 210.98C50.9753 210.98 51.4553 210.46 51.4553 209.46C51.4553 208.46 50.8353 208.1 49.3353 207.82L47.6953 207.54C46.0953 207.24 44.9353 206.5 44.9353 204.76C44.9353 203.06 46.3753 201.92 48.7153 201.92C50.9753 201.92 52.6353 203.08 52.6353 205.3V205.4H51.2553V205.24C51.2553 204.06 50.7953 203.16 48.6753 203.16C46.8753 203.16 46.3153 203.74 46.3153 204.74C46.3153 205.74 46.8153 206.08 48.2953 206.36L49.9753 206.68C51.6953 207 52.8353 207.76 52.8353 209.4C52.8353 211.16 51.3953 212.2 49.1153 212.2ZM57.2833 212.2C55.4833 212.2 54.1233 211.28 54.1233 209.62C54.1233 207.9 55.4033 207.14 57.5633 206.84L61.0433 206.36V205.64C61.0433 203.9 60.3033 203.2 58.4433 203.2C56.6433 203.2 55.8033 203.9 55.8033 205.48V205.78H54.4233V205.62C54.4233 203.56 56.0033 201.92 58.5633 201.92C61.2033 201.92 62.4033 203.62 62.4033 205.82V212H61.1033V210.18L61.0033 210.16C60.4233 211.3 59.1633 212.2 57.2833 212.2ZM55.5233 209.52C55.5233 210.54 56.1633 211 57.6833 211C59.3833 211 61.0433 210.12 61.0433 207.78V207.44L57.6833 207.92C56.1033 208.14 55.5233 208.46 55.5233 209.52ZM66.1666 212H64.7466V203.36H63.2866V202.12H64.7466V201.74C64.7466 199.7 65.8866 198.6 68.0666 198.6H68.9466V199.78H67.8066C66.6666 199.78 66.1466 200.26 66.1466 201.26V202.12H68.9466V203.36H66.1666V212ZM73.6181 212.2C70.5781 212.2 68.9981 210.06 68.9981 207.06C68.9981 204.06 70.7781 201.92 73.5981 201.92C75.9781 201.92 77.9381 203.36 77.9381 206.28C77.9381 206.74 77.8981 207.18 77.8381 207.46H70.3581C70.4181 209.64 71.2781 210.92 73.6381 210.92C75.6381 210.92 76.4381 210.02 76.4381 208.82V208.7H77.8581V208.84C77.8581 210.74 76.1381 212.2 73.6181 212.2ZM73.5581 203.16C71.3581 203.16 70.4781 204.42 70.3581 206.42H76.5781C76.6581 204.08 75.4981 203.16 73.5581 203.16ZM83.5664 211.12C80.8464 211.12 79.2864 209.32 79.2864 206.52C79.2864 203.72 80.8264 201.92 83.5864 201.92C85.3264 201.92 86.6464 202.78 87.0864 204.04H87.1664V202.12H88.4464V211.58C88.4464 214.26 86.7264 215.6 84.1264 215.6C81.6064 215.6 79.8264 214.28 79.8264 212H81.2464C81.2464 213.62 82.0664 214.32 84.1464 214.32C86.2664 214.32 87.0064 213.56 87.0064 211.58V209.06H86.9864C86.5264 210.2 85.2864 211.12 83.5664 211.12ZM80.7264 206.52C80.7264 209.14 81.9864 209.88 83.9064 209.88C85.6864 209.88 87.0064 208.86 87.0064 206.82V206.22C87.0064 204.18 85.6664 203.16 83.8264 203.16C81.9464 203.16 80.7264 203.92 80.7264 206.52ZM94.2025 212.2C91.6225 212.2 90.4225 210.42 90.4225 208.06V202.12H91.8625V207.86C91.8625 210 92.7225 210.94 94.6625 210.94C96.4825 210.94 97.7225 209.98 97.7225 207.66V202.12H99.1425V212H97.8425V209.82H97.7825C97.3825 210.96 96.2625 212.2 94.2025 212.2ZM103.861 212.2C102.061 212.2 100.701 211.28 100.701 209.62C100.701 207.9 101.981 207.14 104.141 206.84L107.621 206.36V205.64C107.621 203.9 106.881 203.2 105.021 203.2C103.221 203.2 102.381 203.9 102.381 205.48V205.78H101.001V205.62C101.001 203.56 102.581 201.92 105.141 201.92C107.781 201.92 108.981 203.62 108.981 205.82V212H107.681V210.18L107.581 210.16C107.001 211.3 105.741 212.2 103.861 212.2ZM102.101 209.52C102.101 210.54 102.741 211 104.261 211C105.961 211 107.621 210.12 107.621 207.78V207.44L104.261 207.92C102.681 208.14 102.101 208.46 102.101 209.52ZM112.421 212H110.981V202H112.281V203.66H112.381C112.701 202.74 113.661 201.92 115.121 201.92C117.161 201.92 117.941 203.38 117.941 205.08V205.64H116.501V205.3C116.501 203.76 116.021 203.16 114.601 203.16C113.061 203.16 112.421 203.86 112.421 205.46V212ZM123.139 212.2C120.359 212.2 118.799 210.18 118.799 207.06C118.799 203.94 120.279 201.92 122.979 201.92C124.879 201.92 126.099 202.92 126.519 204V198.6H127.959V212H126.679V210.1H126.599C126.159 211.34 124.999 212.2 123.139 212.2ZM120.239 207.06C120.239 210.08 121.419 210.96 123.379 210.96C125.339 210.96 126.519 209.94 126.519 207.92V206.22C126.519 204.18 125.339 203.16 123.379 203.16C121.439 203.16 120.239 204.04 120.239 207.06ZM134.866 215.4C134.386 215.4 133.866 215.32 133.586 215.26V214.1H134.706C135.606 214.1 135.906 213.92 136.266 213.14L136.826 211.86L132.586 202.12H134.146L136.466 207.62L137.506 210.04H137.626L138.606 207.62L140.786 202.12H142.346L137.526 213.58C136.886 215.08 135.946 215.4 134.866 215.4ZM147.276 212.2C144.376 212.2 142.476 210.06 142.476 207.06C142.476 204.06 144.376 201.92 147.276 201.92C150.156 201.92 151.996 204.06 151.996 207.06C151.996 210.06 150.156 212.2 147.276 212.2ZM147.276 210.92C149.656 210.92 150.596 209.52 150.596 207.06C150.596 204.6 149.656 203.22 147.276 203.22C144.856 203.22 143.896 204.6 143.896 207.06C143.896 209.52 144.856 210.92 147.276 210.92ZM157.256 212.2C154.676 212.2 153.476 210.42 153.476 208.06V202.12H154.916V207.86C154.916 210 155.776 210.94 157.716 210.94C159.536 210.94 160.776 209.98 160.776 207.66V202.12H162.196V212H160.896V209.82H160.836C160.436 210.96 159.316 212.2 157.256 212.2ZM165.694 212H164.254V202H165.554V203.66H165.654C165.974 202.74 166.934 201.92 168.394 201.92C170.434 201.92 171.214 203.38 171.214 205.08V205.64H169.774V205.3C169.774 203.76 169.294 203.16 167.874 203.16C166.334 203.16 165.694 203.86 165.694 205.46V212ZM177.439 212H176.139V198.6H177.579V204C178.019 202.92 179.239 201.92 181.139 201.92C183.839 201.92 185.299 203.94 185.299 207.06C185.299 210.18 183.759 212.2 180.979 212.2C179.119 212.2 177.939 211.34 177.499 210.1H177.439V212ZM177.579 207.92C177.579 209.94 178.779 210.96 180.739 210.96C182.679 210.96 183.859 210.08 183.859 207.06C183.859 204.04 182.659 203.16 180.739 203.16C178.779 203.16 177.579 204.18 177.579 206.22V207.92ZM190.557 212.2C187.977 212.2 186.777 210.42 186.777 208.06V202.12H188.217V207.86C188.217 210 189.077 210.94 191.017 210.94C192.837 210.94 194.077 209.98 194.077 207.66V202.12H195.497V212H194.197V209.82H194.137C193.737 210.96 192.617 212.2 190.557 212.2ZM201.497 212.2C198.797 212.2 197.317 211.06 197.317 208.76V208.72H198.717V208.96C198.717 210.32 199.277 210.98 201.517 210.98C203.357 210.98 203.837 210.46 203.837 209.46C203.837 208.46 203.217 208.1 201.717 207.82L200.077 207.54C198.477 207.24 197.317 206.5 197.317 204.76C197.317 203.06 198.757 201.92 201.097 201.92C203.357 201.92 205.017 203.08 205.017 205.3V205.4H203.637V205.24C203.637 204.06 203.177 203.16 201.057 203.16C199.257 203.16 198.697 203.74 198.697 204.74C198.697 205.74 199.197 206.08 200.677 206.36L202.357 206.68C204.077 207 205.217 207.76 205.217 209.4C205.217 211.16 203.777 212.2 201.497 212.2ZM208.285 200.8H206.865V198.6H208.285V200.8ZM208.285 212H206.865V202H208.285V212ZM211.701 212H210.261V202.12H211.561V204.16H211.621C212.001 203.12 213.121 201.92 215.161 201.92C217.701 201.92 218.861 203.56 218.861 205.94V212H217.441V206.26C217.441 204.12 216.741 203.18 214.721 203.18C212.761 203.18 211.701 204.1 211.701 206.3V212ZM225.023 212.2C221.983 212.2 220.403 210.06 220.403 207.06C220.403 204.06 222.183 201.92 225.003 201.92C227.383 201.92 229.343 203.36 229.343 206.28C229.343 206.74 229.303 207.18 229.243 207.46H221.763C221.823 209.64 222.683 210.92 225.043 210.92C227.043 210.92 227.843 210.02 227.843 208.82V208.7H229.263V208.84C229.263 210.74 227.543 212.2 225.023 212.2ZM224.963 203.16C222.763 203.16 221.883 204.42 221.763 206.42H227.983C228.063 204.08 226.903 203.16 224.963 203.16ZM235.091 212.2C232.391 212.2 230.911 211.06 230.911 208.76V208.72H232.311V208.96C232.311 210.32 232.871 210.98 235.111 210.98C236.951 210.98 237.431 210.46 237.431 209.46C237.431 208.46 236.811 208.1 235.311 207.82L233.671 207.54C232.071 207.24 230.911 206.5 230.911 204.76C230.911 203.06 232.351 201.92 234.691 201.92C236.951 201.92 238.611 203.08 238.611 205.3V205.4H237.231V205.24C237.231 204.06 236.771 203.16 234.651 203.16C232.851 203.16 232.291 203.74 232.291 204.74C232.291 205.74 232.791 206.08 234.271 206.36L235.951 206.68C237.671 207 238.811 207.76 238.811 209.4C238.811 211.16 237.371 212.2 235.091 212.2ZM244.481 212.2C241.781 212.2 240.301 211.06 240.301 208.76V208.72H241.701V208.96C241.701 210.32 242.261 210.98 244.501 210.98C246.341 210.98 246.821 210.46 246.821 209.46C246.821 208.46 246.201 208.1 244.701 207.82L243.061 207.54C241.461 207.24 240.301 206.5 240.301 204.76C240.301 203.06 241.741 201.92 244.081 201.92C246.341 201.92 248.001 203.08 248.001 205.3V205.4H246.621V205.24C246.621 204.06 246.161 203.16 244.041 203.16C242.241 203.16 241.681 203.74 241.681 204.74C241.681 205.74 242.181 206.08 243.661 206.36L245.341 206.68C247.061 207 248.201 207.76 248.201 209.4C248.201 211.16 246.761 212.2 244.481 212.2ZM256.16 212.2C254.36 212.2 253 211.28 253 209.62C253 207.9 254.28 207.14 256.44 206.84L259.92 206.36V205.64C259.92 203.9 259.18 203.2 257.32 203.2C255.52 203.2 254.68 203.9 254.68 205.48V205.78H253.3V205.62C253.3 203.56 254.88 201.92 257.44 201.92C260.08 201.92 261.28 203.62 261.28 205.82V212H259.98V210.18L259.88 210.16C259.3 211.3 258.04 212.2 256.16 212.2ZM254.4 209.52C254.4 210.54 255.04 211 256.56 211C258.26 211 259.92 210.12 259.92 207.78V207.44L256.56 207.92C254.98 208.14 254.4 208.46 254.4 209.52ZM267.12 211.12C264.4 211.12 262.84 209.32 262.84 206.52C262.84 203.72 264.38 201.92 267.14 201.92C268.88 201.92 270.2 202.78 270.64 204.04H270.72V202.12H272V211.58C272 214.26 270.28 215.6 267.68 215.6C265.16 215.6 263.38 214.28 263.38 212H264.8C264.8 213.62 265.62 214.32 267.7 214.32C269.82 214.32 270.56 213.56 270.56 211.58V209.06H270.54C270.08 210.2 268.84 211.12 267.12 211.12ZM264.28 206.52C264.28 209.14 265.54 209.88 267.46 209.88C269.24 209.88 270.56 208.86 270.56 206.82V206.22C270.56 204.18 269.22 203.16 267.38 203.16C265.5 203.16 264.28 203.92 264.28 206.52ZM276.736 212.2C274.936 212.2 273.576 211.28 273.576 209.62C273.576 207.9 274.856 207.14 277.016 206.84L280.496 206.36V205.64C280.496 203.9 279.756 203.2 277.896 203.2C276.096 203.2 275.256 203.9 275.256 205.48V205.78H273.876V205.62C273.876 203.56 275.456 201.92 278.016 201.92C280.656 201.92 281.856 203.62 281.856 205.82V212H280.556V210.18L280.456 210.16C279.876 211.3 278.616 212.2 276.736 212.2ZM274.976 209.52C274.976 210.54 275.616 211 277.136 211C278.836 211 280.496 210.12 280.496 207.78V207.44L277.136 207.92C275.556 208.14 274.976 208.46 274.976 209.52ZM285.216 200.8H283.796V198.6H285.216V200.8ZM285.216 212H283.796V202H285.216V212ZM288.631 212H287.191V202.12H288.491V204.16H288.551C288.931 203.12 290.051 201.92 292.091 201.92C294.631 201.92 295.791 203.56 295.791 205.94V212H294.371V206.26C294.371 204.12 293.671 203.18 291.651 203.18C289.691 203.18 288.631 204.1 288.631 206.3V212ZM301.714 212.2C299.014 212.2 297.534 211.06 297.534 208.76V208.72H298.934V208.96C298.934 210.32 299.494 210.98 301.734 210.98C303.574 210.98 304.054 210.46 304.054 209.46C304.054 208.46 303.434 208.1 301.934 207.82L300.294 207.54C298.694 207.24 297.534 206.5 297.534 204.76C297.534 203.06 298.974 201.92 301.314 201.92C303.574 201.92 305.234 203.08 305.234 205.3V205.4H303.854V205.24C303.854 204.06 303.394 203.16 301.274 203.16C299.474 203.16 298.914 203.74 298.914 204.74C298.914 205.74 299.414 206.08 300.894 206.36L302.574 206.68C304.294 207 305.434 207.76 305.434 209.4C305.434 211.16 303.994 212.2 301.714 212.2ZM310.784 212.02C308.964 212.02 307.904 211.3 307.904 209.2V203.36H306.244V202.12H307.924L308.264 199.6H309.344V202.12H312.464V203.36H309.344V209.28C309.344 210.44 309.884 210.7 311.164 210.7H312.464V211.86C312.124 211.92 311.504 212.02 310.784 212.02ZM2.48 228.8H1.06V226.6H2.48V228.8ZM2.48 240H1.06V230H2.48V240ZM8.2975 240.2C5.5175 240.2 3.9575 238.18 3.9575 235.06C3.9575 231.94 5.4375 229.92 8.1375 229.92C10.0375 229.92 11.2575 230.92 11.6775 232V226.6H13.1175V240H11.8375V238.1H11.7575C11.3175 239.34 10.1575 240.2 8.2975 240.2ZM5.3975 235.06C5.3975 238.08 6.5775 238.96 8.5375 238.96C10.4975 238.96 11.6775 237.94 11.6775 235.92V234.22C11.6775 232.18 10.4975 231.16 8.5375 231.16C6.5975 231.16 5.3975 232.04 5.3975 235.06ZM19.2955 240.2C16.2555 240.2 14.6755 238.06 14.6755 235.06C14.6755 232.06 16.4555 229.92 19.2755 229.92C21.6555 229.92 23.6155 231.36 23.6155 234.28C23.6155 234.74 23.5755 235.18 23.5155 235.46H16.0355C16.0955 237.64 16.9555 238.92 19.3155 238.92C21.3155 238.92 22.1155 238.02 22.1155 236.82V236.7H23.5355V236.84C23.5355 238.74 21.8155 240.2 19.2955 240.2ZM19.2355 231.16C17.0355 231.16 16.1555 232.42 16.0355 234.42H22.2555C22.3355 232.08 21.1755 231.16 19.2355 231.16ZM26.7061 240H25.2661V230.12H26.5661V232.16H26.6261C27.0061 231.12 28.1261 229.92 30.1661 229.92C32.7061 229.92 33.8661 231.56 33.8661 233.94V240H32.4461V234.26C32.4461 232.12 31.7461 231.18 29.7261 231.18C27.7661 231.18 26.7061 232.1 26.7061 234.3V240ZM39.3911 240.02C37.5711 240.02 36.5111 239.3 36.5111 237.2V231.36H34.8511V230.12H36.5311L36.8711 227.6H37.9511V230.12H41.0711V231.36H37.9511V237.28C37.9511 238.44 38.4911 238.7 39.7711 238.7H41.0711V239.86C40.7311 239.92 40.1111 240.02 39.3911 240.02ZM43.5503 228.8H42.1303V226.6H43.5503V228.8ZM43.5503 240H42.1303V230H43.5503V240ZM49.1083 240.02C47.2883 240.02 46.2283 239.3 46.2283 237.2V231.36H44.5683V230.12H46.2483L46.5883 227.6H47.6683V230.12H50.7883V231.36H47.6683V237.28C47.6683 238.44 48.2083 238.7 49.4883 238.7H50.7883V239.86C50.4483 239.92 49.8283 240.02 49.1083 240.02ZM52.9359 243.4C52.4559 243.4 51.9359 243.32 51.6559 243.26V242.1H52.7759C53.6759 242.1 53.9759 241.92 54.3359 241.14L54.8959 239.86L50.6559 230.12H52.2159L54.5359 235.62L55.5759 238.04H55.6959L56.6759 235.62L58.8559 230.12H60.4159L55.5959 241.58C54.9559 243.08 54.0159 243.4 52.9359 243.4ZM68.7231 240.02C66.9031 240.02 65.8431 239.3 65.8431 237.2V231.36H64.1831V230.12H65.8631L66.2031 227.6H67.2831V230.12H70.4031V231.36H67.2831V237.28C67.2831 238.44 67.8231 238.7 69.1031 238.7H70.4031V239.86C70.0631 239.92 69.4431 240.02 68.7231 240.02ZM73.1381 240H71.6981V226.6H73.1381V231.96H73.2181C73.5981 231.02 74.6181 229.92 76.6181 229.92C79.1981 229.92 80.2981 231.64 80.2981 233.9V240H78.8781V234.26C78.8781 232.12 78.1581 231.18 76.1581 231.18C74.1781 231.18 73.1381 232.1 73.1381 234.32V240ZM86.597 240.2C83.557 240.2 81.977 238.06 81.977 235.06C81.977 232.06 83.757 229.92 86.577 229.92C88.957 229.92 90.917 231.36 90.917 234.28C90.917 234.74 90.877 235.18 90.817 235.46H83.337C83.397 237.64 84.257 238.92 86.617 238.92C88.617 238.92 89.417 238.02 89.417 236.82V236.7H90.837V236.84C90.837 238.74 89.117 240.2 86.597 240.2ZM86.537 231.16C84.337 231.16 83.457 232.42 83.337 234.42H89.557C89.637 232.08 88.477 231.16 86.537 231.16ZM94.39 240H92.97V231.36H91.51V230.12H92.97V229.74C92.97 227.7 94.11 226.6 96.29 226.6H97.17V227.78H96.03C94.89 227.78 94.37 228.26 94.37 229.26V230.12H98.33L98.67 227.6H99.75V230.12H102.87V231.36H99.75V237.28C99.75 238.44 100.29 238.7 101.57 238.7H102.87V239.86C102.53 239.92 101.91 240.02 101.19 240.02C99.37 240.02 98.31 239.3 98.31 237.2V231.36H94.39V240ZM110.297 240.2C108.497 240.2 107.137 239.28 107.137 237.62C107.137 235.9 108.417 235.14 110.577 234.84L114.057 234.36V233.64C114.057 231.9 113.317 231.2 111.457 231.2C109.657 231.2 108.817 231.9 108.817 233.48V233.78H107.437V233.62C107.437 231.56 109.017 229.92 111.577 229.92C114.217 229.92 115.417 231.62 115.417 233.82V240H114.117V238.18L114.017 238.16C113.437 239.3 112.177 240.2 110.297 240.2ZM108.537 237.52C108.537 238.54 109.177 239 110.697 239C112.397 239 114.057 238.12 114.057 235.78V235.44L110.697 235.92C109.117 236.14 108.537 236.46 108.537 237.52ZM118.857 240H117.417V230.12H118.717V232.16H118.777C119.157 231.12 120.277 229.92 122.317 229.92C124.857 229.92 126.017 231.56 126.017 233.94V240H124.597V234.26C124.597 232.12 123.897 231.18 121.877 231.18C119.917 231.18 118.857 232.1 118.857 234.3V240ZM131.899 240.2C129.119 240.2 127.559 238.18 127.559 235.06C127.559 231.94 129.039 229.92 131.739 229.92C133.639 229.92 134.859 230.92 135.279 232V226.6H136.719V240H135.439V238.1H135.359C134.919 239.34 133.759 240.2 131.899 240.2ZM128.999 235.06C128.999 238.08 130.179 238.96 132.139 238.96C134.099 238.96 135.279 237.94 135.279 235.92V234.22C135.279 232.18 134.099 231.16 132.139 231.16C130.199 231.16 128.999 232.04 128.999 235.06ZM144.167 240H142.747V231.36H141.287V230.12H142.747V229.74C142.747 227.7 143.887 226.6 146.067 226.6H146.947V227.78H145.807C144.667 227.78 144.147 228.26 144.147 229.26V230.12H146.947V231.36H144.167V240ZM149.307 240H147.867V230H149.167V231.66H149.267C149.587 230.74 150.547 229.92 152.007 229.92C154.047 229.92 154.827 231.38 154.827 233.08V233.64H153.387V233.3C153.387 231.76 152.907 231.16 151.487 231.16C149.947 231.16 149.307 231.86 149.307 233.46V240ZM158.531 240.2C156.731 240.2 155.371 239.28 155.371 237.62C155.371 235.9 156.651 235.14 158.811 234.84L162.291 234.36V233.64C162.291 231.9 161.551 231.2 159.691 231.2C157.891 231.2 157.051 231.9 157.051 233.48V233.78H155.671V233.62C155.671 231.56 157.251 229.92 159.811 229.92C162.451 229.92 163.651 231.62 163.651 233.82V240H162.351V238.18L162.251 238.16C161.671 239.3 160.411 240.2 158.531 240.2ZM156.771 237.52C156.771 238.54 157.411 239 158.931 239C160.631 239 162.291 238.12 162.291 235.78V235.44L158.931 235.92C157.351 236.14 156.771 236.46 156.771 237.52ZM169.37 240.2C166.79 240.2 165.59 238.42 165.59 236.06V230.12H167.03V235.86C167.03 238 167.89 238.94 169.83 238.94C171.65 238.94 172.89 237.98 172.89 235.66V230.12H174.31V240H173.01V237.82H172.95C172.55 238.96 171.43 240.2 169.37 240.2ZM180.269 240.2C177.489 240.2 175.929 238.18 175.929 235.06C175.929 231.94 177.409 229.92 180.109 229.92C182.009 229.92 183.229 230.92 183.649 232V226.6H185.089V240H183.809V238.1H183.729C183.289 239.34 182.129 240.2 180.269 240.2ZM177.369 235.06C177.369 238.08 178.549 238.96 180.509 238.96C182.469 238.96 183.649 237.94 183.649 235.92V234.22C183.649 232.18 182.469 231.16 180.509 231.16C178.569 231.16 177.369 232.04 177.369 235.06ZM190.845 240.2C188.265 240.2 187.065 238.42 187.065 236.06V230.12H188.505V235.86C188.505 238 189.365 238.94 191.305 238.94C193.125 238.94 194.365 237.98 194.365 235.66V230.12H195.785V240H194.485V237.82H194.425C194.025 238.96 192.905 240.2 190.845 240.2ZM199.283 240H197.843V226.6H199.283V240ZM205.457 240.2C202.417 240.2 200.837 238.06 200.837 235.06C200.837 232.06 202.617 229.92 205.437 229.92C207.817 229.92 209.777 231.36 209.777 234.28C209.777 234.74 209.737 235.18 209.677 235.46H202.197C202.257 237.64 203.117 238.92 205.477 238.92C207.477 238.92 208.277 238.02 208.277 236.82V236.7H209.697V236.84C209.697 238.74 207.977 240.2 205.457 240.2ZM205.397 231.16C203.197 231.16 202.317 232.42 202.197 234.42H208.417C208.497 232.08 207.337 231.16 205.397 231.16ZM212.868 240H211.428V230.12H212.728V232.16H212.788C213.168 231.12 214.288 229.92 216.328 229.92C218.868 229.92 220.028 231.56 220.028 233.94V240H218.608V234.26C218.608 232.12 217.908 231.18 215.888 231.18C213.928 231.18 212.868 232.1 212.868 234.3V240ZM225.553 240.02C223.733 240.02 222.673 239.3 222.673 237.2V231.36H221.013V230.12H222.693L223.033 227.6H224.113V230.12H227.233V231.36H224.113V237.28C224.113 238.44 224.653 238.7 225.933 238.7H227.233V239.86C226.893 239.92 226.273 240.02 225.553 240.02ZM235.661 240.02C233.841 240.02 232.781 239.3 232.781 237.2V231.36H231.121V230.12H232.801L233.141 227.6H234.221V230.12H237.341V231.36H234.221V237.28C234.221 238.44 234.761 238.7 236.041 238.7H237.341V239.86C237.001 239.92 236.381 240.02 235.661 240.02ZM240.017 240H238.577V230H239.877V231.66H239.977C240.297 230.74 241.257 229.92 242.717 229.92C244.757 229.92 245.537 231.38 245.537 233.08V233.64H244.097V233.3C244.097 231.76 243.617 231.16 242.197 231.16C240.657 231.16 240.017 231.86 240.017 233.46V240ZM249.241 240.2C247.441 240.2 246.081 239.28 246.081 237.62C246.081 235.9 247.361 235.14 249.521 234.84L253.001 234.36V233.64C253.001 231.9 252.261 231.2 250.401 231.2C248.601 231.2 247.761 231.9 247.761 233.48V233.78H246.381V233.62C246.381 231.56 247.961 229.92 250.521 229.92C253.161 229.92 254.361 231.62 254.361 233.82V240H253.061V238.18L252.961 238.16C252.381 239.3 251.121 240.2 249.241 240.2ZM247.481 237.52C247.481 238.54 248.121 239 249.641 239C251.341 239 253.001 238.12 253.001 235.78V235.44L249.641 235.92C248.061 236.14 247.481 236.46 247.481 237.52ZM257.801 240H256.361V230.12H257.661V232.16H257.721C258.101 231.12 259.221 229.92 261.261 229.92C263.801 229.92 264.961 231.56 264.961 233.94V240H263.541V234.26C263.541 232.12 262.841 231.18 260.821 231.18C258.861 231.18 257.801 232.1 257.801 234.3V240ZM270.883 240.2C268.183 240.2 266.703 239.06 266.703 236.76V236.72H268.103V236.96C268.103 238.32 268.663 238.98 270.903 238.98C272.743 238.98 273.223 238.46 273.223 237.46C273.223 236.46 272.603 236.1 271.103 235.82L269.463 235.54C267.863 235.24 266.703 234.5 266.703 232.76C266.703 231.06 268.143 229.92 270.483 229.92C272.743 229.92 274.403 231.08 274.403 233.3V233.4H273.023V233.24C273.023 232.06 272.563 231.16 270.443 231.16C268.643 231.16 268.083 231.74 268.083 232.74C268.083 233.74 268.583 234.08 270.063 234.36L271.743 234.68C273.463 235 274.603 235.76 274.603 237.4C274.603 239.16 273.163 240.2 270.883 240.2ZM279.051 240.2C277.251 240.2 275.891 239.28 275.891 237.62C275.891 235.9 277.171 235.14 279.331 234.84L282.811 234.36V233.64C282.811 231.9 282.071 231.2 280.211 231.2C278.411 231.2 277.571 231.9 277.571 233.48V233.78H276.191V233.62C276.191 231.56 277.771 229.92 280.331 229.92C282.971 229.92 284.171 231.62 284.171 233.82V240H282.871V238.18L282.771 238.16C282.191 239.3 280.931 240.2 279.051 240.2ZM277.291 237.52C277.291 238.54 277.931 239 279.451 239C281.151 239 282.811 238.12 282.811 235.78V235.44L279.451 235.92C277.871 236.14 277.291 236.46 277.291 237.52ZM290.412 240.22C287.492 240.22 285.732 238.08 285.732 235.08C285.732 232.06 287.492 229.92 290.412 229.92C292.932 229.92 294.632 231.54 294.632 233.86V234H293.212V233.88C293.212 232.16 292.292 231.22 290.352 231.22C288.092 231.22 287.152 232.64 287.152 235.08C287.152 237.5 288.092 238.92 290.352 238.92C292.292 238.92 293.212 237.98 293.212 236.26V236.14H294.632V236.28C294.632 238.6 292.932 240.22 290.412 240.22ZM299.788 240.02C297.968 240.02 296.908 239.3 296.908 237.2V231.36H295.248V230.12H296.928L297.268 227.6H298.348V230.12H301.468V231.36H298.348V237.28C298.348 238.44 298.888 238.7 300.168 238.7H301.468V239.86C301.128 239.92 300.508 240.02 299.788 240.02ZM303.947 228.8H302.527V226.6H303.947V228.8ZM303.947 240H302.527V230H303.947V240ZM310.225 240.2C307.325 240.2 305.425 238.06 305.425 235.06C305.425 232.06 307.325 229.92 310.225 229.92C313.105 229.92 314.945 232.06 314.945 235.06C314.945 238.06 313.105 240.2 310.225 240.2ZM310.225 238.92C312.605 238.92 313.545 237.52 313.545 235.06C313.545 232.6 312.605 231.22 310.225 231.22C307.805 231.22 306.845 232.6 306.845 235.06C306.845 237.52 307.805 238.92 310.225 238.92ZM317.924 240H316.484V230.12H317.784V232.16H317.844C318.224 231.12 319.344 229.92 321.384 229.92C323.924 229.92 325.084 231.56 325.084 233.94V240H323.664V234.26C323.664 232.12 322.964 231.18 320.944 231.18C318.984 231.18 317.924 232.1 317.924 234.3V240ZM331.007 240.2C328.307 240.2 326.827 239.06 326.827 236.76V236.72H328.227V236.96C328.227 238.32 328.787 238.98 331.027 238.98C332.867 238.98 333.347 238.46 333.347 237.46C333.347 236.46 332.727 236.1 331.227 235.82L329.587 235.54C327.987 235.24 326.827 234.5 326.827 232.76C326.827 231.06 328.267 229.92 330.607 229.92C332.867 229.92 334.527 231.08 334.527 233.3V233.4H333.147V233.24C333.147 232.06 332.687 231.16 330.567 231.16C328.767 231.16 328.207 231.74 328.207 232.74C328.207 233.74 328.707 234.08 330.187 234.36L331.867 234.68C333.587 235 334.727 235.76 334.727 237.4C334.727 239.16 333.287 240.2 331.007 240.2ZM336.394 241.84H335.954V240.9H336.354C336.634 240.9 336.774 240.84 336.774 240.5V240H335.994V237.22H337.754V240.48C337.754 241.42 337.234 241.84 336.394 241.84ZM5 267.12C2.28 267.12 0.72 265.32 0.72 262.52C0.72 259.72 2.26 257.92 5.02 257.92C6.76 257.92 8.08 258.78 8.52 260.04H8.6V258.12H9.88V267.58C9.88 270.26 8.16 271.6 5.56 271.6C3.04 271.6 1.26 270.28 1.26 268H2.68C2.68 269.62 3.5 270.32 5.58 270.32C7.7 270.32 8.44 269.56 8.44 267.58V265.06H8.42C7.96 266.2 6.72 267.12 5 267.12ZM2.16 262.52C2.16 265.14 3.42 265.88 5.34 265.88C7.12 265.88 8.44 264.86 8.44 262.82V262.22C8.44 260.18 7.1 259.16 5.26 259.16C3.38 259.16 2.16 259.92 2.16 262.52ZM13.2761 256.8H11.8561V254.6H13.2761V256.8ZM13.2761 268H11.8561V258H13.2761V268ZM19.9159 268H18.1359L14.0959 258.12H15.6559L18.9959 266.6H19.0959L22.4159 258.12H23.9559L19.9159 268ZM26.1964 256.8H24.7764V254.6H26.1964V256.8ZM26.1964 268H24.7764V258H26.1964V268ZM29.6116 268H28.1716V258.12H29.4716V260.16H29.5316C29.9116 259.12 31.0316 257.92 33.0716 257.92C35.6116 257.92 36.7716 259.56 36.7716 261.94V268H35.3516V262.26C35.3516 260.12 34.6516 259.18 32.6316 259.18C30.6716 259.18 29.6116 260.1 29.6116 262.3V268ZM42.5938 267.12C39.8738 267.12 38.3138 265.32 38.3138 262.52C38.3138 259.72 39.8538 257.92 42.6138 257.92C44.3538 257.92 45.6738 258.78 46.1138 260.04H46.1938V258.12H47.4738V267.58C47.4738 270.26 45.7538 271.6 43.1538 271.6C40.6338 271.6 38.8538 270.28 38.8538 268H40.2738C40.2738 269.62 41.0938 270.32 43.1738 270.32C45.2938 270.32 46.0338 269.56 46.0338 267.58V265.06H46.0138C45.5538 266.2 44.3138 267.12 42.5938 267.12ZM39.7538 262.52C39.7538 265.14 41.0138 265.88 42.9338 265.88C44.7138 265.88 46.0338 264.86 46.0338 262.82V262.22C46.0338 260.18 44.6938 259.16 42.8538 259.16C40.9738 259.16 39.7538 259.92 39.7538 262.52ZM54.3812 271.4C53.9012 271.4 53.3812 271.32 53.1012 271.26V270.1H54.2212C55.1212 270.1 55.4212 269.92 55.7812 269.14L56.3412 267.86L52.1012 258.12H53.6612L55.9812 263.62L57.0212 266.04H57.1412L58.1212 263.62L60.3012 258.12H61.8612L57.0412 269.58C56.4012 271.08 55.4612 271.4 54.3812 271.4ZM66.7911 268.2C63.8911 268.2 61.9911 266.06 61.9911 263.06C61.9911 260.06 63.8911 257.92 66.7911 257.92C69.6711 257.92 71.5111 260.06 71.5111 263.06C71.5111 266.06 69.6711 268.2 66.7911 268.2ZM66.7911 266.92C69.1711 266.92 70.1111 265.52 70.1111 263.06C70.1111 260.6 69.1711 259.22 66.7911 259.22C64.3711 259.22 63.4111 260.6 63.4111 263.06C63.4111 265.52 64.3711 266.92 66.7911 266.92ZM76.7705 268.2C74.1905 268.2 72.9905 266.42 72.9905 264.06V258.12H74.4305V263.86C74.4305 266 75.2905 266.94 77.2305 266.94C79.0505 266.94 80.2905 265.98 80.2905 263.66V258.12H81.7105V268H80.4105V265.82H80.3505C79.9505 266.96 78.8305 268.2 76.7705 268.2ZM88.6998 271.48H87.2598V258.12H88.5598V260.04H88.6198C89.0598 258.78 90.2398 257.92 92.0998 257.92C94.8798 257.92 96.4198 259.94 96.4198 263.08C96.4198 266.18 94.9598 268.2 92.2598 268.2C90.3598 268.2 89.1398 267.2 88.6998 266.12V271.48ZM88.6998 263.92C88.6998 265.94 89.8998 266.96 91.8598 266.96C93.7798 266.96 94.9798 266.08 94.9798 263.08C94.9798 260.04 93.7998 259.16 91.8598 259.16C89.8998 259.16 88.6998 260.18 88.6998 262.22V263.92ZM102.276 268.2C99.2359 268.2 97.6559 266.06 97.6559 263.06C97.6559 260.06 99.4359 257.92 102.256 257.92C104.636 257.92 106.596 259.36 106.596 262.28C106.596 262.74 106.556 263.18 106.496 263.46H99.0159C99.0759 265.64 99.9359 266.92 102.296 266.92C104.296 266.92 105.096 266.02 105.096 264.82V264.7H106.516V264.84C106.516 266.74 104.796 268.2 102.276 268.2ZM102.216 259.16C100.016 259.16 99.1359 260.42 99.0159 262.42H105.236C105.316 260.08 104.156 259.16 102.216 259.16ZM111.064 268.2C109.264 268.2 107.904 267.28 107.904 265.62C107.904 263.9 109.184 263.14 111.344 262.84L114.824 262.36V261.64C114.824 259.9 114.084 259.2 112.224 259.2C110.424 259.2 109.584 259.9 109.584 261.48V261.78H108.204V261.62C108.204 259.56 109.784 257.92 112.344 257.92C114.984 257.92 116.184 259.62 116.184 261.82V268H114.884V266.18L114.784 266.16C114.204 267.3 112.944 268.2 111.064 268.2ZM109.304 265.52C109.304 266.54 109.944 267 111.464 267C113.164 267 114.824 266.12 114.824 263.78V263.44L111.464 263.92C109.884 264.14 109.304 264.46 109.304 265.52ZM122.424 268.22C119.504 268.22 117.744 266.08 117.744 263.08C117.744 260.06 119.504 257.92 122.424 257.92C124.944 257.92 126.644 259.54 126.644 261.86V262H125.224V261.88C125.224 260.16 124.304 259.22 122.364 259.22C120.104 259.22 119.164 260.64 119.164 263.08C119.164 265.5 120.104 266.92 122.364 266.92C124.304 266.92 125.224 265.98 125.224 264.26V264.14H126.644V264.28C126.644 266.6 124.944 268.22 122.424 268.22ZM132.516 268.2C129.476 268.2 127.896 266.06 127.896 263.06C127.896 260.06 129.676 257.92 132.496 257.92C134.876 257.92 136.836 259.36 136.836 262.28C136.836 262.74 136.796 263.18 136.736 263.46H129.256C129.316 265.64 130.176 266.92 132.536 266.92C134.536 266.92 135.336 266.02 135.336 264.82V264.7H136.756V264.84C136.756 266.74 135.036 268.2 132.516 268.2ZM132.456 259.16C130.256 259.16 129.376 260.42 129.256 262.42H135.476C135.556 260.08 134.396 259.16 132.456 259.16ZM146.475 268.2C143.575 268.2 141.675 266.06 141.675 263.06C141.675 260.06 143.575 257.92 146.475 257.92C149.355 257.92 151.195 260.06 151.195 263.06C151.195 266.06 149.355 268.2 146.475 268.2ZM146.475 266.92C148.855 266.92 149.795 265.52 149.795 263.06C149.795 260.6 148.855 259.22 146.475 259.22C144.055 259.22 143.095 260.6 143.095 263.06C143.095 265.52 144.055 266.92 146.475 266.92ZM154.557 268H153.137V259.36H151.677V258.12H153.137V257.74C153.137 255.7 154.277 254.6 156.457 254.6H157.337V255.78H156.197C155.057 255.78 154.537 256.26 154.537 257.26V258.12H157.337V259.36H154.557V268ZM163.248 268H161.808V258.12H163.108V260.16H163.168C163.548 259.12 164.588 257.92 166.628 257.92C168.428 257.92 169.508 258.78 169.948 260.18H170.008C170.408 259.12 171.428 257.92 173.468 257.92C176.008 257.92 177.168 259.56 177.168 261.92V268H175.748V262.26C175.748 260.12 175.028 259.18 173.028 259.18C171.148 259.18 170.208 260.1 170.208 262.3V268H168.788V262.26C168.788 260.12 168.088 259.18 166.088 259.18C164.208 259.18 163.248 260.1 163.248 262.3V268ZM180.526 256.8H179.106V254.6H180.526V256.8ZM180.526 268H179.106V258H180.526V268ZM183.941 268H182.501V258.12H183.801V260.16H183.861C184.241 259.12 185.361 257.92 187.401 257.92C189.941 257.92 191.101 259.56 191.101 261.94V268H189.681V262.26C189.681 260.12 188.981 259.18 186.961 259.18C185.001 259.18 183.941 260.1 183.941 262.3V268ZM196.983 268.2C194.203 268.2 192.643 266.18 192.643 263.06C192.643 259.94 194.123 257.92 196.823 257.92C198.723 257.92 199.943 258.92 200.363 260V254.6H201.803V268H200.523V266.1H200.443C200.003 267.34 198.843 268.2 196.983 268.2ZM194.083 263.06C194.083 266.08 195.263 266.96 197.223 266.96C199.183 266.96 200.363 265.94 200.363 263.92V262.22C200.363 260.18 199.183 259.16 197.223 259.16C195.283 259.16 194.083 260.04 194.083 263.06ZM210.031 268.2C208.231 268.2 206.871 267.28 206.871 265.62C206.871 263.9 208.151 263.14 210.311 262.84L213.791 262.36V261.64C213.791 259.9 213.051 259.2 211.191 259.2C209.391 259.2 208.551 259.9 208.551 261.48V261.78H207.171V261.62C207.171 259.56 208.751 257.92 211.311 257.92C213.951 257.92 215.151 259.62 215.151 261.82V268H213.851V266.18L213.751 266.16C213.171 267.3 211.911 268.2 210.031 268.2ZM208.271 265.52C208.271 266.54 208.911 267 210.431 267C212.131 267 213.791 266.12 213.791 263.78V263.44L210.431 263.92C208.851 264.14 208.271 264.46 208.271 265.52ZM218.59 268H217.15V258.12H218.45V260.16H218.51C218.89 259.12 220.01 257.92 222.05 257.92C224.59 257.92 225.75 259.56 225.75 261.94V268H224.33V262.26C224.33 260.12 223.63 259.18 221.61 259.18C219.65 259.18 218.59 260.1 218.59 262.3V268ZM231.633 268.2C228.853 268.2 227.293 266.18 227.293 263.06C227.293 259.94 228.773 257.92 231.473 257.92C233.373 257.92 234.593 258.92 235.013 260V254.6H236.453V268H235.173V266.1H235.093C234.653 267.34 233.493 268.2 231.633 268.2ZM228.733 263.06C228.733 266.08 229.913 266.96 231.873 266.96C233.833 266.96 235.013 265.94 235.013 263.92V262.22C235.013 260.18 233.833 259.16 231.873 259.16C229.933 259.16 228.733 260.04 228.733 263.06ZM243.28 268H241.98V254.6H243.42V260C243.86 258.92 245.08 257.92 246.98 257.92C249.68 257.92 251.14 259.94 251.14 263.06C251.14 266.18 249.6 268.2 246.82 268.2C244.96 268.2 243.78 267.34 243.34 266.1H243.28V268ZM243.42 263.92C243.42 265.94 244.62 266.96 246.58 266.96C248.52 266.96 249.7 266.08 249.7 263.06C249.7 260.04 248.5 259.16 246.58 259.16C244.62 259.16 243.42 260.18 243.42 262.22V263.92ZM256.399 268.2C253.819 268.2 252.619 266.42 252.619 264.06V258.12H254.059V263.86C254.059 266 254.919 266.94 256.859 266.94C258.679 266.94 259.919 265.98 259.919 263.66V258.12H261.339V268H260.039V265.82H259.979C259.579 266.96 258.459 268.2 256.399 268.2ZM264.757 256.8H263.337V254.6H264.757V256.8ZM264.757 268H263.337V258H264.757V268ZM268.172 268H266.732V254.6H268.172V268ZM274.065 268.2C271.285 268.2 269.725 266.18 269.725 263.06C269.725 259.94 271.205 257.92 273.905 257.92C275.805 257.92 277.025 258.92 277.445 260V254.6H278.885V268H277.605V266.1H277.525C277.085 267.34 275.925 268.2 274.065 268.2ZM271.165 263.06C271.165 266.08 272.345 266.96 274.305 266.96C276.265 266.96 277.445 265.94 277.445 263.92V262.22C277.445 260.18 276.265 259.16 274.305 259.16C272.365 259.16 271.165 260.04 271.165 263.06ZM282.282 256.8H280.862V254.6H282.282V256.8ZM282.282 268H280.862V258H282.282V268ZM285.697 268H284.257V258.12H285.557V260.16H285.617C285.997 259.12 287.117 257.92 289.157 257.92C291.697 257.92 292.857 259.56 292.857 261.94V268H291.437V262.26C291.437 260.12 290.737 259.18 288.717 259.18C286.757 259.18 285.697 260.1 285.697 262.3V268ZM298.679 267.12C295.959 267.12 294.399 265.32 294.399 262.52C294.399 259.72 295.939 257.92 298.699 257.92C300.439 257.92 301.759 258.78 302.199 260.04H302.279V258.12H303.559V267.58C303.559 270.26 301.839 271.6 299.239 271.6C296.719 271.6 294.939 270.28 294.939 268H296.359C296.359 269.62 297.179 270.32 299.259 270.32C301.379 270.32 302.119 269.56 302.119 267.58V265.06H302.099C301.639 266.2 300.399 267.12 298.679 267.12ZM295.839 262.52C295.839 265.14 297.099 265.88 299.019 265.88C300.799 265.88 302.119 264.86 302.119 262.82V262.22C302.119 260.18 300.779 259.16 298.939 259.16C297.059 259.16 295.839 259.92 295.839 262.52ZM5.4 296.22C2.48 296.22 0.72 294.08 0.72 291.08C0.72 288.06 2.48 285.92 5.4 285.92C7.92 285.92 9.62 287.54 9.62 289.86V290H8.2V289.88C8.2 288.16 7.28 287.22 5.34 287.22C3.08 287.22 2.14 288.64 2.14 291.08C2.14 293.5 3.08 294.92 5.34 294.92C7.28 294.92 8.2 293.98 8.2 292.26V292.14H9.62V292.28C9.62 294.6 7.92 296.22 5.4 296.22ZM14.8939 296.2C12.3139 296.2 11.1139 294.42 11.1139 292.06V286.12H12.5539V291.86C12.5539 294 13.4139 294.94 15.3539 294.94C17.1739 294.94 18.4139 293.98 18.4139 291.66V286.12H19.8339V296H18.5339V293.82H18.4739C18.0739 294.96 16.9539 296.2 14.8939 296.2ZM25.8333 296.2C23.1333 296.2 21.6533 295.06 21.6533 292.76V292.72H23.0533V292.96C23.0533 294.32 23.6133 294.98 25.8533 294.98C27.6933 294.98 28.1733 294.46 28.1733 293.46C28.1733 292.46 27.5533 292.1 26.0533 291.82L24.4133 291.54C22.8133 291.24 21.6533 290.5 21.6533 288.76C21.6533 287.06 23.0933 285.92 25.4333 285.92C27.6933 285.92 29.3533 287.08 29.3533 289.3V289.4H27.9733V289.24C27.9733 288.06 27.5133 287.16 25.3933 287.16C23.5933 287.16 23.0333 287.74 23.0333 288.74C23.0333 289.74 23.5333 290.08 25.0133 290.36L26.6933 290.68C28.4133 291 29.5533 291.76 29.5533 293.4C29.5533 295.16 28.1133 296.2 25.8333 296.2ZM34.9036 296.02C33.0836 296.02 32.0236 295.3 32.0236 293.2V287.36H30.3636V286.12H32.0436L32.3836 283.6H33.4636V286.12H36.5836V287.36H33.4636V293.28C33.4636 294.44 34.0036 294.7 35.2836 294.7H36.5836V295.86C36.2436 295.92 35.6236 296.02 34.9036 296.02ZM41.7708 296.2C38.8708 296.2 36.9708 294.06 36.9708 291.06C36.9708 288.06 38.8708 285.92 41.7708 285.92C44.6508 285.92 46.4908 288.06 46.4908 291.06C46.4908 294.06 44.6508 296.2 41.7708 296.2ZM41.7708 294.92C44.1508 294.92 45.0908 293.52 45.0908 291.06C45.0908 288.6 44.1508 287.22 41.7708 287.22C39.3508 287.22 38.3908 288.6 38.3908 291.06C38.3908 293.52 39.3508 294.92 41.7708 294.92ZM49.4702 296H48.0302V286.12H49.3302V288.16H49.3902C49.7702 287.12 50.8102 285.92 52.8502 285.92C54.6502 285.92 55.7302 286.78 56.1702 288.18H56.2302C56.6302 287.12 57.6502 285.92 59.6902 285.92C62.2302 285.92 63.3902 287.56 63.3902 289.92V296H61.9702V290.26C61.9702 288.12 61.2502 287.18 59.2502 287.18C57.3702 287.18 56.4302 288.1 56.4302 290.3V296H55.0102V290.26C55.0102 288.12 54.3102 287.18 52.3102 287.18C50.4302 287.18 49.4702 288.1 49.4702 290.3V296ZM69.5697 296.2C66.5297 296.2 64.9497 294.06 64.9497 291.06C64.9497 288.06 66.7297 285.92 69.5497 285.92C71.9297 285.92 73.8897 287.36 73.8897 290.28C73.8897 290.74 73.8497 291.18 73.7897 291.46H66.3097C66.3697 293.64 67.2297 294.92 69.5897 294.92C71.5897 294.92 72.3897 294.02 72.3897 292.82V292.7H73.8097V292.84C73.8097 294.74 72.0897 296.2 69.5697 296.2ZM69.5097 287.16C67.3097 287.16 66.4297 288.42 66.3097 290.42H72.5297C72.6097 288.08 71.4497 287.16 69.5097 287.16ZM76.9803 296H75.5403V286H76.8403V287.66H76.9403C77.2603 286.74 78.2203 285.92 79.6803 285.92C81.7203 285.92 82.5003 287.38 82.5003 289.08V289.64H81.0603V289.3C81.0603 287.76 80.5803 287.16 79.1603 287.16C77.6203 287.16 76.9803 287.86 76.9803 289.46V296ZM91.1255 296.02C89.3055 296.02 88.2455 295.3 88.2455 293.2V287.36H86.5855V286.12H88.2655L88.6055 283.6H89.6855V286.12H92.8055V287.36H89.6855V293.28C89.6855 294.44 90.2255 294.7 91.5055 294.7H92.8055V295.86C92.4655 295.92 91.8455 296.02 91.1255 296.02ZM95.4819 296H94.0419V286H95.3419V287.66H95.4419C95.7619 286.74 96.7219 285.92 98.1819 285.92C100.222 285.92 101.002 287.38 101.002 289.08V289.64H99.5619V289.3C99.5619 287.76 99.0819 287.16 97.6619 287.16C96.1219 287.16 95.4819 287.86 95.4819 289.46V296ZM105.941 296.2C103.361 296.2 102.161 294.42 102.161 292.06V286.12H103.601V291.86C103.601 294 104.461 294.94 106.401 294.94C108.221 294.94 109.461 293.98 109.461 291.66V286.12H110.881V296H109.581V293.82H109.521C109.121 294.96 108.001 296.2 105.941 296.2ZM116.88 296.2C114.18 296.2 112.7 295.06 112.7 292.76V292.72H114.1V292.96C114.1 294.32 114.66 294.98 116.9 294.98C118.74 294.98 119.22 294.46 119.22 293.46C119.22 292.46 118.6 292.1 117.1 291.82L115.46 291.54C113.86 291.24 112.7 290.5 112.7 288.76C112.7 287.06 114.14 285.92 116.48 285.92C118.74 285.92 120.4 287.08 120.4 289.3V289.4H119.02V289.24C119.02 288.06 118.56 287.16 116.44 287.16C114.64 287.16 114.08 287.74 114.08 288.74C114.08 289.74 114.58 290.08 116.06 290.36L117.74 290.68C119.46 291 120.6 291.76 120.6 293.4C120.6 295.16 119.16 296.2 116.88 296.2ZM125.95 296.02C124.13 296.02 123.07 295.3 123.07 293.2V287.36H121.41V286.12H123.09L123.43 283.6H124.51V286.12H127.63V287.36H124.51V293.28C124.51 294.44 125.05 294.7 126.33 294.7H127.63V295.86C127.29 295.92 126.67 296.02 125.95 296.02ZM130.459 296H128.699V293.22H130.459V296Z" fill="white"/>
</svg>
