<svg width="1200" height="572" viewBox="0 0 1200 572" fill="none" xmlns="http://www.w3.org/2000/svg">
<mask id="path-1-inside-1_12261_32154" fill="white">
<path d="M702.5 739.66C702.5 742.974 705.189 745.664 708.503 745.627C832.118 744.26 951.63 700.707 1047.19 622.085C1142.74 543.463 1208.5 434.578 1233.65 313.541C1234.33 310.297 1232.2 307.14 1228.95 306.501L1021.06 265.693C1017.81 265.055 1014.66 267.175 1013.96 270.414C998.822 340.537 960.441 403.564 904.954 449.219C849.466 494.873 780.226 520.395 708.5 521.745C705.187 521.807 702.5 524.488 702.5 527.801V739.66Z"/>
</mask>
<path d="M702.5 739.66C702.5 742.974 705.189 745.664 708.503 745.627C832.118 744.26 951.63 700.707 1047.19 622.085C1142.74 543.463 1208.5 434.578 1233.65 313.541C1234.33 310.297 1232.2 307.14 1228.95 306.501L1021.06 265.693C1017.81 265.055 1014.66 267.175 1013.96 270.414C998.822 340.537 960.441 403.564 904.954 449.219C849.466 494.873 780.226 520.395 708.5 521.745C705.187 521.807 702.5 524.488 702.5 527.801V739.66Z" fill="white" fill-opacity="0.04" stroke="white" stroke-opacity="0.16" stroke-width="6" mask="url(#path-1-inside-1_12261_32154)"/>
<mask id="path-2-inside-2_12261_32154" fill="white">
<path d="M581.125 -216.723C581.382 -220.026 578.909 -222.917 575.603 -223.137C439.943 -232.187 305.742 -189.962 199.651 -104.698C93.5613 -19.4343 23.4552 102.542 3.10952 236.972C2.61364 240.248 4.90425 243.285 8.18592 243.745L217.997 273.131C221.279 273.591 224.306 271.3 224.827 268.028C237.251 190.037 278.219 119.354 339.888 69.7913C401.556 20.2285 479.397 -4.57475 558.235 0.0700989C561.543 0.264999 564.431 -2.19876 564.688 -5.50249L581.125 -216.723Z"/>
</mask>
<path d="M581.125 -216.723C581.382 -220.026 578.909 -222.917 575.603 -223.137C439.943 -232.187 305.742 -189.962 199.651 -104.698C93.5613 -19.4343 23.4552 102.542 3.10952 236.972C2.61364 240.248 4.90425 243.285 8.18592 243.745L217.997 273.131C221.279 273.591 224.306 271.3 224.827 268.028C237.251 190.037 278.219 119.354 339.888 69.7913C401.556 20.2285 479.397 -4.57475 558.235 0.0700989C561.543 0.264999 564.431 -2.19876 564.688 -5.50249L581.125 -216.723Z" fill="white" fill-opacity="0.04" stroke="white" stroke-opacity="0.16" stroke-width="6" mask="url(#path-2-inside-2_12261_32154)"/>
</svg>
