<svg width="340" height="304" viewBox="0 0 340 304" fill="none" xmlns="http://www.w3.org/2000/svg">
<path d="M19.8533 6.77328C18.6933 6.42662 17.4133 6.19995 16 6.19995C9.61334 6.19995 4.44 11.3733 4.44 17.76C4.44 24.16 9.61334 29.3333 16 29.3333C22.3867 29.3333 27.56 24.16 27.56 17.7733C27.56 15.4 26.84 13.1866 25.6133 11.3466" stroke="#CAAEFF" stroke-width="1.5" stroke-linecap="round" stroke-linejoin="round"/>
<path d="M21.5067 7.09329L17.6533 2.66663" stroke="#CAAEFF" stroke-width="1.5" stroke-linecap="round" stroke-linejoin="round"/>
<path d="M21.5067 7.09338L17.0133 10.3734" stroke="#CAAEFF" stroke-width="1.5" stroke-linecap="round" stroke-linejoin="round"/>
<path d="M3.936 86H1.344V69.92H8.256C11.808 69.92 14.04 71.672 14.04 74.72C14.04 77.384 12.408 78.992 9.576 79.136V79.328C10.752 79.712 11.448 80.432 12.048 81.536L14.448 86H11.448L9.168 81.848C8.424 80.456 7.752 79.808 5.832 79.808H3.936V86ZM3.936 72.248V77.672H8.568C10.656 77.672 11.448 76.904 11.448 74.96C11.448 73.064 10.656 72.248 8.568 72.248H3.936ZM20.6329 86.24C16.6969 86.24 14.8489 83.744 14.8489 80.024C14.8489 76.328 17.0569 73.832 20.6089 73.832C23.8249 73.832 26.0809 75.752 26.0809 79.016C26.0809 79.64 26.0089 80.288 25.9369 80.648H17.2729C17.3689 82.832 18.1609 83.936 20.6569 83.936C22.6489 83.936 23.4169 83.264 23.4169 82.184V81.992H25.9849V82.208C25.9849 84.656 23.8489 86.24 20.6329 86.24ZM20.5609 76.016C18.3049 76.016 17.4409 77.072 17.2969 78.92H23.6089C23.7049 76.88 22.6009 76.016 20.5609 76.016ZM32.8024 86.24C29.3944 86.24 27.5464 83.816 27.5464 80.024C27.5464 76.256 29.3704 73.832 32.6584 73.832C34.7704 73.832 36.0424 74.84 36.5704 75.92H36.6424V69.92H39.2104V86H36.8344V84.032H36.7384C36.1624 85.4 34.8424 86.24 32.8024 86.24ZM30.1384 80.024C30.1384 82.976 31.0744 84.032 33.3784 84.032C35.4904 84.032 36.6424 83.096 36.6424 81.104V78.968C36.6424 76.976 35.4904 76.04 33.3784 76.04C31.0984 76.04 30.1384 77.096 30.1384 80.024ZM45.9607 86.24C42.8407 86.24 41.4487 84.152 41.4487 81.44V74.072H44.0407V80.984C44.0407 83.12 44.8567 84.008 46.9207 84.008C48.9127 84.008 50.0407 83.144 50.0407 80.792V74.072H52.6327V86H50.2327V83.624H50.1367C49.5607 84.992 48.2887 86.24 45.9607 86.24ZM60.2499 86.264C56.5299 86.264 54.4179 83.744 54.4179 80.048C54.4179 76.328 56.6019 73.832 60.3459 73.832C63.4899 73.832 65.6499 75.776 65.6499 78.632V78.848H63.0819V78.704C63.0819 76.952 62.1699 76.16 60.1779 76.16C57.8739 76.16 56.9859 77.456 56.9859 80.048C56.9859 82.64 57.8739 83.912 60.1779 83.912C62.1699 83.912 63.0819 83.144 63.0819 81.392V81.248H65.6499V81.464C65.6499 84.296 63.4659 86.264 60.2499 86.264ZM72.7823 86.24C68.8463 86.24 66.9983 83.744 66.9983 80.024C66.9983 76.328 69.2063 73.832 72.7583 73.832C75.9743 73.832 78.2303 75.752 78.2303 79.016C78.2303 79.64 78.1583 80.288 78.0863 80.648H69.4223C69.5183 82.832 70.3103 83.936 72.8063 83.936C74.7983 83.936 75.5663 83.264 75.5663 82.184V81.992H78.1343V82.208C78.1343 84.656 75.9983 86.24 72.7823 86.24ZM72.7103 76.016C70.4543 76.016 69.5903 77.072 69.4463 78.92H75.7583C75.8543 76.88 74.7503 76.016 72.7103 76.016ZM90.2432 86H84.5312V69.92H90.2432C95.2112 69.92 98.3792 72.992 98.3792 77.96C98.3792 82.928 95.2112 86 90.2432 86ZM90.2432 72.248H87.1232V83.672H90.2432C94.0832 83.672 95.6192 82.088 95.6192 77.96C95.6192 73.832 94.0832 72.248 90.2432 72.248ZM105.508 86.24C101.572 86.24 99.7236 83.744 99.7236 80.024C99.7236 76.328 101.932 73.832 105.484 73.832C108.7 73.832 110.956 75.752 110.956 79.016C110.956 79.64 110.884 80.288 110.812 80.648H102.148C102.244 82.832 103.036 83.936 105.532 83.936C107.524 83.936 108.292 83.264 108.292 82.184V81.992H110.86V82.208C110.86 84.656 108.724 86.24 105.508 86.24ZM105.436 76.016C103.18 76.016 102.316 77.072 102.172 78.92H108.484C108.58 76.88 107.476 76.016 105.436 76.016ZM115.883 86H113.291V76.232H111.539V74.072H113.291C113.339 71.384 114.947 69.92 117.971 69.92H118.931V71.984H117.491C116.339 71.984 115.811 72.416 115.811 73.424V74.072H118.931V76.232H115.883V86ZM123.027 86.24C120.891 86.24 119.235 85.136 119.235 83.048C119.235 81.08 120.675 80.048 123.219 79.688L127.395 79.064V78.416C127.395 76.64 126.579 76.112 124.707 76.112C122.811 76.112 122.067 76.712 122.067 78.296V78.656H119.571V78.416C119.571 75.752 121.659 73.832 124.851 73.832C128.187 73.832 129.867 75.848 129.867 78.752V86H127.467V84.128H127.347C126.651 85.256 125.283 86.24 123.027 86.24ZM121.755 82.856C121.755 83.792 122.355 84.176 123.867 84.176C125.547 84.176 127.395 83.504 127.395 81.104V80.888L123.603 81.464C122.235 81.656 121.755 81.968 121.755 82.856ZM136.549 86.24C133.429 86.24 132.037 84.152 132.037 81.44V74.072H134.629V80.984C134.629 83.12 135.445 84.008 137.509 84.008C139.501 84.008 140.629 83.144 140.629 80.792V74.072H143.221V86H140.821V83.624H140.725C140.149 84.992 138.877 86.24 136.549 86.24ZM148.125 86H145.533V69.92H148.125V86ZM155.277 86C152.613 86 151.221 85.016 151.221 82.328V76.232H149.229V74.072H151.269L151.821 71.12H153.813V74.072H157.413V76.232H153.813V82.208C153.813 83.456 154.341 83.672 155.949 83.672H157.413V85.784C156.909 85.904 156.093 86 155.277 86ZM163.78 86.24C160.3 86.24 158.476 84.872 158.476 81.968V81.92H160.972V82.352C160.972 83.648 161.548 84.128 163.828 84.128C165.748 84.128 166.108 83.696 166.108 82.808C166.108 81.848 165.532 81.56 163.78 81.248L161.932 80.936C159.796 80.552 158.452 79.592 158.452 77.432C158.452 75.272 160.228 73.832 163.348 73.832C166.156 73.832 168.268 75.224 168.268 77.936V78.152H165.796V77.864C165.796 76.76 165.412 75.968 163.276 75.968C161.38 75.968 160.924 76.472 160.924 77.384C160.924 78.296 161.356 78.56 163.036 78.896L165.052 79.28C167.356 79.736 168.556 80.768 168.556 82.736C168.556 84.944 166.804 86.24 163.78 86.24ZM180.018 86H176.634L173.682 74.072H176.49L177.858 80.696L178.338 83.84H178.53L179.322 80.696L181.41 74.072H184.77L186.882 80.72L187.626 83.84H187.818L188.298 80.72L189.69 74.072H192.378L189.426 86H186.066L183.93 79.352L183.138 76.352H182.946L182.178 79.352L180.018 86ZM195.811 72.56H193.243L193.219 69.92H195.811V72.56ZM195.835 86H193.243V74H195.835V86ZM202.874 86C200.21 86 198.818 85.016 198.818 82.328V76.232H196.826V74.072H198.866L199.418 71.12H201.41V74.072H205.01V76.232H201.41V82.208C201.41 83.456 201.938 83.672 203.546 83.672H205.01V85.784C204.506 85.904 203.69 86 202.874 86ZM209.21 86H206.618V69.92H209.21V76.064H209.306C209.858 74.984 211.13 73.832 213.29 73.832C216.41 73.832 217.73 75.872 217.73 78.488V86H215.138V79.088C215.138 76.952 214.466 76.064 212.282 76.064C210.17 76.064 209.21 76.88 209.21 79.136V86ZM226.99 86H224.398V69.92H231.31C234.862 69.92 237.094 71.672 237.094 74.72C237.094 77.384 235.462 78.992 232.63 79.136V79.328C233.806 79.712 234.502 80.432 235.102 81.536L237.502 86H234.502L232.222 81.848C231.478 80.456 230.806 79.808 228.886 79.808H226.99V86ZM226.99 72.248V77.672H231.622C233.71 77.672 234.502 76.904 234.502 74.96C234.502 73.064 233.71 72.248 231.622 72.248H226.99ZM243.687 86.24C239.751 86.24 237.903 83.744 237.903 80.024C237.903 76.328 240.111 73.832 243.663 73.832C246.879 73.832 249.135 75.752 249.135 79.016C249.135 79.64 249.063 80.288 248.991 80.648H240.327C240.423 82.832 241.215 83.936 243.711 83.936C245.703 83.936 246.471 83.264 246.471 82.184V81.992H249.039V82.208C249.039 84.656 246.903 86.24 243.687 86.24ZM243.615 76.016C241.359 76.016 240.495 77.072 240.351 78.92H246.663C246.759 76.88 245.655 76.016 243.615 76.016ZM253.578 86H250.986V69.92H253.578V86ZM258.303 72.56H255.735L255.711 69.92H258.303V72.56ZM258.327 86H255.735V74H258.327V86ZM263.731 86.24C261.595 86.24 259.939 85.136 259.939 83.048C259.939 81.08 261.379 80.048 263.923 79.688L268.099 79.064V78.416C268.099 76.64 267.283 76.112 265.411 76.112C263.515 76.112 262.771 76.712 262.771 78.296V78.656H260.275V78.416C260.275 75.752 262.363 73.832 265.555 73.832C268.891 73.832 270.571 75.848 270.571 78.752V86H268.171V84.128H268.051C267.355 85.256 265.987 86.24 263.731 86.24ZM262.459 82.856C262.459 83.792 263.059 84.176 264.571 84.176C266.251 84.176 268.099 83.504 268.099 81.104V80.888L264.307 81.464C262.939 81.656 262.459 81.968 262.459 82.856ZM275.189 86H272.813V69.92H275.405V75.968H275.453C275.981 74.888 277.349 73.832 279.461 73.832C282.749 73.832 284.477 76.256 284.477 80.024C284.477 83.816 282.653 86.24 279.317 86.24C277.253 86.24 275.861 85.424 275.285 84.032H275.189V86ZM275.405 81.104C275.405 83.096 276.557 84.032 278.645 84.032C280.949 84.032 281.909 82.976 281.909 80.024C281.909 77.096 280.925 76.04 278.645 76.04C276.557 76.04 275.405 76.976 275.405 78.968V81.104ZM288.806 86H286.214V69.92H288.806V86ZM296.317 86.24C292.381 86.24 290.533 83.744 290.533 80.024C290.533 76.328 292.741 73.832 296.293 73.832C299.509 73.832 301.765 75.752 301.765 79.016C301.765 79.64 301.693 80.288 301.621 80.648H292.957C293.053 82.832 293.845 83.936 296.341 83.936C298.333 83.936 299.101 83.264 299.101 82.184V81.992H301.669V82.208C301.669 84.656 299.533 86.24 296.317 86.24ZM296.245 76.016C293.989 76.016 293.125 77.072 292.981 78.92H299.293C299.389 76.88 298.285 76.016 296.245 76.016ZM3.936 114H1.344V97.92H8.256C11.808 97.92 14.04 99.672 14.04 102.72C14.04 105.384 12.408 106.992 9.576 107.136V107.328C10.752 107.712 11.448 108.432 12.048 109.536L14.448 114H11.448L9.168 109.848C8.424 108.456 7.752 107.808 5.832 107.808H3.936V114ZM3.936 100.248V105.672H8.568C10.656 105.672 11.448 104.904 11.448 102.96C11.448 101.064 10.656 100.248 8.568 100.248H3.936ZM20.6329 114.24C16.6969 114.24 14.8489 111.744 14.8489 108.024C14.8489 104.328 17.0569 101.832 20.6089 101.832C23.8249 101.832 26.0809 103.752 26.0809 107.016C26.0809 107.64 26.0089 108.288 25.9369 108.648H17.2729C17.3689 110.832 18.1609 111.936 20.6569 111.936C22.6489 111.936 23.4169 111.264 23.4169 110.184V109.992H25.9849V110.208C25.9849 112.656 23.8489 114.24 20.6329 114.24ZM20.5609 104.016C18.3049 104.016 17.4409 105.072 17.2969 106.92H23.6089C23.7049 104.88 22.6009 104.016 20.5609 104.016ZM30.3812 118.152H27.8132V102.072H30.1652V104.04H30.2852C30.8372 102.648 32.2052 101.832 34.2692 101.832C37.6292 101.832 39.4772 104.256 39.4772 108.048C39.4772 111.816 37.6772 114.24 34.4372 114.24C32.3012 114.24 30.9812 113.256 30.4532 112.152H30.3812V118.152ZM30.3812 109.104C30.3812 111.096 31.5332 112.032 33.6452 112.032C35.9252 112.032 36.8852 110.976 36.8852 108.048C36.8852 105.096 35.9492 104.04 33.6452 104.04C31.5332 104.04 30.3812 104.976 30.3812 106.968V109.104ZM44.6441 114.24C42.5081 114.24 40.8521 113.136 40.8521 111.048C40.8521 109.08 42.2921 108.048 44.8361 107.688L49.0121 107.064V106.416C49.0121 104.64 48.1961 104.112 46.3241 104.112C44.4281 104.112 43.6841 104.712 43.6841 106.296V106.656H41.1881V106.416C41.1881 103.752 43.2761 101.832 46.4681 101.832C49.8041 101.832 51.4841 103.848 51.4841 106.752V114H49.0841V112.128H48.9641C48.2681 113.256 46.9001 114.24 44.6441 114.24ZM43.3721 110.856C43.3721 111.792 43.9721 112.176 45.4841 112.176C47.1641 112.176 49.0121 111.504 49.0121 109.104V108.888L45.2201 109.464C43.8521 109.656 43.3721 109.968 43.3721 110.856ZM55.0864 118.08C54.4384 118.08 53.6944 117.984 53.2864 117.864V115.752H54.9184C55.9504 115.752 56.3104 115.584 56.6944 114.696L57.1504 113.688L52.0864 102.072H54.9424L57.3424 107.856L58.4224 110.448H58.6144L59.5984 107.856L61.7824 102.072H64.6384L58.9984 115.416C58.1104 117.528 56.9584 118.08 55.0864 118.08ZM68.2421 114H65.6501V102.072H68.0261V104.304H68.1221C68.6741 103.032 69.9221 101.832 72.2021 101.832C74.2901 101.832 75.5861 102.792 76.1621 104.304H76.2341C76.7861 103.056 78.0101 101.832 80.3621 101.832C83.4341 101.832 84.8021 103.8 84.8021 106.512V114H82.2101V107.088C82.2101 104.952 81.5621 104.064 79.4021 104.064C77.4341 104.064 76.5221 104.88 76.5221 107.064V114H73.9301V107.088C73.9301 104.952 73.2821 104.064 71.1221 104.064C69.1541 104.064 68.2421 104.88 68.2421 107.04V114ZM92.3001 114.24C88.3641 114.24 86.5161 111.744 86.5161 108.024C86.5161 104.328 88.7241 101.832 92.2761 101.832C95.4921 101.832 97.7481 103.752 97.7481 107.016C97.7481 107.64 97.6761 108.288 97.6041 108.648H88.9401C89.0361 110.832 89.8281 111.936 92.3241 111.936C94.3161 111.936 95.0841 111.264 95.0841 110.184V109.992H97.6521V110.208C97.6521 112.656 95.5161 114.24 92.3001 114.24ZM92.2281 104.016C89.9721 104.016 89.1081 105.072 88.9641 106.92H95.2761C95.3721 104.88 94.2681 104.016 92.2281 104.016ZM102.168 114H99.5764V102.072H101.952V104.304H102.048C102.6 103.032 103.872 101.832 106.2 101.832C109.296 101.832 110.688 103.8 110.688 106.512V114H108.096V107.088C108.096 104.952 107.424 104.064 105.24 104.064C103.128 104.064 102.168 104.88 102.168 107.112V114ZM117.782 114C115.118 114 113.726 113.016 113.726 110.328V104.232H111.734V102.072H113.774L114.326 99.12H116.318V102.072H119.918V104.232H116.318V110.208C116.318 111.456 116.846 111.672 118.454 111.672H119.918V113.784C119.414 113.904 118.598 114 117.782 114ZM132.843 114.24C128.163 114.24 125.331 110.976 125.331 105.96C125.331 100.944 128.163 97.68 132.843 97.68C137.163 97.68 139.779 100.08 139.779 103.944V104.088H137.019V103.944C137.019 101.304 135.795 100.176 132.771 100.176C129.435 100.176 128.091 101.784 128.091 105.96C128.091 110.136 129.435 111.744 132.771 111.744C135.795 111.744 137.019 110.616 137.019 107.976V107.832H139.779V107.976C139.779 111.84 137.163 114.24 132.843 114.24ZM147.143 114.24C143.471 114.24 141.191 111.744 141.191 108.024C141.191 104.328 143.471 101.832 147.143 101.832C150.791 101.832 152.999 104.328 152.999 108.024C152.999 111.744 150.791 114.24 147.143 114.24ZM147.143 111.936C149.639 111.936 150.503 110.712 150.503 108.024C150.503 105.36 149.639 104.136 147.143 104.136C144.623 104.136 143.735 105.36 143.735 108.024C143.735 110.712 144.623 111.936 147.143 111.936ZM157.312 114H154.72V97.92H157.312V114ZM162.299 114H159.707V97.92H162.299V114ZM169.81 114.24C165.874 114.24 164.026 111.744 164.026 108.024C164.026 104.328 166.234 101.832 169.786 101.832C173.002 101.832 175.258 103.752 175.258 107.016C175.258 107.64 175.186 108.288 175.114 108.648H166.45C166.546 110.832 167.338 111.936 169.834 111.936C171.826 111.936 172.594 111.264 172.594 110.184V109.992H175.162V110.208C175.162 112.656 173.026 114.24 169.81 114.24ZM169.738 104.016C167.482 104.016 166.618 105.072 166.474 106.92H172.786C172.882 104.88 171.778 104.016 169.738 104.016ZM182.555 114.264C178.835 114.264 176.723 111.744 176.723 108.048C176.723 104.328 178.907 101.832 182.651 101.832C185.795 101.832 187.955 103.776 187.955 106.632V106.848H185.387V106.704C185.387 104.952 184.475 104.16 182.483 104.16C180.179 104.16 179.291 105.456 179.291 108.048C179.291 110.64 180.179 111.912 182.483 111.912C184.475 111.912 185.387 111.144 185.387 109.392V109.248H187.955V109.464C187.955 112.296 185.771 114.264 182.555 114.264ZM194.541 114C191.877 114 190.485 113.016 190.485 110.328V104.232H188.493V102.072H190.533L191.085 99.12H193.077V102.072H196.677V104.232H193.077V110.208C193.077 111.456 193.605 111.672 195.213 111.672H196.677V113.784C196.173 113.904 195.357 114 194.541 114ZM200.546 100.56H197.978L197.954 97.92H200.546V100.56ZM200.57 114H197.978V102H200.57V114ZM208.065 114.24C204.393 114.24 202.113 111.744 202.113 108.024C202.113 104.328 204.393 101.832 208.065 101.832C211.713 101.832 213.921 104.328 213.921 108.024C213.921 111.744 211.713 114.24 208.065 114.24ZM208.065 111.936C210.561 111.936 211.425 110.712 211.425 108.024C211.425 105.36 210.561 104.136 208.065 104.136C205.545 104.136 204.657 105.36 204.657 108.024C204.657 110.712 205.545 111.936 208.065 111.936ZM218.21 114H215.618V102.072H217.994V104.304H218.09C218.642 103.032 219.914 101.832 222.242 101.832C225.338 101.832 226.73 103.8 226.73 106.512V114H224.138V107.088C224.138 104.952 223.466 104.064 221.282 104.064C219.17 104.064 218.21 104.88 218.21 107.112V114ZM233.918 114.24C230.438 114.24 228.614 112.872 228.614 109.968V109.92H231.11V110.352C231.11 111.648 231.686 112.128 233.966 112.128C235.886 112.128 236.246 111.696 236.246 110.808C236.246 109.848 235.67 109.56 233.918 109.248L232.07 108.936C229.934 108.552 228.59 107.592 228.59 105.432C228.59 103.272 230.366 101.832 233.486 101.832C236.294 101.832 238.406 103.224 238.406 105.936V106.152H235.934V105.864C235.934 104.76 235.55 103.968 233.414 103.968C231.518 103.968 231.062 104.472 231.062 105.384C231.062 106.296 231.494 106.56 233.174 106.896L235.19 107.28C237.494 107.736 238.694 108.768 238.694 110.736C238.694 112.944 236.942 114.24 233.918 114.24Z" fill="#CAAEFF"/>
<path d="M1.78 156H0.28L5.7 142.6H7.74L13.16 156H11.62L10 152.08H3.38L1.78 156ZM5.86 146L3.9 150.78H9.46L7.5 146L6.74 143.96H6.64L5.86 146ZM18.4167 156H16.6367L12.5967 146.12H14.1567L17.4967 154.6H17.5967L20.9167 146.12H22.4567L18.4167 156ZM27.4247 156.2C24.5247 156.2 22.6247 154.06 22.6247 151.06C22.6247 148.06 24.5247 145.92 27.4247 145.92C30.3047 145.92 32.1447 148.06 32.1447 151.06C32.1447 154.06 30.3047 156.2 27.4247 156.2ZM27.4247 154.92C29.8047 154.92 30.7447 153.52 30.7447 151.06C30.7447 148.6 29.8047 147.22 27.4247 147.22C25.0047 147.22 24.0447 148.6 24.0447 151.06C24.0447 153.52 25.0047 154.92 27.4247 154.92ZM35.0441 144.8H33.6241V142.6H35.0441V144.8ZM35.0441 156H33.6241V146H35.0441V156ZM40.8616 156.2C38.0816 156.2 36.5216 154.18 36.5216 151.06C36.5216 147.94 38.0016 145.92 40.7016 145.92C42.6016 145.92 43.8216 146.92 44.2416 148V142.6H45.6816V156H44.4016V154.1H44.3216C43.8816 155.34 42.7216 156.2 40.8616 156.2ZM37.9616 151.06C37.9616 154.08 39.1416 154.96 41.1016 154.96C43.0616 154.96 44.2416 153.94 44.2416 151.92V150.22C44.2416 148.18 43.0616 147.16 41.1016 147.16C39.1616 147.16 37.9616 148.04 37.9616 151.06ZM52.6491 156H51.2091V146H52.5091V147.66H52.6091C52.9291 146.74 53.8891 145.92 55.3491 145.92C57.3891 145.92 58.1691 147.38 58.1691 149.08V149.64H56.7291V149.3C56.7291 147.76 56.2491 147.16 54.8291 147.16C53.2891 147.16 52.6491 147.86 52.6491 149.46V156ZM63.647 156.2C60.607 156.2 59.027 154.06 59.027 151.06C59.027 148.06 60.807 145.92 63.627 145.92C66.007 145.92 67.967 147.36 67.967 150.28C67.967 150.74 67.927 151.18 67.867 151.46H60.387C60.447 153.64 61.307 154.92 63.667 154.92C65.667 154.92 66.467 154.02 66.467 152.82V152.7H67.887V152.84C67.887 154.74 66.167 156.2 63.647 156.2ZM63.587 147.16C61.387 147.16 60.507 148.42 60.387 150.42H66.607C66.687 148.08 65.527 147.16 63.587 147.16ZM74.0675 156H72.2875L68.2475 146.12H69.8075L73.1475 154.6H73.2475L76.5675 146.12H78.1075L74.0675 156ZM82.8955 156.2C79.8555 156.2 78.2755 154.06 78.2755 151.06C78.2755 148.06 80.0555 145.92 82.8755 145.92C85.2555 145.92 87.2155 147.36 87.2155 150.28C87.2155 150.74 87.1755 151.18 87.1155 151.46H79.6355C79.6955 153.64 80.5555 154.92 82.9155 154.92C84.9155 154.92 85.7155 154.02 85.7155 152.82V152.7H87.1355V152.84C87.1355 154.74 85.4155 156.2 82.8955 156.2ZM82.8355 147.16C80.6355 147.16 79.7555 148.42 79.6355 150.42H85.8555C85.9355 148.08 84.7755 147.16 82.8355 147.16ZM90.3061 156H88.8661V146.12H90.1661V148.16H90.2261C90.6061 147.12 91.7261 145.92 93.7661 145.92C96.3061 145.92 97.4661 147.56 97.4661 149.94V156H96.0461V150.26C96.0461 148.12 95.3461 147.18 93.3261 147.18C91.3661 147.18 90.3061 148.1 90.3061 150.3V156ZM103.167 156.2C100.587 156.2 99.3873 154.42 99.3873 152.06V146.12H100.827V151.86C100.827 154 101.687 154.94 103.627 154.94C105.447 154.94 106.687 153.98 106.687 151.66V146.12H108.107V156H106.807V153.82H106.747C106.347 154.96 105.227 156.2 103.167 156.2ZM114.346 156.2C111.306 156.2 109.726 154.06 109.726 151.06C109.726 148.06 111.506 145.92 114.326 145.92C116.706 145.92 118.666 147.36 118.666 150.28C118.666 150.74 118.626 151.18 118.566 151.46H111.086C111.146 153.64 112.006 154.92 114.366 154.92C116.366 154.92 117.166 154.02 117.166 152.82V152.7H118.586V152.84C118.586 154.74 116.866 156.2 114.346 156.2ZM114.286 147.16C112.086 147.16 111.206 148.42 111.086 150.42H117.306C117.386 148.08 116.226 147.16 114.286 147.16ZM125.346 156H123.906V142.6H125.346V156ZM131.7 156.2C128.8 156.2 126.9 154.06 126.9 151.06C126.9 148.06 128.8 145.92 131.7 145.92C134.58 145.92 136.42 148.06 136.42 151.06C136.42 154.06 134.58 156.2 131.7 156.2ZM131.7 154.92C134.08 154.92 135.02 153.52 135.02 151.06C135.02 148.6 134.08 147.22 131.7 147.22C129.28 147.22 128.32 148.6 128.32 151.06C128.32 153.52 129.28 154.92 131.7 154.92ZM142.057 156.2C139.357 156.2 137.877 155.06 137.877 152.76V152.72H139.277V152.96C139.277 154.32 139.837 154.98 142.077 154.98C143.917 154.98 144.397 154.46 144.397 153.46C144.397 152.46 143.777 152.1 142.277 151.82L140.637 151.54C139.037 151.24 137.877 150.5 137.877 148.76C137.877 147.06 139.317 145.92 141.657 145.92C143.917 145.92 145.577 147.08 145.577 149.3V149.4H144.197V149.24C144.197 148.06 143.737 147.16 141.617 147.16C139.817 147.16 139.257 147.74 139.257 148.74C139.257 149.74 139.757 150.08 141.237 150.36L142.917 150.68C144.637 151 145.777 151.76 145.777 153.4C145.777 155.16 144.337 156.2 142.057 156.2ZM151.447 156.2C148.747 156.2 147.267 155.06 147.267 152.76V152.72H148.667V152.96C148.667 154.32 149.227 154.98 151.467 154.98C153.307 154.98 153.787 154.46 153.787 153.46C153.787 152.46 153.167 152.1 151.667 151.82L150.027 151.54C148.427 151.24 147.267 150.5 147.267 148.76C147.267 147.06 148.707 145.92 151.047 145.92C153.307 145.92 154.967 147.08 154.967 149.3V149.4H153.587V149.24C153.587 148.06 153.127 147.16 151.007 147.16C149.207 147.16 148.647 147.74 148.647 148.74C148.647 149.74 149.147 150.08 150.627 150.36L152.307 150.68C154.027 151 155.167 151.76 155.167 153.4C155.167 155.16 153.727 156.2 151.447 156.2ZM162.345 156H160.925V147.36H159.465V146.12H160.925V145.74C160.925 143.7 162.065 142.6 164.245 142.6H165.125V143.78H163.985C162.845 143.78 162.325 144.26 162.325 145.26V146.12H165.125V147.36H162.345V156ZM167.486 156H166.046V146H167.346V147.66H167.446C167.766 146.74 168.726 145.92 170.186 145.92C172.226 145.92 173.006 147.38 173.006 149.08V149.64H171.566V149.3C171.566 147.76 171.086 147.16 169.666 147.16C168.126 147.16 167.486 147.86 167.486 149.46V156ZM178.664 156.2C175.764 156.2 173.864 154.06 173.864 151.06C173.864 148.06 175.764 145.92 178.664 145.92C181.544 145.92 183.384 148.06 183.384 151.06C183.384 154.06 181.544 156.2 178.664 156.2ZM178.664 154.92C181.044 154.92 181.984 153.52 181.984 151.06C181.984 148.6 181.044 147.22 178.664 147.22C176.244 147.22 175.284 148.6 175.284 151.06C175.284 153.52 176.244 154.92 178.664 154.92ZM186.363 156H184.923V146.12H186.223V148.16H186.283C186.663 147.12 187.703 145.92 189.743 145.92C191.543 145.92 192.623 146.78 193.063 148.18H193.123C193.523 147.12 194.543 145.92 196.583 145.92C199.123 145.92 200.283 147.56 200.283 149.92V156H198.863V150.26C198.863 148.12 198.143 147.18 196.143 147.18C194.263 147.18 193.323 148.1 193.323 150.3V156H191.903V150.26C191.903 148.12 191.203 147.18 189.203 147.18C187.323 147.18 186.363 148.1 186.363 150.3V156ZM207.213 156H205.773V146.12H207.073V148.16H207.133C207.513 147.12 208.553 145.92 210.593 145.92C212.393 145.92 213.473 146.78 213.913 148.18H213.973C214.373 147.12 215.393 145.92 217.433 145.92C219.973 145.92 221.133 147.56 221.133 149.92V156H219.713V150.26C219.713 148.12 218.993 147.18 216.993 147.18C215.113 147.18 214.173 148.1 214.173 150.3V156H212.753V150.26C212.753 148.12 212.053 147.18 210.053 147.18C208.173 147.18 207.213 148.1 207.213 150.3V156ZM224.492 144.8H223.072V142.6H224.492V144.8ZM224.492 156H223.072V146H224.492V156ZM230.408 156.2C227.708 156.2 226.228 155.06 226.228 152.76V152.72H227.628V152.96C227.628 154.32 228.188 154.98 230.428 154.98C232.268 154.98 232.748 154.46 232.748 153.46C232.748 152.46 232.128 152.1 230.628 151.82L228.988 151.54C227.388 151.24 226.228 150.5 226.228 148.76C226.228 147.06 227.668 145.92 230.008 145.92C232.268 145.92 233.928 147.08 233.928 149.3V149.4H232.548V149.24C232.548 148.06 232.088 147.16 229.968 147.16C228.168 147.16 227.608 147.74 227.608 148.74C227.608 149.74 228.108 150.08 229.588 150.36L231.268 150.68C232.988 151 234.128 151.76 234.128 153.4C234.128 155.16 232.688 156.2 230.408 156.2ZM239.798 156.2C237.098 156.2 235.618 155.06 235.618 152.76V152.72H237.018V152.96C237.018 154.32 237.578 154.98 239.818 154.98C241.658 154.98 242.138 154.46 242.138 153.46C242.138 152.46 241.518 152.1 240.018 151.82L238.378 151.54C236.778 151.24 235.618 150.5 235.618 148.76C235.618 147.06 237.058 145.92 239.398 145.92C241.658 145.92 243.318 147.08 243.318 149.3V149.4H241.938V149.24C241.938 148.06 241.478 147.16 239.358 147.16C237.558 147.16 236.998 147.74 236.998 148.74C236.998 149.74 237.498 150.08 238.978 150.36L240.658 150.68C242.378 151 243.518 151.76 243.518 153.4C243.518 155.16 242.078 156.2 239.798 156.2ZM249.506 156.2C246.466 156.2 244.886 154.06 244.886 151.06C244.886 148.06 246.666 145.92 249.486 145.92C251.866 145.92 253.826 147.36 253.826 150.28C253.826 150.74 253.786 151.18 253.726 151.46H246.246C246.306 153.64 247.166 154.92 249.526 154.92C251.526 154.92 252.326 154.02 252.326 152.82V152.7H253.746V152.84C253.746 154.74 252.026 156.2 249.506 156.2ZM249.446 147.16C247.246 147.16 246.366 148.42 246.246 150.42H252.466C252.546 148.08 251.386 147.16 249.446 147.16ZM259.514 156.2C256.734 156.2 255.174 154.18 255.174 151.06C255.174 147.94 256.654 145.92 259.354 145.92C261.254 145.92 262.474 146.92 262.894 148V142.6H264.334V156H263.054V154.1H262.974C262.534 155.34 261.374 156.2 259.514 156.2ZM256.614 151.06C256.614 154.08 257.794 154.96 259.754 154.96C261.714 154.96 262.894 153.94 262.894 151.92V150.22C262.894 148.18 261.714 147.16 259.754 147.16C257.814 147.16 256.614 148.04 256.614 151.06ZM2.56 187.48H1.12V174.12H2.42V176.04H2.48C2.92 174.78 4.1 173.92 5.96 173.92C8.74 173.92 10.28 175.94 10.28 179.08C10.28 182.18 8.82 184.2 6.12 184.2C4.22 184.2 3 183.2 2.56 182.12V187.48ZM2.56 179.92C2.56 181.94 3.76 182.96 5.72 182.96C7.64 182.96 8.84 182.08 8.84 179.08C8.84 176.04 7.66 175.16 5.72 175.16C3.76 175.16 2.56 176.18 2.56 178.22V179.92ZM14.6356 184.2C12.8356 184.2 11.4756 183.28 11.4756 181.62C11.4756 179.9 12.7556 179.14 14.9156 178.84L18.3956 178.36V177.64C18.3956 175.9 17.6556 175.2 15.7956 175.2C13.9956 175.2 13.1556 175.9 13.1556 177.48V177.78H11.7756V177.62C11.7756 175.56 13.3556 173.92 15.9156 173.92C18.5556 173.92 19.7556 175.62 19.7556 177.82V184H18.4556V182.18L18.3556 182.16C17.7756 183.3 16.5156 184.2 14.6356 184.2ZM12.8756 181.52C12.8756 182.54 13.5156 183 15.0356 183C16.7356 183 18.3956 182.12 18.3956 179.78V179.44L15.0356 179.92C13.4556 180.14 12.8756 180.46 12.8756 181.52ZM22.6273 187.4C22.1473 187.4 21.6273 187.32 21.3473 187.26V186.1H22.4673C23.3673 186.1 23.6673 185.92 24.0273 185.14L24.5873 183.86L20.3473 174.12H21.9073L24.2273 179.62L25.2673 182.04H25.3873L26.3673 179.62L28.5473 174.12H30.1073L25.2873 185.58C24.6473 187.08 23.7073 187.4 22.6273 187.4ZM32.4873 184H31.0473V174.12H32.3473V176.16H32.4073C32.7873 175.12 33.8273 173.92 35.8673 173.92C37.6673 173.92 38.7473 174.78 39.1873 176.18H39.2473C39.6473 175.12 40.6673 173.92 42.7073 173.92C45.2473 173.92 46.4073 175.56 46.4073 177.92V184H44.9873V178.26C44.9873 176.12 44.2673 175.18 42.2673 175.18C40.3873 175.18 39.4473 176.1 39.4473 178.3V184H38.0273V178.26C38.0273 176.12 37.3273 175.18 35.3273 175.18C33.4473 175.18 32.4873 176.1 32.4873 178.3V184ZM52.5869 184.2C49.5469 184.2 47.9669 182.06 47.9669 179.06C47.9669 176.06 49.7469 173.92 52.5669 173.92C54.9469 173.92 56.9069 175.36 56.9069 178.28C56.9069 178.74 56.8669 179.18 56.8069 179.46H49.3269C49.3869 181.64 50.2469 182.92 52.6069 182.92C54.6069 182.92 55.4069 182.02 55.4069 180.82V180.7H56.8269V180.84C56.8269 182.74 55.1069 184.2 52.5869 184.2ZM52.5269 175.16C50.3269 175.16 49.4469 176.42 49.3269 178.42H55.5469C55.6269 176.08 54.4669 175.16 52.5269 175.16ZM59.9975 184H58.5575V174.12H59.8575V176.16H59.9175C60.2975 175.12 61.4175 173.92 63.4575 173.92C65.9975 173.92 67.1575 175.56 67.1575 177.94V184H65.7375V178.26C65.7375 176.12 65.0375 175.18 63.0175 175.18C61.0575 175.18 59.9975 176.1 59.9975 178.3V184ZM72.6825 184.02C70.8625 184.02 69.8025 183.3 69.8025 181.2V175.36H68.1425V174.12H69.8225L70.1625 171.6H71.2425V174.12H74.3625V175.36H71.2425V181.28C71.2425 182.44 71.7825 182.7 73.0625 182.7H74.3625V183.86C74.0225 183.92 73.4025 184.02 72.6825 184.02ZM79.345 184.2C76.645 184.2 75.165 183.06 75.165 180.76V180.72H76.565V180.96C76.565 182.32 77.125 182.98 79.365 182.98C81.205 182.98 81.685 182.46 81.685 181.46C81.685 180.46 81.065 180.1 79.565 179.82L77.925 179.54C76.325 179.24 75.165 178.5 75.165 176.76C75.165 175.06 76.605 173.92 78.945 173.92C81.205 173.92 82.865 175.08 82.865 177.3V177.4H81.485V177.24C81.485 176.06 81.025 175.16 78.905 175.16C77.105 175.16 76.545 175.74 76.545 176.74C76.545 177.74 77.045 178.08 78.525 178.36L80.205 178.68C81.925 179 83.065 179.76 83.065 181.4C83.065 183.16 81.625 184.2 79.345 184.2ZM91.0239 184.2C89.2239 184.2 87.8639 183.28 87.8639 181.62C87.8639 179.9 89.1439 179.14 91.3039 178.84L94.7839 178.36V177.64C94.7839 175.9 94.0439 175.2 92.1839 175.2C90.3839 175.2 89.5439 175.9 89.5439 177.48V177.78H88.1639V177.62C88.1639 175.56 89.7439 173.92 92.3039 173.92C94.9439 173.92 96.1439 175.62 96.1439 177.82V184H94.8439V182.18L94.7439 182.16C94.1639 183.3 92.9039 184.2 91.0239 184.2ZM89.2639 181.52C89.2639 182.54 89.9039 183 91.4239 183C93.1239 183 94.7839 182.12 94.7839 179.78V179.44L91.4239 179.92C89.8439 180.14 89.2639 180.46 89.2639 181.52ZM99.5834 184H98.1434V174.12H99.4434V176.16H99.5034C99.8834 175.12 101.003 173.92 103.043 173.92C105.583 173.92 106.743 175.56 106.743 177.94V184H105.323V178.26C105.323 176.12 104.623 175.18 102.603 175.18C100.643 175.18 99.5834 176.1 99.5834 178.3V184ZM112.626 184.2C109.846 184.2 108.286 182.18 108.286 179.06C108.286 175.94 109.766 173.92 112.466 173.92C114.366 173.92 115.586 174.92 116.006 176V170.6H117.446V184H116.166V182.1H116.086C115.646 183.34 114.486 184.2 112.626 184.2ZM109.726 179.06C109.726 182.08 110.906 182.96 112.866 182.96C114.826 182.96 116.006 181.94 116.006 179.92V178.22C116.006 176.18 114.826 175.16 112.866 175.16C110.926 175.16 109.726 176.04 109.726 179.06ZM126.913 184.2C124.133 184.2 122.573 182.18 122.573 179.06C122.573 175.94 124.053 173.92 126.753 173.92C128.653 173.92 129.873 174.92 130.293 176V170.6H131.733V184H130.453V182.1H130.373C129.933 183.34 128.773 184.2 126.913 184.2ZM124.013 179.06C124.013 182.08 125.193 182.96 127.153 182.96C129.113 182.96 130.293 181.94 130.293 179.92V178.22C130.293 176.18 129.113 175.16 127.153 175.16C125.213 175.16 124.013 176.04 124.013 179.06ZM137.911 184.2C134.871 184.2 133.291 182.06 133.291 179.06C133.291 176.06 135.071 173.92 137.891 173.92C140.271 173.92 142.231 175.36 142.231 178.28C142.231 178.74 142.191 179.18 142.131 179.46H134.651C134.711 181.64 135.571 182.92 137.931 182.92C139.931 182.92 140.731 182.02 140.731 180.82V180.7H142.151V180.84C142.151 182.74 140.431 184.2 137.911 184.2ZM137.851 175.16C135.651 175.16 134.771 176.42 134.651 178.42H140.871C140.951 176.08 139.791 175.16 137.851 175.16ZM145.704 184H144.284V175.36H142.824V174.12H144.284V173.74C144.284 171.7 145.424 170.6 147.604 170.6H148.484V171.78H147.344C146.204 171.78 145.684 172.26 145.684 173.26V174.12H148.484V175.36H145.704V184ZM151.831 184.2C150.031 184.2 148.671 183.28 148.671 181.62C148.671 179.9 149.951 179.14 152.111 178.84L155.591 178.36V177.64C155.591 175.9 154.851 175.2 152.991 175.2C151.191 175.2 150.351 175.9 150.351 177.48V177.78H148.971V177.62C148.971 175.56 150.551 173.92 153.111 173.92C155.751 173.92 156.951 175.62 156.951 177.82V184H155.651V182.18L155.551 182.16C154.971 183.3 153.711 184.2 151.831 184.2ZM150.071 181.52C150.071 182.54 150.711 183 152.231 183C153.931 183 155.591 182.12 155.591 179.78V179.44L152.231 179.92C150.651 180.14 150.071 180.46 150.071 181.52ZM162.67 184.2C160.09 184.2 158.89 182.42 158.89 180.06V174.12H160.33V179.86C160.33 182 161.19 182.94 163.13 182.94C164.95 182.94 166.19 181.98 166.19 179.66V174.12H167.61V184H166.31V181.82H166.25C165.85 182.96 164.73 184.2 162.67 184.2ZM171.108 184H169.668V170.6H171.108V184ZM176.704 184.02C174.884 184.02 173.824 183.3 173.824 181.2V175.36H172.164V174.12H173.844L174.184 171.6H175.264V174.12H178.384V175.36H175.264V181.28C175.264 182.44 175.804 182.7 177.084 182.7H178.384V183.86C178.044 183.92 177.424 184.02 176.704 184.02ZM183.366 184.2C180.666 184.2 179.186 183.06 179.186 180.76V180.72H180.586V180.96C180.586 182.32 181.146 182.98 183.386 182.98C185.226 182.98 185.706 182.46 185.706 181.46C185.706 180.46 185.086 180.1 183.586 179.82L181.946 179.54C180.346 179.24 179.186 178.5 179.186 176.76C179.186 175.06 180.626 173.92 182.966 173.92C185.226 173.92 186.886 175.08 186.886 177.3V177.4H185.506V177.24C185.506 176.06 185.046 175.16 182.926 175.16C181.126 175.16 180.566 175.74 180.566 176.74C180.566 177.74 181.066 178.08 182.546 178.36L184.226 178.68C185.946 179 187.086 179.76 187.086 181.4C187.086 183.16 185.646 184.2 183.366 184.2ZM190.114 184H188.354V181.22H190.114V184ZM201.513 184H199.613L194.353 170.6H195.953L200.553 182.4H200.653L205.213 170.6H206.773L201.513 184ZM209.047 172.8H207.627V170.6H209.047V172.8ZM209.047 184H207.627V174H209.047V184ZM214.865 184.2C212.085 184.2 210.525 182.18 210.525 179.06C210.525 175.94 212.005 173.92 214.705 173.92C216.605 173.92 217.825 174.92 218.245 176V170.6H219.685V184H218.405V182.1H218.325C217.885 183.34 216.725 184.2 214.865 184.2ZM211.965 179.06C211.965 182.08 213.145 182.96 215.105 182.96C217.065 182.96 218.245 181.94 218.245 179.92V178.22C218.245 176.18 217.065 175.16 215.105 175.16C213.165 175.16 211.965 176.04 211.965 179.06ZM224.362 184.2C222.562 184.2 221.202 183.28 221.202 181.62C221.202 179.9 222.482 179.14 224.642 178.84L228.122 178.36V177.64C228.122 175.9 227.382 175.2 225.522 175.2C223.722 175.2 222.882 175.9 222.882 177.48V177.78H221.502V177.62C221.502 175.56 223.082 173.92 225.642 173.92C228.282 173.92 229.482 175.62 229.482 177.82V184H228.182V182.18L228.082 182.16C227.502 183.3 226.242 184.2 224.362 184.2ZM222.602 181.52C222.602 182.54 223.242 183 224.762 183C226.462 183 228.122 182.12 228.122 179.78V179.44L224.762 179.92C223.182 180.14 222.602 180.46 222.602 181.52ZM231.362 175.22H230.922V174.28H231.322C231.602 174.28 231.742 174.22 231.742 173.88V173.38H230.962V170.6H232.722V173.86C232.722 174.8 232.202 175.22 231.362 175.22ZM238.29 184.2C235.59 184.2 234.11 183.06 234.11 180.76V180.72H235.51V180.96C235.51 182.32 236.07 182.98 238.31 182.98C240.15 182.98 240.63 182.46 240.63 181.46C240.63 180.46 240.01 180.1 238.51 179.82L236.87 179.54C235.27 179.24 234.11 178.5 234.11 176.76C234.11 175.06 235.55 173.92 237.89 173.92C240.15 173.92 241.81 175.08 241.81 177.3V177.4H240.43V177.24C240.43 176.06 239.97 175.16 237.85 175.16C236.05 175.16 235.49 175.74 235.49 176.74C235.49 177.74 235.99 178.08 237.47 178.36L239.15 178.68C240.87 179 242.01 179.76 242.01 181.4C242.01 183.16 240.57 184.2 238.29 184.2ZM251.268 184.2C248.568 184.2 247.088 183.06 247.088 180.76V180.72H248.488V180.96C248.488 182.32 249.048 182.98 251.288 182.98C253.128 182.98 253.608 182.46 253.608 181.46C253.608 180.46 252.988 180.1 251.488 179.82L249.848 179.54C248.248 179.24 247.088 178.5 247.088 176.76C247.088 175.06 248.528 173.92 250.868 173.92C253.128 173.92 254.788 175.08 254.788 177.3V177.4H253.408V177.24C253.408 176.06 252.948 175.16 250.828 175.16C249.028 175.16 248.468 175.74 248.468 176.74C248.468 177.74 248.968 178.08 250.448 178.36L252.128 178.68C253.848 179 254.988 179.76 254.988 181.4C254.988 183.16 253.548 184.2 251.268 184.2ZM260.976 184.2C257.936 184.2 256.356 182.06 256.356 179.06C256.356 176.06 258.136 173.92 260.956 173.92C263.336 173.92 265.296 175.36 265.296 178.28C265.296 178.74 265.256 179.18 265.196 179.46H257.716C257.776 181.64 258.636 182.92 260.996 182.92C262.996 182.92 263.796 182.02 263.796 180.82V180.7H265.216V180.84C265.216 182.74 263.496 184.2 260.976 184.2ZM260.916 175.16C258.716 175.16 257.836 176.42 257.716 178.42H263.936C264.016 176.08 262.856 175.16 260.916 175.16ZM269.764 184.2C267.964 184.2 266.604 183.28 266.604 181.62C266.604 179.9 267.884 179.14 270.044 178.84L273.524 178.36V177.64C273.524 175.9 272.784 175.2 270.924 175.2C269.124 175.2 268.284 175.9 268.284 177.48V177.78H266.904V177.62C266.904 175.56 268.484 173.92 271.044 173.92C273.684 173.92 274.884 175.62 274.884 177.82V184H273.584V182.18L273.484 182.16C272.904 183.3 271.644 184.2 269.764 184.2ZM268.004 181.52C268.004 182.54 268.644 183 270.164 183C271.864 183 273.524 182.12 273.524 179.78V179.44L270.164 179.92C268.584 180.14 268.004 180.46 268.004 181.52ZM278.323 184H276.883V174.12H278.183V176.16H278.243C278.623 175.12 279.663 173.92 281.703 173.92C283.503 173.92 284.583 174.78 285.023 176.18H285.083C285.483 175.12 286.503 173.92 288.543 173.92C291.083 173.92 292.243 175.56 292.243 177.92V184H290.823V178.26C290.823 176.12 290.103 175.18 288.103 175.18C286.223 175.18 285.283 176.1 285.283 178.3V184H283.863V178.26C283.863 176.12 283.163 175.18 281.163 175.18C279.283 175.18 278.323 176.1 278.323 178.3V184ZM295.682 184H294.242V170.6H295.682V184ZM301.856 184.2C298.816 184.2 297.236 182.06 297.236 179.06C297.236 176.06 299.016 173.92 301.836 173.92C304.216 173.92 306.176 175.36 306.176 178.28C306.176 178.74 306.136 179.18 306.076 179.46H298.596C298.656 181.64 299.516 182.92 301.876 182.92C303.876 182.92 304.676 182.02 304.676 180.82V180.7H306.096V180.84C306.096 182.74 304.376 184.2 301.856 184.2ZM301.796 175.16C299.596 175.16 298.716 176.42 298.596 178.42H304.816C304.896 176.08 303.736 175.16 301.796 175.16ZM311.924 184.2C309.224 184.2 307.744 183.06 307.744 180.76V180.72H309.144V180.96C309.144 182.32 309.704 182.98 311.944 182.98C313.784 182.98 314.264 182.46 314.264 181.46C314.264 180.46 313.644 180.1 312.144 179.82L310.504 179.54C308.904 179.24 307.744 178.5 307.744 176.76C307.744 175.06 309.184 173.92 311.524 173.92C313.784 173.92 315.444 175.08 315.444 177.3V177.4H314.064V177.24C314.064 176.06 313.604 175.16 311.484 175.16C309.684 175.16 309.124 175.74 309.124 176.74C309.124 177.74 309.624 178.08 311.104 178.36L312.784 178.68C314.504 179 315.644 179.76 315.644 181.4C315.644 183.16 314.204 184.2 311.924 184.2ZM321.314 184.2C318.614 184.2 317.134 183.06 317.134 180.76V180.72H318.534V180.96C318.534 182.32 319.094 182.98 321.334 182.98C323.174 182.98 323.654 182.46 323.654 181.46C323.654 180.46 323.034 180.1 321.534 179.82L319.894 179.54C318.294 179.24 317.134 178.5 317.134 176.76C317.134 175.06 318.574 173.92 320.914 173.92C323.174 173.92 324.834 175.08 324.834 177.3V177.4H323.454V177.24C323.454 176.06 322.994 175.16 320.874 175.16C319.074 175.16 318.514 175.74 318.514 176.74C318.514 177.74 319.014 178.08 320.494 178.36L322.174 178.68C323.894 179 325.034 179.76 325.034 181.4C325.034 183.16 323.594 184.2 321.314 184.2ZM2.56 212H1.12V202H2.42V203.66H2.52C2.84 202.74 3.8 201.92 5.26 201.92C7.3 201.92 8.08 203.38 8.08 205.08V205.64H6.64V205.3C6.64 203.76 6.16 203.16 4.74 203.16C3.2 203.16 2.56 203.86 2.56 205.46V212ZM13.558 212.2C10.518 212.2 8.93797 210.06 8.93797 207.06C8.93797 204.06 10.718 201.92 13.538 201.92C15.918 201.92 17.878 203.36 17.878 206.28C17.878 206.74 17.838 207.18 17.778 207.46H10.298C10.358 209.64 11.218 210.92 13.578 210.92C15.578 210.92 16.378 210.02 16.378 208.82V208.7H17.798V208.84C17.798 210.74 16.078 212.2 13.558 212.2ZM13.498 203.16C11.298 203.16 10.418 204.42 10.298 206.42H16.518C16.598 204.08 15.438 203.16 13.498 203.16ZM20.9686 215.48H19.5286V202.12H20.8286V204.04H20.8886C21.3286 202.78 22.5086 201.92 24.3686 201.92C27.1486 201.92 28.6886 203.94 28.6886 207.08C28.6886 210.18 27.2286 212.2 24.5286 212.2C22.6286 212.2 21.4086 211.2 20.9686 210.12V215.48ZM20.9686 207.92C20.9686 209.94 22.1686 210.96 24.1286 210.96C26.0486 210.96 27.2486 210.08 27.2486 207.08C27.2486 204.04 26.0686 203.16 24.1286 203.16C22.1686 203.16 20.9686 204.18 20.9686 206.22V207.92ZM33.0442 212.2C31.2442 212.2 29.8842 211.28 29.8842 209.62C29.8842 207.9 31.1642 207.14 33.3242 206.84L36.8042 206.36V205.64C36.8042 203.9 36.0642 203.2 34.2042 203.2C32.4042 203.2 31.5642 203.9 31.5642 205.48V205.78H30.1842V205.62C30.1842 203.56 31.7642 201.92 34.3242 201.92C36.9642 201.92 38.1642 203.62 38.1642 205.82V212H36.8642V210.18L36.7642 210.16C36.1842 211.3 34.9242 212.2 33.0442 212.2ZM31.2842 209.52C31.2842 210.54 31.9242 211 33.4442 211C35.1442 211 36.8042 210.12 36.8042 207.78V207.44L33.4442 207.92C31.8642 208.14 31.2842 208.46 31.2842 209.52ZM41.0359 215.4C40.5559 215.4 40.0359 215.32 39.7559 215.26V214.1H40.8759C41.7759 214.1 42.0759 213.92 42.4359 213.14L42.9959 211.86L38.7559 202.12H40.3159L42.6359 207.62L43.6759 210.04H43.7959L44.7759 207.62L46.9559 202.12H48.5159L43.6959 213.58C43.0559 215.08 42.1159 215.4 41.0359 215.4ZM50.8959 212H49.4559V202.12H50.7559V204.16H50.8159C51.1959 203.12 52.2359 201.92 54.2759 201.92C56.0759 201.92 57.1559 202.78 57.5959 204.18H57.6559C58.0559 203.12 59.0759 201.92 61.1159 201.92C63.6559 201.92 64.8159 203.56 64.8159 205.92V212H63.3959V206.26C63.3959 204.12 62.6759 203.18 60.6759 203.18C58.7959 203.18 57.8559 204.1 57.8559 206.3V212H56.4359V206.26C56.4359 204.12 55.7359 203.18 53.7359 203.18C51.8559 203.18 50.8959 204.1 50.8959 206.3V212ZM70.9955 212.2C67.9555 212.2 66.3755 210.06 66.3755 207.06C66.3755 204.06 68.1555 201.92 70.9755 201.92C73.3555 201.92 75.3155 203.36 75.3155 206.28C75.3155 206.74 75.2755 207.18 75.2155 207.46H67.7355C67.7955 209.64 68.6555 210.92 71.0155 210.92C73.0155 210.92 73.8155 210.02 73.8155 208.82V208.7H75.2355V208.84C75.2355 210.74 73.5155 212.2 70.9955 212.2ZM70.9355 203.16C68.7355 203.16 67.8555 204.42 67.7355 206.42H73.9555C74.0355 204.08 72.8755 203.16 70.9355 203.16ZM78.4061 212H76.9661V202.12H78.2661V204.16H78.3261C78.7061 203.12 79.8261 201.92 81.8661 201.92C84.4061 201.92 85.5661 203.56 85.5661 205.94V212H84.1461V206.26C84.1461 204.12 83.4461 203.18 81.4261 203.18C79.4661 203.18 78.4061 204.1 78.4061 206.3V212ZM91.0911 212.02C89.2711 212.02 88.2111 211.3 88.2111 209.2V203.36H86.5511V202.12H88.2311L88.5711 199.6H89.6511V202.12H92.7711V203.36H89.6511V209.28C89.6511 210.44 90.1911 210.7 91.4711 210.7H92.7711V211.86C92.4311 211.92 91.8111 212.02 91.0911 212.02ZM101.779 212.22C98.8589 212.22 97.0989 210.08 97.0989 207.08C97.0989 204.06 98.8589 201.92 101.779 201.92C104.299 201.92 105.999 203.54 105.999 205.86V206H104.579V205.88C104.579 204.16 103.659 203.22 101.719 203.22C99.4589 203.22 98.5189 204.64 98.5189 207.08C98.5189 209.5 99.4589 210.92 101.719 210.92C103.659 210.92 104.579 209.98 104.579 208.26V208.14H105.999V208.28C105.999 210.6 104.299 212.22 101.779 212.22ZM112.05 212.2C109.15 212.2 107.25 210.06 107.25 207.06C107.25 204.06 109.15 201.92 112.05 201.92C114.93 201.92 116.77 204.06 116.77 207.06C116.77 210.06 114.93 212.2 112.05 212.2ZM112.05 210.92C114.43 210.92 115.37 209.52 115.37 207.06C115.37 204.6 114.43 203.22 112.05 203.22C109.63 203.22 108.67 204.6 108.67 207.06C108.67 209.52 109.63 210.92 112.05 210.92ZM119.769 212H118.329V198.6H119.769V212ZM123.358 212H121.918V198.6H123.358V212ZM129.532 212.2C126.492 212.2 124.912 210.06 124.912 207.06C124.912 204.06 126.692 201.92 129.512 201.92C131.892 201.92 133.852 203.36 133.852 206.28C133.852 206.74 133.812 207.18 133.752 207.46H126.272C126.332 209.64 127.192 210.92 129.552 210.92C131.552 210.92 132.352 210.02 132.352 208.82V208.7H133.772V208.84C133.772 210.74 132.052 212.2 129.532 212.2ZM129.472 203.16C127.272 203.16 126.392 204.42 126.272 206.42H132.492C132.572 204.08 131.412 203.16 129.472 203.16ZM139.88 212.22C136.96 212.22 135.2 210.08 135.2 207.08C135.2 204.06 136.96 201.92 139.88 201.92C142.4 201.92 144.1 203.54 144.1 205.86V206H142.68V205.88C142.68 204.16 141.76 203.22 139.82 203.22C137.56 203.22 136.62 204.64 136.62 207.08C136.62 209.5 137.56 210.92 139.82 210.92C141.76 210.92 142.68 209.98 142.68 208.26V208.14H144.1V208.28C144.1 210.6 142.4 212.22 139.88 212.22ZM149.257 212.02C147.437 212.02 146.377 211.3 146.377 209.2V203.36H144.717V202.12H146.397L146.737 199.6H147.817V202.12H150.937V203.36H147.817V209.28C147.817 210.44 148.357 210.7 149.637 210.7H150.937V211.86C150.597 211.92 149.977 212.02 149.257 212.02ZM153.416 200.8H151.996V198.6H153.416V200.8ZM153.416 212H151.996V202H153.416V212ZM159.693 212.2C156.793 212.2 154.893 210.06 154.893 207.06C154.893 204.06 156.793 201.92 159.693 201.92C162.573 201.92 164.413 204.06 164.413 207.06C164.413 210.06 162.573 212.2 159.693 212.2ZM159.693 210.92C162.073 210.92 163.013 209.52 163.013 207.06C163.013 204.6 162.073 203.22 159.693 203.22C157.273 203.22 156.313 204.6 156.313 207.06C156.313 209.52 157.273 210.92 159.693 210.92ZM167.393 212H165.953V202.12H167.253V204.16H167.313C167.693 203.12 168.813 201.92 170.853 201.92C173.393 201.92 174.553 203.56 174.553 205.94V212H173.133V206.26C173.133 204.12 172.433 203.18 170.413 203.18C168.453 203.18 167.393 204.1 167.393 206.3V212ZM181.385 200.8H179.965V198.6H181.385V200.8ZM181.385 212H179.965V202H181.385V212ZM184.801 212H183.361V202.12H184.661V204.16H184.721C185.101 203.12 186.221 201.92 188.261 201.92C190.801 201.92 191.961 203.56 191.961 205.94V212H190.541V206.26C190.541 204.12 189.841 203.18 187.821 203.18C185.861 203.18 184.801 204.1 184.801 206.3V212ZM197.486 212.02C195.666 212.02 194.606 211.3 194.606 209.2V203.36H192.946V202.12H194.626L194.966 199.6H196.046V202.12H199.166V203.36H196.046V209.28C196.046 210.44 196.586 210.7 197.866 210.7H199.166V211.86C198.826 211.92 198.206 212.02 197.486 212.02ZM204.173 212.2C201.133 212.2 199.553 210.06 199.553 207.06C199.553 204.06 201.333 201.92 204.153 201.92C206.533 201.92 208.493 203.36 208.493 206.28C208.493 206.74 208.453 207.18 208.393 207.46H200.913C200.973 209.64 201.833 210.92 204.193 210.92C206.193 210.92 206.993 210.02 206.993 208.82V208.7H208.413V208.84C208.413 210.74 206.693 212.2 204.173 212.2ZM204.113 203.16C201.913 203.16 201.033 204.42 200.913 206.42H207.133C207.213 204.08 206.053 203.16 204.113 203.16ZM214.121 211.12C211.401 211.12 209.841 209.32 209.841 206.52C209.841 203.72 211.381 201.92 214.141 201.92C215.881 201.92 217.201 202.78 217.641 204.04H217.721V202.12H219.001V211.58C219.001 214.26 217.281 215.6 214.681 215.6C212.161 215.6 210.381 214.28 210.381 212H211.801C211.801 213.62 212.621 214.32 214.701 214.32C216.821 214.32 217.561 213.56 217.561 211.58V209.06H217.541C217.081 210.2 215.841 211.12 214.121 211.12ZM211.281 206.52C211.281 209.14 212.541 209.88 214.461 209.88C216.241 209.88 217.561 208.86 217.561 206.82V206.22C217.561 204.18 216.221 203.16 214.381 203.16C212.501 203.16 211.281 203.92 211.281 206.52ZM222.477 212H221.037V202H222.337V203.66H222.437C222.757 202.74 223.717 201.92 225.177 201.92C227.217 201.92 227.997 203.38 227.997 205.08V205.64H226.557V205.3C226.557 203.76 226.077 203.16 224.657 203.16C223.117 203.16 222.477 203.86 222.477 205.46V212ZM231.701 212.2C229.901 212.2 228.541 211.28 228.541 209.62C228.541 207.9 229.821 207.14 231.981 206.84L235.461 206.36V205.64C235.461 203.9 234.721 203.2 232.861 203.2C231.061 203.2 230.221 203.9 230.221 205.48V205.78H228.841V205.62C228.841 203.56 230.421 201.92 232.981 201.92C235.621 201.92 236.821 203.62 236.821 205.82V212H235.521V210.18L235.421 210.16C234.841 211.3 233.581 212.2 231.701 212.2ZM229.941 209.52C229.941 210.54 230.581 211 232.101 211C233.801 211 235.461 210.12 235.461 207.78V207.44L232.101 207.92C230.521 208.14 229.941 208.46 229.941 209.52ZM242.365 212.02C240.545 212.02 239.485 211.3 239.485 209.2V203.36H237.825V202.12H239.505L239.845 199.6H240.925V202.12H244.045V203.36H240.925V209.28C240.925 210.44 241.465 210.7 242.745 210.7H244.045V211.86C243.705 211.92 243.085 212.02 242.365 212.02ZM249.052 212.2C246.012 212.2 244.432 210.06 244.432 207.06C244.432 204.06 246.212 201.92 249.032 201.92C251.412 201.92 253.372 203.36 253.372 206.28C253.372 206.74 253.332 207.18 253.272 207.46H245.792C245.852 209.64 246.712 210.92 249.072 210.92C251.072 210.92 251.872 210.02 251.872 208.82V208.7H253.292V208.84C253.292 210.74 251.572 212.2 249.052 212.2ZM248.992 203.16C246.792 203.16 245.912 204.42 245.792 206.42H252.012C252.092 204.08 250.932 203.16 248.992 203.16ZM259.12 212.2C256.42 212.2 254.94 211.06 254.94 208.76V208.72H256.34V208.96C256.34 210.32 256.9 210.98 259.14 210.98C260.98 210.98 261.46 210.46 261.46 209.46C261.46 208.46 260.84 208.1 259.34 207.82L257.7 207.54C256.1 207.24 254.94 206.5 254.94 204.76C254.94 203.06 256.38 201.92 258.72 201.92C260.98 201.92 262.64 203.08 262.64 205.3V205.4H261.26V205.24C261.26 204.06 260.8 203.16 258.68 203.16C256.88 203.16 256.32 203.74 256.32 204.74C256.32 205.74 256.82 206.08 258.3 206.36L259.98 206.68C261.7 207 262.84 207.76 262.84 209.4C262.84 211.16 261.4 212.2 259.12 212.2ZM272.039 212.2C269.259 212.2 267.699 210.18 267.699 207.06C267.699 203.94 269.179 201.92 271.879 201.92C273.779 201.92 274.999 202.92 275.419 204V198.6H276.859V212H275.579V210.1H275.499C275.059 211.34 273.899 212.2 272.039 212.2ZM269.139 207.06C269.139 210.08 270.319 210.96 272.279 210.96C274.239 210.96 275.419 209.94 275.419 207.92V206.22C275.419 204.18 274.239 203.16 272.279 203.16C270.339 203.16 269.139 204.04 269.139 207.06ZM280.255 200.8H278.835V198.6H280.255V200.8ZM280.255 212H278.835V202H280.255V212ZM283.67 212H282.23V202H283.53V203.66H283.63C283.95 202.74 284.91 201.92 286.37 201.92C288.41 201.92 289.19 203.38 289.19 205.08V205.64H287.75V205.3C287.75 203.76 287.27 203.16 285.85 203.16C284.31 203.16 283.67 203.86 283.67 205.46V212ZM294.668 212.2C291.628 212.2 290.048 210.06 290.048 207.06C290.048 204.06 291.828 201.92 294.648 201.92C297.028 201.92 298.988 203.36 298.988 206.28C298.988 206.74 298.948 207.18 298.888 207.46H291.408C291.468 209.64 292.328 210.92 294.688 210.92C296.688 210.92 297.488 210.02 297.488 208.82V208.7H298.908V208.84C298.908 210.74 297.188 212.2 294.668 212.2ZM294.608 203.16C292.408 203.16 291.528 204.42 291.408 206.42H297.628C297.708 204.08 296.548 203.16 294.608 203.16ZM305.016 212.22C302.096 212.22 300.336 210.08 300.336 207.08C300.336 204.06 302.096 201.92 305.016 201.92C307.536 201.92 309.236 203.54 309.236 205.86V206H307.816V205.88C307.816 204.16 306.896 203.22 304.956 203.22C302.696 203.22 301.756 204.64 301.756 207.08C301.756 209.5 302.696 210.92 304.956 210.92C306.896 210.92 307.816 209.98 307.816 208.26V208.14H309.236V208.28C309.236 210.6 307.536 212.22 305.016 212.22ZM314.393 212.02C312.573 212.02 311.513 211.3 311.513 209.2V203.36H309.853V202.12H311.533L311.873 199.6H312.953V202.12H316.073V203.36H312.953V209.28C312.953 210.44 313.493 210.7 314.773 210.7H316.073V211.86C315.733 211.92 315.113 212.02 314.393 212.02ZM318.808 212H317.368V198.6H318.808V212ZM322.044 215.4C321.564 215.4 321.044 215.32 320.764 215.26V214.1H321.884C322.784 214.1 323.084 213.92 323.444 213.14L324.004 211.86L319.764 202.12H321.324L323.644 207.62L324.684 210.04H324.804L325.784 207.62L327.964 202.12H329.524L324.704 213.58C324.064 215.08 323.124 215.4 322.044 215.4ZM4.68 240H2.8L0.26 230.12H1.78L3.34 236.56L3.74 238.7H3.86L4.52 236.56L6.78 230.12H8.68L10.98 236.56L11.6 238.7H11.72L12.12 236.56L13.68 230.12H15.16L12.62 240H10.74L8.52 233.76L7.78 231.42H7.66L6.92 233.76L4.68 240ZM17.5144 228.8H16.0944V226.6H17.5144V228.8ZM17.5144 240H16.0944V230H17.5144V240ZM23.0723 240.02C21.2523 240.02 20.1923 239.3 20.1923 237.2V231.36H18.5323V230.12H20.2123L20.5523 227.6H21.6323V230.12H24.7523V231.36H21.6323V237.28C21.6323 238.44 22.1723 238.7 23.4523 238.7H24.7523V239.86C24.4123 239.92 23.7923 240.02 23.0723 240.02ZM27.4873 240H26.0473V226.6H27.4873V231.96H27.5673C27.9473 231.02 28.9673 229.92 30.9673 229.92C33.5473 229.92 34.6473 231.64 34.6473 233.9V240H33.2273V234.26C33.2273 232.12 32.5073 231.18 30.5073 231.18C28.5273 231.18 27.4873 232.1 27.4873 234.32V240ZM44.5367 240.22C41.6167 240.22 39.8567 238.08 39.8567 235.08C39.8567 232.06 41.6167 229.92 44.5367 229.92C47.0567 229.92 48.7567 231.54 48.7567 233.86V234H47.3367V233.88C47.3367 232.16 46.4167 231.22 44.4767 231.22C42.2167 231.22 41.2767 232.64 41.2767 235.08C41.2767 237.5 42.2167 238.92 44.4767 238.92C46.4167 238.92 47.3367 237.98 47.3367 236.26V236.14H48.7567V236.28C48.7567 238.6 47.0567 240.22 44.5367 240.22ZM54.0306 240.2C51.4506 240.2 50.2506 238.42 50.2506 236.06V230.12H51.6906V235.86C51.6906 238 52.5506 238.94 54.4906 238.94C56.3106 238.94 57.5506 237.98 57.5506 235.66V230.12H58.9706V240H57.6706V237.82H57.6106C57.2106 238.96 56.0906 240.2 54.0306 240.2ZM64.97 240.2C62.27 240.2 60.79 239.06 60.79 236.76V236.72H62.19V236.96C62.19 238.32 62.75 238.98 64.99 238.98C66.83 238.98 67.31 238.46 67.31 237.46C67.31 236.46 66.69 236.1 65.19 235.82L63.55 235.54C61.95 235.24 60.79 234.5 60.79 232.76C60.79 231.06 62.23 229.92 64.57 229.92C66.83 229.92 68.49 231.08 68.49 233.3V233.4H67.11V233.24C67.11 232.06 66.65 231.16 64.53 231.16C62.73 231.16 62.17 231.74 62.17 232.74C62.17 233.74 62.67 234.08 64.15 234.36L65.83 234.68C67.55 235 68.69 235.76 68.69 237.4C68.69 239.16 67.25 240.2 64.97 240.2ZM74.0403 240.02C72.2203 240.02 71.1603 239.3 71.1603 237.2V231.36H69.5003V230.12H71.1803L71.5203 227.6H72.6003V230.12H75.7203V231.36H72.6003V237.28C72.6003 238.44 73.1403 238.7 74.4203 238.7H75.7203V239.86C75.3803 239.92 74.7603 240.02 74.0403 240.02ZM80.9075 240.2C78.0075 240.2 76.1075 238.06 76.1075 235.06C76.1075 232.06 78.0075 229.92 80.9075 229.92C83.7875 229.92 85.6275 232.06 85.6275 235.06C85.6275 238.06 83.7875 240.2 80.9075 240.2ZM80.9075 238.92C83.2875 238.92 84.2275 237.52 84.2275 235.06C84.2275 232.6 83.2875 231.22 80.9075 231.22C78.4875 231.22 77.5275 232.6 77.5275 235.06C77.5275 237.52 78.4875 238.92 80.9075 238.92ZM88.6069 240H87.1669V230.12H88.4669V232.16H88.5269C88.9069 231.12 89.9469 229.92 91.9869 229.92C93.7869 229.92 94.8669 230.78 95.3069 232.18H95.3669C95.7669 231.12 96.7869 229.92 98.8269 229.92C101.367 229.92 102.527 231.56 102.527 233.92V240H101.107V234.26C101.107 232.12 100.387 231.18 98.3869 231.18C96.5069 231.18 95.5669 232.1 95.5669 234.3V240H94.1469V234.26C94.1469 232.12 93.4469 231.18 91.4469 231.18C89.5669 231.18 88.6069 232.1 88.6069 234.3V240ZM108.706 240.2C105.666 240.2 104.086 238.06 104.086 235.06C104.086 232.06 105.866 229.92 108.686 229.92C111.066 229.92 113.026 231.36 113.026 234.28C113.026 234.74 112.986 235.18 112.926 235.46H105.446C105.506 237.64 106.366 238.92 108.726 238.92C110.726 238.92 111.526 238.02 111.526 236.82V236.7H112.946V236.84C112.946 238.74 111.226 240.2 108.706 240.2ZM108.646 231.16C106.446 231.16 105.566 232.42 105.446 234.42H111.666C111.746 232.08 110.586 231.16 108.646 231.16ZM116.117 240H114.677V230H115.977V231.66H116.077C116.397 230.74 117.357 229.92 118.817 229.92C120.857 229.92 121.637 231.38 121.637 233.08V233.64H120.197V233.3C120.197 231.76 119.717 231.16 118.297 231.16C116.757 231.16 116.117 231.86 116.117 233.46V240ZM127.862 240H126.562V226.6H128.002V232C128.442 230.92 129.662 229.92 131.562 229.92C134.262 229.92 135.722 231.94 135.722 235.06C135.722 238.18 134.182 240.2 131.402 240.2C129.542 240.2 128.362 239.34 127.922 238.1H127.862V240ZM128.002 235.92C128.002 237.94 129.202 238.96 131.162 238.96C133.102 238.96 134.282 238.08 134.282 235.06C134.282 232.04 133.082 231.16 131.162 231.16C129.202 231.16 128.002 232.18 128.002 234.22V235.92ZM140.078 240.2C138.278 240.2 136.918 239.28 136.918 237.62C136.918 235.9 138.198 235.14 140.358 234.84L143.838 234.36V233.64C143.838 231.9 143.098 231.2 141.238 231.2C139.438 231.2 138.598 231.9 138.598 233.48V233.78H137.218V233.62C137.218 231.56 138.798 229.92 141.358 229.92C143.998 229.92 145.198 231.62 145.198 233.82V240H143.898V238.18L143.798 238.16C143.218 239.3 141.958 240.2 140.078 240.2ZM138.318 237.52C138.318 238.54 138.958 239 140.478 239C142.178 239 143.838 238.12 143.838 235.78V235.44L140.478 235.92C138.898 236.14 138.318 236.46 138.318 237.52ZM148.637 240H147.197V230.12H148.497V232.16H148.557C148.937 231.12 150.057 229.92 152.097 229.92C154.637 229.92 155.797 231.56 155.797 233.94V240H154.377V234.26C154.377 232.12 153.677 231.18 151.657 231.18C149.697 231.18 148.637 232.1 148.637 234.3V240ZM159.219 240H157.779V226.6H159.219V234.26H161.699L164.699 230.12H166.379L162.859 234.8L166.299 240H164.619L161.699 235.56H159.219V240ZM173.731 240.2C171.931 240.2 170.571 239.28 170.571 237.62C170.571 235.9 171.851 235.14 174.011 234.84L177.491 234.36V233.64C177.491 231.9 176.751 231.2 174.891 231.2C173.091 231.2 172.251 231.9 172.251 233.48V233.78H170.871V233.62C170.871 231.56 172.451 229.92 175.011 229.92C177.651 229.92 178.851 231.62 178.851 233.82V240H177.551V238.18L177.451 238.16C176.871 239.3 175.611 240.2 173.731 240.2ZM171.971 237.52C171.971 238.54 172.611 239 174.131 239C175.831 239 177.491 238.12 177.491 235.78V235.44L174.131 235.92C172.551 236.14 171.971 236.46 171.971 237.52ZM185.091 240.22C182.171 240.22 180.411 238.08 180.411 235.08C180.411 232.06 182.171 229.92 185.091 229.92C187.611 229.92 189.311 231.54 189.311 233.86V234H187.891V233.88C187.891 232.16 186.971 231.22 185.031 231.22C182.771 231.22 181.831 232.64 181.831 235.08C181.831 237.5 182.771 238.92 185.031 238.92C186.971 238.92 187.891 237.98 187.891 236.26V236.14H189.311V236.28C189.311 238.6 187.611 240.22 185.091 240.22ZM195.243 240.22C192.323 240.22 190.563 238.08 190.563 235.08C190.563 232.06 192.323 229.92 195.243 229.92C197.763 229.92 199.463 231.54 199.463 233.86V234H198.043V233.88C198.043 232.16 197.123 231.22 195.183 231.22C192.923 231.22 191.983 232.64 191.983 235.08C191.983 237.5 192.923 238.92 195.183 238.92C197.123 238.92 198.043 237.98 198.043 236.26V236.14H199.463V236.28C199.463 238.6 197.763 240.22 195.243 240.22ZM205.515 240.2C202.615 240.2 200.715 238.06 200.715 235.06C200.715 232.06 202.615 229.92 205.515 229.92C208.395 229.92 210.235 232.06 210.235 235.06C210.235 238.06 208.395 240.2 205.515 240.2ZM205.515 238.92C207.895 238.92 208.835 237.52 208.835 235.06C208.835 232.6 207.895 231.22 205.515 231.22C203.095 231.22 202.135 232.6 202.135 235.06C202.135 237.52 203.095 238.92 205.515 238.92ZM215.494 240.2C212.914 240.2 211.714 238.42 211.714 236.06V230.12H213.154V235.86C213.154 238 214.014 238.94 215.954 238.94C217.774 238.94 219.014 237.98 219.014 235.66V230.12H220.434V240H219.134V237.82H219.074C218.674 238.96 217.554 240.2 215.494 240.2ZM223.932 240H222.492V230.12H223.792V232.16H223.852C224.232 231.12 225.352 229.92 227.392 229.92C229.932 229.92 231.092 231.56 231.092 233.94V240H229.672V234.26C229.672 232.12 228.972 231.18 226.952 231.18C224.992 231.18 223.932 232.1 223.932 234.3V240ZM236.617 240.02C234.797 240.02 233.737 239.3 233.737 237.2V231.36H232.077V230.12H233.757L234.097 227.6H235.177V230.12H238.297V231.36H235.177V237.28C235.177 238.44 235.717 238.7 236.997 238.7H238.297V239.86C237.957 239.92 237.337 240.02 236.617 240.02ZM243.279 240.2C240.579 240.2 239.099 239.06 239.099 236.76V236.72H240.499V236.96C240.499 238.32 241.059 238.98 243.299 238.98C245.139 238.98 245.619 238.46 245.619 237.46C245.619 236.46 244.999 236.1 243.499 235.82L241.859 235.54C240.259 235.24 239.099 234.5 239.099 232.76C239.099 231.06 240.539 229.92 242.879 229.92C245.139 229.92 246.799 231.08 246.799 233.3V233.4H245.419V233.24C245.419 232.06 244.959 231.16 242.839 231.16C241.039 231.16 240.479 231.74 240.479 232.74C240.479 233.74 240.979 234.08 242.459 234.36L244.139 234.68C245.859 235 246.999 235.76 246.999 237.4C246.999 239.16 245.559 240.2 243.279 240.2ZM248.667 241.84H248.227V240.9H248.627C248.907 240.9 249.047 240.84 249.047 240.5V240H248.267V237.22H250.027V240.48C250.027 241.42 249.507 241.84 248.667 241.84ZM259.286 240.2C256.246 240.2 254.666 238.06 254.666 235.06C254.666 232.06 256.446 229.92 259.266 229.92C261.646 229.92 263.606 231.36 263.606 234.28C263.606 234.74 263.566 235.18 263.506 235.46H256.026C256.086 237.64 256.946 238.92 259.306 238.92C261.306 238.92 262.106 238.02 262.106 236.82V236.7H263.526V236.84C263.526 238.74 261.806 240.2 259.286 240.2ZM259.226 231.16C257.026 231.16 256.146 232.42 256.026 234.42H262.246C262.326 232.08 261.166 231.16 259.226 231.16ZM266.697 240H265.257V230.12H266.557V232.16H266.617C266.997 231.12 268.117 229.92 270.157 229.92C272.697 229.92 273.857 231.56 273.857 233.94V240H272.437V234.26C272.437 232.12 271.737 231.18 269.717 231.18C267.757 231.18 266.697 232.1 266.697 234.3V240ZM279.779 240.2C277.079 240.2 275.599 239.06 275.599 236.76V236.72H276.999V236.96C276.999 238.32 277.559 238.98 279.799 238.98C281.639 238.98 282.119 238.46 282.119 237.46C282.119 236.46 281.499 236.1 279.999 235.82L278.359 235.54C276.759 235.24 275.599 234.5 275.599 232.76C275.599 231.06 277.039 229.92 279.379 229.92C281.639 229.92 283.299 231.08 283.299 233.3V233.4H281.919V233.24C281.919 232.06 281.459 231.16 279.339 231.16C277.539 231.16 276.979 231.74 276.979 232.74C276.979 233.74 277.479 234.08 278.959 234.36L280.639 234.68C282.359 235 283.499 235.76 283.499 237.4C283.499 239.16 282.059 240.2 279.779 240.2ZM288.928 240.2C286.348 240.2 285.148 238.42 285.148 236.06V230.12H286.588V235.86C286.588 238 287.448 238.94 289.388 238.94C291.208 238.94 292.448 237.98 292.448 235.66V230.12H293.868V240H292.568V237.82H292.508C292.108 238.96 290.988 240.2 288.928 240.2ZM297.366 240H295.926V230H297.226V231.66H297.326C297.646 230.74 298.606 229.92 300.066 229.92C302.106 229.92 302.886 231.38 302.886 233.08V233.64H301.446V233.3C301.446 231.76 300.966 231.16 299.546 231.16C298.006 231.16 297.366 231.86 297.366 233.46V240ZM305.387 228.8H303.967V226.6H305.387V228.8ZM305.387 240H303.967V230H305.387V240ZM308.802 240H307.362V230.12H308.662V232.16H308.722C309.102 231.12 310.222 229.92 312.262 229.92C314.802 229.92 315.962 231.56 315.962 233.94V240H314.542V234.26C314.542 232.12 313.842 231.18 311.822 231.18C309.862 231.18 308.802 232.1 308.802 234.3V240ZM321.784 239.12C319.064 239.12 317.504 237.32 317.504 234.52C317.504 231.72 319.044 229.92 321.804 229.92C323.544 229.92 324.864 230.78 325.304 232.04H325.384V230.12H326.664V239.58C326.664 242.26 324.944 243.6 322.344 243.6C319.824 243.6 318.044 242.28 318.044 240H319.464C319.464 241.62 320.284 242.32 322.364 242.32C324.484 242.32 325.224 241.56 325.224 239.58V237.06H325.204C324.744 238.2 323.504 239.12 321.784 239.12ZM318.944 234.52C318.944 237.14 320.204 237.88 322.124 237.88C323.904 237.88 325.224 236.86 325.224 234.82V234.22C325.224 232.18 323.884 231.16 322.044 231.16C320.164 231.16 318.944 231.92 318.944 234.52ZM5.4 268.22C2.48 268.22 0.72 266.08 0.72 263.08C0.72 260.06 2.48 257.92 5.4 257.92C7.92 257.92 9.62 259.54 9.62 261.86V262H8.2V261.88C8.2 260.16 7.28 259.22 5.34 259.22C3.08 259.22 2.14 260.64 2.14 263.08C2.14 265.5 3.08 266.92 5.34 266.92C7.28 266.92 8.2 265.98 8.2 264.26V264.14H9.62V264.28C9.62 266.6 7.92 268.22 5.4 268.22ZM15.6716 268.2C12.7716 268.2 10.8716 266.06 10.8716 263.06C10.8716 260.06 12.7716 257.92 15.6716 257.92C18.5516 257.92 20.3916 260.06 20.3916 263.06C20.3916 266.06 18.5516 268.2 15.6716 268.2ZM15.6716 266.92C18.0516 266.92 18.9916 265.52 18.9916 263.06C18.9916 260.6 18.0516 259.22 15.6716 259.22C13.2516 259.22 12.2916 260.6 12.2916 263.06C12.2916 265.52 13.2516 266.92 15.6716 266.92ZM23.3709 268H21.9309V258.12H23.2309V260.16H23.2909C23.6709 259.12 24.7909 257.92 26.8309 257.92C29.3709 257.92 30.5309 259.56 30.5309 261.94V268H29.1109V262.26C29.1109 260.12 28.4109 259.18 26.3909 259.18C24.4309 259.18 23.3709 260.1 23.3709 262.3V268ZM36.4536 268.2C33.7536 268.2 32.2736 267.06 32.2736 264.76V264.72H33.6736V264.96C33.6736 266.32 34.2336 266.98 36.4736 266.98C38.3136 266.98 38.7936 266.46 38.7936 265.46C38.7936 264.46 38.1736 264.1 36.6736 263.82L35.0336 263.54C33.4336 263.24 32.2736 262.5 32.2736 260.76C32.2736 259.06 33.7136 257.92 36.0536 257.92C38.3136 257.92 39.9736 259.08 39.9736 261.3V261.4H38.5936V261.24C38.5936 260.06 38.1336 259.16 36.0136 259.16C34.2136 259.16 33.6536 259.74 33.6536 260.74C33.6536 261.74 34.1536 262.08 35.6336 262.36L37.3136 262.68C39.0336 263 40.1736 263.76 40.1736 265.4C40.1736 267.16 38.7336 268.2 36.4536 268.2ZM43.2425 256.8H41.8225V254.6H43.2425V256.8ZM43.2425 268H41.8225V258H43.2425V268ZM49.1591 268.2C46.4591 268.2 44.9791 267.06 44.9791 264.76V264.72H46.3791V264.96C46.3791 266.32 46.9391 266.98 49.1791 266.98C51.0191 266.98 51.4991 266.46 51.4991 265.46C51.4991 264.46 50.8791 264.1 49.3791 263.82L47.7391 263.54C46.1391 263.24 44.9791 262.5 44.9791 260.76C44.9791 259.06 46.4191 257.92 48.7591 257.92C51.0191 257.92 52.6791 259.08 52.6791 261.3V261.4H51.2991V261.24C51.2991 260.06 50.8391 259.16 48.7191 259.16C46.9191 259.16 46.3591 259.74 46.3591 260.74C46.3591 261.74 46.8591 262.08 48.3391 262.36L50.0191 262.68C51.7391 263 52.8791 263.76 52.8791 265.4C52.8791 267.16 51.4391 268.2 49.1591 268.2ZM58.2294 268.02C56.4094 268.02 55.3494 267.3 55.3494 265.2V259.36H53.6894V258.12H55.3694L55.7094 255.6H56.7894V258.12H59.9094V259.36H56.7894V265.28C56.7894 266.44 57.3294 266.7 58.6094 266.7H59.9094V267.86C59.5694 267.92 58.9494 268.02 58.2294 268.02ZM64.9166 268.2C61.8766 268.2 60.2966 266.06 60.2966 263.06C60.2966 260.06 62.0766 257.92 64.8966 257.92C67.2766 257.92 69.2366 259.36 69.2366 262.28C69.2366 262.74 69.1966 263.18 69.1366 263.46H61.6566C61.7166 265.64 62.5766 266.92 64.9366 266.92C66.9366 266.92 67.7366 266.02 67.7366 264.82V264.7H69.1566V264.84C69.1566 266.74 67.4366 268.2 64.9166 268.2ZM64.8566 259.16C62.6566 259.16 61.7766 260.42 61.6566 262.42H67.8766C67.9566 260.08 66.7966 259.16 64.8566 259.16ZM72.3272 268H70.8872V258.12H72.1872V260.16H72.2472C72.6272 259.12 73.7472 257.92 75.7872 257.92C78.3272 257.92 79.4872 259.56 79.4872 261.94V268H78.0672V262.26C78.0672 260.12 77.3672 259.18 75.3472 259.18C73.3872 259.18 72.3272 260.1 72.3272 262.3V268ZM85.0122 268.02C83.1922 268.02 82.1322 267.3 82.1322 265.2V259.36H80.4722V258.12H82.1522L82.4922 255.6H83.5722V258.12H86.6922V259.36H83.5722V265.28C83.5722 266.44 84.1122 266.7 85.3922 266.7H86.6922V267.86C86.3522 267.92 85.7322 268.02 85.0122 268.02ZM95.7 268.22C92.78 268.22 91.02 266.08 91.02 263.08C91.02 260.06 92.78 257.92 95.7 257.92C98.22 257.92 99.92 259.54 99.92 261.86V262H98.5V261.88C98.5 260.16 97.58 259.22 95.64 259.22C93.38 259.22 92.44 260.64 92.44 263.08C92.44 265.5 93.38 266.92 95.64 266.92C97.58 266.92 98.5 265.98 98.5 264.26V264.14H99.92V264.28C99.92 266.6 98.22 268.22 95.7 268.22ZM104.291 268.2C102.491 268.2 101.131 267.28 101.131 265.62C101.131 263.9 102.411 263.14 104.571 262.84L108.051 262.36V261.64C108.051 259.9 107.311 259.2 105.451 259.2C103.651 259.2 102.811 259.9 102.811 261.48V261.78H101.431V261.62C101.431 259.56 103.011 257.92 105.571 257.92C108.211 257.92 109.411 259.62 109.411 261.82V268H108.111V266.18L108.011 266.16C107.431 267.3 106.171 268.2 104.291 268.2ZM102.531 265.52C102.531 266.54 103.171 267 104.691 267C106.391 267 108.051 266.12 108.051 263.78V263.44L104.691 263.92C103.111 264.14 102.531 264.46 102.531 265.52ZM115.352 268.2C112.652 268.2 111.172 267.06 111.172 264.76V264.72H112.572V264.96C112.572 266.32 113.132 266.98 115.372 266.98C117.212 266.98 117.692 266.46 117.692 265.46C117.692 264.46 117.072 264.1 115.572 263.82L113.932 263.54C112.332 263.24 111.172 262.5 111.172 260.76C111.172 259.06 112.612 257.92 114.952 257.92C117.212 257.92 118.872 259.08 118.872 261.3V261.4H117.492V261.24C117.492 260.06 117.032 259.16 114.912 259.16C113.112 259.16 112.552 259.74 112.552 260.74C112.552 261.74 113.052 262.08 114.532 262.36L116.212 262.68C117.932 263 119.072 263.76 119.072 265.4C119.072 267.16 117.632 268.2 115.352 268.2ZM122.182 268H120.742V254.6H122.182V259.96H122.262C122.642 259.02 123.662 257.92 125.662 257.92C128.242 257.92 129.342 259.64 129.342 261.9V268H127.922V262.26C127.922 260.12 127.202 259.18 125.202 259.18C123.222 259.18 122.182 260.1 122.182 262.32V268ZM136.871 268H135.451V259.36H133.991V258.12H135.451V257.74C135.451 255.7 136.591 254.6 138.771 254.6H139.651V255.78H138.511C137.371 255.78 136.851 256.26 136.851 257.26V258.12H139.651V259.36H136.871V268ZM142.351 268H140.911V254.6H142.351V268ZM148.722 268.2C145.822 268.2 143.922 266.06 143.922 263.06C143.922 260.06 145.822 257.92 148.722 257.92C151.602 257.92 153.442 260.06 153.442 263.06C153.442 266.06 151.602 268.2 148.722 268.2ZM148.722 266.92C151.102 266.92 152.042 265.52 152.042 263.06C152.042 260.6 151.102 259.22 148.722 259.22C146.302 259.22 145.342 260.6 145.342 263.06C145.342 265.52 146.302 266.92 148.722 266.92ZM158.131 268H156.251L153.711 258.12H155.231L156.791 264.56L157.191 266.7H157.311L157.971 264.56L160.231 258.12H162.131L164.431 264.56L165.051 266.7H165.171L165.571 264.56L167.131 258.12H168.611L166.071 268H164.191L161.971 261.76L161.231 259.42H161.111L160.371 261.76L158.131 268ZM175.992 268.2C174.192 268.2 172.832 267.28 172.832 265.62C172.832 263.9 174.112 263.14 176.272 262.84L179.752 262.36V261.64C179.752 259.9 179.012 259.2 177.152 259.2C175.352 259.2 174.512 259.9 174.512 261.48V261.78H173.132V261.62C173.132 259.56 174.712 257.92 177.272 257.92C179.912 257.92 181.112 259.62 181.112 261.82V268H179.812V266.18L179.712 266.16C179.132 267.3 177.872 268.2 175.992 268.2ZM174.232 265.52C174.232 266.54 174.872 267 176.392 267C178.092 267 179.752 266.12 179.752 263.78V263.44L176.392 263.92C174.812 264.14 174.232 264.46 174.232 265.52ZM184.551 268H183.111V258.12H184.411V260.16H184.471C184.851 259.12 185.971 257.92 188.011 257.92C190.551 257.92 191.711 259.56 191.711 261.94V268H190.291V262.26C190.291 260.12 189.591 259.18 187.571 259.18C185.611 259.18 184.551 260.1 184.551 262.3V268ZM197.594 268.2C194.814 268.2 193.254 266.18 193.254 263.06C193.254 259.94 194.734 257.92 197.434 257.92C199.334 257.92 200.554 258.92 200.974 260V254.6H202.414V268H201.134V266.1H201.054C200.614 267.34 199.454 268.2 197.594 268.2ZM194.694 263.06C194.694 266.08 195.874 266.96 197.834 266.96C199.794 266.96 200.974 265.94 200.974 263.92V262.22C200.974 260.18 199.794 259.16 197.834 259.16C195.894 259.16 194.694 260.04 194.694 263.06ZM209.381 268H207.941V258H209.241V259.66H209.341C209.661 258.74 210.621 257.92 212.081 257.92C214.121 257.92 214.901 259.38 214.901 261.08V261.64H213.461V261.3C213.461 259.76 212.981 259.16 211.561 259.16C210.021 259.16 209.381 259.86 209.381 261.46V268ZM220.379 268.2C217.339 268.2 215.759 266.06 215.759 263.06C215.759 260.06 217.539 257.92 220.359 257.92C222.739 257.92 224.699 259.36 224.699 262.28C224.699 262.74 224.659 263.18 224.599 263.46H217.119C217.179 265.64 218.039 266.92 220.399 266.92C222.399 266.92 223.199 266.02 223.199 264.82V264.7H224.619V264.84C224.619 266.74 222.899 268.2 220.379 268.2ZM220.319 259.16C218.119 259.16 217.239 260.42 217.119 262.42H223.339C223.419 260.08 222.259 259.16 220.319 259.16ZM230.387 268.2C227.607 268.2 226.047 266.18 226.047 263.06C226.047 259.94 227.527 257.92 230.227 257.92C232.127 257.92 233.347 258.92 233.767 260V254.6H235.207V268H233.927V266.1H233.847C233.407 267.34 232.247 268.2 230.387 268.2ZM227.487 263.06C227.487 266.08 228.667 266.96 230.627 266.96C232.587 266.96 233.767 265.94 233.767 263.92V262.22C233.767 260.18 232.587 259.16 230.627 259.16C228.687 259.16 227.487 260.04 227.487 263.06ZM240.963 268.2C238.383 268.2 237.183 266.42 237.183 264.06V258.12H238.623V263.86C238.623 266 239.483 266.94 241.423 266.94C243.243 266.94 244.483 265.98 244.483 263.66V258.12H245.903V268H244.603V265.82H244.543C244.143 266.96 243.023 268.2 240.963 268.2ZM252.202 268.22C249.282 268.22 247.522 266.08 247.522 263.08C247.522 260.06 249.282 257.92 252.202 257.92C254.722 257.92 256.422 259.54 256.422 261.86V262H255.002V261.88C255.002 260.16 254.082 259.22 252.142 259.22C249.882 259.22 248.942 260.64 248.942 263.08C248.942 265.5 249.882 266.92 252.142 266.92C254.082 266.92 255.002 265.98 255.002 264.26V264.14H256.422V264.28C256.422 266.6 254.722 268.22 252.202 268.22ZM259.336 256.8H257.916V254.6H259.336V256.8ZM259.336 268H257.916V258H259.336V268ZM262.751 268H261.311V258.12H262.611V260.16H262.671C263.051 259.12 264.171 257.92 266.211 257.92C268.751 257.92 269.911 259.56 269.911 261.94V268H268.491V262.26C268.491 260.12 267.791 259.18 265.771 259.18C263.811 259.18 262.751 260.1 262.751 262.3V268ZM275.734 267.12C273.014 267.12 271.454 265.32 271.454 262.52C271.454 259.72 272.994 257.92 275.754 257.92C277.494 257.92 278.814 258.78 279.254 260.04H279.334V258.12H280.614V267.58C280.614 270.26 278.894 271.6 276.294 271.6C273.774 271.6 271.994 270.28 271.994 268H273.414C273.414 269.62 274.234 270.32 276.314 270.32C278.434 270.32 279.174 269.56 279.174 267.58V265.06H279.154C278.694 266.2 277.454 267.12 275.734 267.12ZM272.894 262.52C272.894 265.14 274.154 265.88 276.074 265.88C277.854 265.88 279.174 264.86 279.174 262.82V262.22C279.174 260.18 277.834 259.16 275.994 259.16C274.114 259.16 272.894 259.92 272.894 262.52ZM289.841 268.02C288.021 268.02 286.961 267.3 286.961 265.2V259.36H285.301V258.12H286.981L287.321 255.6H288.401V258.12H291.521V259.36H288.401V265.28C288.401 266.44 288.941 266.7 290.221 266.7H291.521V267.86C291.181 267.92 290.561 268.02 289.841 268.02ZM294.256 268H292.816V254.6H294.256V259.96H294.336C294.716 259.02 295.736 257.92 297.736 257.92C300.316 257.92 301.416 259.64 301.416 261.9V268H299.996V262.26C299.996 260.12 299.276 259.18 297.276 259.18C295.296 259.18 294.256 260.1 294.256 262.32V268ZM307.715 268.2C304.675 268.2 303.095 266.06 303.095 263.06C303.095 260.06 304.875 257.92 307.695 257.92C310.075 257.92 312.035 259.36 312.035 262.28C312.035 262.74 311.995 263.18 311.935 263.46H304.455C304.515 265.64 305.375 266.92 307.735 266.92C309.735 266.92 310.535 266.02 310.535 264.82V264.7H311.955V264.84C311.955 266.74 310.235 268.2 307.715 268.2ZM307.655 259.16C305.455 259.16 304.575 260.42 304.455 262.42H310.675C310.755 260.08 309.595 259.16 307.655 259.16ZM2.56 296H1.12V286H2.42V287.66H2.52C2.84 286.74 3.8 285.92 5.26 285.92C7.3 285.92 8.08 287.38 8.08 289.08V289.64H6.64V289.3C6.64 287.76 6.16 287.16 4.74 287.16C3.2 287.16 2.56 287.86 2.56 289.46V296ZM10.5808 284.8H9.16078V282.6H10.5808V284.8ZM10.5808 296H9.16078V286H10.5808V296ZM16.4973 296.2C13.7973 296.2 12.3173 295.06 12.3173 292.76V292.72H13.7173V292.96C13.7173 294.32 14.2773 294.98 16.5173 294.98C18.3573 294.98 18.8373 294.46 18.8373 293.46C18.8373 292.46 18.2173 292.1 16.7173 291.82L15.0773 291.54C13.4773 291.24 12.3173 290.5 12.3173 288.76C12.3173 287.06 13.7573 285.92 16.0973 285.92C18.3573 285.92 20.0173 287.08 20.0173 289.3V289.4H18.6373V289.24C18.6373 288.06 18.1773 287.16 16.0573 287.16C14.2573 287.16 13.6973 287.74 13.6973 288.74C13.6973 289.74 14.1973 290.08 15.6773 290.36L17.3573 290.68C19.0773 291 20.2173 291.76 20.2173 293.4C20.2173 295.16 18.7773 296.2 16.4973 296.2ZM23.3272 296H21.8872V282.6H23.3272V290.26H25.8072L28.8072 286.12H30.4872L26.9672 290.8L30.4072 296H28.7272L25.8072 291.56H23.3272V296ZM39.5395 296.2C36.6395 296.2 34.7395 294.06 34.7395 291.06C34.7395 288.06 36.6395 285.92 39.5395 285.92C42.4195 285.92 44.2595 288.06 44.2595 291.06C44.2595 294.06 42.4195 296.2 39.5395 296.2ZM39.5395 294.92C41.9195 294.92 42.8595 293.52 42.8595 291.06C42.8595 288.6 41.9195 287.22 39.5395 287.22C37.1195 287.22 36.1595 288.6 36.1595 291.06C36.1595 293.52 37.1195 294.92 39.5395 294.92ZM47.6212 296H46.2012V287.36H44.7412V286.12H46.2012V285.74C46.2012 283.7 47.3412 282.6 49.5212 282.6H50.4012V283.78H49.2612C48.1212 283.78 47.6012 284.26 47.6012 285.26V286.12H50.4012V287.36H47.6212V296ZM56.3116 296H54.8716V286.12H56.1716V288.16H56.2316C56.6116 287.12 57.7316 285.92 59.7716 285.92C62.3116 285.92 63.4716 287.56 63.4716 289.94V296H62.0516V290.26C62.0516 288.12 61.3516 287.18 59.3316 287.18C57.3716 287.18 56.3116 288.1 56.3116 290.3V296ZM69.8137 296.2C66.9137 296.2 65.0137 294.06 65.0137 291.06C65.0137 288.06 66.9137 285.92 69.8137 285.92C72.6937 285.92 74.5337 288.06 74.5337 291.06C74.5337 294.06 72.6937 296.2 69.8137 296.2ZM69.8137 294.92C72.1937 294.92 73.1337 293.52 73.1337 291.06C73.1337 288.6 72.1937 287.22 69.8137 287.22C67.3937 287.22 66.4337 288.6 66.4337 291.06C66.4337 293.52 67.3937 294.92 69.8137 294.92ZM77.5131 296H76.0731V286.12H77.3731V288.16H77.4331C77.8131 287.12 78.9331 285.92 80.9731 285.92C83.5131 285.92 84.6731 287.56 84.6731 289.94V296H83.2531V290.26C83.2531 288.12 82.5531 287.18 80.5331 287.18C78.5731 287.18 77.5131 288.1 77.5131 290.3V296ZM91.5144 290.78H86.0544V289.52H91.5144V290.78ZM94.3983 299.48H92.9583V286.12H94.2583V288.04H94.3183C94.7583 286.78 95.9383 285.92 97.7983 285.92C100.578 285.92 102.118 287.94 102.118 291.08C102.118 294.18 100.658 296.2 97.9583 296.2C96.0583 296.2 94.8383 295.2 94.3983 294.12V299.48ZM94.3983 291.92C94.3983 293.94 95.5983 294.96 97.5583 294.96C99.4783 294.96 100.678 294.08 100.678 291.08C100.678 288.04 99.4983 287.16 97.5583 287.16C95.5983 287.16 94.3983 288.18 94.3983 290.22V291.92ZM107.974 296.2C104.934 296.2 103.354 294.06 103.354 291.06C103.354 288.06 105.134 285.92 107.954 285.92C110.334 285.92 112.294 287.36 112.294 290.28C112.294 290.74 112.254 291.18 112.194 291.46H104.714C104.774 293.64 105.634 294.92 107.994 294.92C109.994 294.92 110.794 294.02 110.794 292.82V292.7H112.214V292.84C112.214 294.74 110.494 296.2 107.974 296.2ZM107.914 287.16C105.714 287.16 104.834 288.42 104.714 290.42H110.934C111.014 288.08 109.854 287.16 107.914 287.16ZM115.385 296H113.945V286H115.245V287.66H115.345C115.665 286.74 116.625 285.92 118.085 285.92C120.125 285.92 120.905 287.38 120.905 289.08V289.64H119.465V289.3C119.465 287.76 118.985 287.16 117.565 287.16C116.025 287.16 115.385 287.86 115.385 289.46V296ZM124.239 296H122.819V287.36H121.359V286.12H122.819V285.74C122.819 283.7 123.959 282.6 126.139 282.6H127.019V283.78H125.879C124.739 283.78 124.219 284.26 124.219 285.26V286.12H127.019V287.36H124.239V296ZM131.871 296.2C128.971 296.2 127.071 294.06 127.071 291.06C127.071 288.06 128.971 285.92 131.871 285.92C134.751 285.92 136.591 288.06 136.591 291.06C136.591 294.06 134.751 296.2 131.871 296.2ZM131.871 294.92C134.251 294.92 135.191 293.52 135.191 291.06C135.191 288.6 134.251 287.22 131.871 287.22C129.451 287.22 128.491 288.6 128.491 291.06C128.491 293.52 129.451 294.92 131.871 294.92ZM139.57 296H138.13V286H139.43V287.66H139.53C139.85 286.74 140.81 285.92 142.27 285.92C144.31 285.92 145.09 287.38 145.09 289.08V289.64H143.65V289.3C143.65 287.76 143.17 287.16 141.75 287.16C140.21 287.16 139.57 287.86 139.57 289.46V296ZM147.749 296H146.309V286.12H147.609V288.16H147.669C148.049 287.12 149.089 285.92 151.129 285.92C152.929 285.92 154.009 286.78 154.449 288.18H154.509C154.909 287.12 155.929 285.92 157.969 285.92C160.509 285.92 161.669 287.56 161.669 289.92V296H160.249V290.26C160.249 288.12 159.529 287.18 157.529 287.18C155.649 287.18 154.709 288.1 154.709 290.3V296H153.289V290.26C153.289 288.12 152.589 287.18 150.589 287.18C148.709 287.18 147.749 288.1 147.749 290.3V296ZM165.028 284.8H163.608V282.6H165.028V284.8ZM165.028 296H163.608V286H165.028V296ZM168.443 296H167.003V286.12H168.303V288.16H168.363C168.743 287.12 169.863 285.92 171.903 285.92C174.443 285.92 175.603 287.56 175.603 289.94V296H174.183V290.26C174.183 288.12 173.483 287.18 171.463 287.18C169.503 287.18 168.443 288.1 168.443 290.3V296ZM181.425 295.12C178.705 295.12 177.145 293.32 177.145 290.52C177.145 287.72 178.685 285.92 181.445 285.92C183.185 285.92 184.505 286.78 184.945 288.04H185.025V286.12H186.305V295.58C186.305 298.26 184.585 299.6 181.985 299.6C179.465 299.6 177.685 298.28 177.685 296H179.105C179.105 297.62 179.925 298.32 182.005 298.32C184.125 298.32 184.865 297.56 184.865 295.58V293.06H184.845C184.385 294.2 183.145 295.12 181.425 295.12ZM178.585 290.52C178.585 293.14 179.845 293.88 181.765 293.88C183.545 293.88 184.865 292.86 184.865 290.82V290.22C184.865 288.18 183.525 287.16 181.685 287.16C179.805 287.16 178.585 287.92 178.585 290.52ZM193.272 296H191.832V282.6H193.272V296ZM199.626 296.2C196.726 296.2 194.826 294.06 194.826 291.06C194.826 288.06 196.726 285.92 199.626 285.92C202.506 285.92 204.346 288.06 204.346 291.06C204.346 294.06 202.506 296.2 199.626 296.2ZM199.626 294.92C202.006 294.92 202.946 293.52 202.946 291.06C202.946 288.6 202.006 287.22 199.626 287.22C197.206 287.22 196.246 288.6 196.246 291.06C196.246 293.52 197.206 294.92 199.626 294.92ZM208.703 296.2C206.903 296.2 205.543 295.28 205.543 293.62C205.543 291.9 206.823 291.14 208.983 290.84L212.463 290.36V289.64C212.463 287.9 211.723 287.2 209.863 287.2C208.063 287.2 207.223 287.9 207.223 289.48V289.78H205.843V289.62C205.843 287.56 207.423 285.92 209.983 285.92C212.623 285.92 213.823 287.62 213.823 289.82V296H212.523V294.18L212.423 294.16C211.843 295.3 210.583 296.2 208.703 296.2ZM206.943 293.52C206.943 294.54 207.583 295 209.103 295C210.803 295 212.463 294.12 212.463 291.78V291.44L209.103 291.92C207.523 292.14 206.943 292.46 206.943 293.52ZM217.262 296H215.822V286.12H217.122V288.16H217.182C217.562 287.12 218.682 285.92 220.722 285.92C223.262 285.92 224.422 287.56 224.422 289.94V296H223.002V290.26C223.002 288.12 222.302 287.18 220.282 287.18C218.322 287.18 217.262 288.1 217.262 290.3V296ZM230.345 296.2C227.645 296.2 226.165 295.06 226.165 292.76V292.72H227.565V292.96C227.565 294.32 228.125 294.98 230.365 294.98C232.205 294.98 232.685 294.46 232.685 293.46C232.685 292.46 232.065 292.1 230.565 291.82L228.925 291.54C227.325 291.24 226.165 290.5 226.165 288.76C226.165 287.06 227.605 285.92 229.945 285.92C232.205 285.92 233.865 287.08 233.865 289.3V289.4H232.485V289.24C232.485 288.06 232.025 287.16 229.905 287.16C228.105 287.16 227.545 287.74 227.545 288.74C227.545 289.74 228.045 290.08 229.525 290.36L231.205 290.68C232.925 291 234.065 291.76 234.065 293.4C234.065 295.16 232.625 296.2 230.345 296.2ZM237.092 296H235.332V293.22H237.092V296Z" fill="white"/>
</svg>
