<svg width="16" height="39" viewBox="0 0 16 39" fill="none" xmlns="http://www.w3.org/2000/svg">
<path d="M2.40822 34.5067L1.44494 31.1398L3.40939e-05 34.5067L0.963308 37.6675L2.40822 34.5067Z" fill="#A0A0AA"/>
<path d="M3.88215 35.7722L7.35923 36.2238L4.23956 38.1505L0.966605 37.6683L3.88215 35.7722Z" fill="#A0A0AA"/>
<path d="M5.40126 31.4256L4.0925 28.177L3.00614 31.6757L4.29343 34.7193L5.40126 31.4256Z" fill="#A0A0AA"/>
<path d="M6.99891 32.531L10.5042 32.6189L7.60212 34.8593L4.29669 34.7197L6.99891 32.531Z" fill="#A0A0AA"/>
<path d="M7.06264 27.7957L4.97243 24.9842L4.80914 28.6437L6.82656 31.2623L7.06264 27.7957Z" fill="#A0A0AA"/>
<path d="M8.88842 28.4607L12.3016 27.6589L10.0626 30.5604L6.82962 31.2617L8.88842 28.4607Z" fill="#A0A0AA"/>
<path d="M8.55028 23.8514L6.21512 21.2392L6.38236 24.8986L8.62764 27.3251L8.55028 23.8514Z" fill="#A0A0AA"/>
<path d="M10.4289 24.3499L13.756 23.2445L11.7876 26.3355L8.63095 27.3246L10.4289 24.3499Z" fill="#A0A0AA"/>
<path d="M9.34363 19.7783L6.77909 17.3903L7.28067 21.0191L9.73871 23.2304L9.34363 19.7783Z" fill="#A0A0AA"/>
<path d="M11.2597 20.1029L14.4717 18.6983L12.7945 21.9561L9.74166 23.2293L11.2597 20.1029Z" fill="#A0A0AA"/>
<path d="M8.96777 15.2365L5.98006 13.4037L7.19208 16.861L10.0404 18.5418L8.96777 15.2365Z" fill="#A0A0AA"/>
<path d="M10.9104 15.1751L13.7798 13.1625L12.7827 16.6877L10.0432 18.54L10.9104 15.1751Z" fill="#A0A0AA"/>
<path d="M7.76845 10.9954L4.43868 9.89814L6.41461 12.9843L9.57367 13.9657L7.76845 10.9954Z" fill="#A0A0AA"/>
<path d="M9.6451 10.4894L11.9739 7.87158L11.8156 11.5313L9.57622 13.9633L9.6451 10.4894Z" fill="#A0A0AA"/>
<path d="M6.03967 6.62209L2.61438 5.87343L4.89833 8.73979L8.14187 9.39075L6.03967 6.62209Z" fill="#A0A0AA"/>
<path d="M7.85368 5.92606L9.89983 3.08244L10.1201 6.73895L8.14375 9.38856L7.85368 5.92606Z" fill="#A0A0AA"/>
<path d="M5.61013 2.64064L2.76299 0.596816L3.72143 4.13268L6.44051 6.01483L5.61013 2.64064Z" fill="#A0A0AA"/>
</svg>
