<svg width="168" height="24" viewBox="0 0 168 24" fill="none" xmlns="http://www.w3.org/2000/svg">
<path fill-rule="evenodd" clip-rule="evenodd" d="M1 2.838C1 2.35053 1.19365 1.88303 1.53834 1.53834C1.88303 1.19365 2.35053 1 2.838 1H21.16C21.4016 0.999608 21.6409 1.04687 21.8641 1.13907C22.0874 1.23127 22.2903 1.36661 22.4612 1.53734C22.6322 1.70807 22.7677 1.91083 22.8602 2.13401C22.9526 2.3572 23.0001 2.59643 23 2.838V21.16C23.0003 21.4016 22.9529 21.6409 22.8606 21.8642C22.7683 22.0875 22.6328 22.2904 22.462 22.4613C22.2912 22.6322 22.0884 22.7678 21.8651 22.8602C21.6419 22.9526 21.4026 23.0001 21.161 23H2.838C2.59655 23 2.35746 22.9524 2.1344 22.86C1.91134 22.7676 1.70867 22.6321 1.53798 22.4613C1.3673 22.2905 1.23193 22.0878 1.13962 21.8647C1.04731 21.6416 0.999869 21.4025 1 21.161V2.838ZM9.708 9.388H12.687V10.884C13.117 10.024 14.217 9.25 15.87 9.25C19.039 9.25 19.79 10.963 19.79 14.106V19.928H16.583V14.822C16.583 13.032 16.153 12.022 15.061 12.022C13.546 12.022 12.916 13.111 12.916 14.822V19.928H9.708V9.388ZM4.208 19.791H7.416V9.25H4.208V19.79V19.791ZM7.875 5.812C7.88105 6.08668 7.83217 6.35979 7.73124 6.61532C7.63031 6.87084 7.47935 7.10364 7.28723 7.30003C7.09511 7.49643 6.8657 7.65248 6.61246 7.75901C6.35921 7.86554 6.08724 7.92042 5.8125 7.92042C5.53776 7.92042 5.26579 7.86554 5.01255 7.75901C4.7593 7.65248 4.52989 7.49643 4.33777 7.30003C4.14565 7.10364 3.99469 6.87084 3.89376 6.61532C3.79283 6.35979 3.74395 6.08668 3.75 5.812C3.76187 5.27286 3.98439 4.75979 4.36989 4.38269C4.75539 4.00558 5.27322 3.79442 5.8125 3.79442C6.35178 3.79442 6.86961 4.00558 7.25512 4.38269C7.64062 4.75979 7.86313 5.27286 7.875 5.812Z" fill="#D4D4D4"/>
<path d="M55.539 22.501C64.596 22.501 69.5505 14.9965 69.5505 8.50004C69.5505 8.29004 69.5505 8.07704 69.5415 7.86704C70.5061 7.16877 71.3386 6.30427 72 5.31404C71.099 5.71132 70.1441 5.97315 69.1665 6.09104C70.1963 5.4755 70.9676 4.50699 71.337 3.36554C70.3695 3.93873 69.3105 4.3411 68.2065 4.55504C67.4643 3.76458 66.4821 3.24092 65.4121 3.06518C64.3421 2.88944 63.2441 3.07142 62.288 3.58295C61.3319 4.09447 60.5712 4.90698 60.1237 5.89463C59.6761 6.88228 59.5668 7.98994 59.8125 9.04604C57.8546 8.94787 55.9392 8.43924 54.1906 7.55315C52.4419 6.66707 50.899 5.42331 49.662 3.90254C49.034 4.98716 48.8424 6.27014 49.126 7.49094C49.4096 8.71174 50.1472 9.77883 51.189 10.4755C50.4083 10.449 49.6448 10.2394 48.96 9.86354V9.93104C48.9613 11.0673 49.355 12.1682 50.0743 13.0477C50.7937 13.9272 51.7946 14.5314 52.908 14.758C52.4854 14.8745 52.0488 14.9325 51.6105 14.9305C51.3015 14.9315 50.9931 14.9028 50.6895 14.845C51.0042 15.8231 51.6169 16.6783 52.4419 17.2908C53.2668 17.9032 54.2627 18.2423 55.29 18.2605C53.5448 19.6312 51.3891 20.3746 49.17 20.371C48.779 20.3727 48.3882 20.3501 48 20.3035C50.2523 21.7394 52.8679 22.5019 55.539 22.501Z" fill="#D4D4D4"/>
<path d="M107.681 8.62121C105.72 8.62121 104.119 10.2222 104.119 12.1841C104.119 14.146 105.72 15.747 107.681 15.747C109.643 15.747 111.244 14.146 111.244 12.1841C111.244 10.2222 109.643 8.62121 107.681 8.62121ZM118.367 12.1841C118.367 10.7087 118.381 9.24666 118.298 7.77393C118.215 6.06332 117.825 4.54515 116.574 3.29426C115.32 2.04071 113.805 1.65315 112.094 1.57029C110.619 1.48743 109.157 1.5008 107.684 1.5008C106.209 1.5008 104.747 1.48743 103.274 1.57029C101.563 1.65315 100.045 2.04338 98.7943 3.29426C97.5407 4.54782 97.1531 6.06332 97.0703 7.77393C96.9874 9.24933 97.0008 10.7114 97.0008 12.1841C97.0008 13.6568 96.9874 15.1215 97.0703 16.5943C97.1531 18.3049 97.5434 19.823 98.7943 21.0739C100.048 22.3275 101.563 22.715 103.274 22.7979C104.749 22.8808 106.211 22.8674 107.684 22.8674C109.159 22.8674 110.622 22.8808 112.094 22.7979C113.805 22.715 115.323 22.3248 116.574 21.0739C117.827 19.8204 118.215 18.3049 118.298 16.5943C118.383 15.1215 118.367 13.6595 118.367 12.1841ZM107.681 17.6661C104.648 17.6661 102.199 15.2178 102.199 12.1841C102.199 9.15043 104.648 6.70212 107.681 6.70212C110.715 6.70212 113.163 9.15043 113.163 12.1841C113.163 15.2178 110.715 17.6661 107.681 17.6661ZM113.388 7.75789C112.68 7.75789 112.108 7.1859 112.108 6.4776C112.108 5.7693 112.68 5.19732 113.388 5.19732C114.096 5.19732 114.668 5.7693 114.668 6.4776C114.668 6.64579 114.635 6.81237 114.571 6.9678C114.507 7.12322 114.413 7.26445 114.294 7.38337C114.175 7.5023 114.034 7.5966 113.878 7.66086C113.723 7.72513 113.556 7.7581 113.388 7.75789Z" fill="#D4D4D4"/>
<g clip-path="url(#clip0_10939_77380)">
<path fill-rule="evenodd" clip-rule="evenodd" d="M144 12.067C144 18.033 148.333 22.994 154 24V15.333H151V12H154V9.333C154 6.333 155.933 4.667 158.667 4.667C159.533 4.667 160.467 4.8 161.333 4.933V8H159.8C158.333 8 158 8.733 158 9.667V12H161.2L160.667 15.333H158V24C163.667 22.994 168 18.034 168 12.067C168 5.43 162.6 0 156 0C149.4 0 144 5.43 144 12.067Z" fill="#D4D4D4"/>
</g>
<defs>
<clipPath id="clip0_10939_77380">
<rect width="24" height="24" fill="white" transform="translate(144)"/>
</clipPath>
</defs>
</svg>
