<svg width="32" height="32" viewBox="0 0 32 32" fill="none" xmlns="http://www.w3.org/2000/svg">
<mask id="path-1-inside-1_10939_76904" fill="white">
<path d="M16 29.6606C23.46 29.6606 29.6606 23.4732 29.6606 16C29.6606 8.54005 23.4463 2.33948 15.9863 2.33948C8.51374 2.33948 2.34003 8.54005 2.34003 16C2.34003 23.4732 8.52688 29.6606 16 29.6606ZM16.0006 27.384C9.67831 27.384 4.6286 22.3212 4.6286 16C4.6286 9.69148 9.6646 4.61605 15.9863 4.61605C22.2943 4.61605 27.3697 9.69205 27.3835 16C27.3966 22.3218 22.3075 27.384 15.9995 27.384M15.9863 9.57148C16.696 9.57148 17.2983 8.96862 17.2983 8.25891C17.2983 7.52233 16.696 6.93319 15.9863 6.93319C15.2492 6.93319 14.6737 7.52233 14.6737 8.25891C14.6742 8.60688 14.8126 8.94048 15.0587 9.18653C15.3047 9.43259 15.6383 9.57102 15.9863 9.57148ZM10.5349 11.9286C11.272 11.9286 11.8606 11.3258 11.8606 10.616C11.8606 9.87948 11.272 9.30348 10.5349 9.30348C10.1869 9.30393 9.85331 9.44237 9.60726 9.68842C9.3612 9.93448 9.22277 10.2681 9.22231 10.616C9.22231 11.3258 9.82517 11.9286 10.5349 11.9286ZM21.4235 11.9286C22.1332 11.9286 22.736 11.3258 22.736 10.616C22.7356 10.2681 22.5971 9.93448 22.3511 9.68842C22.105 9.44237 21.7714 9.30393 21.4235 9.30348C21.2509 9.30264 21.0798 9.33603 20.9202 9.40169C20.7605 9.46736 20.6155 9.56401 20.4935 9.68606C20.3714 9.80811 20.2748 9.95314 20.2091 10.1128C20.1434 10.2724 20.1101 10.4434 20.1109 10.616C20.1109 11.3258 20.7006 11.9286 21.4235 11.9286ZM15.9863 17.3932C16.736 17.3932 17.3789 16.7635 17.3789 16C17.3789 15.92 17.3652 15.8526 17.352 15.7726L19.4286 13.1743C19.616 12.9195 19.656 12.6115 19.4286 12.424C19.2543 12.2498 18.9332 12.2235 18.7052 12.424L16.2006 14.6338C16.1304 14.6181 16.0588 14.6091 15.9869 14.6069C15.8039 14.6068 15.6227 14.6427 15.4536 14.7126C15.2845 14.7826 15.1308 14.8852 15.0014 15.0146C14.8721 15.144 14.7694 15.2976 14.6995 15.4667C14.6295 15.6358 14.5936 15.8171 14.5937 16C14.5936 16.183 14.6295 16.3643 14.6995 16.5334C14.7694 16.7024 14.8721 16.8561 15.0014 16.9855C15.1308 17.1149 15.2845 17.2175 15.4536 17.2875C15.6227 17.3574 15.8033 17.3933 15.9863 17.3932ZM8.2726 17.3126C8.44515 17.3134 8.61615 17.2799 8.77571 17.2142C8.93526 17.1485 9.08022 17.0519 9.20221 16.9298C9.3242 16.8078 9.4208 16.6628 9.48644 16.5032C9.55207 16.3436 9.58543 16.1726 9.5846 16C9.58543 15.8275 9.55207 15.6565 9.48644 15.4969C9.4208 15.3373 9.3242 15.1923 9.20221 15.0703C9.08022 14.9482 8.93526 14.8516 8.77571 14.7859C8.61615 14.7202 8.44515 14.6867 8.2726 14.6875C7.56231 14.6875 6.96003 15.2766 6.96003 16C6.96003 16.7235 7.56231 17.3126 8.2726 17.3126ZM23.6875 17.3126C24.0354 17.3122 24.369 17.1737 24.6151 16.9277C24.8611 16.6816 24.9996 16.348 25 16C24.9996 15.6521 24.8611 15.3185 24.6151 15.0724C24.369 14.8264 24.0354 14.6879 23.6875 14.6875C23.3395 14.6879 23.0059 14.8264 22.7598 15.0724C22.5138 15.3185 22.3753 15.6521 22.3749 16C22.3753 16.348 22.5138 16.6816 22.7598 16.9277C23.0059 17.1737 23.3395 17.3122 23.6875 17.3126ZM10.5623 22.7098C10.9136 22.7089 11.2503 22.5689 11.4987 22.3205C11.7472 22.072 11.8871 21.7354 11.888 21.3841C11.8874 21.2108 11.8525 21.0393 11.7855 20.8795C11.7185 20.7197 11.6206 20.5747 11.4974 20.4528C11.3743 20.3309 11.2283 20.2344 11.0679 20.169C10.9074 20.1036 10.7356 20.0704 10.5623 20.0715C9.8526 20.0715 9.24974 20.6606 9.24974 21.3841C9.24974 22.1075 9.8526 22.7098 10.5623 22.7098ZM21.3972 22.7098C22.1069 22.7098 22.7097 22.1075 22.7097 21.3841C22.7097 20.6606 22.1069 20.0715 21.3972 20.0715C21.0492 20.0719 20.7156 20.2104 20.4695 20.4564C20.2235 20.7025 20.0851 21.0361 20.0846 21.3841C20.0846 22.1075 20.6743 22.7098 21.3972 22.7098Z"/>
</mask>
<path d="M16 29.6606C23.46 29.6606 29.6606 23.4732 29.6606 16C29.6606 8.54005 23.4463 2.33948 15.9863 2.33948C8.51374 2.33948 2.34003 8.54005 2.34003 16C2.34003 23.4732 8.52688 29.6606 16 29.6606ZM16.0006 27.384C9.67831 27.384 4.6286 22.3212 4.6286 16C4.6286 9.69148 9.6646 4.61605 15.9863 4.61605C22.2943 4.61605 27.3697 9.69205 27.3835 16C27.3966 22.3218 22.3075 27.384 15.9995 27.384M15.9863 9.57148C16.696 9.57148 17.2983 8.96862 17.2983 8.25891C17.2983 7.52233 16.696 6.93319 15.9863 6.93319C15.2492 6.93319 14.6737 7.52233 14.6737 8.25891C14.6742 8.60688 14.8126 8.94048 15.0587 9.18653C15.3047 9.43259 15.6383 9.57102 15.9863 9.57148ZM10.5349 11.9286C11.272 11.9286 11.8606 11.3258 11.8606 10.616C11.8606 9.87948 11.272 9.30348 10.5349 9.30348C10.1869 9.30393 9.85331 9.44237 9.60726 9.68842C9.3612 9.93448 9.22277 10.2681 9.22231 10.616C9.22231 11.3258 9.82517 11.9286 10.5349 11.9286ZM21.4235 11.9286C22.1332 11.9286 22.736 11.3258 22.736 10.616C22.7356 10.2681 22.5971 9.93448 22.3511 9.68842C22.105 9.44237 21.7714 9.30393 21.4235 9.30348C21.2509 9.30264 21.0798 9.33603 20.9202 9.40169C20.7605 9.46736 20.6155 9.56401 20.4935 9.68606C20.3714 9.80811 20.2748 9.95314 20.2091 10.1128C20.1434 10.2724 20.1101 10.4434 20.1109 10.616C20.1109 11.3258 20.7006 11.9286 21.4235 11.9286ZM15.9863 17.3932C16.736 17.3932 17.3789 16.7635 17.3789 16C17.3789 15.92 17.3652 15.8526 17.352 15.7726L19.4286 13.1743C19.616 12.9195 19.656 12.6115 19.4286 12.424C19.2543 12.2498 18.9332 12.2235 18.7052 12.424L16.2006 14.6338C16.1304 14.6181 16.0588 14.6091 15.9869 14.6069C15.8039 14.6068 15.6227 14.6427 15.4536 14.7126C15.2845 14.7826 15.1308 14.8852 15.0014 15.0146C14.8721 15.144 14.7694 15.2976 14.6995 15.4667C14.6295 15.6358 14.5936 15.8171 14.5937 16C14.5936 16.183 14.6295 16.3643 14.6995 16.5334C14.7694 16.7024 14.8721 16.8561 15.0014 16.9855C15.1308 17.1149 15.2845 17.2175 15.4536 17.2875C15.6227 17.3574 15.8033 17.3933 15.9863 17.3932ZM8.2726 17.3126C8.44515 17.3134 8.61615 17.2799 8.77571 17.2142C8.93526 17.1485 9.08022 17.0519 9.20221 16.9298C9.3242 16.8078 9.4208 16.6628 9.48644 16.5032C9.55207 16.3436 9.58543 16.1726 9.5846 16C9.58543 15.8275 9.55207 15.6565 9.48644 15.4969C9.4208 15.3373 9.3242 15.1923 9.20221 15.0703C9.08022 14.9482 8.93526 14.8516 8.77571 14.7859C8.61615 14.7202 8.44515 14.6867 8.2726 14.6875C7.56231 14.6875 6.96003 15.2766 6.96003 16C6.96003 16.7235 7.56231 17.3126 8.2726 17.3126ZM23.6875 17.3126C24.0354 17.3122 24.369 17.1737 24.6151 16.9277C24.8611 16.6816 24.9996 16.348 25 16C24.9996 15.6521 24.8611 15.3185 24.6151 15.0724C24.369 14.8264 24.0354 14.6879 23.6875 14.6875C23.3395 14.6879 23.0059 14.8264 22.7598 15.0724C22.5138 15.3185 22.3753 15.6521 22.3749 16C22.3753 16.348 22.5138 16.6816 22.7598 16.9277C23.0059 17.1737 23.3395 17.3122 23.6875 17.3126ZM10.5623 22.7098C10.9136 22.7089 11.2503 22.5689 11.4987 22.3205C11.7472 22.072 11.8871 21.7354 11.888 21.3841C11.8874 21.2108 11.8525 21.0393 11.7855 20.8795C11.7185 20.7197 11.6206 20.5747 11.4974 20.4528C11.3743 20.3309 11.2283 20.2344 11.0679 20.169C10.9074 20.1036 10.7356 20.0704 10.5623 20.0715C9.8526 20.0715 9.24974 20.6606 9.24974 21.3841C9.24974 22.1075 9.8526 22.7098 10.5623 22.7098ZM21.3972 22.7098C22.1069 22.7098 22.7097 22.1075 22.7097 21.3841C22.7097 20.6606 22.1069 20.0715 21.3972 20.0715C21.0492 20.0719 20.7156 20.2104 20.4695 20.4564C20.2235 20.7025 20.0851 21.0361 20.0846 21.3841C20.0846 22.1075 20.6743 22.7098 21.3972 22.7098Z" fill="#CAAEFF"/>
<path d="M27.3835 16L27.6835 15.9994V15.9994L27.3835 16ZM15.9863 9.57148L15.9859 9.87148H15.9863V9.57148ZM14.6737 8.25891H14.3737L14.3737 8.2593L14.6737 8.25891ZM10.5349 9.30348V9.00348L10.5345 9.00348L10.5349 9.30348ZM9.22231 10.616L8.92231 10.6157V10.616H9.22231ZM22.736 10.616H23.036V10.6157L22.736 10.616ZM21.4235 9.30348L21.422 9.60348L21.4231 9.60348L21.4235 9.30348ZM20.1109 10.616H20.4109L20.4109 10.6146L20.1109 10.616ZM15.9863 17.3932V17.0932H15.9861L15.9863 17.3932ZM17.352 15.7726L17.1177 15.5853L17.0344 15.6896L17.056 15.8213L17.352 15.7726ZM19.4286 13.1743L19.6631 13.3618L19.6703 13.3521L19.4286 13.1743ZM19.4286 12.424L19.2165 12.6362L19.2267 12.6464L19.2378 12.6556L19.4286 12.424ZM18.7052 12.424L18.507 12.1988L18.5067 12.1991L18.7052 12.424ZM16.2006 14.6338L16.1353 14.9266L16.2845 14.9598L16.3991 14.8587L16.2006 14.6338ZM15.9869 14.6069L15.9961 14.3069L15.9871 14.3069L15.9869 14.6069ZM14.5937 16L14.8937 16.0003L14.8937 15.9998L14.5937 16ZM8.2726 17.3126L8.27391 17.0126H8.2726V17.3126ZM9.5846 16L9.28459 15.9986L9.2846 16.0015L9.5846 16ZM8.2726 14.6875V14.9875L8.27391 14.9875L8.2726 14.6875ZM23.6875 17.3126L23.6871 17.6126L23.6878 17.6126L23.6875 17.3126ZM25 16L25.3 16.0004V15.9997L25 16ZM23.6875 14.6875L23.6878 14.3875L23.6871 14.3875L23.6875 14.6875ZM22.3749 16L22.0749 15.9997V16.0004L22.3749 16ZM10.5623 22.7098V23.0098L10.5631 23.0098L10.5623 22.7098ZM11.888 21.3841L12.188 21.3848L12.188 21.3829L11.888 21.3841ZM10.5623 20.0715V20.3715L10.5641 20.3715L10.5623 20.0715ZM21.3972 20.0715V19.7715H21.3968L21.3972 20.0715ZM20.0846 21.3841L19.7846 21.3837V21.3841H20.0846ZM16 29.9606C23.6255 29.9606 29.9606 23.6391 29.9606 16H29.3606C29.3606 23.3073 23.2945 29.3606 16 29.3606V29.9606ZM29.9606 16C29.9606 8.37397 23.6116 2.03948 15.9863 2.03948V2.63948C23.281 2.63948 29.3606 8.70612 29.3606 16H29.9606ZM15.9863 2.03948C8.34747 2.03948 2.04003 8.37495 2.04003 16H2.64003C2.64003 8.70515 8.68001 2.63948 15.9863 2.63948V2.03948ZM2.04003 16C2.04003 23.6389 8.36118 29.9606 16 29.9606V29.3606C8.69259 29.3606 2.64003 23.3075 2.64003 16H2.04003ZM16.0006 27.084C9.84443 27.084 4.9286 22.1559 4.9286 16H4.3286C4.3286 22.4864 9.5122 27.684 16.0006 27.684V27.084ZM4.9286 16C4.9286 9.85603 9.83141 4.91605 15.9863 4.91605V4.31605C9.49778 4.31605 4.3286 9.52692 4.3286 16H4.9286ZM15.9863 4.91605C22.1285 4.91605 27.0701 9.85773 27.0835 16.0007L27.6835 15.9994C27.6694 9.52636 22.4601 4.31605 15.9863 4.31605V4.91605ZM27.0835 16.0007C27.0963 22.1554 22.1426 27.084 15.9995 27.084V27.684C22.4723 27.684 27.6969 22.4881 27.6835 15.9994L27.0835 16.0007ZM15.9863 9.87148C16.8619 9.87148 17.5983 9.13414 17.5983 8.25891H16.9983C16.9983 8.8031 16.5302 9.27148 15.9863 9.27148V9.87148ZM17.5983 8.25891C17.5983 7.35673 16.8618 6.63319 15.9863 6.63319V7.23319C16.5303 7.23319 16.9983 7.68794 16.9983 8.25891H17.5983ZM15.9863 6.63319C15.0795 6.63319 14.3737 7.36066 14.3737 8.25891H14.9737C14.9737 7.68401 15.4188 7.23319 15.9863 7.23319V6.63319ZM14.3737 8.2593C14.3743 8.6867 14.5443 9.09644 14.8466 9.39866L15.2708 8.9744C15.0809 8.78451 14.9741 8.52706 14.9737 8.25851L14.3737 8.2593ZM14.8466 9.39866C15.1488 9.70089 15.5585 9.87092 15.9859 9.87148L15.9867 9.27148C15.7182 9.27113 15.4607 9.16429 15.2708 8.9744L14.8466 9.39866ZM10.5349 12.2286C11.4379 12.2286 12.1606 11.4913 12.1606 10.616H11.5606C11.5606 11.1602 11.1062 11.6286 10.5349 11.6286V12.2286ZM12.1606 10.616C12.1606 9.70998 11.4339 9.00348 10.5349 9.00348V9.60348C11.1102 9.60348 11.5606 10.049 11.5606 10.616H12.1606ZM10.5345 9.00348C10.1071 9.00403 9.69735 9.17407 9.39513 9.47629L9.81939 9.90055C10.0093 9.71066 10.2667 9.60383 10.5353 9.60348L10.5345 9.00348ZM9.39513 9.47629C9.0929 9.77851 8.92287 10.1883 8.92231 10.6157L9.52231 10.6164C9.52266 10.3479 9.6295 10.0904 9.81939 9.90055L9.39513 9.47629ZM8.92231 10.616C8.92231 11.4914 9.65949 12.2286 10.5349 12.2286V11.6286C9.99086 11.6286 9.52231 11.1601 9.52231 10.616H8.92231ZM21.4235 12.2286C22.2989 12.2286 23.036 11.4914 23.036 10.616H22.436C22.436 11.1601 21.9675 11.6286 21.4235 11.6286V12.2286ZM23.036 10.6157C23.0355 10.1883 22.8654 9.77851 22.5632 9.47629L22.139 9.90055C22.3288 10.0904 22.4357 10.3479 22.436 10.6164L23.036 10.6157ZM22.5632 9.47629C22.261 9.17407 21.8513 9.00403 21.4238 9.00348L21.4231 9.60348C21.6916 9.60383 21.9491 9.71066 22.139 9.90055L22.5632 9.47629ZM21.4249 9.00348C21.2127 9.00246 21.0023 9.04351 20.806 9.12425L21.0343 9.67913C21.1573 9.62855 21.289 9.60283 21.422 9.60347L21.4249 9.00348ZM20.806 9.12425C20.6098 9.205 20.4314 9.32385 20.2813 9.47393L20.7056 9.8982C20.7996 9.80418 20.9113 9.72972 21.0343 9.67913L20.806 9.12425ZM20.2813 9.47393C20.1313 9.62401 20.0124 9.80235 19.9317 9.99863L20.4865 10.2269C20.5371 10.1039 20.6116 9.99222 20.7056 9.8982L20.2813 9.47393ZM19.9317 9.99863C19.8509 10.1949 19.8099 10.4053 19.8109 10.6175L20.4109 10.6146C20.4102 10.4816 20.436 10.3499 20.4865 10.2269L19.9317 9.99863ZM19.8109 10.616C19.8109 11.4895 20.533 12.2286 21.4235 12.2286V11.6286C20.8682 11.6286 20.4109 11.162 20.4109 10.616H19.8109ZM15.9863 17.6932C16.9 17.6932 17.6789 16.9309 17.6789 16H17.0789C17.0789 16.596 16.5721 17.0932 15.9863 17.0932V17.6932ZM17.6789 16C17.6789 15.8891 17.659 15.7907 17.6481 15.724L17.056 15.8213C17.0713 15.9145 17.0789 15.951 17.0789 16H17.6789ZM17.5864 15.9599L19.663 13.3616L19.1942 12.987L17.1177 15.5853L17.5864 15.9599ZM19.6703 13.3521C19.7896 13.1899 19.8761 12.9925 19.884 12.7852C19.8922 12.5676 19.8114 12.3508 19.6194 12.1925L19.2378 12.6556C19.2732 12.6847 19.2862 12.7156 19.2844 12.7626C19.2822 12.8199 19.2551 12.9039 19.1869 12.9966L19.6703 13.3521ZM19.6407 12.2119C19.3519 11.9231 18.851 11.8962 18.507 12.1988L18.9033 12.6493C19.0153 12.5508 19.1567 12.5764 19.2165 12.6362L19.6407 12.2119ZM18.5067 12.1991L16.0021 14.4088L16.3991 14.8587L18.9036 12.649L18.5067 12.1991ZM16.2659 14.341C16.1772 14.3212 16.0869 14.3098 15.9961 14.307L15.9777 14.9068C16.0307 14.9084 16.0835 14.915 16.1353 14.9266L16.2659 14.341ZM15.9871 14.3069C15.7647 14.3067 15.5444 14.3504 15.3389 14.4354L15.5683 14.9899C15.7009 14.935 15.8431 14.9068 15.9866 14.9069L15.9871 14.3069ZM15.3389 14.4354C15.1333 14.5205 14.9466 14.6452 14.7893 14.8025L15.2136 15.2267C15.3151 15.1252 15.4356 15.0447 15.5683 14.9899L15.3389 14.4354ZM14.7893 14.8025C14.632 14.9598 14.5073 15.1465 14.4223 15.352L14.9767 15.5814C15.0316 15.4488 15.1121 15.3283 15.2136 15.2267L14.7893 14.8025ZM14.4223 15.352C14.3372 15.5576 14.2936 15.7779 14.2937 16.0003L14.8937 15.9998C14.8936 15.8562 14.9218 15.7141 14.9767 15.5814L14.4223 15.352ZM14.2937 15.9998C14.2936 16.2222 14.3372 16.4425 14.4223 16.648L14.9767 16.4187C14.9218 16.286 14.8936 16.1438 14.8937 16.0003L14.2937 15.9998ZM14.4223 16.648C14.5073 16.8536 14.632 17.0403 14.7893 17.1976L15.2136 16.7734C15.1121 16.6718 15.0316 16.5513 14.9767 16.4187L14.4223 16.648ZM14.7893 17.1976C14.9466 17.3549 15.1333 17.4796 15.3389 17.5647L15.5683 17.0102C15.4356 16.9554 15.3151 16.8749 15.2136 16.7734L14.7893 17.1976ZM15.3389 17.5647C15.5443 17.6497 15.764 17.6934 15.9866 17.6932L15.9861 17.0932C15.8426 17.0933 15.701 17.0652 15.5683 17.0102L15.3389 17.5647ZM8.27128 17.6126C8.48347 17.6135 8.69373 17.5724 8.88993 17.4916L8.66148 16.9368C8.53856 16.9874 8.40684 17.0132 8.27391 17.0126L8.27128 17.6126ZM8.88993 17.4916C9.08613 17.4108 9.26439 17.292 9.41439 17.1419L8.99004 16.7177C8.89606 16.8118 8.78439 16.8862 8.66148 16.9368L8.88993 17.4916ZM9.41439 17.1419C9.5644 16.9918 9.68318 16.8135 9.76389 16.6173L9.20898 16.3891C9.15842 16.512 9.08401 16.6237 8.99004 16.7177L9.41439 17.1419ZM9.76389 16.6173C9.84459 16.4211 9.88562 16.2108 9.8846 15.9986L9.2846 16.0015C9.28524 16.1344 9.25954 16.2662 9.20898 16.3891L9.76389 16.6173ZM9.8846 16.0015C9.88562 15.7893 9.84459 15.579 9.76389 15.3828L9.20898 15.611C9.25954 15.7339 9.28524 15.8657 9.2846 15.9986L9.8846 16.0015ZM9.76389 15.3828C9.68318 15.1866 9.5644 15.0083 9.41439 14.8582L8.99004 15.2824C9.08401 15.3764 9.15842 15.4881 9.20898 15.611L9.76389 15.3828ZM9.41439 14.8582C9.26439 14.7081 9.08613 14.5892 8.88993 14.5085L8.66148 15.0633C8.78439 15.1139 8.89606 15.1883 8.99004 15.2824L9.41439 14.8582ZM8.88993 14.5085C8.69373 14.4277 8.48347 14.3865 8.27128 14.3875L8.27391 14.9875C8.40684 14.9869 8.53856 15.0126 8.66148 15.0633L8.88993 14.5085ZM8.2726 14.3875C7.39858 14.3875 6.66003 15.109 6.66003 16H7.26003C7.26003 15.4442 7.72605 14.9875 8.2726 14.9875V14.3875ZM6.66003 16C6.66003 16.8911 7.39858 17.6126 8.2726 17.6126V17.0126C7.72605 17.0126 7.26003 16.5558 7.26003 16H6.66003ZM23.6878 17.6126C24.1153 17.6121 24.525 17.442 24.8272 17.1398L24.403 16.7155C24.2131 16.9054 23.9556 17.0123 23.6871 17.0126L23.6878 17.6126ZM24.8272 17.1398C25.1294 16.8376 25.2995 16.4278 25.3 16.0004L24.7 15.9997C24.6997 16.2682 24.5928 16.5257 24.403 16.7155L24.8272 17.1398ZM25.3 15.9997C25.2995 15.5723 25.1294 15.1625 24.8272 14.8603L24.403 15.2846C24.5928 15.4744 24.6997 15.7319 24.7 16.0004L25.3 15.9997ZM24.8272 14.8603C24.525 14.5581 24.1153 14.388 23.6878 14.3875L23.6871 14.9875C23.9556 14.9878 24.2131 15.0947 24.403 15.2846L24.8272 14.8603ZM23.6871 14.3875C23.2597 14.388 22.8499 14.5581 22.5477 14.8603L22.972 15.2846C23.1619 15.0947 23.4193 14.9878 23.6878 14.9875L23.6871 14.3875ZM22.5477 14.8603C22.2455 15.1625 22.0754 15.5723 22.0749 15.9997L22.6749 16.0004C22.6752 15.7319 22.7821 15.4744 22.972 15.2846L22.5477 14.8603ZM22.0749 16.0004C22.0754 16.4278 22.2455 16.8376 22.5477 17.1398L22.972 16.7155C22.7821 16.5257 22.6752 16.2682 22.6749 15.9997L22.0749 16.0004ZM22.5477 17.1398C22.8499 17.442 23.2597 17.6121 23.6871 17.6126L23.6878 17.0126C23.4193 17.0123 23.1619 16.9054 22.972 16.7155L22.5477 17.1398ZM10.5631 23.0098C10.9937 23.0087 11.4064 22.8371 11.7109 22.5326L11.2866 22.1083C11.0942 22.3007 10.8336 22.4091 10.5615 22.4098L10.5631 23.0098ZM11.7109 22.5326C12.0154 22.2281 12.1869 21.8154 12.188 21.3848L11.588 21.3833C11.5873 21.6553 11.479 21.916 11.2866 22.1083L11.7109 22.5326ZM12.188 21.3829C12.1872 21.1701 12.1444 20.9597 12.0621 20.7635L11.5088 20.9955C11.5606 21.119 11.5875 21.2514 11.588 21.3852L12.188 21.3829ZM12.0621 20.7635C11.9799 20.5673 11.8597 20.3893 11.7085 20.2396L11.2864 20.666C11.3815 20.7601 11.4571 20.8721 11.5088 20.9955L12.0621 20.7635ZM11.7085 20.2396C11.5573 20.0899 11.3781 19.9715 11.1811 19.8912L10.9546 20.4468C11.0785 20.4973 11.1913 20.5718 11.2864 20.666L11.7085 20.2396ZM11.1811 19.8912C10.9841 19.8109 10.7732 19.7702 10.5605 19.7715L10.5641 20.3715C10.698 20.3707 10.8307 20.3962 10.9546 20.4468L11.1811 19.8912ZM10.5623 19.7715C9.68895 19.7715 8.94974 20.4929 8.94974 21.3841H9.54974C9.54974 20.8283 10.0162 20.3715 10.5623 20.3715V19.7715ZM8.94974 21.3841C8.94974 22.2713 9.68507 23.0098 10.5623 23.0098V22.4098C10.0201 22.4098 9.54974 21.9436 9.54974 21.3841H8.94974ZM21.3972 23.0098C22.2744 23.0098 23.0097 22.2713 23.0097 21.3841H22.4097C22.4097 21.9436 21.9394 22.4098 21.3972 22.4098V23.0098ZM23.0097 21.3841C23.0097 20.4929 22.2705 19.7715 21.3972 19.7715V20.3715C21.9432 20.3715 22.4097 20.8283 22.4097 21.3841H23.0097ZM21.3968 19.7715C20.9694 19.772 20.5596 19.9421 20.2574 20.2443L20.6817 20.6686C20.8716 20.4787 21.129 20.3718 21.3976 20.3715L21.3968 19.7715ZM20.2574 20.2443C19.9552 20.5465 19.7852 20.9563 19.7846 21.3837L20.3846 21.3844C20.3849 21.1159 20.4918 20.8584 20.6817 20.6686L20.2574 20.2443ZM19.7846 21.3841C19.7846 22.2694 20.5048 23.0098 21.3972 23.0098V22.4098C20.8438 22.4098 20.3846 21.9456 20.3846 21.3841H19.7846Z" fill="white" mask="url(#path-1-inside-1_10939_76904)"/>
</svg>
