<svg width="64" height="64" viewBox="0 0 64 64" fill="none" xmlns="http://www.w3.org/2000/svg">
<rect width="64" height="64" rx="8" fill="#4E0CC9"/>
<path d="M34.5286 36.8976L34.3093 36.9773L34.2296 37.1966L30.9981 46.0839C30.9979 46.0844 30.9977 46.0848 30.9976 46.0853C30.9575 46.1924 30.8858 46.2847 30.7919 46.35C30.6976 46.4155 30.5856 46.4507 30.4707 46.4507C30.3559 46.4507 30.2438 46.4155 30.1496 46.35C30.0557 46.2847 29.984 46.1924 29.9439 46.0854C29.9437 46.0849 29.9436 46.0844 29.9434 46.0839L26.7173 37.1968L26.6376 36.9773L26.4182 36.8976L17.5308 33.666C17.5304 33.6659 17.5299 33.6657 17.5295 33.6655C17.4224 33.6255 17.3301 33.5537 17.2648 33.4599C17.1992 33.3656 17.1641 33.2535 17.1641 33.1387C17.1641 33.0239 17.1992 32.9118 17.2648 32.8175C17.33 32.7237 17.4224 32.652 17.5294 32.6119C17.5299 32.6117 17.5303 32.6115 17.5308 32.6114L26.4179 29.3853L26.6374 29.3056L26.7172 29.0861L29.9487 20.1988C29.9489 20.1983 29.949 20.1979 29.9492 20.1974C29.9893 20.0904 30.061 19.998 30.1549 19.9327C30.2491 19.8672 30.3612 19.832 30.476 19.832C30.5909 19.832 30.7029 19.8672 30.7972 19.9327C30.8911 19.998 30.9628 20.0904 31.0029 20.1974C31.0031 20.1979 31.0032 20.1983 31.0034 20.1988L34.2349 29.0861L34.3146 29.3054L34.5339 29.3852L43.4199 32.6162C43.5252 32.6572 43.6157 32.7289 43.6796 32.8221C43.7442 32.9162 43.7786 33.0277 43.7783 33.1419C43.778 33.256 43.743 33.3673 43.6779 33.4611C43.6132 33.5542 43.522 33.6256 43.4161 33.666L34.5286 36.8976Z" stroke="white"/>
<path d="M42.4755 23.6571L42.3658 23.697L42.326 23.8067L41.39 26.3803C41.39 26.3804 41.3899 26.3806 41.3898 26.3808C41.3857 26.3916 41.3784 26.401 41.3688 26.4076L41.5116 26.6129L41.3688 26.4076C41.3591 26.4144 41.3476 26.418 41.3358 26.418C41.324 26.418 41.3125 26.4144 41.3028 26.4076C41.2932 26.401 41.2859 26.3916 41.2818 26.3808C41.2817 26.3806 41.2817 26.3805 41.2816 26.3803L40.3472 23.8068L40.3074 23.697L40.1977 23.6571L37.6236 22.7213C37.6235 22.7213 37.6233 22.7212 37.6231 22.7212C37.6123 22.717 37.6029 22.7097 37.5963 22.7002L37.3926 22.8418L37.5963 22.7002C37.5895 22.6905 37.5859 22.679 37.5859 22.6672C37.5859 22.6554 37.5895 22.6439 37.5963 22.6342L37.3926 22.4925L37.5963 22.6342C37.6029 22.6247 37.6123 22.6174 37.6231 22.6132L40.1975 21.6788L40.3073 21.639L40.3472 21.5293L41.2833 18.9552C41.2875 18.9443 41.2948 18.935 41.3043 18.9283C41.314 18.9216 41.3255 18.918 41.3373 18.918C41.3492 18.918 41.3607 18.9216 41.3704 18.9283C41.3799 18.935 41.3872 18.9443 41.3914 18.9552C41.3914 18.9553 41.3915 18.9555 41.3916 18.9556L42.3275 21.5293L42.3674 21.6389L42.477 21.6788L45.0499 22.6142C45.0604 22.6184 45.0694 22.6257 45.0758 22.635L45.2819 22.4935L45.0758 22.635C45.0824 22.6447 45.086 22.6561 45.0859 22.6678C45.0859 22.6795 45.0823 22.691 45.0756 22.7006C45.0691 22.71 45.0599 22.7173 45.0493 22.7214L42.4755 23.6571Z" stroke="white" stroke-width="0.5"/>
</svg>
