<svg width="48" height="48" viewBox="0 0 48 48" fill="none" xmlns="http://www.w3.org/2000/svg">
<rect width="48" height="48" rx="24" fill="white" fill-opacity="0.04"/>
<rect x="0.5" y="0.5" width="47" height="47" rx="23.5" stroke="white" stroke-opacity="0.16"/>
<path d="M24.472 30.18C21.034 30.18 19.72 28.614 19.72 26.31V26.022H21.628V26.292C21.628 27.804 22.132 28.398 24.508 28.398C26.416 28.398 27.172 27.93 27.172 26.526C27.172 25.014 26.506 24.564 24.832 24.564H22.42V22.944H24.562C26.146 22.944 26.758 22.548 26.758 21.288C26.758 20.028 26.038 19.542 24.346 19.542C22.258 19.542 21.628 20.136 21.628 21.648V21.792H19.72V21.63C19.72 19.326 21.34 17.76 24.364 17.76C27.082 17.76 28.702 18.876 28.702 20.982C28.702 22.368 28 23.394 26.47 23.61V23.682C28.126 23.916 29.134 24.996 29.134 26.724C29.134 29.046 27.262 30.18 24.472 30.18Z" fill="white"/>
</svg>
