<svg width="64" height="64" viewBox="0 0 64 64" fill="none" xmlns="http://www.w3.org/2000/svg">
<rect width="64" height="64" rx="8" fill="#4E0CC9"/>
<path d="M32 40.2668C34.9455 40.2668 37.3334 37.879 37.3334 34.9334C37.3334 31.9879 34.9455 29.6001 32 29.6001C29.0545 29.6001 26.6667 31.9879 26.6667 34.9334C26.6667 37.879 29.0545 40.2668 32 40.2668Z" stroke="white" stroke-width="1.5" stroke-miterlimit="10" stroke-linecap="round" stroke-linejoin="round"/>
<path d="M29.92 35.0664L30.7867 35.9331C31.04 36.1864 31.4533 36.1864 31.7066 35.9464L34.08 33.7598" stroke="white" stroke-width="1.5" stroke-linecap="round" stroke-linejoin="round"/>
<path d="M26.6666 45.3333H37.3333C42.6933 45.3333 43.6533 43.1867 43.9333 40.5733L44.9333 29.9067C45.2933 26.6533 44.36 24 38.6666 24H25.3333C19.64 24 18.7066 26.6533 19.0666 29.9067L20.0666 40.5733C20.3466 43.1867 21.3066 45.3333 26.6666 45.3333Z" stroke="white" stroke-width="1.5" stroke-miterlimit="10" stroke-linecap="round" stroke-linejoin="round"/>
<path d="M26.6667 23.9998V22.9332C26.6667 20.5732 26.6667 18.6665 30.9334 18.6665H33.0667C37.3334 18.6665 37.3334 20.5732 37.3334 22.9332V23.9998" stroke="white" stroke-width="1.5" stroke-miterlimit="10" stroke-linecap="round" stroke-linejoin="round"/>
<path d="M44.8667 30.6665C42.56 32.3465 40 33.5198 37.3467 34.1865" stroke="white" stroke-width="1.5" stroke-miterlimit="10" stroke-linecap="round" stroke-linejoin="round"/>
<path d="M19.4933 31.0269C21.72 32.5469 24.1467 33.6269 26.6667 34.2402" stroke="white" stroke-width="1.5" stroke-miterlimit="10" stroke-linecap="round" stroke-linejoin="round"/>
</svg>
