<svg width="48" height="48" viewBox="0 0 48 48" fill="none" xmlns="http://www.w3.org/2000/svg">
<rect width="48" height="48" rx="24" fill="white" fill-opacity="0.04"/>
<rect x="0.5" y="0.5" width="47" height="47" rx="23.5" stroke="white" stroke-opacity="0.16"/>
<path d="M28.954 30H20.062V28.794C20.062 26.508 21.61 25.464 23.302 24.6L25.156 23.646C26.452 22.962 26.974 22.422 26.974 21.396C26.974 20.28 26.56 19.542 24.562 19.542C22.366 19.542 21.916 20.262 21.916 21.918V22.17H19.972V21.882C19.972 19.632 21.376 17.76 24.706 17.76C27.676 17.76 28.918 19.326 28.918 21.324C28.918 23.304 27.568 24.366 26.02 25.158L24.256 26.058C23.032 26.688 22.096 27.264 22.096 28.254H28.954V30Z" fill="white"/>
</svg>
