<svg width="100" height="51" viewBox="0 0 100 51" fill="none" xmlns="http://www.w3.org/2000/svg">
<g clip-path="url(#clip0_10939_77359)">
<g clip-path="url(#clip1_10939_77359)">
<path d="M73.5181 18.3858C73.2299 18.3858 72.9881 18.2882 72.7929 18.0929C72.5976 17.8977 72.5 17.6559 72.5 17.3677C72.5 17.0795 72.5976 16.8377 72.7929 16.6425C72.9881 16.4472 73.2299 16.3496 73.5181 16.3496C73.797 16.3496 74.0341 16.4472 74.2294 16.6425C74.4246 16.8377 74.5222 17.0795 74.5222 17.3677C74.5222 17.6559 74.4246 17.8977 74.2294 18.0929C74.0341 18.2882 73.797 18.3858 73.5181 18.3858ZM73.5041 19.4039C73.9432 19.4039 74.2991 19.7598 74.2991 20.1988V26.2935C74.2991 26.7325 73.9432 27.0884 73.5041 27.0884C73.0651 27.0884 72.7092 26.7325 72.7092 26.2935V20.1988C72.7092 19.7598 73.0651 19.4039 73.5041 19.4039Z" fill="white"/>
<path d="M75.8565 23.2113C75.8565 22.4396 76.0146 21.7562 76.3307 21.1611C76.6561 20.5661 77.0931 20.1059 77.6417 19.7804C78.1995 19.4457 78.8178 19.2784 79.4966 19.2784C79.9986 19.2784 80.4095 19.4378 80.9749 19.6131C81.5003 19.811 82.0615 19.4231 82.0615 18.8617C82.0615 18.4852 82.0615 18.051 82.0615 17.6124C82.0615 17.1461 82.4395 16.768 82.9058 16.768C83.3722 16.768 83.7502 17.1461 83.7502 17.6124V26.244C83.7502 26.7104 83.3722 27.0884 82.9058 27.0884H82.8862C82.4307 27.0884 82.0615 26.7192 82.0615 26.2637C82.0615 26.0716 81.5234 26.6096 81.0586 26.8513C80.603 27.0931 80.0777 27.2139 79.4826 27.2139C78.8132 27.2139 78.1995 27.0466 77.6417 26.7118C77.0931 26.3678 76.6561 25.8937 76.3307 25.2893C76.0146 24.6757 75.8565 23.983 75.8565 23.2113ZM82.1464 23.2392C82.1464 22.7092 82.0348 22.249 81.8117 21.8585C81.5978 21.468 81.3143 21.1704 80.9609 20.9659C80.6076 20.7613 80.2264 20.6591 79.8173 20.6591C79.4082 20.6591 79.027 20.7613 78.6737 20.9659C78.3204 21.1611 78.0322 21.454 77.809 21.8445C77.5952 22.2257 77.4883 22.6813 77.4883 23.2113C77.4883 23.7412 77.5952 24.2061 77.809 24.6059C78.0322 25.0057 78.3204 25.3126 78.6737 25.5264C79.0363 25.7309 79.4175 25.8332 79.8173 25.8332C80.2264 25.8332 80.6076 25.7309 80.9609 25.5264C81.3143 25.3218 81.5978 25.0243 81.8117 24.6338C82.0348 24.234 82.1464 23.7691 82.1464 23.2392Z" fill="white"/>
<path d="M85.3085 23.2113C85.3085 22.4396 85.4666 21.7562 85.7827 21.1611C86.1081 20.5661 86.5451 20.1059 87.0937 19.7804C87.6515 19.4457 88.2652 19.2784 88.9346 19.2784C89.539 19.2784 90.0643 19.3992 90.5106 19.641C90.7783 19.7776 91.0139 19.935 91.2174 20.1134C91.3531 20.2323 91.5984 20.1422 91.5984 19.9617C91.5984 19.6537 91.8482 19.4039 92.1563 19.4039H92.4003C92.8432 19.4039 93.2022 19.7629 93.2022 20.2058V26.2865C93.2022 26.7294 92.8432 27.0884 92.4003 27.0884H92.1702C91.8544 27.0884 91.5984 26.8324 91.5984 26.5166C91.5984 26.3343 91.3483 26.2438 91.2122 26.3651C91.0071 26.5478 90.7686 26.7099 90.4966 26.8513C90.0317 27.0931 89.5018 27.2139 88.9067 27.2139C88.2466 27.2139 87.6423 27.0466 87.0937 26.7118C86.5451 26.3678 86.1081 25.8937 85.7827 25.2893C85.4666 24.6757 85.3085 23.983 85.3085 23.2113ZM91.5984 23.2392C91.5984 22.7092 91.4868 22.249 91.2637 21.8585C91.0498 21.468 90.7663 21.1704 90.413 20.9659C90.0596 20.7613 89.6784 20.6591 89.2693 20.6591C88.8602 20.6591 88.479 20.7613 88.1257 20.9659C87.7724 21.1611 87.4842 21.454 87.261 21.8445C87.0472 22.2257 86.9403 22.6813 86.9403 23.2113C86.9403 23.7412 87.0472 24.2061 87.261 24.6059C87.4842 25.0057 87.7724 25.3126 88.1257 25.5264C88.4883 25.7309 88.8695 25.8332 89.2693 25.8332C89.6784 25.8332 90.0596 25.7309 90.413 25.5264C90.7663 25.3218 91.0498 25.0243 91.2637 24.6338C91.4868 24.234 91.5984 23.7691 91.5984 23.2392Z" fill="white"/>
</g>
<g clip-path="url(#clip2_10939_77359)">
<path d="M97.0181 18.6143C96.7299 18.6143 96.4881 18.5167 96.2929 18.3214C96.0976 18.1262 96 17.8844 96 17.5962C96 17.308 96.0976 17.0663 96.2929 16.871C96.4881 16.6758 96.7299 16.5781 97.0181 16.5781C97.297 16.5781 97.5341 16.6758 97.7294 16.871C97.9246 17.0663 98.0222 17.308 98.0222 17.5962C98.0222 17.8844 97.9246 18.1262 97.7294 18.3214C97.5341 18.5167 97.297 18.6143 97.0181 18.6143ZM97.0041 19.6324C97.4432 19.6324 97.7991 19.9883 97.7991 20.4274V26.522C97.7991 26.961 97.4432 27.3169 97.0041 27.3169C96.5651 27.3169 96.2092 26.961 96.2092 26.522V20.4274C96.2092 19.9883 96.5651 19.6324 97.0041 19.6324Z" fill="white"/>
<path d="M99.3565 23.4398C99.3565 22.6681 99.5146 21.9847 99.8307 21.3897C100.156 20.7946 100.593 20.3344 101.142 20.009C101.7 19.6742 102.318 19.5069 102.997 19.5069C103.499 19.5069 103.909 19.6664 104.475 19.8416C105 20.0395 105.561 19.6516 105.561 19.0902C105.561 18.7137 105.561 18.2795 105.561 17.8409C105.561 17.3746 105.94 16.9965 106.406 16.9965C106.872 16.9965 107.25 17.3746 107.25 17.8409V26.4725C107.25 26.9389 106.872 27.3169 106.406 27.3169H106.386C105.931 27.3169 105.561 26.9477 105.561 26.4922C105.561 26.3002 105.023 26.8381 104.559 27.0798C104.103 27.3216 103.578 27.4424 102.983 27.4424C102.313 27.4424 101.7 27.2751 101.142 26.9404C100.593 26.5964 100.156 26.1222 99.8307 25.5178C99.5146 24.9042 99.3565 24.2115 99.3565 23.4398ZM105.646 23.4677C105.646 22.9377 105.535 22.4775 105.312 22.087C105.098 21.6965 104.814 21.399 104.461 21.1944C104.108 20.9899 103.726 20.8876 103.317 20.8876C102.908 20.8876 102.527 20.9899 102.174 21.1944C101.82 21.3897 101.532 21.6825 101.309 22.073C101.095 22.4542 100.988 22.9098 100.988 23.4398C100.988 23.9698 101.095 24.4346 101.309 24.8344C101.532 25.2342 101.82 25.5411 102.174 25.7549C102.536 25.9595 102.918 26.0617 103.317 26.0617C103.726 26.0617 104.108 25.9595 104.461 25.7549C104.814 25.5504 105.098 25.2528 105.312 24.8623C105.535 24.4625 105.646 23.9977 105.646 23.4677Z" fill="white"/>
<path d="M108.809 23.4398C108.809 22.6681 108.967 21.9847 109.283 21.3897C109.608 20.7946 110.045 20.3344 110.594 20.009C111.152 19.6742 111.765 19.5069 112.435 19.5069C113.039 19.5069 113.564 19.6278 114.011 19.8695C114.278 20.0061 114.514 20.1636 114.717 20.3419C114.853 20.4608 115.098 20.3707 115.098 20.1903C115.098 19.8822 115.348 19.6324 115.656 19.6324H115.9C116.343 19.6324 116.702 19.9914 116.702 20.4343V26.515C116.702 26.9579 116.343 27.3169 115.9 27.3169H115.67C115.354 27.3169 115.098 27.0609 115.098 26.7451C115.098 26.5628 114.848 26.4723 114.712 26.5936C114.507 26.7764 114.269 26.9384 113.997 27.0798C113.532 27.3216 113.002 27.4424 112.407 27.4424C111.747 27.4424 111.142 27.2751 110.594 26.9404C110.045 26.5964 109.608 26.1222 109.283 25.5178C108.967 24.9042 108.809 24.2115 108.809 23.4398ZM115.098 23.4677C115.098 22.9377 114.987 22.4775 114.764 22.087C114.55 21.6965 114.266 21.399 113.913 21.1944C113.56 20.9899 113.178 20.8876 112.769 20.8876C112.36 20.8876 111.979 20.9899 111.626 21.1944C111.272 21.3897 110.984 21.6825 110.761 22.073C110.547 22.4542 110.44 22.9098 110.44 23.4398C110.44 23.9698 110.547 24.4346 110.761 24.8344C110.984 25.2342 111.272 25.5411 111.626 25.7549C111.988 25.9595 112.37 26.0617 112.769 26.0617C113.178 26.0617 113.56 25.9595 113.913 25.7549C114.266 25.5504 114.55 25.2528 114.764 24.8623C114.987 24.4625 115.098 23.9977 115.098 23.4677Z" fill="white"/>
</g>
<g clip-path="url(#clip3_10939_77359)">
<path d="M99.4627 16.3966L97.7957 17.0027L97.1896 18.6697C97.1754 18.7078 97.1499 18.7407 97.1166 18.7639C97.0832 18.7871 97.0435 18.7996 97.0028 18.7996C96.9621 18.7996 96.9225 18.7871 96.8891 18.7639C96.8557 18.7407 96.8302 18.7078 96.816 18.6697L96.2109 17.0027L94.544 16.3966C94.5058 16.3825 94.4729 16.357 94.4497 16.3236C94.4265 16.2902 94.4141 16.2505 94.4141 16.2098C94.4141 16.1692 94.4265 16.1295 94.4497 16.0961C94.4729 16.0627 94.5058 16.0372 94.544 16.0231L96.2109 15.418L96.817 13.751C96.8312 13.7129 96.8567 13.68 96.8901 13.6568C96.9234 13.6335 96.9631 13.6211 97.0038 13.6211C97.0445 13.6211 97.0842 13.6335 97.1176 13.6568C97.1509 13.68 97.1764 13.7129 97.1906 13.751L97.7967 15.418L99.4637 16.0241C99.5014 16.0385 99.5339 16.0641 99.5568 16.0974C99.5796 16.1308 99.5918 16.1703 99.5917 16.2107C99.5916 16.2511 99.5792 16.2905 99.5562 16.3238C99.5331 16.357 99.5005 16.3824 99.4627 16.3966Z" fill="white"/>
<path d="M99.7673 14.3079L99.2844 14.4834L99.1088 14.9663C99.1047 14.9773 99.0973 14.9868 99.0876 14.9936C99.0779 15.0003 99.0664 15.0039 99.0547 15.0039C99.0429 15.0039 99.0314 15.0003 99.0217 14.9936C99.012 14.9868 99.0047 14.9773 99.0006 14.9663L98.8252 14.4834L98.3423 14.3079C98.3313 14.3038 98.3217 14.2964 98.315 14.2867C98.3083 14.277 98.3047 14.2655 98.3047 14.2538C98.3047 14.242 98.3083 14.2305 98.315 14.2208C98.3217 14.2111 98.3313 14.2038 98.3423 14.1997L98.8252 14.0244L99.0008 13.5415C99.0049 13.5305 99.0123 13.521 99.022 13.5142C99.0317 13.5075 99.0432 13.5039 99.055 13.5039C99.0667 13.5039 99.0782 13.5075 99.0879 13.5142C99.0976 13.521 99.105 13.5305 99.1091 13.5415L99.2847 14.0244L99.7676 14.2C99.7785 14.2041 99.7879 14.2115 99.7946 14.2212C99.8012 14.2309 99.8047 14.2423 99.8047 14.254C99.8047 14.2657 99.8011 14.2771 99.7944 14.2868C99.7877 14.2964 99.7783 14.3037 99.7673 14.3079Z" fill="white"/>
</g>
<path d="M48.6551 30.904C48.1578 30.904 47.7407 30.7356 47.4038 30.3987C47.0669 30.0618 46.8984 29.6447 46.8984 29.1473C46.8984 28.65 47.0669 28.2329 47.4038 27.896C47.7407 27.5591 48.1578 27.3906 48.6551 27.3906C49.1364 27.3906 49.5455 27.5591 49.8824 27.896C50.2193 28.2329 50.3878 28.65 50.3878 29.1473C50.3878 29.6447 50.2193 30.0618 49.8824 30.3987C49.5455 30.7356 49.1364 30.904 48.6551 30.904ZM48.6311 32.6608C49.3886 32.6608 50.0028 33.2749 50.0028 34.0324V44.5486C50.0028 45.3062 49.3886 45.9203 48.6311 45.9203C47.8735 45.9203 47.2594 45.3062 47.2594 44.5486V34.0324C47.2594 33.2749 47.8735 32.6608 48.6311 32.6608Z" fill="white"/>
<path d="M52.6901 39.2304C52.6901 37.8988 52.9628 36.7196 53.5083 35.6929C54.0698 34.6661 54.8238 33.872 55.7704 33.3105C56.7329 32.7329 57.7998 32.4442 58.9709 32.4442C59.8373 32.4442 60.5462 32.7194 61.5218 33.0217C62.4283 33.3631 63.3966 32.6939 63.3966 31.7252C63.3966 31.0756 63.3966 30.3263 63.3966 29.5696C63.3966 28.7649 64.0489 28.1126 64.8536 28.1126C65.6583 28.1126 66.3106 28.7649 66.3106 29.5696V44.4633C66.3106 45.268 65.6583 45.9203 64.8536 45.9203H64.8197C64.0338 45.9203 63.3966 45.2832 63.3966 44.4972C63.3966 44.1659 62.4683 45.0941 61.6662 45.5112C60.8801 45.9283 59.9736 46.1369 58.9469 46.1369C57.7918 46.1369 56.7329 45.8481 55.7704 45.2706C54.8238 44.677 54.0698 43.8588 53.5083 42.816C52.9628 41.7571 52.6901 40.5619 52.6901 39.2304ZM63.5432 39.2785C63.5432 38.364 63.3507 37.5699 62.9656 36.8961C62.5967 36.2223 62.1073 35.7089 61.4977 35.356C60.8881 35.003 60.2303 34.8266 59.5244 34.8266C58.8185 34.8266 58.1608 35.003 57.5511 35.356C56.9415 35.6929 56.4442 36.1982 56.0591 36.872C55.6901 37.5298 55.5056 38.3159 55.5056 39.2304C55.5056 40.1448 55.6901 40.947 56.0591 41.6368C56.4442 42.3267 56.9415 42.8561 57.5511 43.2251C58.1768 43.578 58.8346 43.7545 59.5244 43.7545C60.2303 43.7545 60.8881 43.578 61.4977 43.2251C62.1073 42.8721 62.5967 42.3588 62.9656 41.685C63.3507 40.9951 63.5432 40.193 63.5432 39.2785Z" fill="white"/>
<path d="M68.9994 39.2304C68.9994 37.8988 69.2722 36.7196 69.8176 35.6929C70.3791 34.6661 71.1332 33.872 72.0797 33.3105C73.0423 32.7329 74.1011 32.4442 75.2562 32.4442C76.299 32.4442 77.2055 32.6527 77.9755 33.0699C78.4375 33.3055 78.844 33.5773 79.1952 33.885C79.4293 34.0901 79.8525 33.9346 79.8525 33.6233C79.8525 33.0917 80.2835 32.6608 80.8151 32.6608H81.2363C82.0005 32.6608 82.62 33.2803 82.62 34.0445V44.5366C82.62 45.3008 82.0005 45.9203 81.2363 45.9203H80.8392C80.2943 45.9203 79.8525 45.4786 79.8525 44.9337C79.8525 44.6191 79.421 44.463 79.1861 44.6722C78.8322 44.9876 78.4206 45.2672 77.9514 45.5112C77.1493 45.9283 76.2348 46.1369 75.2081 46.1369C74.069 46.1369 73.0262 45.8481 72.0797 45.2706C71.1332 44.677 70.3791 43.8588 69.8176 42.816C69.2722 41.7571 68.9994 40.5619 68.9994 39.2304ZM79.8525 39.2785C79.8525 38.364 79.66 37.5699 79.275 36.8961C78.906 36.2223 78.4167 35.7089 77.8071 35.356C77.1974 35.003 76.5397 34.8266 75.8338 34.8266C75.1279 34.8266 74.4701 35.003 73.8605 35.356C73.2508 35.6929 72.7535 36.1982 72.3685 36.872C71.9995 37.5298 71.815 38.3159 71.815 39.2304C71.815 40.1448 71.9995 40.947 72.3685 41.6368C72.7535 42.3267 73.2508 42.8561 73.8605 43.2251C74.4862 43.578 75.1439 43.7545 75.8338 43.7545C76.5397 43.7545 77.1974 43.578 77.8071 43.2251C78.4167 42.8721 78.906 42.3588 79.275 41.685C79.66 40.9951 79.8525 40.193 79.8525 39.2785Z" fill="white"/>
<path fill-rule="evenodd" clip-rule="evenodd" d="M26.7852 17.5807L18.2559 4.5106C16.8104 2.31102 14.5519 0.774165 11.9753 0.236829C9.39866 -0.300507 6.71411 0.205497 4.50991 1.64396C2.3057 3.08242 0.761626 5.33601 0.216039 7.91089C-0.329548 10.4858 0.167853 13.1719 1.59924 15.3807L18.0095 40.5278C21.7369 46.2343 28.451 48.2012 33.6718 43.3701C35.4092 41.7541 37.7112 37.7159 38.9715 35.7782C41.5564 31.8177 48.5704 20.5639 51.1541 16.6021C44.4557 22.2199 33.6001 27.7491 27.4457 18.6006L26.9382 17.8223L26.7804 17.5795L26.7852 17.5807ZM27.4506 18.6006L26.9431 17.8223C27.113 18.087 27.283 18.3444 27.453 18.597L27.4506 18.6006Z" fill="white"/>
<path d="M56.1788 24.8941C55.8168 24.8944 55.4583 24.8234 55.1238 24.6851C54.7893 24.5468 54.4853 24.3439 54.2292 24.0881C53.9731 23.8322 53.77 23.5284 53.6314 23.194C53.4928 22.8596 53.4215 22.5012 53.4215 22.1392V17.6469C53.4216 17.2852 53.3505 16.927 53.2122 16.5928C53.0739 16.2586 52.8711 15.9549 52.6154 15.699C52.3597 15.4432 52.056 15.2403 51.7219 15.1018C51.3877 14.9633 51.0295 14.8921 50.6678 14.8921H46.1755C45.4452 14.8921 44.7448 14.602 44.2284 14.0855C43.712 13.5691 43.4219 12.8687 43.4219 12.1384C43.4219 11.4081 43.712 10.7077 44.2284 10.1913C44.7448 9.67488 45.4452 9.38477 46.1755 9.38477H58.9239V22.1332C58.9255 22.8632 58.6373 23.564 58.1226 24.0816C57.6079 24.5993 56.9088 24.8915 56.1788 24.8941Z" fill="white"/>
</g>
<defs>
<clipPath id="clip0_10939_77359">
<rect width="100" height="51" fill="white"/>
</clipPath>
<clipPath id="clip1_10939_77359">
<rect width="8.11364" height="11.0114" fill="white" transform="translate(85.25 17.5078)"/>
</clipPath>
<clipPath id="clip2_10939_77359">
<rect width="2" height="9" fill="white" transform="translate(96 19)"/>
</clipPath>
<clipPath id="clip3_10939_77359">
<rect width="6" height="6" fill="white" transform="translate(94.2969 13)"/>
</clipPath>
</defs>
</svg>
