<svg width="1146" height="528" viewBox="0 0 1146 528" fill="none" xmlns="http://www.w3.org/2000/svg">
<g clip-path="url(#clip0_10939_77389)">
<g clip-path="url(#clip1_10939_77389)">
<path d="M842.517 253.701C839.214 253.701 836.444 252.582 834.206 250.345C831.969 248.107 830.85 245.337 830.85 242.034C830.85 238.73 831.969 235.96 834.206 233.723C836.444 231.485 839.214 230.366 842.517 230.366C845.714 230.366 848.431 231.485 850.669 233.723C852.906 235.96 854.025 238.73 854.025 242.034C854.025 245.337 852.906 248.107 850.669 250.345C848.431 252.582 845.714 253.701 842.517 253.701ZM842.358 265.368C847.389 265.368 851.468 269.447 851.468 274.478V344.323C851.468 349.354 847.389 353.433 842.358 353.433C837.326 353.433 833.247 349.354 833.247 344.323V274.478C833.247 269.447 837.326 265.368 842.358 265.368Z" fill="#414053"/>
<path d="M869.316 309.001C869.316 300.157 871.127 292.326 874.75 285.506C878.479 278.687 883.487 273.413 889.774 269.684C896.167 265.848 903.252 263.93 911.031 263.93C916.784 263.93 921.493 265.757 927.972 267.766C933.993 270.033 940.424 265.589 940.424 259.155C940.424 254.84 940.424 249.864 940.424 244.838C940.424 239.494 944.757 235.161 950.101 235.161C955.445 235.161 959.778 239.493 959.778 244.838V343.756C959.778 349.1 955.445 353.433 950.101 353.433H949.876C944.656 353.433 940.424 349.201 940.424 343.981C940.424 341.781 934.259 347.945 928.931 350.716C923.71 353.486 917.69 354.871 910.871 354.871C903.199 354.871 896.167 352.953 889.774 349.117C883.487 345.175 878.479 339.741 874.75 332.815C871.127 325.783 869.316 317.845 869.316 309.001ZM941.398 309.321C941.398 303.247 940.119 297.973 937.562 293.498C935.111 289.023 931.861 285.613 927.812 283.269C923.763 280.925 919.395 279.753 914.707 279.753C910.018 279.753 905.65 280.925 901.601 283.269C897.552 285.506 894.249 288.863 891.692 293.338C889.241 297.707 888.016 302.928 888.016 309.001C888.016 315.074 889.241 320.402 891.692 324.984C894.249 329.565 897.552 333.082 901.601 335.532C905.756 337.876 910.125 339.048 914.707 339.048C919.395 339.048 923.763 337.876 927.812 335.532C931.861 333.188 935.111 329.778 937.562 325.303C940.119 320.722 941.398 315.394 941.398 309.321Z" fill="#414053"/>
<path d="M977.636 309.001C977.636 300.157 979.447 292.326 983.07 285.506C986.799 278.687 991.807 273.413 998.094 269.684C1004.49 265.848 1011.52 263.93 1019.19 263.93C1026.12 263.93 1032.14 265.315 1037.25 268.085C1040.32 269.651 1043.02 271.455 1045.35 273.499C1046.91 274.862 1049.72 273.829 1049.72 271.761C1049.72 268.231 1052.58 265.368 1056.11 265.368H1058.91C1063.98 265.368 1068.1 269.483 1068.1 274.558V344.243C1068.1 349.318 1063.98 353.433 1058.91 353.433H1056.27C1052.65 353.433 1049.72 350.499 1049.72 346.88C1049.72 344.791 1046.85 343.754 1045.29 345.144C1042.94 347.238 1040.21 349.095 1037.09 350.716C1031.76 353.486 1025.69 354.871 1018.87 354.871C1011.31 354.871 1004.38 352.953 998.094 349.117C991.807 345.175 986.799 339.741 983.07 332.815C979.447 325.783 977.636 317.845 977.636 309.001ZM1049.72 309.321C1049.72 303.247 1048.44 297.973 1045.88 293.498C1043.43 289.023 1040.18 285.613 1036.13 283.269C1032.08 280.925 1027.71 279.753 1023.03 279.753C1018.34 279.753 1013.97 280.925 1009.92 283.269C1005.87 285.506 1002.57 288.863 1000.01 293.338C997.561 297.707 996.336 302.928 996.336 309.001C996.336 315.074 997.561 320.402 1000.01 324.984C1002.57 329.565 1005.87 333.082 1009.92 335.532C1014.08 337.876 1018.44 339.048 1023.03 339.048C1027.71 339.048 1032.08 337.876 1036.13 335.532C1040.18 333.188 1043.43 329.778 1045.88 325.303C1048.44 320.722 1049.72 315.394 1049.72 309.321Z" fill="#414053"/>
</g>
<g clip-path="url(#clip2_10939_77389)">
<path d="M1111.83 256.32C1108.52 256.32 1105.75 255.201 1103.52 252.964C1101.28 250.726 1100.16 247.956 1100.16 244.653C1100.16 241.35 1101.28 238.579 1103.52 236.342C1105.75 234.104 1108.52 232.985 1111.83 232.985C1115.02 232.985 1117.74 234.104 1119.98 236.342C1122.22 238.579 1123.33 241.35 1123.33 244.653C1123.33 247.956 1122.22 250.726 1119.98 252.964C1117.74 255.201 1115.02 256.32 1111.83 256.32ZM1111.67 267.987C1116.7 267.987 1120.78 272.066 1120.78 277.098V346.942C1120.78 351.973 1116.7 356.052 1111.67 356.052C1106.64 356.052 1102.56 351.973 1102.56 346.942V277.098C1102.56 272.066 1106.64 267.987 1111.67 267.987Z" fill="#414053"/>
<path d="M1138.63 311.62C1138.63 302.776 1140.44 294.945 1144.06 288.126C1147.79 281.306 1152.8 276.032 1159.08 272.303C1165.48 268.467 1172.56 266.549 1180.34 266.549C1186.09 266.549 1190.8 268.377 1197.28 270.385C1203.3 272.652 1209.73 268.208 1209.73 261.774C1209.73 257.459 1209.73 252.483 1209.73 247.457C1209.73 242.113 1214.07 237.78 1219.41 237.78C1224.76 237.78 1229.09 242.113 1229.09 247.457V346.375C1229.09 351.72 1224.76 356.052 1219.41 356.052H1219.19C1213.97 356.052 1209.73 351.82 1209.73 346.6C1209.73 344.4 1203.57 350.565 1198.24 353.335C1193.02 356.105 1187 357.49 1180.18 357.49C1172.51 357.49 1165.48 355.572 1159.08 351.737C1152.8 347.794 1147.79 342.36 1144.06 335.434C1140.44 328.402 1138.63 320.464 1138.63 311.62ZM1210.71 311.94C1210.71 305.866 1209.43 300.592 1206.87 296.117C1204.42 291.642 1201.17 288.232 1197.12 285.888C1193.07 283.544 1188.7 282.372 1184.02 282.372C1179.33 282.372 1174.96 283.544 1170.91 285.888C1166.86 288.126 1163.56 291.482 1161 295.957C1158.55 300.326 1157.33 305.547 1157.33 311.62C1157.33 317.694 1158.55 323.021 1161 327.603C1163.56 332.184 1166.86 335.701 1170.91 338.151C1175.07 340.495 1179.43 341.668 1184.02 341.668C1188.7 341.668 1193.07 340.495 1197.12 338.151C1201.17 335.807 1204.42 332.398 1206.87 327.922C1209.43 323.341 1210.71 318.013 1210.71 311.94Z" fill="#414053"/>
<path d="M1246.95 311.62C1246.95 302.776 1248.76 294.945 1252.38 288.126C1256.11 281.306 1261.12 276.032 1267.4 272.303C1273.8 268.467 1280.83 266.549 1288.5 266.549C1295.43 266.549 1301.45 267.934 1306.56 270.704C1309.63 272.27 1312.33 274.074 1314.66 276.118C1316.22 277.481 1319.03 276.448 1319.03 274.38C1319.03 270.85 1321.89 267.987 1325.42 267.987H1328.22C1333.29 267.987 1337.41 272.102 1337.41 277.177V346.862C1337.41 351.937 1333.29 356.052 1328.22 356.052H1325.58C1321.96 356.052 1319.03 353.118 1319.03 349.499C1319.03 347.41 1316.16 346.373 1314.6 347.763C1312.25 349.857 1309.52 351.714 1306.4 353.335C1301.07 356.105 1295 357.49 1288.18 357.49C1280.62 357.49 1273.69 355.572 1267.4 351.737C1261.12 347.794 1256.11 342.36 1252.38 335.434C1248.76 328.402 1246.95 320.464 1246.95 311.62ZM1319.03 311.94C1319.03 305.866 1317.75 300.592 1315.19 296.117C1312.74 291.642 1309.49 288.232 1305.44 285.888C1301.39 283.544 1297.02 282.372 1292.34 282.372C1287.65 282.372 1283.28 283.544 1279.23 285.888C1275.18 288.126 1271.88 291.482 1269.32 295.957C1266.87 300.326 1265.65 305.547 1265.65 311.62C1265.65 317.694 1266.87 323.021 1269.32 327.603C1271.88 332.184 1275.18 335.701 1279.23 338.151C1283.39 340.495 1287.75 341.668 1292.34 341.668C1297.02 341.668 1301.39 340.495 1305.44 338.151C1309.49 335.807 1312.74 332.398 1315.19 327.922C1317.75 323.341 1319.03 318.013 1319.03 311.94Z" fill="#414053"/>
</g>
<path d="M1139.84 230.906L1120.74 237.852L1113.79 256.956C1113.63 257.393 1113.34 257.769 1112.96 258.035C1112.57 258.302 1112.12 258.444 1111.65 258.444C1111.19 258.444 1110.73 258.302 1110.35 258.035C1109.97 257.769 1109.67 257.393 1109.51 256.956L1102.58 237.852L1083.47 230.906C1083.04 230.744 1082.66 230.452 1082.39 230.069C1082.13 229.687 1081.99 229.232 1081.99 228.766C1081.99 228.3 1082.13 227.845 1082.39 227.462C1082.66 227.08 1083.04 226.788 1083.47 226.625L1102.58 219.691L1109.52 200.587C1109.69 200.15 1109.98 199.773 1110.36 199.507C1110.74 199.241 1111.2 199.099 1111.66 199.099C1112.13 199.099 1112.58 199.241 1112.97 199.507C1113.35 199.773 1113.64 200.15 1113.8 200.587L1120.75 219.691L1139.85 226.637C1140.29 226.802 1140.66 227.095 1140.92 227.477C1141.18 227.859 1141.32 228.312 1141.32 228.775C1141.32 229.239 1141.18 229.691 1140.91 230.071C1140.65 230.452 1140.28 230.743 1139.84 230.906Z" fill="#414053"/>
<path d="M1143.33 206.968L1137.8 208.98L1135.79 214.514C1135.74 214.64 1135.65 214.749 1135.54 214.826C1135.43 214.904 1135.3 214.945 1135.17 214.945C1135.03 214.945 1134.9 214.904 1134.79 214.826C1134.68 214.749 1134.59 214.64 1134.55 214.514L1132.54 208.98L1127 206.968C1126.88 206.921 1126.77 206.837 1126.69 206.726C1126.61 206.615 1126.57 206.483 1126.57 206.348C1126.57 206.213 1126.61 206.081 1126.69 205.971C1126.77 205.86 1126.88 205.775 1127 205.728L1132.54 203.72L1134.55 198.186C1134.6 198.06 1134.68 197.95 1134.79 197.873C1134.9 197.796 1135.03 197.755 1135.17 197.755C1135.3 197.755 1135.44 197.796 1135.55 197.873C1135.66 197.95 1135.74 198.06 1135.79 198.186L1137.8 203.72L1143.34 205.732C1143.46 205.779 1143.57 205.864 1143.65 205.975C1143.72 206.086 1143.76 206.217 1143.76 206.351C1143.76 206.485 1143.72 206.616 1143.64 206.726C1143.57 206.837 1143.46 206.921 1143.33 206.968Z" fill="#414053"/>
<path d="M557.588 354.16C551.889 354.16 547.108 352.23 543.247 348.369C539.387 344.508 537.456 339.728 537.456 334.028C537.456 328.329 539.387 323.549 543.247 319.688C547.108 315.827 551.889 313.896 557.588 313.896C563.104 313.896 567.792 315.827 571.653 319.688C575.514 323.549 577.444 328.329 577.444 334.028C577.444 339.728 575.514 344.508 571.653 348.369C567.792 352.23 563.104 354.16 557.588 354.16ZM557.312 374.292C565.994 374.292 573.032 381.33 573.032 390.012V510.527C573.032 519.209 565.994 526.247 557.312 526.247C548.631 526.247 541.593 519.209 541.593 510.527V390.012C541.593 381.33 548.631 374.292 557.312 374.292Z" fill="#414053"/>
<path d="M603.828 449.58C603.828 434.32 606.954 420.807 613.205 409.04C619.64 397.274 628.281 388.173 639.128 381.738C650.159 375.12 662.386 371.81 675.807 371.81C685.735 371.81 693.859 374.964 705.04 378.429C715.429 382.342 726.525 374.672 726.525 363.571C726.525 356.126 726.525 347.54 726.525 338.867C726.525 329.646 734.001 322.17 743.223 322.17C752.444 322.17 759.92 329.645 759.92 338.867V509.55C759.92 518.771 752.444 526.247 743.223 526.247H742.834C733.827 526.247 726.525 518.945 726.525 509.938C726.525 506.141 715.887 516.778 706.694 521.558C697.685 526.339 687.298 528.729 675.531 528.729C662.294 528.729 650.159 525.419 639.128 518.801C628.281 511.998 619.64 502.622 613.205 490.671C606.954 478.537 603.828 464.84 603.828 449.58ZM728.205 450.132C728.205 439.652 725.999 430.551 721.586 422.829C717.358 415.108 711.75 409.224 704.764 405.179C697.777 401.135 690.239 399.112 682.15 399.112C674.06 399.112 666.522 401.135 659.536 405.179C652.55 409.04 646.85 414.832 642.438 422.554C638.209 430.092 636.095 439.1 636.095 449.58C636.095 460.06 638.209 469.252 642.438 477.158C646.85 485.064 652.55 491.131 659.536 495.359C666.706 499.404 674.244 501.426 682.15 501.426C690.239 501.426 697.777 499.404 704.764 495.359C711.75 491.315 717.358 485.431 721.586 477.709C725.999 469.804 728.205 460.611 728.205 450.132Z" fill="#414053"/>
<path d="M790.734 449.58C790.734 434.32 793.859 420.807 800.11 409.04C806.545 397.274 815.186 388.173 826.033 381.738C837.065 375.12 849.199 371.81 862.436 371.81C874.387 371.81 884.775 374.2 893.599 378.98C898.893 381.681 903.553 384.795 907.577 388.322C910.26 390.673 915.11 388.891 915.11 385.323C915.11 379.231 920.049 374.292 926.141 374.292H930.968C939.725 374.292 946.825 381.392 946.825 390.149V510.389C946.825 519.147 939.725 526.247 930.968 526.247H926.417C920.173 526.247 915.11 521.184 915.11 514.94C915.11 511.335 910.165 509.546 907.473 511.944C903.417 515.558 898.701 518.762 893.324 521.558C884.131 526.339 873.651 528.729 861.885 528.729C848.831 528.729 836.881 525.419 826.033 518.801C815.186 511.998 806.545 502.622 800.11 490.671C793.859 478.537 790.734 464.84 790.734 449.58ZM915.11 450.132C915.11 439.652 912.904 430.551 908.492 422.829C904.263 415.108 898.655 409.224 891.669 405.179C884.683 401.135 877.145 399.112 869.055 399.112C860.966 399.112 853.428 401.135 846.441 405.179C839.455 409.04 833.755 414.832 829.343 422.554C825.114 430.092 823 439.1 823 449.58C823 460.06 825.114 469.252 829.343 477.158C833.755 485.064 839.455 491.131 846.441 495.359C853.611 499.404 861.149 501.426 869.055 501.426C877.145 501.426 884.683 499.404 891.669 495.359C898.655 491.315 904.263 485.431 908.492 477.709C912.904 469.804 915.11 460.611 915.11 450.132Z" fill="#414053"/>
<path fill-rule="evenodd" clip-rule="evenodd" d="M306.959 201.475L209.213 51.6916C192.647 26.4844 166.765 8.87205 137.237 2.71418C107.709 -3.44369 76.9437 2.35511 51.6835 18.8399C26.4233 35.3246 8.72823 61.1508 2.4758 90.6589C-3.77662 120.167 1.92359 150.95 18.3273 176.263L206.388 464.449C249.104 529.845 326.048 552.385 385.879 497.022C405.789 478.502 432.17 432.224 446.613 410.018C476.236 364.63 556.617 235.662 586.226 190.261C509.462 254.641 385.058 318.005 314.528 213.163L308.712 204.244L306.903 201.461L306.959 201.475ZM314.583 213.163L308.767 204.244C310.715 207.277 312.663 210.227 314.611 213.121L314.583 213.163Z" fill="#414053"/>
<path d="M643.809 285.287C639.66 285.29 635.552 284.477 631.719 282.892C627.885 281.307 624.401 278.982 621.467 276.05C618.532 273.118 616.204 269.636 614.616 265.804C613.028 261.972 612.21 257.864 612.21 253.716V202.234C612.212 198.089 611.397 193.984 609.812 190.154C608.227 186.323 605.903 182.843 602.972 179.911C600.042 176.979 596.562 174.654 592.733 173.067C588.903 171.48 584.799 170.664 580.653 170.664H529.172C520.802 170.664 512.776 167.339 506.858 161.421C500.939 155.503 497.615 147.476 497.615 139.107C497.615 130.737 500.939 122.711 506.858 116.793C512.776 110.875 520.802 107.55 529.172 107.55H675.268V253.646C675.287 262.012 671.984 270.044 666.085 275.976C660.187 281.909 652.175 285.257 643.809 285.287Z" fill="#414053"/>
</g>
<defs>
<clipPath id="clip0_10939_77389">
<rect width="1146" height="584.46" fill="white"/>
</clipPath>
<clipPath id="clip1_10939_77389">
<rect width="92.9823" height="126.19" fill="white" transform="translate(976.965 243.64)"/>
</clipPath>
<clipPath id="clip2_10939_77389">
<rect width="22.92" height="103.14" fill="white" transform="translate(1100.16 260.74)"/>
</clipPath>
</defs>
</svg>
