<svg width="421" height="39" viewBox="0 0 421 39" fill="none" xmlns="http://www.w3.org/2000/svg">
<path d="M13.5917 34.5067L14.555 31.1398L15.9999 34.5067L15.0366 37.6675L13.5917 34.5067Z" fill="#A0A0AA"/>
<path d="M12.1178 35.7722L8.6407 36.2238L11.7604 38.1505L15.0333 37.6683L12.1178 35.7722Z" fill="#A0A0AA"/>
<path d="M10.5987 31.4256L11.9074 28.177L12.9938 31.6757L11.7065 34.7193L10.5987 31.4256Z" fill="#A0A0AA"/>
<path d="M9.00104 32.531L5.49578 32.6189L8.39784 34.8593L11.7033 34.7197L9.00104 32.531Z" fill="#A0A0AA"/>
<path d="M8.93735 27.7953L11.0276 24.9838L11.1909 28.6433L9.17343 31.2619L8.93735 27.7953Z" fill="#A0A0AA"/>
<path d="M7.11159 28.4603L3.69838 27.6585L5.9374 30.56L9.17039 31.2613L7.11159 28.4603Z" fill="#A0A0AA"/>
<path d="M7.44973 23.8515L9.78489 21.2393L9.61765 24.8986L7.37237 27.3252L7.44973 23.8515Z" fill="#A0A0AA"/>
<path d="M5.57141 24.35L2.24433 23.2446L4.21271 26.3356L7.36937 27.3247L5.57141 24.35Z" fill="#A0A0AA"/>
<path d="M6.65634 19.7783L9.22088 17.3903L8.7193 21.0191L6.26126 23.2304L6.65634 19.7783Z" fill="#A0A0AA"/>
<path d="M4.74023 20.1029L1.52829 18.6983L3.20542 21.9561L6.2583 23.2293L4.74023 20.1029Z" fill="#A0A0AA"/>
<path d="M7.03216 15.2361L10.0199 13.4033L8.80785 16.8607L5.95957 18.5415L7.03216 15.2361Z" fill="#A0A0AA"/>
<path d="M5.08951 15.1751L2.22018 13.1625L3.21725 16.6877L5.95676 18.5401L5.08951 15.1751Z" fill="#A0A0AA"/>
<path d="M8.23148 10.9954L11.5613 9.89816L9.58532 12.9844L6.42626 13.9657L8.23148 10.9954Z" fill="#A0A0AA"/>
<path d="M6.35484 10.4894L4.02607 7.87158L4.18437 11.5313L6.42371 13.9633L6.35484 10.4894Z" fill="#A0A0AA"/>
<path d="M9.96035 6.6225L13.3856 5.87384L11.1017 8.7402L7.85816 9.39116L9.96035 6.6225Z" fill="#A0A0AA"/>
<path d="M8.14635 5.92607L6.1002 3.08245L5.8799 6.73896L7.85629 9.38858L8.14635 5.92607Z" fill="#A0A0AA"/>
<path d="M10.3898 2.64064L13.237 0.596816L12.2785 4.13268L9.55944 6.01483L10.3898 2.64064Z" fill="#A0A0AA"/>
<path d="M23.607 25.3098H22.383L23.517 22.3578H20.907V21.1698H23.931L25.317 17.5878H22.329V16.4178H25.785L27.027 13.2498H28.269L27.045 16.4178H30.933L32.175 13.2498H33.417L32.193 16.4178H34.839V17.5878H31.779L30.393 21.1698H33.435V22.3578H29.889L28.755 25.3098H27.531L28.647 22.3578H24.741L23.607 25.3098ZM26.559 17.4978L25.119 21.2778H29.133L30.573 17.4978H26.559ZM39.2693 25.3098H37.9733V15.7158H35.6153V14.7438H36.0293C37.1633 14.7438 37.7753 14.3298 38.2073 13.2498H39.2693V25.3098ZM44.9674 25.3098H43.6174L48.4954 13.2498H50.3314L55.2094 25.3098H53.8234L52.3654 21.7818H46.4074L44.9674 25.3098ZM48.6394 16.3098L46.8754 20.6118H51.8794L50.1154 16.3098L49.4314 14.4738H49.3414L48.6394 16.3098ZM57.2868 25.3098H56.0088V13.2498H57.2868V25.3098ZM63.6276 20.6118H58.7136V19.4778H63.6276V20.6118ZM66.2231 28.4418H64.9271V16.4178H66.0971V18.1458H66.1511C66.5471 17.0118 67.6091 16.2378 69.2831 16.2378C71.7851 16.2378 73.1711 18.0558 73.1711 20.8818C73.1711 23.6718 71.8571 25.4898 69.4271 25.4898C67.7171 25.4898 66.6191 24.5898 66.2231 23.6178V28.4418ZM66.2231 21.6378C66.2231 23.4558 67.3031 24.3738 69.0671 24.3738C70.7951 24.3738 71.8751 23.5818 71.8751 20.8818C71.8751 18.1458 70.8131 17.3538 69.0671 17.3538C67.3031 17.3538 66.2231 18.2718 66.2231 20.1078V21.6378ZM78.6036 25.4898C75.9936 25.4898 74.2836 23.5638 74.2836 20.8638C74.2836 18.1638 75.9936 16.2378 78.6036 16.2378C81.1956 16.2378 82.8516 18.1638 82.8516 20.8638C82.8516 23.5638 81.1956 25.4898 78.6036 25.4898ZM78.6036 24.3378C80.7456 24.3378 81.5916 23.0778 81.5916 20.8638C81.5916 18.6498 80.7456 17.4078 78.6036 17.4078C76.4256 17.4078 75.5616 18.6498 75.5616 20.8638C75.5616 23.0778 76.4256 24.3378 78.6036 24.3378ZM87.0719 25.3098H85.3799L83.0939 16.4178H84.4619L85.8659 22.2138L86.2259 24.1398H86.3339L86.9279 22.2138L88.9619 16.4178H90.6719L92.7419 22.2138L93.2999 24.1398H93.4079L93.7679 22.2138L95.1719 16.4178H96.5039L94.2179 25.3098H92.5259L90.5279 19.6938L89.8619 17.5878H89.7539L89.0879 19.6938L87.0719 25.3098ZM100.916 25.4898C98.1796 25.4898 96.7576 23.5638 96.7576 20.8638C96.7576 18.1638 98.3596 16.2378 100.898 16.2378C103.04 16.2378 104.804 17.5338 104.804 20.1618C104.804 20.5758 104.768 20.9718 104.714 21.2238H97.9816C98.0356 23.1858 98.8096 24.3378 100.934 24.3378C102.734 24.3378 103.454 23.5278 103.454 22.4478V22.3398H104.732V22.4658C104.732 24.1758 103.184 25.4898 100.916 25.4898ZM100.862 17.3538C98.8816 17.3538 98.0896 18.4878 97.9816 20.2878H103.58C103.652 18.1818 102.608 17.3538 100.862 17.3538ZM107.585 25.3098H106.289V16.3098H107.459V17.8038H107.549C107.837 16.9758 108.701 16.2378 110.015 16.2378C111.851 16.2378 112.553 17.5518 112.553 19.0818V19.5858H111.257V19.2798C111.257 17.8938 110.825 17.3538 109.547 17.3538C108.161 17.3538 107.585 17.9838 107.585 19.4238V25.3098ZM117.483 25.4898C114.747 25.4898 113.325 23.5638 113.325 20.8638C113.325 18.1638 114.927 16.2378 117.465 16.2378C119.607 16.2378 121.371 17.5338 121.371 20.1618C121.371 20.5758 121.335 20.9718 121.281 21.2238H114.549C114.603 23.1858 115.377 24.3378 117.501 24.3378C119.301 24.3378 120.021 23.5278 120.021 22.4478V22.3398H121.299V22.4658C121.299 24.1758 119.751 25.4898 117.483 25.4898ZM117.429 17.3538C115.449 17.3538 114.657 18.4878 114.549 20.2878H120.147C120.219 18.1818 119.175 17.3538 117.429 17.3538ZM126.491 25.4898C123.989 25.4898 122.585 23.6718 122.585 20.8638C122.585 18.0558 123.917 16.2378 126.347 16.2378C128.057 16.2378 129.155 17.1378 129.533 18.1098V13.2498H130.829V25.3098H129.677V23.5998H129.605C129.209 24.7158 128.165 25.4898 126.491 25.4898ZM123.881 20.8638C123.881 23.5818 124.943 24.3738 126.707 24.3738C128.471 24.3738 129.533 23.4558 129.533 21.6378V20.1078C129.533 18.2718 128.471 17.3538 126.707 17.3538C124.961 17.3538 123.881 18.1458 123.881 20.8638ZM139.656 25.5078C137.028 25.5078 135.444 23.5818 135.444 20.8818C135.444 18.1638 137.028 16.2378 139.656 16.2378C141.924 16.2378 143.454 17.6958 143.454 19.7838V19.9098H142.176V19.8018C142.176 18.2538 141.348 17.4078 139.602 17.4078C137.568 17.4078 136.722 18.6858 136.722 20.8818C136.722 23.0598 137.568 24.3378 139.602 24.3378C141.348 24.3378 142.176 23.4918 142.176 21.9438V21.8358H143.454V21.9618C143.454 24.0498 141.924 25.5078 139.656 25.5078ZM146.148 25.3098H144.852V16.3098H146.022V17.8038H146.112C146.4 16.9758 147.264 16.2378 148.578 16.2378C150.414 16.2378 151.116 17.5518 151.116 19.0818V19.5858H149.82V19.2798C149.82 17.8938 149.388 17.3538 148.11 17.3538C146.724 17.3538 146.148 17.9838 146.148 19.4238V25.3098ZM156.046 25.4898C153.31 25.4898 151.888 23.5638 151.888 20.8638C151.888 18.1638 153.49 16.2378 156.028 16.2378C158.17 16.2378 159.934 17.5338 159.934 20.1618C159.934 20.5758 159.898 20.9718 159.844 21.2238H153.112C153.166 23.1858 153.94 24.3378 156.064 24.3378C157.864 24.3378 158.584 23.5278 158.584 22.4478V22.3398H159.862V22.4658C159.862 24.1758 158.314 25.4898 156.046 25.4898ZM155.992 17.3538C154.012 17.3538 153.22 18.4878 153.112 20.2878H158.71C158.782 18.1818 157.738 17.3538 155.992 17.3538ZM165.054 25.4898C162.552 25.4898 161.148 23.6718 161.148 20.8638C161.148 18.0558 162.48 16.2378 164.91 16.2378C166.62 16.2378 167.718 17.1378 168.096 18.1098V13.2498H169.392V25.3098H168.24V23.5998H168.168C167.772 24.7158 166.728 25.4898 165.054 25.4898ZM162.444 20.8638C162.444 23.5818 163.506 24.3738 165.27 24.3738C167.034 24.3738 168.096 23.4558 168.096 21.6378V20.1078C168.096 18.2718 167.034 17.3538 165.27 17.3538C163.524 17.3538 162.444 18.1458 162.444 20.8638ZM172.448 15.2298H171.17V13.2498H172.448V15.2298ZM172.448 25.3098H171.17V16.3098H172.448V25.3098ZM177.45 25.3278C175.812 25.3278 174.858 24.6798 174.858 22.7898V17.5338H173.364V16.4178H174.876L175.182 14.1498H176.154V16.4178H178.962V17.5338H176.154V22.8618C176.154 23.9058 176.64 24.1398 177.792 24.1398H178.962V25.1838C178.656 25.2378 178.098 25.3278 177.45 25.3278ZM186.763 25.4898C184.261 25.4898 182.857 23.6718 182.857 20.8638C182.857 18.0558 184.189 16.2378 186.619 16.2378C188.329 16.2378 189.427 17.1378 189.805 18.1098V13.2498H191.101V25.3098H189.949V23.5998H189.877C189.481 24.7158 188.437 25.4898 186.763 25.4898ZM184.153 20.8638C184.153 23.5818 185.215 24.3738 186.979 24.3738C188.743 24.3738 189.805 23.4558 189.805 21.6378V20.1078C189.805 18.2718 188.743 17.3538 186.979 17.3538C185.233 17.3538 184.153 18.1458 184.153 20.8638ZM196.662 25.4898C193.926 25.4898 192.504 23.5638 192.504 20.8638C192.504 18.1638 194.106 16.2378 196.644 16.2378C198.786 16.2378 200.55 17.5338 200.55 20.1618C200.55 20.5758 200.514 20.9718 200.46 21.2238H193.728C193.782 23.1858 194.556 24.3378 196.68 24.3378C198.48 24.3378 199.2 23.5278 199.2 22.4478V22.3398H200.478V22.4658C200.478 24.1758 198.93 25.4898 196.662 25.4898ZM196.608 17.3538C194.628 17.3538 193.836 18.4878 193.728 20.2878H199.326C199.398 18.1818 198.354 17.3538 196.608 17.3538ZM205.975 25.5078C203.347 25.5078 201.763 23.5818 201.763 20.8818C201.763 18.1638 203.347 16.2378 205.975 16.2378C208.243 16.2378 209.773 17.6958 209.773 19.7838V19.9098H208.495V19.8018C208.495 18.2538 207.667 17.4078 205.921 17.4078C203.887 17.4078 203.041 18.6858 203.041 20.8818C203.041 23.0598 203.887 24.3378 205.921 24.3378C207.667 24.3378 208.495 23.4918 208.495 21.9438V21.8358H209.773V21.9618C209.773 24.0498 208.243 25.5078 205.975 25.5078ZM212.396 15.2298H211.118V13.2498H212.396V15.2298ZM212.396 25.3098H211.118V16.3098H212.396V25.3098ZM217.72 25.4898C215.29 25.4898 213.958 24.4638 213.958 22.3938V22.3578H215.218V22.5738C215.218 23.7978 215.722 24.3918 217.738 24.3918C219.394 24.3918 219.826 23.9238 219.826 23.0238C219.826 22.1238 219.268 21.7998 217.918 21.5478L216.442 21.2958C215.002 21.0258 213.958 20.3598 213.958 18.7938C213.958 17.2638 215.254 16.2378 217.36 16.2378C219.394 16.2378 220.888 17.2818 220.888 19.2798V19.3698H219.646V19.2258C219.646 18.1638 219.232 17.3538 217.324 17.3538C215.704 17.3538 215.2 17.8758 215.2 18.7758C215.2 19.6758 215.65 19.9818 216.982 20.2338L218.494 20.5218C220.042 20.8098 221.068 21.4938 221.068 22.9698C221.068 24.5538 219.772 25.4898 217.72 25.4898ZM223.83 15.2298H222.552V13.2498H223.83V15.2298ZM223.83 25.3098H222.552V16.3098H223.83V25.3098ZM229.48 25.4898C226.87 25.4898 225.16 23.5638 225.16 20.8638C225.16 18.1638 226.87 16.2378 229.48 16.2378C232.072 16.2378 233.728 18.1638 233.728 20.8638C233.728 23.5638 232.072 25.4898 229.48 25.4898ZM229.48 24.3378C231.622 24.3378 232.468 23.0778 232.468 20.8638C232.468 18.6498 231.622 17.4078 229.48 17.4078C227.302 17.4078 226.438 18.6498 226.438 20.8638C226.438 23.0778 227.302 24.3378 229.48 24.3378ZM236.41 25.3098H235.114V16.4178H236.284V18.2538H236.338C236.68 17.3178 237.688 16.2378 239.524 16.2378C241.81 16.2378 242.854 17.7138 242.854 19.8558V25.3098H241.576V20.1438C241.576 18.2178 240.946 17.3718 239.128 17.3718C237.364 17.3718 236.41 18.1998 236.41 20.1798V25.3098ZM245.861 15.2298H244.583V13.2498H245.861V15.2298ZM245.861 25.3098H244.583V16.3098H245.861V25.3098ZM248.934 25.3098H247.638V16.4178H248.808V18.2538H248.862C249.204 17.3178 250.212 16.2378 252.048 16.2378C254.334 16.2378 255.378 17.7138 255.378 19.8558V25.3098H254.1V20.1438C254.1 18.2178 253.47 17.3718 251.652 17.3718C249.888 17.3718 248.934 18.1998 248.934 20.1798V25.3098ZM260.618 24.5178C258.17 24.5178 256.766 22.8978 256.766 20.3778C256.766 17.8578 258.152 16.2378 260.636 16.2378C262.202 16.2378 263.39 17.0118 263.786 18.1458H263.858V16.4178H265.01V24.9318C265.01 27.3438 263.462 28.5498 261.122 28.5498C258.854 28.5498 257.252 27.3618 257.252 25.3098H258.53C258.53 26.7678 259.268 27.3978 261.14 27.3978C263.048 27.3978 263.714 26.7138 263.714 24.9318V22.6638H263.696C263.282 23.6898 262.166 24.5178 260.618 24.5178ZM258.062 20.3778C258.062 22.7358 259.196 23.4018 260.924 23.4018C262.526 23.4018 263.714 22.4838 263.714 20.6478V20.1078C263.714 18.2718 262.508 17.3538 260.852 17.3538C259.16 17.3538 258.062 18.0378 258.062 20.3778ZM273.585 25.4898C271.155 25.4898 269.823 24.4638 269.823 22.3938V22.3578H271.083V22.5738C271.083 23.7978 271.587 24.3918 273.603 24.3918C275.259 24.3918 275.691 23.9238 275.691 23.0238C275.691 22.1238 275.133 21.7998 273.783 21.5478L272.307 21.2958C270.867 21.0258 269.823 20.3598 269.823 18.7938C269.823 17.2638 271.119 16.2378 273.225 16.2378C275.259 16.2378 276.753 17.2818 276.753 19.2798V19.3698H275.511V19.2258C275.511 18.1638 275.097 17.3538 273.189 17.3538C271.569 17.3538 271.065 17.8758 271.065 18.7758C271.065 19.6758 271.515 19.9818 272.847 20.2338L274.359 20.5218C275.907 20.8098 276.933 21.4938 276.933 22.9698C276.933 24.5538 275.637 25.4898 273.585 25.4898ZM282.484 25.4898C279.874 25.4898 278.164 23.5638 278.164 20.8638C278.164 18.1638 279.874 16.2378 282.484 16.2378C285.076 16.2378 286.732 18.1638 286.732 20.8638C286.732 23.5638 285.076 25.4898 282.484 25.4898ZM282.484 24.3378C284.626 24.3378 285.472 23.0778 285.472 20.8638C285.472 18.6498 284.626 17.4078 282.484 17.4078C280.306 17.4078 279.442 18.6498 279.442 20.8638C279.442 23.0778 280.306 24.3378 282.484 24.3378ZM289.431 25.3098H288.135V13.2498H289.431V25.3098ZM294.608 25.4898C292.286 25.4898 291.206 23.8878 291.206 21.7638V16.4178H292.502V21.5838C292.502 23.5098 293.276 24.3558 295.022 24.3558C296.66 24.3558 297.776 23.4918 297.776 21.4038V16.4178H299.054V25.3098H297.884V23.3478H297.83C297.47 24.3738 296.462 25.4898 294.608 25.4898ZM304.095 25.3278C302.457 25.3278 301.503 24.6798 301.503 22.7898V17.5338H300.009V16.4178H301.521L301.827 14.1498H302.799V16.4178H305.607V17.5338H302.799V22.8618C302.799 23.9058 303.285 24.1398 304.437 24.1398H305.607V25.1838C305.301 25.2378 304.743 25.3278 304.095 25.3278ZM307.838 15.2298H306.56V13.2498H307.838V15.2298ZM307.838 25.3098H306.56V16.3098H307.838V25.3098ZM313.488 25.4898C310.878 25.4898 309.168 23.5638 309.168 20.8638C309.168 18.1638 310.878 16.2378 313.488 16.2378C316.08 16.2378 317.736 18.1638 317.736 20.8638C317.736 23.5638 316.08 25.4898 313.488 25.4898ZM313.488 24.3378C315.63 24.3378 316.476 23.0778 316.476 20.8638C316.476 18.6498 315.63 17.4078 313.488 17.4078C311.31 17.4078 310.446 18.6498 310.446 20.8638C310.446 23.0778 311.31 24.3378 313.488 24.3378ZM320.418 25.3098H319.122V16.4178H320.292V18.2538H320.346C320.688 17.3178 321.696 16.2378 323.532 16.2378C325.818 16.2378 326.862 17.7138 326.862 19.8558V25.3098H325.584V20.1438C325.584 18.2178 324.954 17.3718 323.136 17.3718C321.372 17.3718 320.418 18.1998 320.418 20.1798V25.3098ZM333.515 25.3098H332.237V17.5338H330.923V16.4178H332.237V16.0758C332.237 14.2398 333.263 13.2498 335.225 13.2498H336.017V14.3118H334.991C333.965 14.3118 333.497 14.7438 333.497 15.6438V16.4178H336.017V17.5338H333.515V25.3098ZM340.383 25.4898C337.773 25.4898 336.063 23.5638 336.063 20.8638C336.063 18.1638 337.773 16.2378 340.383 16.2378C342.975 16.2378 344.631 18.1638 344.631 20.8638C344.631 23.5638 342.975 25.4898 340.383 25.4898ZM340.383 24.3378C342.525 24.3378 343.371 23.0778 343.371 20.8638C343.371 18.6498 342.525 17.4078 340.383 17.4078C338.205 17.4078 337.341 18.6498 337.341 20.8638C337.341 23.0778 338.205 24.3378 340.383 24.3378ZM347.313 25.3098H346.017V16.3098H347.187V17.8038H347.277C347.565 16.9758 348.429 16.2378 349.743 16.2378C351.579 16.2378 352.281 17.5518 352.281 19.0818V19.5858H350.985V19.2798C350.985 17.8938 350.553 17.3538 349.275 17.3538C347.889 17.3538 347.313 17.9838 347.313 19.4238V25.3098ZM357.307 25.3098H355.957L360.835 13.2498H362.671L367.549 25.3098H366.163L364.705 21.7818H358.747L357.307 25.3098ZM360.979 16.3098L359.215 20.6118H364.219L362.455 16.3098L361.771 14.4738H361.681L360.979 16.3098ZM369.881 25.3098H368.603V17.5338H367.289V16.4178H368.603V16.0758C368.603 14.2398 369.629 13.2498 371.591 13.2498H372.383V14.3118H371.357C370.331 14.3118 369.863 14.7438 369.863 15.6438V16.4178H372.383V17.5338H369.881V25.3098ZM374.507 25.3098H373.211V16.3098H374.381V17.8038H374.471C374.759 16.9758 375.623 16.2378 376.937 16.2378C378.773 16.2378 379.475 17.5518 379.475 19.0818V19.5858H378.179V19.2798C378.179 17.8938 377.747 17.3538 376.469 17.3538C375.083 17.3538 374.507 17.9838 374.507 19.4238V25.3098ZM381.726 15.2298H380.448V13.2498H381.726V15.2298ZM381.726 25.3098H380.448V16.3098H381.726V25.3098ZM387.267 25.5078C384.639 25.5078 383.055 23.5818 383.055 20.8818C383.055 18.1638 384.639 16.2378 387.267 16.2378C389.535 16.2378 391.065 17.6958 391.065 19.7838V19.9098H389.787V19.8018C389.787 18.2538 388.959 17.4078 387.213 17.4078C385.179 17.4078 384.333 18.6858 384.333 20.8818C384.333 23.0598 385.179 24.3378 387.213 24.3378C388.959 24.3378 389.787 23.4918 389.787 21.9438V21.8358H391.065V21.9618C391.065 24.0498 389.535 25.5078 387.267 25.5078ZM394.999 25.4898C393.379 25.4898 392.155 24.6618 392.155 23.1678C392.155 21.6198 393.307 20.9358 395.251 20.6658L398.383 20.2338V19.5858C398.383 18.0198 397.717 17.3898 396.043 17.3898C394.423 17.3898 393.667 18.0198 393.667 19.4418V19.7118H392.425V19.5678C392.425 17.7138 393.847 16.2378 396.151 16.2378C398.527 16.2378 399.607 17.7678 399.607 19.7478V25.3098H398.437V23.6718L398.347 23.6538C397.825 24.6798 396.691 25.4898 394.999 25.4898ZM393.415 23.0778C393.415 23.9958 393.991 24.4098 395.359 24.4098C396.889 24.4098 398.383 23.6178 398.383 21.5118V21.2058L395.359 21.6378C393.937 21.8358 393.415 22.1238 393.415 23.0778Z" fill="#A0A0AA"/>
<path d="M407.408 34.5067L406.445 31.1398L405 34.5067L405.963 37.6675L407.408 34.5067Z" fill="#A0A0AA"/>
<path d="M408.882 35.7722L412.359 36.2238L409.24 38.1505L405.967 37.6683L408.882 35.7722Z" fill="#A0A0AA"/>
<path d="M410.401 31.4256L409.092 28.177L408.006 31.6757L409.293 34.7193L410.401 31.4256Z" fill="#A0A0AA"/>
<path d="M411.999 32.531L415.504 32.6189L412.602 34.8593L409.297 34.7197L411.999 32.531Z" fill="#A0A0AA"/>
<path d="M412.063 27.7957L409.972 24.9842L409.809 28.6437L411.827 31.2623L412.063 27.7957Z" fill="#A0A0AA"/>
<path d="M413.888 28.4607L417.302 27.6589L415.063 30.5604L411.83 31.2617L413.888 28.4607Z" fill="#A0A0AA"/>
<path d="M413.55 23.8514L411.215 21.2392L411.382 24.8986L413.628 27.3251L413.55 23.8514Z" fill="#A0A0AA"/>
<path d="M415.429 24.3499L418.756 23.2445L416.788 26.3355L413.631 27.3246L415.429 24.3499Z" fill="#A0A0AA"/>
<path d="M414.344 19.7783L411.779 17.3903L412.281 21.0191L414.739 23.2304L414.344 19.7783Z" fill="#A0A0AA"/>
<path d="M416.26 20.1029L419.472 18.6983L417.795 21.9561L414.742 23.2293L416.26 20.1029Z" fill="#A0A0AA"/>
<path d="M413.968 15.2365L410.98 13.4037L412.192 16.861L415.04 18.5418L413.968 15.2365Z" fill="#A0A0AA"/>
<path d="M415.91 15.1751L418.78 13.1625L417.783 16.6877L415.043 18.54L415.91 15.1751Z" fill="#A0A0AA"/>
<path d="M412.768 10.9954L409.439 9.89814L411.415 12.9843L414.574 13.9657L412.768 10.9954Z" fill="#A0A0AA"/>
<path d="M414.645 10.4894L416.974 7.87158L416.816 11.5313L414.576 13.9633L414.645 10.4894Z" fill="#A0A0AA"/>
<path d="M411.04 6.62209L407.614 5.87343L409.898 8.73979L413.142 9.39075L411.04 6.62209Z" fill="#A0A0AA"/>
<path d="M412.854 5.92606L414.9 3.08244L415.12 6.73895L413.144 9.38856L412.854 5.92606Z" fill="#A0A0AA"/>
<path d="M410.61 2.64064L407.763 0.596816L408.721 4.13268L411.441 6.01483L410.61 2.64064Z" fill="#A0A0AA"/>
</svg>
