<svg width="1440" height="690" viewBox="0 0 1440 690" fill="none" xmlns="http://www.w3.org/2000/svg">
<rect x="-6.95239" y="-70.4282" width="85.5238" height="85.5238" stroke="white" stroke-opacity="0.02" stroke-width="1.71048"/>
<rect x="78.5714" y="-70.4282" width="85.5238" height="85.5238" stroke="white" stroke-opacity="0.02" stroke-width="1.71048"/>
<rect x="164.095" y="-70.4282" width="85.5238" height="85.5238" stroke="white" stroke-opacity="0.02" stroke-width="1.71048"/>
<rect x="249.619" y="-70.4282" width="85.5238" height="85.5238" stroke="white" stroke-opacity="0.02" stroke-width="1.71048"/>
<rect x="335.143" y="-70.4282" width="85.5238" height="85.5238" stroke="white" stroke-opacity="0.02" stroke-width="1.71048"/>
<rect x="420.667" y="-70.4282" width="85.5238" height="85.5238" stroke="white" stroke-opacity="0.02" stroke-width="1.71048"/>
<rect x="506.19" y="-70.4282" width="85.5238" height="85.5238" stroke="white" stroke-opacity="0.02" stroke-width="1.71048"/>
<rect x="591.714" y="-70.4282" width="85.5238" height="85.5238" stroke="white" stroke-opacity="0.02" stroke-width="1.71048"/>
<rect x="677.238" y="-70.4282" width="85.5238" height="85.5238" stroke="white" stroke-opacity="0.02" stroke-width="1.71048"/>
<rect x="762.762" y="-70.4282" width="85.5238" height="85.5238" stroke="white" stroke-opacity="0.02" stroke-width="1.71048"/>
<rect x="848.286" y="-70.4282" width="85.5238" height="85.5238" stroke="white" stroke-opacity="0.02" stroke-width="1.71048"/>
<rect x="933.81" y="-70.4282" width="85.5238" height="85.5238" stroke="white" stroke-opacity="0.02" stroke-width="1.71048"/>
<rect x="1019.33" y="-70.4282" width="85.5238" height="85.5238" stroke="white" stroke-opacity="0.02" stroke-width="1.71048"/>
<rect x="1104.86" y="-70.4282" width="85.5238" height="85.5238" stroke="white" stroke-opacity="0.02" stroke-width="1.71048"/>
<rect x="1190.38" y="-70.4282" width="85.5238" height="85.5238" stroke="white" stroke-opacity="0.02" stroke-width="1.71048"/>
<rect x="1275.9" y="-70.4282" width="85.5238" height="85.5238" stroke="white" stroke-opacity="0.02" stroke-width="1.71048"/>
<rect x="1361.43" y="-70.4282" width="85.5238" height="85.5238" stroke="white" stroke-opacity="0.02" stroke-width="1.71048"/>
<rect x="-6.95239" y="15.0957" width="85.5238" height="85.5238" stroke="white" stroke-opacity="0.02" stroke-width="1.71048"/>
<rect x="78.5714" y="15.0957" width="85.5238" height="85.5238" fill="white" fill-opacity="0.03" stroke="white" stroke-opacity="0.02" stroke-width="1.71048"/>
<rect x="164.095" y="15.0957" width="85.5238" height="85.5238" stroke="white" stroke-opacity="0.02" stroke-width="1.71048"/>
<rect x="249.619" y="15.0957" width="85.5238" height="85.5238" stroke="white" stroke-opacity="0.02" stroke-width="1.71048"/>
<rect x="335.143" y="15.0957" width="85.5238" height="85.5238" stroke="white" stroke-opacity="0.02" stroke-width="1.71048"/>
<rect x="420.667" y="15.0957" width="85.5238" height="85.5238" stroke="white" stroke-opacity="0.02" stroke-width="1.71048"/>
<rect x="506.19" y="15.0957" width="85.5238" height="85.5238" stroke="white" stroke-opacity="0.02" stroke-width="1.71048"/>
<rect x="591.714" y="15.0957" width="85.5238" height="85.5238" stroke="white" stroke-opacity="0.02" stroke-width="1.71048"/>
<rect x="677.238" y="15.0957" width="85.5238" height="85.5238" stroke="white" stroke-opacity="0.02" stroke-width="1.71048"/>
<rect x="762.762" y="15.0957" width="85.5238" height="85.5238" stroke="white" stroke-opacity="0.02" stroke-width="1.71048"/>
<rect x="848.286" y="15.0957" width="85.5238" height="85.5238" fill="white" fill-opacity="0.03" stroke="white" stroke-opacity="0.02" stroke-width="1.71048"/>
<rect x="933.81" y="15.0957" width="85.5238" height="85.5238" stroke="white" stroke-opacity="0.02" stroke-width="1.71048"/>
<rect x="1019.33" y="15.0957" width="85.5238" height="85.5238" stroke="white" stroke-opacity="0.02" stroke-width="1.71048"/>
<rect x="1104.86" y="15.0957" width="85.5238" height="85.5238" stroke="white" stroke-opacity="0.02" stroke-width="1.71048"/>
<rect x="1190.38" y="15.0957" width="85.5238" height="85.5238" stroke="white" stroke-opacity="0.02" stroke-width="1.71048"/>
<rect x="1275.9" y="15.0957" width="85.5238" height="85.5238" stroke="white" stroke-opacity="0.02" stroke-width="1.71048"/>
<rect x="1361.43" y="15.0957" width="85.5238" height="85.5238" stroke="white" stroke-opacity="0.02" stroke-width="1.71048"/>
<rect x="-6.95239" y="100.62" width="85.5238" height="85.5238" stroke="white" stroke-opacity="0.02" stroke-width="1.71048"/>
<rect x="78.5714" y="100.62" width="85.5238" height="85.5238" stroke="white" stroke-opacity="0.02" stroke-width="1.71048"/>
<rect x="164.095" y="100.62" width="85.5238" height="85.5238" stroke="white" stroke-opacity="0.02" stroke-width="1.71048"/>
<rect x="249.619" y="100.62" width="85.5238" height="85.5238" stroke="white" stroke-opacity="0.02" stroke-width="1.71048"/>
<rect x="335.143" y="100.62" width="85.5238" height="85.5238" stroke="white" stroke-opacity="0.02" stroke-width="1.71048"/>
<rect x="420.667" y="100.62" width="85.5238" height="85.5238" stroke="white" stroke-opacity="0.02" stroke-width="1.71048"/>
<rect x="506.19" y="100.62" width="85.5238" height="85.5238" stroke="white" stroke-opacity="0.02" stroke-width="1.71048"/>
<rect x="591.714" y="100.62" width="85.5238" height="85.5238" stroke="white" stroke-opacity="0.02" stroke-width="1.71048"/>
<rect x="677.238" y="100.62" width="85.5238" height="85.5238" stroke="white" stroke-opacity="0.02" stroke-width="1.71048"/>
<rect x="762.762" y="100.62" width="85.5238" height="85.5238" stroke="white" stroke-opacity="0.02" stroke-width="1.71048"/>
<rect x="848.286" y="100.62" width="85.5238" height="85.5238" stroke="white" stroke-opacity="0.02" stroke-width="1.71048"/>
<rect x="933.81" y="100.62" width="85.5238" height="85.5238" stroke="white" stroke-opacity="0.02" stroke-width="1.71048"/>
<rect x="1019.33" y="100.62" width="85.5238" height="85.5238" stroke="white" stroke-opacity="0.02" stroke-width="1.71048"/>
<rect x="1104.86" y="100.62" width="85.5238" height="85.5238" stroke="white" stroke-opacity="0.02" stroke-width="1.71048"/>
<rect x="1190.38" y="100.62" width="85.5238" height="85.5238" stroke="white" stroke-opacity="0.02" stroke-width="1.71048"/>
<rect x="1275.9" y="100.62" width="85.5238" height="85.5238" stroke="white" stroke-opacity="0.02" stroke-width="1.71048"/>
<rect x="1361.43" y="100.62" width="85.5238" height="85.5238" fill="white" fill-opacity="0.03" stroke="white" stroke-opacity="0.02" stroke-width="1.71048"/>
<rect x="-6.95239" y="186.144" width="85.5238" height="85.5238" stroke="white" stroke-opacity="0.02" stroke-width="1.71048"/>
<rect x="78.5714" y="186.144" width="85.5238" height="85.5238" stroke="white" stroke-opacity="0.02" stroke-width="1.71048"/>
<rect x="164.095" y="186.144" width="85.5238" height="85.5238" stroke="white" stroke-opacity="0.02" stroke-width="1.71048"/>
<rect x="249.619" y="186.144" width="85.5238" height="85.5238" stroke="white" stroke-opacity="0.02" stroke-width="1.71048"/>
<rect x="335.143" y="186.144" width="85.5238" height="85.5238" stroke="white" stroke-opacity="0.02" stroke-width="1.71048"/>
<rect x="420.667" y="186.144" width="85.5238" height="85.5238" stroke="white" stroke-opacity="0.02" stroke-width="1.71048"/>
<rect x="506.19" y="186.144" width="85.5238" height="85.5238" stroke="white" stroke-opacity="0.02" stroke-width="1.71048"/>
<rect x="591.714" y="186.144" width="85.5238" height="85.5238" stroke="white" stroke-opacity="0.02" stroke-width="1.71048"/>
<rect x="677.238" y="186.144" width="85.5238" height="85.5238" stroke="white" stroke-opacity="0.02" stroke-width="1.71048"/>
<rect x="762.762" y="186.144" width="85.5238" height="85.5238" stroke="white" stroke-opacity="0.02" stroke-width="1.71048"/>
<rect x="848.286" y="186.144" width="85.5238" height="85.5238" stroke="white" stroke-opacity="0.02" stroke-width="1.71048"/>
<rect x="933.81" y="186.144" width="85.5238" height="85.5238" stroke="white" stroke-opacity="0.02" stroke-width="1.71048"/>
<rect x="1019.33" y="186.144" width="85.5238" height="85.5238" stroke="white" stroke-opacity="0.02" stroke-width="1.71048"/>
<rect x="1104.86" y="186.144" width="85.5238" height="85.5238" stroke="white" stroke-opacity="0.02" stroke-width="1.71048"/>
<rect x="1190.38" y="186.144" width="85.5238" height="85.5238" stroke="white" stroke-opacity="0.02" stroke-width="1.71048"/>
<rect x="1275.9" y="186.144" width="85.5238" height="85.5238" stroke="white" stroke-opacity="0.02" stroke-width="1.71048"/>
<rect x="1361.43" y="186.144" width="85.5238" height="85.5238" stroke="white" stroke-opacity="0.02" stroke-width="1.71048"/>
<rect x="-6.95239" y="271.667" width="85.5238" height="85.5238" stroke="white" stroke-opacity="0.02" stroke-width="1.71048"/>
<rect x="78.5714" y="271.667" width="85.5238" height="85.5238" stroke="white" stroke-opacity="0.02" stroke-width="1.71048"/>
<rect x="164.095" y="271.667" width="85.5238" height="85.5238" stroke="white" stroke-opacity="0.02" stroke-width="1.71048"/>
<rect x="249.619" y="271.667" width="85.5238" height="85.5238" stroke="white" stroke-opacity="0.02" stroke-width="1.71048"/>
<rect x="335.143" y="271.667" width="85.5238" height="85.5238" stroke="white" stroke-opacity="0.02" stroke-width="1.71048"/>
<rect x="420.667" y="271.667" width="85.5238" height="85.5238" stroke="white" stroke-opacity="0.02" stroke-width="1.71048"/>
<rect x="506.19" y="271.667" width="85.5238" height="85.5238" fill="white" fill-opacity="0.03" stroke="white" stroke-opacity="0.02" stroke-width="1.71048"/>
<rect x="591.714" y="271.667" width="85.5238" height="85.5238" stroke="white" stroke-opacity="0.02" stroke-width="1.71048"/>
<rect x="677.238" y="271.667" width="85.5238" height="85.5238" stroke="white" stroke-opacity="0.02" stroke-width="1.71048"/>
<rect x="762.762" y="271.667" width="85.5238" height="85.5238" stroke="white" stroke-opacity="0.02" stroke-width="1.71048"/>
<rect x="848.286" y="271.667" width="85.5238" height="85.5238" stroke="white" stroke-opacity="0.02" stroke-width="1.71048"/>
<rect x="933.81" y="271.667" width="85.5238" height="85.5238" stroke="white" stroke-opacity="0.02" stroke-width="1.71048"/>
<rect x="1019.33" y="271.667" width="85.5238" height="85.5238" stroke="white" stroke-opacity="0.02" stroke-width="1.71048"/>
<rect x="1104.86" y="271.667" width="85.5238" height="85.5238" stroke="white" stroke-opacity="0.02" stroke-width="1.71048"/>
<rect x="1190.38" y="271.667" width="85.5238" height="85.5238" stroke="white" stroke-opacity="0.02" stroke-width="1.71048"/>
<rect x="1275.9" y="271.667" width="85.5238" height="85.5238" stroke="white" stroke-opacity="0.02" stroke-width="1.71048"/>
<rect x="1361.43" y="271.667" width="85.5238" height="85.5238" stroke="white" stroke-opacity="0.02" stroke-width="1.71048"/>
<rect x="-6.95239" y="357.191" width="85.5238" height="85.5238" stroke="white" stroke-opacity="0.02" stroke-width="1.71048"/>
<rect x="78.5714" y="357.191" width="85.5238" height="85.5238" stroke="white" stroke-opacity="0.02" stroke-width="1.71048"/>
<rect x="164.095" y="357.191" width="85.5238" height="85.5238" fill="white" fill-opacity="0.03" stroke="white" stroke-opacity="0.02" stroke-width="1.71048"/>
<rect x="249.619" y="357.191" width="85.5238" height="85.5238" stroke="white" stroke-opacity="0.02" stroke-width="1.71048"/>
<rect x="335.143" y="357.191" width="85.5238" height="85.5238" stroke="white" stroke-opacity="0.02" stroke-width="1.71048"/>
<rect x="420.667" y="357.191" width="85.5238" height="85.5238" stroke="white" stroke-opacity="0.02" stroke-width="1.71048"/>
<rect x="506.19" y="357.191" width="85.5238" height="85.5238" stroke="white" stroke-opacity="0.02" stroke-width="1.71048"/>
<rect x="591.714" y="357.191" width="85.5238" height="85.5238" stroke="white" stroke-opacity="0.02" stroke-width="1.71048"/>
<rect x="677.238" y="357.191" width="85.5238" height="85.5238" stroke="white" stroke-opacity="0.02" stroke-width="1.71048"/>
<rect x="762.762" y="357.191" width="85.5238" height="85.5238" stroke="white" stroke-opacity="0.02" stroke-width="1.71048"/>
<rect x="848.286" y="357.191" width="85.5238" height="85.5238" stroke="white" stroke-opacity="0.02" stroke-width="1.71048"/>
<rect x="933.81" y="357.191" width="85.5238" height="85.5238" stroke="white" stroke-opacity="0.02" stroke-width="1.71048"/>
<rect x="1019.33" y="357.191" width="85.5238" height="85.5238" stroke="white" stroke-opacity="0.02" stroke-width="1.71048"/>
<rect x="1104.86" y="357.191" width="85.5238" height="85.5238" stroke="white" stroke-opacity="0.02" stroke-width="1.71048"/>
<rect x="1190.38" y="357.191" width="85.5238" height="85.5238" stroke="white" stroke-opacity="0.02" stroke-width="1.71048"/>
<rect x="1275.9" y="357.191" width="85.5238" height="85.5238" stroke="white" stroke-opacity="0.02" stroke-width="1.71048"/>
<rect x="1361.43" y="357.191" width="85.5238" height="85.5238" stroke="white" stroke-opacity="0.02" stroke-width="1.71048"/>
<rect x="-6.95239" y="442.712" width="85.5238" height="85.5238" stroke="white" stroke-opacity="0.02" stroke-width="1.71048"/>
<rect x="78.5714" y="442.712" width="85.5238" height="85.5238" stroke="white" stroke-opacity="0.02" stroke-width="1.71048"/>
<rect x="164.095" y="442.712" width="85.5238" height="85.5238" stroke="white" stroke-opacity="0.02" stroke-width="1.71048"/>
<rect x="249.619" y="442.712" width="85.5238" height="85.5238" stroke="white" stroke-opacity="0.02" stroke-width="1.71048"/>
<rect x="335.143" y="442.712" width="85.5238" height="85.5238" stroke="white" stroke-opacity="0.02" stroke-width="1.71048"/>
<rect x="420.667" y="442.712" width="85.5238" height="85.5238" stroke="white" stroke-opacity="0.02" stroke-width="1.71048"/>
<rect x="506.19" y="442.712" width="85.5238" height="85.5238" stroke="white" stroke-opacity="0.02" stroke-width="1.71048"/>
<rect x="591.714" y="442.712" width="85.5238" height="85.5238" stroke="white" stroke-opacity="0.02" stroke-width="1.71048"/>
<rect x="677.238" y="442.712" width="85.5238" height="85.5238" stroke="white" stroke-opacity="0.02" stroke-width="1.71048"/>
<rect x="762.762" y="442.712" width="85.5238" height="85.5238" stroke="white" stroke-opacity="0.02" stroke-width="1.71048"/>
<rect x="848.286" y="442.712" width="85.5238" height="85.5238" stroke="white" stroke-opacity="0.02" stroke-width="1.71048"/>
<rect x="933.81" y="442.712" width="85.5238" height="85.5238" stroke="white" stroke-opacity="0.02" stroke-width="1.71048"/>
<rect x="1019.33" y="442.712" width="85.5238" height="85.5238" stroke="white" stroke-opacity="0.02" stroke-width="1.71048"/>
<rect x="1104.86" y="442.712" width="85.5238" height="85.5238" stroke="white" stroke-opacity="0.02" stroke-width="1.71048"/>
<rect x="1190.38" y="442.712" width="85.5238" height="85.5238" stroke="white" stroke-opacity="0.02" stroke-width="1.71048"/>
<rect x="1275.9" y="442.712" width="85.5238" height="85.5238" stroke="white" stroke-opacity="0.02" stroke-width="1.71048"/>
<rect x="1361.43" y="442.712" width="85.5238" height="85.5238" stroke="white" stroke-opacity="0.02" stroke-width="1.71048"/>
<rect x="-6.95239" y="528.239" width="85.5238" height="85.5238" stroke="white" stroke-opacity="0.02" stroke-width="1.71048"/>
<rect x="78.5714" y="528.239" width="85.5238" height="85.5238" stroke="white" stroke-opacity="0.02" stroke-width="1.71048"/>
<rect x="164.095" y="528.239" width="85.5238" height="85.5238" stroke="white" stroke-opacity="0.02" stroke-width="1.71048"/>
<rect x="249.619" y="528.239" width="85.5238" height="85.5238" stroke="white" stroke-opacity="0.02" stroke-width="1.71048"/>
<rect x="335.143" y="528.239" width="85.5238" height="85.5238" stroke="white" stroke-opacity="0.02" stroke-width="1.71048"/>
<rect x="420.667" y="528.239" width="85.5238" height="85.5238" stroke="white" stroke-opacity="0.02" stroke-width="1.71048"/>
<rect x="506.19" y="528.239" width="85.5238" height="85.5238" stroke="white" stroke-opacity="0.02" stroke-width="1.71048"/>
<rect x="591.714" y="528.239" width="85.5238" height="85.5238" stroke="white" stroke-opacity="0.02" stroke-width="1.71048"/>
<rect x="677.238" y="528.239" width="85.5238" height="85.5238" stroke="white" stroke-opacity="0.02" stroke-width="1.71048"/>
<rect x="762.762" y="528.239" width="85.5238" height="85.5238" stroke="white" stroke-opacity="0.02" stroke-width="1.71048"/>
<rect x="848.286" y="528.239" width="85.5238" height="85.5238" stroke="white" stroke-opacity="0.02" stroke-width="1.71048"/>
<rect x="933.81" y="528.239" width="85.5238" height="85.5238" stroke="white" stroke-opacity="0.02" stroke-width="1.71048"/>
<rect x="1019.33" y="528.239" width="85.5238" height="85.5238" stroke="white" stroke-opacity="0.02" stroke-width="1.71048"/>
<rect x="1104.86" y="528.239" width="85.5238" height="85.5238" stroke="white" stroke-opacity="0.02" stroke-width="1.71048"/>
<rect x="1190.38" y="528.239" width="85.5238" height="85.5238" stroke="white" stroke-opacity="0.02" stroke-width="1.71048"/>
<rect x="1275.9" y="528.239" width="85.5238" height="85.5238" stroke="white" stroke-opacity="0.02" stroke-width="1.71048"/>
<rect x="1361.43" y="528.239" width="85.5238" height="85.5238" stroke="white" stroke-opacity="0.02" stroke-width="1.71048"/>
<rect x="-6.95239" y="613.76" width="85.5238" height="85.5238" stroke="white" stroke-opacity="0.02" stroke-width="1.71048"/>
<rect x="78.5714" y="613.76" width="85.5238" height="85.5238" stroke="white" stroke-opacity="0.02" stroke-width="1.71048"/>
<rect x="164.095" y="613.76" width="85.5238" height="85.5238" stroke="white" stroke-opacity="0.02" stroke-width="1.71048"/>
<rect x="249.619" y="613.76" width="85.5238" height="85.5238" stroke="white" stroke-opacity="0.02" stroke-width="1.71048"/>
<rect x="335.143" y="613.76" width="85.5238" height="85.5238" stroke="white" stroke-opacity="0.02" stroke-width="1.71048"/>
<rect x="420.667" y="613.76" width="85.5238" height="85.5238" stroke="white" stroke-opacity="0.02" stroke-width="1.71048"/>
<rect x="506.19" y="613.76" width="85.5238" height="85.5238" stroke="white" stroke-opacity="0.02" stroke-width="1.71048"/>
<rect x="591.714" y="613.76" width="85.5238" height="85.5238" stroke="white" stroke-opacity="0.02" stroke-width="1.71048"/>
<rect x="677.238" y="613.76" width="85.5238" height="85.5238" stroke="white" stroke-opacity="0.02" stroke-width="1.71048"/>
<rect x="762.762" y="613.76" width="85.5238" height="85.5238" stroke="white" stroke-opacity="0.02" stroke-width="1.71048"/>
<rect x="848.286" y="613.76" width="85.5238" height="85.5238" stroke="white" stroke-opacity="0.02" stroke-width="1.71048"/>
<rect x="933.81" y="613.76" width="85.5238" height="85.5238" stroke="white" stroke-opacity="0.02" stroke-width="1.71048"/>
<rect x="1019.33" y="613.76" width="85.5238" height="85.5238" stroke="white" stroke-opacity="0.02" stroke-width="1.71048"/>
<rect x="1104.86" y="613.76" width="85.5238" height="85.5238" stroke="white" stroke-opacity="0.02" stroke-width="1.71048"/>
<rect x="1190.38" y="613.76" width="85.5238" height="85.5238" stroke="white" stroke-opacity="0.02" stroke-width="1.71048"/>
<rect x="1275.9" y="613.76" width="85.5238" height="85.5238" stroke="white" stroke-opacity="0.02" stroke-width="1.71048"/>
<rect x="1361.43" y="613.76" width="85.5238" height="85.5238" stroke="white" stroke-opacity="0.02" stroke-width="1.71048"/>
</svg>
